<svg width="395" height="433" viewBox="0 0 395 433" fill="none" xmlns="http://www.w3.org/2000/svg">
<path d="M181.368 309.344C128.672 301.29 89.2588 254.485 89.2588 199.407C89.2588 148.248 122.792 104.056 170.915 92.0826L173.529 91.4295V57.4688L169.609 58.3395C104.501 71.619 57.25 131.05 57.25 199.407C57.25 278.867 120.179 343.305 197.481 343.305C206.191 343.305 213.377 335.904 213.377 326.978V92.0826C266.291 100.137 305.486 146.725 305.486 202.02C305.486 253.179 271.734 297.371 223.393 309.562L220.781 310.215V338.951L221.652 343.741L224.918 343.088C290.243 329.808 337.495 270.377 337.495 202.02C337.495 122.56 274.565 57.9041 197.264 57.9041C188.336 57.9041 181.368 65.0881 181.368 74.4491V309.127V309.344Z" fill="#F8F8FB"/>
<path d="M395 202.241C395 94.6983 313.561 7.18401 210.783 0V36.5732C293.964 43.5395 359.507 115.162 359.507 202.459C359.507 289.755 293.964 361.378 210.783 368.344C206.428 368.779 202.072 368.997 197.5 368.997C192.927 368.997 188.572 368.779 184.217 368.344C101.036 361.378 35.4935 289.755 35.4935 202.459C35.4935 115.162 101.036 43.7572 184.217 36.5732V0C81.4387 7.18401 0 94.6983 0 202.241C0 293.674 58.7929 370.956 139.578 396.427H9.14517V433H385.855V396.427H255.422C336.207 370.956 395 293.674 395 202.241Z" fill="#F8F8FB"/>
</svg>
