<svg width="270" height="45" viewBox="0 0 270 45" fill="none" xmlns="http://www.w3.org/2000/svg">
<path d="M50.9688 13.6869H60.5793V16.4697H56.9838V29.9765H54.5643V16.4697H50.9688V13.6869ZM64.1069 29.9765H61.71V13.6869H64.0391V19.9086H64.1296C64.5366 18.4833 65.4185 17.6009 66.7527 17.6009C68.5844 17.6009 69.8055 19.3204 69.8055 22.1937V29.9765H67.4085V22.7819C67.4085 21.2661 66.8205 20.3837 65.8256 20.3837C64.8306 20.3837 64.1069 21.3113 64.1069 22.9177V29.9765ZM70.9813 23.9131C70.9813 20.1348 72.6547 17.5783 75.2326 17.5783C77.5618 17.5783 79.3708 19.6145 79.3708 23.7774V24.7276H73.3558C73.3558 26.5828 74.1472 27.714 75.3909 27.714C76.205 27.714 76.7929 27.2163 77.0191 26.4697H79.3029C78.9637 28.7321 77.4939 30.2027 75.3231 30.2027C72.6321 30.2027 70.9813 27.7819 70.9813 23.9131ZM77.0869 22.6235C77.0869 21.1303 76.3406 20.0896 75.2778 20.0896C74.215 20.0896 73.401 21.2208 73.3558 22.6235H77.1095H77.0869ZM84.0517 13.6643H88.6648C91.3331 13.6643 92.8708 15.9267 92.8708 19.162C92.8708 22.3973 91.3105 24.6597 88.597 24.6597H86.494V29.9765H84.0517V13.6869V13.6643ZM88.2125 21.9222C89.6597 21.9222 90.3608 20.791 90.3608 19.162C90.3608 17.533 89.6597 16.4471 88.2125 16.4471H86.494V21.9448H88.2125V21.9222ZM93.5266 23.8905C93.5266 20.1122 95.1774 17.5783 97.8457 17.5783C100.514 17.5783 102.187 20.1122 102.187 23.8905C102.187 27.6688 100.514 30.2027 97.8457 30.2027C95.1774 30.2027 93.5266 27.6688 93.5266 23.8905ZM99.7226 23.8905C99.7226 21.7186 99.0894 20.1348 97.8457 20.1348C96.602 20.1348 95.9462 21.7412 95.9462 23.8905C95.9462 26.0398 96.602 27.6235 97.8457 27.6235C99.0894 27.6235 99.7226 26.0172 99.7226 23.8905ZM105.738 29.9765H103.341V13.6869H105.738V29.9765ZM107.456 34.5014V31.9222C107.773 31.9448 108.112 31.9674 108.429 31.9674C108.903 31.9674 109.288 31.8995 109.582 30.8362L109.718 30.3158L106.552 17.7593H109.062L110.916 26.7638H111.007L112.861 17.7593H115.416L111.979 31.3339C111.481 33.2796 110.509 34.5692 108.655 34.5692C108.18 34.5692 107.75 34.5692 107.434 34.5014M116.253 17.7593H118.537V19.886H118.627C119.012 18.4606 119.893 17.5783 121.069 17.5783C122.245 17.5783 123.172 18.4606 123.466 19.886H123.557C123.919 18.4833 124.914 17.5783 126.225 17.5783C127.853 17.5783 129.007 19.0941 129.007 21.7412V29.9538H126.61V22.3973C126.61 20.9946 126.022 20.3385 125.23 20.3385C124.326 20.3385 123.806 21.2208 123.806 22.5104V29.9765H121.476V22.3294C121.476 21.1077 120.934 20.3385 120.12 20.3385C119.306 20.3385 118.672 21.2434 118.672 22.6235V29.9538H116.275V17.7367L116.253 17.7593ZM130.16 23.9358C130.16 20.1575 131.833 17.6009 134.411 17.6009C136.74 17.6009 138.549 19.6371 138.549 23.8V24.7502H132.534C132.534 26.6054 133.326 27.7367 134.569 27.7367C135.383 27.7367 135.971 27.2389 136.197 26.4923H138.481C138.142 28.7548 136.695 30.2253 134.501 30.2253C131.811 30.2253 130.16 27.8045 130.16 23.9358ZM136.265 22.6462C136.265 21.1529 135.519 20.1122 134.456 20.1122C133.393 20.1122 132.579 21.2434 132.534 22.6462H136.288H136.265ZM139.703 17.7593H142.032V19.8634H142.122C142.439 18.3475 143.253 17.5783 144.248 17.5783C144.496 17.5783 144.79 17.6235 145.017 17.6914V20.6552C144.79 20.5647 144.338 20.4742 143.999 20.4742C142.914 20.4742 142.122 21.5376 142.122 23.0082V29.9538H139.725V17.7367L139.703 17.7593ZM153.723 16.2887C152.502 16.2887 151.801 17.0806 151.801 18.1665C151.801 19.343 152.682 19.886 153.677 20.1801L154.74 20.5421C156.753 21.1756 158.268 22.5783 158.268 25.3158C158.268 28.3023 156.572 30.2027 153.723 30.2027C150.873 30.2027 149.064 28.3701 148.996 24.886H151.371C151.461 26.5376 152.388 27.352 153.7 27.352C155.012 27.352 155.803 26.5149 155.803 25.2932C155.803 24.1846 155.079 23.6869 153.79 23.2118L152.502 22.7819C150.534 22.1032 149.313 20.7457 149.313 18.3475C149.313 15.3837 151.19 13.4154 153.768 13.4154C156.346 13.4154 158.087 15.4063 158.11 18.3023H155.78C155.69 17.0127 154.944 16.2661 153.745 16.2661M159.127 23.8679C159.127 20.0896 160.778 17.5557 163.446 17.5557C166.115 17.5557 167.765 20.0896 167.765 23.8679C167.765 27.6462 166.092 30.1801 163.446 30.1801C160.801 30.1801 159.127 27.6462 159.127 23.8679ZM165.323 23.8679C165.323 21.6959 164.69 20.1122 163.446 20.1122C162.203 20.1122 161.547 21.7186 161.547 23.8679C161.547 26.0172 162.203 27.6009 163.446 27.6009C164.69 27.6009 165.323 25.9946 165.323 23.8679ZM168.579 23.8679C168.579 20.1348 170.208 17.5557 172.899 17.5557C175.16 17.5557 176.72 19.4109 176.811 22.1937H174.549C174.414 20.9719 173.826 20.1348 172.921 20.1348C171.768 20.1348 170.999 21.4923 170.999 23.8C170.999 26.1077 171.745 27.5104 172.921 27.5104C173.758 27.5104 174.391 26.7864 174.549 25.4742H176.811C176.698 28.2344 175.228 30.1575 172.899 30.1575C170.208 30.1575 168.579 27.5783 168.579 23.8453M177.828 14.4109C177.828 13.4606 178.416 12.6914 179.14 12.6914C179.863 12.6914 180.429 13.4606 180.429 14.4109C180.429 15.3611 179.841 16.1077 179.14 16.1077C178.439 16.1077 177.828 15.3385 177.828 14.4109ZM177.941 17.6914H180.338V29.9086H177.941V17.6914ZM181.514 23.8679C181.514 20.0896 183.187 17.533 185.765 17.533C188.095 17.533 189.904 19.5692 189.904 23.7321V24.6824H183.888C183.888 26.5376 184.68 27.6688 185.924 27.6688C186.738 27.6688 187.326 27.171 187.552 26.4244H189.836C189.497 28.6869 188.027 30.1575 185.856 30.1575C183.165 30.1575 181.514 27.7367 181.514 23.8679ZM187.62 22.5783C187.62 21.0851 186.873 20.0443 185.811 20.0443C184.748 20.0443 183.934 21.1756 183.888 22.5783H187.642H187.62ZM195.692 20.2027H194.042V26.1756C194.042 27.1484 194.381 27.3973 194.878 27.4199C195.127 27.4199 195.534 27.4199 195.828 27.352V29.9765C195.579 30.0443 195.15 30.0896 194.539 30.0896C192.798 30.0896 191.622 29.0036 191.645 26.6507V20.2253H190.424V17.7367H191.645V14.8181H194.042V17.7367H195.692V20.2253V20.2027ZM197.049 34.4561V31.8769C197.366 31.8995 197.705 31.9222 198.022 31.9222C198.497 31.9222 198.881 31.8543 199.175 30.791L199.311 30.2706L196.145 17.714H198.655L200.509 26.7186H200.6L202.454 17.714H205.009L201.572 31.2887C201.074 33.2344 200.102 34.524 198.248 34.524C197.773 34.524 197.343 34.524 197.027 34.4561M208.966 23.8453C208.966 20.067 210.617 17.533 213.285 17.533C215.954 17.533 217.605 20.067 217.605 23.8453C217.605 27.6235 215.931 30.1575 213.285 30.1575C210.64 30.1575 208.966 27.6235 208.966 23.8453ZM215.162 23.8453C215.162 21.6733 214.529 20.0896 213.308 20.0896C212.087 20.0896 211.409 21.6959 211.409 23.8453C211.409 25.9946 212.064 27.5783 213.308 27.5783C214.552 27.5783 215.162 25.9719 215.162 23.8453ZM223.461 20.2027H221.72V29.9312H219.323V20.2027H218.079V17.714H219.323V16.7864C219.323 14.2299 220.454 12.8724 222.218 12.8724C222.76 12.8724 223.213 12.9403 223.642 13.076V15.61C223.303 15.5647 223.054 15.5421 222.919 15.5421C222.15 15.5421 221.743 15.972 221.743 16.9901V17.7367H223.484V20.2253L223.461 20.2027ZM228.074 13.619H230.517V20.8362H230.675L234.949 13.619H237.889L233.502 20.9041L237.934 29.9086H235.017L231.76 23.1665L230.517 25.248V29.9086H228.074V13.619ZM237.708 23.8453C237.708 20.067 239.358 17.533 242.027 17.533C244.695 17.533 246.346 20.067 246.346 23.8453C246.346 27.6235 244.672 30.1575 242.027 30.1575C239.381 30.1575 237.708 27.6235 237.708 23.8453ZM243.904 23.8453C243.904 21.6733 243.27 20.0896 242.027 20.0896C240.783 20.0896 240.127 21.6959 240.127 23.8453C240.127 25.9946 240.783 27.5783 242.027 27.5783C243.27 27.5783 243.904 25.9719 243.904 23.8453ZM247.522 17.6914H249.851V19.7955H249.941C250.258 18.2796 251.072 17.5104 252.067 17.5104C252.316 17.5104 252.61 17.5557 252.836 17.6235V20.5873C252.61 20.4968 252.157 20.4063 251.818 20.4063C250.733 20.4063 249.941 21.4697 249.941 22.9403V29.886H247.544V17.6688L247.522 17.6914ZM253.017 23.8679C253.017 20.0896 254.69 17.533 257.268 17.533C259.597 17.533 261.406 19.5692 261.406 23.7321V24.6824H255.391C255.391 26.5376 256.183 27.6688 257.426 27.6688C258.24 27.6688 258.828 27.171 259.054 26.4244H261.338C260.999 28.6869 259.529 30.1575 257.358 30.1575C254.667 30.1575 253.017 27.7367 253.017 23.8679ZM259.122 22.5783C259.122 21.0851 258.376 20.0443 257.313 20.0443C256.25 20.0443 255.436 21.1756 255.391 22.5783H259.145H259.122ZM265.409 22.7367C266.042 22.6914 267.218 22.6009 267.602 22.5783V21.5828C267.602 20.5647 267.082 19.9538 266.2 19.9538C265.386 19.9538 264.866 20.4742 264.73 21.3113H262.446C262.582 19.1846 263.916 17.533 266.268 17.533C268.19 17.533 269.999 18.7321 269.999 21.6733V29.9086H267.738V28.2118H267.67C267.24 29.343 266.404 30.1348 265.092 30.1348C263.396 30.1348 262.152 28.9131 262.152 26.4923C262.152 23.7774 263.735 22.8724 265.431 22.7367M265.77 27.8498C266.856 27.8498 267.647 26.8317 267.625 25.5421V24.6371C267.263 24.6597 266.245 24.7276 265.816 24.7955C264.979 24.9086 264.459 25.4516 264.459 26.4018C264.459 27.352 265.002 27.8498 265.77 27.8498Z" fill="#222222"/>
<path d="M18.8366 32.1491C13.3642 31.312 9.2712 26.4478 9.2712 20.7238C9.2712 15.407 12.7536 10.8143 17.7511 9.56994L18.0225 9.50206V5.97266L17.6154 6.06315C10.8541 7.44324 5.94714 13.6197 5.94714 20.7238C5.94714 28.9817 12.4823 35.6785 20.5099 35.6785C21.4144 35.6785 22.1607 34.9093 22.1607 33.9817V9.56994C27.6557 10.407 31.726 15.2487 31.726 20.9953C31.726 26.312 28.221 30.9048 23.2009 32.1717L22.9295 32.2396V35.226L23.02 35.7238L23.3592 35.6559C30.1431 34.2758 35.0502 28.0993 35.0502 20.9953C35.0502 12.7374 28.515 6.0179 20.4873 6.0179C19.5602 6.0179 18.8366 6.76451 18.8366 7.73736V32.1265V32.1491Z" fill="#44528B"/>
<path d="M41.0201 21.0181C41.0201 9.84163 32.5628 0.746606 21.8894 0V3.8009C30.5276 4.52489 37.3342 11.9683 37.3342 21.0407C37.3342 30.1131 30.5276 37.5566 21.8894 38.2805C21.4372 38.3258 20.9849 38.3484 20.51 38.3484C20.0351 38.3484 19.5829 38.3258 19.1306 38.2805C10.4925 37.5566 3.68594 30.1131 3.68594 21.0407C3.68594 11.9683 10.4925 4.54751 19.1306 3.8009V0C8.45727 0.746606 0 9.84163 0 21.0181C0 30.5204 6.10554 38.552 14.495 41.1991H0.949711V45H40.0704V41.1991H26.5251C34.9146 38.552 41.0201 30.5204 41.0201 21.0181Z" fill="#44528B"/>
</svg>
