<svg width="24" height="24" viewBox="0 0 24 24" fill="none" xmlns="http://www.w3.org/2000/svg">
<path d="M22 5.62388C22 4.1755 20.8158 3 19.3566 3H4.6434C3.18425 3 2 4.1755 2 5.62388V7.51832H22V5.62388Z" stroke="#0089D0" stroke-width="1.5" stroke-linecap="round" stroke-linejoin="round"/>
<path d="M22 7.51953H2V18.3771C2 19.1013 2.29606 19.7573 2.77187 20.2348C3.25297 20.7071 3.91382 21.001 4.6434 21.001H19.3566C20.0862 21.001 20.747 20.7071 21.2281 20.2348C21.7039 19.7626 22 19.1066 22 18.3771V15.5748" stroke="#0089D0" stroke-width="1.5" stroke-linecap="round" stroke-linejoin="round"/>
<path d="M12.0928 10.2695L10.2266 12.122H21.4399" stroke="#0089D0" stroke-width="1.5" stroke-linecap="round" stroke-linejoin="round"/>
<path d="M4.98438 16.3633V17.1032" stroke="#0089D0" stroke-width="1.5" stroke-linecap="round" stroke-linejoin="round"/>
<path d="M8.35156 16.3633V17.1032" stroke="#0089D0" stroke-width="1.5" stroke-linecap="round" stroke-linejoin="round"/>
<path d="M11.7109 16.3633V17.1032" stroke="#0089D0" stroke-width="1.5" stroke-linecap="round" stroke-linejoin="round"/>
</svg>
