<svg width="16" height="16" viewBox="0 0 16 16" fill="none" xmlns="http://www.w3.org/2000/svg">
<path d="M11.0638 0.691424L15.2949 4.9225C15.4251 5.05267 15.4251 5.26372 15.2949 5.3939C15.2449 5.44384 15.1805 5.47662 15.1107 5.48753L14.1279 5.64117L10.3567 1.86994L10.4981 0.879984C10.5242 0.697744 10.693 0.571108 10.8753 0.597142C10.9467 0.607342 11.0128 0.640424 11.0638 0.691424ZM3.06292 13.4323C5.54451 11.2113 8.39294 10.5471 11.4916 9.75195L11.7892 7.07368L8.92428 4.20869L6.24592 4.50628C5.45084 7.60495 4.7866 10.4534 2.56558 12.935L1.63574 12.0051C3.52136 9.80522 4.22847 7.36968 5.17128 3.28415L9.41394 2.81274L13.1852 6.58401L12.7137 10.8266C8.62828 11.7694 6.19266 12.4766 3.99277 14.3622L3.06292 13.4323ZM6.58549 9.41242C6.06479 8.89168 6.06479 8.04748 6.58549 7.52682C7.10621 7.00608 7.95041 7.00608 8.47108 7.52682C8.99181 8.04748 8.99181 8.89168 8.47108 9.41242C7.95041 9.93308 7.10621 9.93308 6.58549 9.41242Z" fill="white"/>
</svg>
