<svg width="32" height="28" viewBox="0 0 32 28" fill="none" xmlns="http://www.w3.org/2000/svg">
<g clip-path="url(#clip0_3_16257)">
<path d="M6.34522 26.9913C5.71201 26.9913 5.10568 26.7228 4.67956 26.2554C4.25443 25.7901 4.04336 25.1607 4.1021 24.5302L4.41771 21.1813C2.22139 18.9847 1.01172 16.2045 1.01172 13.3438C1.01172 6.54139 7.73609 1.00781 16.0007 1.00781C24.2653 1.00781 30.9916 6.54139 30.9916 13.3438C30.9916 20.1461 24.2672 25.6787 16.0007 25.6787C14.9394 25.6787 13.879 25.5862 12.8466 25.4053C12.4802 25.3406 12.1088 25.2631 11.7414 25.1746L6.78627 26.9773L6.36413 26.9913H6.34422H6.34522Z" fill="white"/>
<path d="M15.9995 2.01655C23.7095 2.01655 29.9809 7.0977 29.9809 13.3432C29.9809 19.5888 23.7095 24.6699 15.9995 24.6699C14.9959 24.6699 13.9933 24.5824 13.0206 24.4114C12.5756 24.3338 12.1286 24.2354 11.6855 24.119L6.58996 25.9735L6.34604 25.9825H6.34405C5.99558 25.9825 5.66106 25.8343 5.42609 25.5768C5.19013 25.3182 5.07365 24.9722 5.1065 24.6242L5.46691 20.7939C5.37432 20.7084 5.28372 20.6209 5.19411 20.5324C3.14713 18.5139 2.0191 15.9614 2.0191 13.3432C2.0191 7.0977 8.29047 2.01655 15.9995 2.01655ZM15.9995 0C7.17738 0 0 5.98601 0 13.3442C0 16.3243 1.19175 19.2169 3.36816 21.5496L3.09636 24.4362C3.01173 25.351 3.31738 26.2609 3.93466 26.937C4.54796 27.6122 5.42709 28.001 6.34405 28.001H6.41673L6.66065 27.9911L6.98024 27.9801L7.28092 27.8707L11.802 26.2251C12.0917 26.2907 12.3824 26.3484 12.6722 26.3991C13.7614 26.59 14.8814 26.6875 16.0005 26.6875C24.8236 26.6875 32.001 20.7014 32.001 13.3442C32.001 5.987 24.8226 0 15.9995 0Z" fill="black"/>
<path d="M9.94098 16.0165C11.0561 16.0165 11.9601 15.1137 11.9601 13.9999C11.9601 12.8862 11.0561 11.9834 9.94098 11.9834C8.82586 11.9834 7.92188 12.8862 7.92188 13.9999C7.92188 15.1137 8.82586 16.0165 9.94098 16.0165Z" fill="black"/>
<path d="M15.9996 16.0165C17.1147 16.0165 18.0187 15.1137 18.0187 13.9999C18.0187 12.8862 17.1147 11.9834 15.9996 11.9834C14.8845 11.9834 13.9805 12.8862 13.9805 13.9999C13.9805 15.1137 14.8845 16.0165 15.9996 16.0165Z" fill="black"/>
<path d="M22.0582 16.0165C23.1733 16.0165 24.0773 15.1137 24.0773 13.9999C24.0773 12.8862 23.1733 11.9834 22.0582 11.9834C20.943 11.9834 20.0391 12.8862 20.0391 13.9999C20.0391 15.1137 20.943 16.0165 22.0582 16.0165Z" fill="black"/>
</g>
<defs>
<clipPath id="clip0_3_16257">
<rect width="32" height="28" fill="white"/>
</clipPath>
</defs>
</svg>
