<svg width="18" height="18" viewBox="0 0 18 18" fill="none" xmlns="http://www.w3.org/2000/svg">
<path d="M5.86873 9.74998L9.54373 13.425C9.69373 13.575 9.7656 13.75 9.75935 13.95C9.7531 14.15 9.67498 14.325 9.52498 14.475C9.37498 14.6125 9.19998 14.6844 8.99998 14.6906C8.79998 14.6969 8.62498 14.625 8.47498 14.475L3.52498 9.52498C3.44998 9.44998 3.39685 9.36873 3.3656 9.28123C3.33435 9.19373 3.31873 9.09998 3.31873 8.99998C3.31873 8.89998 3.33435 8.80623 3.3656 8.71873C3.39685 8.63123 3.44998 8.54998 3.52498 8.47498L8.47498 3.52498C8.61248 3.38748 8.78435 3.31873 8.9906 3.31873C9.19685 3.31873 9.37498 3.38748 9.52498 3.52498C9.67498 3.67498 9.74998 3.8531 9.74998 4.05935C9.74998 4.2656 9.67498 4.44373 9.52498 4.59373L5.86873 8.24998H14.25C14.4625 8.24998 14.6406 8.32185 14.7843 8.4656C14.9281 8.60935 15 8.78748 15 8.99998C15 9.21248 14.9281 9.3906 14.7843 9.53435C14.6406 9.6781 14.4625 9.74998 14.25 9.74998H5.86873Z" fill="#666666"/>
</svg>