<svg width="20" height="20" viewBox="0 0 20 20" fill="none" xmlns="http://www.w3.org/2000/svg">
<path d="M2.3686 17.5511C2.29745 17.6239 2.25002 17.7908 2.3775 17.9364C2.4279 17.9941 2.6028 18.0305 2.76289 17.9668L11.4639 15.1086C11.5232 15.0904 11.5736 15.0449 11.5973 14.9842L14.2091 8.4759C14.2091 8.4759 14.218 8.45466 14.2209 8.44252L15.2645 7.3745C15.3475 7.28954 15.3475 7.14693 15.2645 7.06198L12.8513 4.52238C12.7713 4.44046 12.626 4.44046 12.546 4.52238L11.4254 5.66929C11.4254 5.66929 11.4135 5.68447 11.4076 5.69053L4.9122 8.10877C4.85291 8.13304 4.80844 8.18462 4.79066 8.2453L2.00989 17.3296C1.98025 17.4267 2.01879 17.5329 2.10476 17.5845C2.19073 17.636 2.29745 17.6239 2.3686 17.5511ZM2.3686 17.5511L7.17417 12.7783" stroke="white" stroke-width="1.5" stroke-linecap="round" stroke-linejoin="round"/>
<path d="M9.23207 11.9022C9.23207 12.5728 8.70142 13.1189 8.04328 13.1189C7.38515 13.1189 6.85449 12.5728 6.85449 11.9022C6.85449 11.2317 7.38515 10.6855 8.04328 10.6855C8.70142 10.6855 9.23207 11.2287 9.23207 11.9022Z" stroke="white" stroke-width="1.5" stroke-linecap="round" stroke-linejoin="round"/>
<path d="M12.5459 4.5257L15.552 1" stroke="white" stroke-width="1.5" stroke-linecap="round" stroke-linejoin="round"/>
<path d="M15.2646 7.37764L19 4.46484" stroke="white" stroke-width="1.5" stroke-linecap="round" stroke-linejoin="round"/>
</svg>
