<svg width="40" height="80" viewBox="0 0 40 80" fill="none" xmlns="http://www.w3.org/2000/svg">
<circle cx="20" cy="20" r="19.5" fill="white" stroke="#EBEBEB"/>
<path d="M13.8047 20.3398H18.1997" stroke="#666666" stroke-width="1.5" stroke-linecap="round" stroke-linejoin="round"/>
<path d="M13.8047 22.8242H25.6673" stroke="#666666" stroke-width="1.5" stroke-linecap="round" stroke-linejoin="round"/>
<path d="M21.5273 25.3086H25.6655" stroke="#666666" stroke-width="1.5" stroke-linecap="round" stroke-linejoin="round"/>
<path d="M25.0852 17.6875H27.7653C28.09 17.6875 28.3556 17.9605 28.3556 18.2941V27.3932C28.3556 27.7268 28.09 27.9998 27.7653 27.9998H11.5903C11.2656 27.9998 11 27.7268 11 27.3932V18.2941C11 17.9605 11.2656 17.6875 11.5903 17.6875H21.6436" stroke="#666666" stroke-width="1.5" stroke-linecap="round" stroke-linejoin="round"/>
<path d="M22.4558 20.3205L19.9941 21.2395L20.8029 18.6523" stroke="#666666" stroke-width="1.5" stroke-linecap="round" stroke-linejoin="round"/>
<path d="M22.4566 20.3219L28.9266 13.7978C29.024 13.6977 29.024 13.534 28.9266 13.4369L27.6013 12.0751C27.5039 11.975 27.3445 11.975 27.2471 12.0751L20.8066 18.5991L22.4566 20.3249V20.3219Z" stroke="#666666" stroke-width="1.5" stroke-linecap="round" stroke-linejoin="round"/>
<path d="M27.8163 14.7211L26.0689 13.0256C25.6055 12.5768 24.8765 12.5859 24.4249 13.0499L22.5801 14.9456" stroke="#666666" stroke-width="1.5" stroke-linecap="round" stroke-linejoin="round"/>
<circle cx="20" cy="60" r="20" fill="#568AED"/>
<path d="M13.8047 60.3398H18.1997" stroke="white" stroke-width="1.5" stroke-linecap="round" stroke-linejoin="round"/>
<path d="M13.8047 62.8242H25.6673" stroke="white" stroke-width="1.5" stroke-linecap="round" stroke-linejoin="round"/>
<path d="M21.5273 65.3086H25.6655" stroke="white" stroke-width="1.5" stroke-linecap="round" stroke-linejoin="round"/>
<path d="M25.0852 57.6875H27.7653C28.09 57.6875 28.3556 57.9605 28.3556 58.2941V67.3932C28.3556 67.7268 28.09 67.9998 27.7653 67.9998H11.5903C11.2656 67.9998 11 67.7268 11 67.3932V58.2941C11 57.9605 11.2656 57.6875 11.5903 57.6875H21.6436" stroke="white" stroke-width="1.5" stroke-linecap="round" stroke-linejoin="round"/>
<path d="M22.4558 60.3205L19.9941 61.2395L20.8029 58.6523" stroke="white" stroke-width="1.5" stroke-linecap="round" stroke-linejoin="round"/>
<path d="M22.4566 60.3219L28.9266 53.7978C29.024 53.6977 29.024 53.534 28.9266 53.4369L27.6013 52.0751C27.5039 51.975 27.3445 51.975 27.2471 52.0751L20.8066 58.5991L22.4566 60.3249V60.3219Z" stroke="white" stroke-width="1.5" stroke-linecap="round" stroke-linejoin="round"/>
<path d="M27.8163 54.7211L26.0689 53.0256C25.6055 52.5768 24.8765 52.5859 24.4249 53.0499L22.5801 54.9456" stroke="white" stroke-width="1.5" stroke-linecap="round" stroke-linejoin="round"/>
</svg>
