<svg width="20" height="20" viewBox="0 0 20 20" fill="none" xmlns="http://www.w3.org/2000/svg">
<path d="M12 4.5H4.5V16.5H15V7.5H12V4.5ZM3 3.74385C3 3.33304 3.33562 3 3.74888 3H12.75L16.4998 6.75L16.5 17.2444C16.5 17.6617 16.1663 18 15.7549 18H3.74505C3.33357 18 3 17.6585 3 17.2561V3.74385ZM10.8968 12.3348C9.74633 13.0143 8.23975 12.8598 7.25129 11.8713C6.07973 10.6997 6.07973 8.80025 7.25129 7.62868C8.42288 6.45711 10.3223 6.45711 11.4939 7.62868C12.4824 8.61713 12.6369 10.1237 11.9574 11.2741L13.6153 12.932L12.5546 13.9927L10.8968 12.3348ZM10.4333 10.8106C11.0191 10.2249 11.0191 9.2751 10.4333 8.68934C9.8475 8.10355 8.89777 8.10355 8.31195 8.68934C7.72617 9.2751 7.72617 10.2249 8.31195 10.8106C8.89777 11.3965 9.8475 11.3965 10.4333 10.8106Z" fill="white"/>
</svg>
