<svg width="24" height="24" viewBox="0 0 24 24" fill="none" xmlns="http://www.w3.org/2000/svg">
<path d="M15.4271 22.0006C15.3345 22.0006 15.2391 21.9836 15.1494 21.9438C12.1088 20.666 9.17475 18.6498 6.66709 16.1111C4.28285 13.6973 2.35301 10.8747 1.08796 7.95262L1.07674 7.93558C0.936493 7.65445 0.992592 7.31085 1.21138 7.08935C1.2226 7.07799 1.23382 7.06663 1.24504 7.05527C1.24504 7.05527 1.27309 7.02971 1.2759 7.02971C3.13841 5.37417 4.49602 4.15594 4.68957 3.96568C4.81018 3.82653 4.97848 3.7385 5.16361 3.71862C5.43289 3.69023 5.70217 3.82369 5.84803 4.05655L8.4735 8.26499C8.5857 8.44673 8.61655 8.66822 8.55484 8.86984C8.49313 9.0743 8.34727 9.24184 8.15373 9.32703L6.89709 9.88929C7.69371 11.0479 8.59692 12.1412 9.59269 13.1493C10.6894 14.2596 11.8788 15.2506 13.1354 16.1054L13.7244 14.7565C13.8086 14.5606 13.9741 14.4129 14.176 14.3505C14.378 14.288 14.5968 14.3192 14.7735 14.4328L18.9305 17.0908C19.1633 17.2384 19.2923 17.5082 19.2643 17.7837C19.2447 17.9711 19.1577 18.1443 19.0203 18.2636C18.779 18.5135 17.0343 20.5211 15.9656 21.7507C15.8254 21.9126 15.6262 22.0006 15.4215 22.0006H15.4271Z" fill="white"/>
<path d="M13.082 2C17.4466 2 21.0005 5.59506 21.0005 10.0165" stroke="white" stroke-width="2" stroke-linecap="round" stroke-linejoin="round"/>
<path d="M13.082 5.42188C15.5869 5.42188 17.6177 7.47782 17.6177 10.0137" stroke="white" stroke-width="2" stroke-linecap="round" stroke-linejoin="round"/>
</svg>
