<svg width="35" height="35" viewBox="0 0 35 35" fill="none" xmlns="http://www.w3.org/2000/svg">
<path d="M31.0812 31.0713H6.25019C5.74538 31.0713 5.33105 30.6586 5.33105 30.1567V12.7603C5.33105 12.2585 5.74538 11.8457 6.25019 11.8457H31.0812C31.586 11.8457 32.0003 12.2585 32.0003 12.7603V30.1614C32.0003 30.6633 31.586 31.076 31.0812 31.076V31.0713Z" stroke="#568AED" stroke-width="2" stroke-linecap="round" stroke-linejoin="round"/>
<path d="M16.7607 27.3184H28.6667" stroke="#568AED" stroke-width="2" stroke-linecap="round" stroke-linejoin="round"/>
<path d="M8.66504 27.3184H13.4274" stroke="#568AED" stroke-width="2" stroke-linecap="round" stroke-linejoin="round"/>
<path d="M8.66504 24.9746H13.4274" stroke="#568AED" stroke-width="2" stroke-linecap="round" stroke-linejoin="round"/>
<path d="M25.362 17.1365C25.9573 18.2152 25.5572 19.5661 24.4619 20.1523C23.3665 20.7386 21.995 20.3446 21.3997 19.2659C20.8044 18.1871 21.2044 16.8363 22.2998 16.25C23.3951 15.6637 24.7667 16.0577 25.362 17.1365Z" stroke="#568AED" stroke-width="2" stroke-linecap="round" stroke-linejoin="round"/>
<path d="M25.495 16.2549L26.0808 16.0297C27.038 15.8234 28.0572 16.2502 28.5477 17.1367C29.143 18.2154 28.7429 19.5662 27.6476 20.1525C27.1333 20.4293 26.5618 20.4855 26.0332 20.3589C26.0332 20.3589 25.7712 20.3073 25.4521 20.1291" stroke="#568AED" stroke-width="2" stroke-linecap="round" stroke-linejoin="round"/>
<path d="M5.27362 21.9865L2.03045 9.66969C1.90187 9.18189 2.19237 8.68003 2.67813 8.55339L26.6138 2.33403C27.0995 2.20739 27.6091 2.50288 27.7377 2.98598L29.976 11.4286" stroke="#568AED" stroke-width="2" stroke-linecap="round" stroke-linejoin="round"/>
<path d="M14.7988 11.8429L29.1002 8.08594" stroke="#568AED" stroke-width="2" stroke-linecap="round" stroke-linejoin="round"/>
</svg>
