<svg width="28" height="20" viewBox="0 0 28 20" fill="none" xmlns="http://www.w3.org/2000/svg">
<g clip-path="url(#clip0_3_1201)">
<path d="M0.156868 14.3449C0.187059 14.5516 1.14098 20 6.64478 20C6.95681 20 7.27227 19.9775 7.58979 19.9288C9.28081 19.6747 10.7716 18.7711 11.7896 17.3853C12.8073 15.9983 13.2289 14.2942 12.9773 12.5875C12.7256 10.8799 11.8309 9.37319 10.4586 8.34648C9.08509 7.31874 7.39749 6.89174 5.70647 7.14586C4.66523 7.30281 3.72126 7.70711 2.91932 8.29001C3.18881 7.55242 3.53325 6.84896 3.9549 6.19261C5.36305 4.00495 7.44775 2.60339 9.82544 2.24638C10.4361 2.15491 10.8578 1.57998 10.7672 0.963305C10.6766 0.345585 10.1073 -0.0802021 9.49661 0.0123005C6.47582 0.465109 3.84185 2.22368 2.0793 4.96254C0.344704 7.65618 -0.337676 10.9892 0.156696 14.3447L0.156868 14.3449Z" fill="white" fill-opacity="0.2"/>
<path d="M21.5964 20C21.9085 20 22.2239 19.9775 22.5414 19.9288C24.2325 19.6747 25.7233 18.7711 26.741 17.3853C27.759 15.9985 28.1806 14.2942 27.9289 12.5875C27.6773 10.8799 26.7826 9.37319 25.4103 8.34648C24.0367 7.31874 22.3492 6.89174 20.6581 7.14586C19.6169 7.30281 18.6729 7.70711 17.871 8.29001C18.1405 7.55242 18.4851 6.84896 18.9067 6.19261C20.3149 4.00495 22.3996 2.60339 24.7773 2.24638C25.388 2.15491 25.8096 1.57998 25.719 0.963305C25.6284 0.345585 25.0591 -0.0802021 24.4484 0.0123005C21.4277 0.465109 18.7937 2.22368 17.0311 4.96254C15.2965 7.65618 14.6142 10.9892 15.1085 14.3447C15.1387 14.5514 16.0926 19.9998 21.5964 19.9998V20Z" fill="white" fill-opacity="0.2"/>
</g>
<defs>
<clipPath id="clip0_3_1201">
<rect width="28" height="20" fill="white" transform="matrix(-1 0 0 -1 28 20)"/>
</clipPath>
</defs>
</svg>
