<svg width="24" height="24" viewBox="0 0 24 24" fill="none" xmlns="http://www.w3.org/2000/svg">
<path d="M18.7503 19.3109H21.0003V11.1289H3V19.3109H5.25004" stroke="white" stroke-width="2" stroke-linecap="round" stroke-linejoin="round"/>
<path fill-rule="evenodd" clip-rule="evenodd" d="M5.19922 2C4.64693 2 4.19922 2.44772 4.19922 3V10C4.19922 10.5523 4.64693 11 5.19922 11H18.7992C19.3515 11 19.7992 10.5523 19.7992 10V3C19.7992 2.44772 19.3515 2 18.7992 2H5.19922ZM8.69922 6.10156C8.14693 6.10156 7.69922 6.54928 7.69922 7.10156C7.69922 7.65385 8.14693 8.10156 8.69922 8.10156H15.2992C15.8515 8.10156 16.2992 7.65385 16.2992 7.10156C16.2992 6.54928 15.8515 6.10156 15.2992 6.10156H8.69922Z" fill="white"/>
<path d="M18.5443 17.7266H5.45312V20.9993H18.5443V17.7266Z" fill="white" stroke="white" stroke-width="2" stroke-linecap="round" stroke-linejoin="round"/>
<path d="M17.4562 15.5451C18.0587 15.5451 18.5471 15.0567 18.5471 14.4542C18.5471 13.8517 18.0587 13.3633 17.4562 13.3633C16.8537 13.3633 16.3652 13.8517 16.3652 14.4542C16.3652 15.0567 16.8537 15.5451 17.4562 15.5451Z" fill="white"/>
</svg>
