<svg width="22" height="22" viewBox="0 0 22 22" fill="none" xmlns="http://www.w3.org/2000/svg">
<path d="M15.4271 21.0006C15.3345 21.0006 15.2391 20.9836 15.1494 20.9438C12.1088 19.666 9.17475 17.6498 6.66709 15.1111C4.28285 12.6973 2.35301 9.87467 1.08796 6.95262L1.07674 6.93558C0.936493 6.65445 0.992592 6.31085 1.21138 6.08935C1.2226 6.07799 1.23382 6.06663 1.24504 6.05527C1.24504 6.05527 1.27309 6.02971 1.2759 6.02971C3.13841 4.37417 4.49602 3.15594 4.68957 2.96568C4.81018 2.82653 4.97848 2.7385 5.16361 2.71862C5.43289 2.69023 5.70217 2.82369 5.84803 3.05655L8.4735 7.26499C8.5857 7.44673 8.61655 7.66822 8.55484 7.86984C8.49313 8.0743 8.34727 8.24184 8.15373 8.32703L6.89709 8.88929C7.69371 10.0479 8.59692 11.1412 9.59269 12.1493C10.6894 13.2596 11.8788 14.2506 13.1354 15.1054L13.7244 13.7565C13.8086 13.5606 13.9741 13.4129 14.176 13.3505C14.378 13.288 14.5968 13.3192 14.7735 13.4328L18.9305 16.0908C19.1633 16.2384 19.2923 16.5082 19.2643 16.7837C19.2447 16.9711 19.1577 17.1443 19.0203 17.2636C18.779 17.5135 17.0343 19.5211 15.9656 20.7507C15.8254 20.9126 15.6262 21.0006 15.4215 21.0006H15.4271Z" fill="#222222"/>
<path d="M13.082 1C17.4466 1 21.0005 4.59506 21.0005 9.01648" stroke="#222222" stroke-width="2" stroke-linecap="round" stroke-linejoin="round"/>
<path d="M13.082 4.42188C15.5869 4.42188 17.6177 6.47782 17.6177 9.01367" stroke="#222222" stroke-width="2" stroke-linecap="round" stroke-linejoin="round"/>
</svg>
