<svg width="18" height="18" viewBox="0 0 18 18" fill="none" xmlns="http://www.w3.org/2000/svg">
<path d="M11.25 3H3.75V15H14.25V6H11.25V3ZM2.25 2.24385C2.25 1.83304 2.58562 1.5 2.99888 1.5H12L15.7498 5.25L15.75 15.7444C15.75 16.1617 15.4163 16.5 15.0049 16.5H2.99505C2.58357 16.5 2.25 16.1585 2.25 15.7561V2.24385ZM10.1468 10.8348C8.99633 11.5143 7.48975 11.3598 6.50129 10.3713C5.32973 9.19972 5.32973 7.30025 6.50129 6.12868C7.67288 4.95711 9.57233 4.95711 10.7439 6.12868C11.7324 7.11713 11.8869 8.62372 11.2074 9.77415L12.8653 11.432L11.8046 12.4927L10.1468 10.8348ZM9.68325 9.31065C10.2691 8.7249 10.2691 7.7751 9.68325 7.18934C9.0975 6.60355 8.14777 6.60355 7.56195 7.18934C6.97617 7.7751 6.97617 8.7249 7.56195 9.31065C8.14777 9.89647 9.0975 9.89647 9.68325 9.31065Z" fill="white"/>
</svg>
