<svg width="16" height="16" viewBox="0 0 16 16" fill="none" xmlns="http://www.w3.org/2000/svg">
<path d="M6.98047 8.51244C7.19683 8.80191 7.47286 9.04142 7.78985 9.21473C8.10684 9.38805 8.45737 9.49111 8.81766 9.51693C9.17795 9.54276 9.53957 9.49073 9.87801 9.36439C10.2164 9.23805 10.5238 9.04035 10.7791 8.7847L12.2905 7.27217C12.7494 6.79673 13.0033 6.15995 12.9976 5.49898C12.9918 4.83801 12.7269 4.20574 12.2599 3.73835C11.7928 3.27096 11.161 3.00584 10.5005 3.0001C9.84006 2.99435 9.20375 3.24844 8.72866 3.70764L7.86212 4.56978" stroke="#222222" stroke-width="1.5" stroke-linecap="round" stroke-linejoin="round"/>
<path d="M9.01719 7.48749C8.80083 7.19803 8.52479 6.95852 8.2078 6.7852C7.89082 6.61189 7.54029 6.50883 7.18 6.483C6.81971 6.45718 6.45808 6.5092 6.11965 6.63554C5.78122 6.76188 5.47389 6.95958 5.21852 7.21524L3.70712 8.72777C3.24826 9.20321 2.99436 9.83999 3.0001 10.501C3.00583 11.1619 3.27076 11.7942 3.7378 12.2616C4.20485 12.729 4.83664 12.9941 5.49712 12.9998C6.1576 13.0056 6.7939 12.7515 7.26899 12.2923L8.1305 11.4302" stroke="#222222" stroke-width="1.5" stroke-linecap="round" stroke-linejoin="round"/>
</svg>
