<svg width="27" height="25" viewBox="0 0 27 25" fill="none" xmlns="http://www.w3.org/2000/svg">
<path d="M1.54875 11.2994L8.27626 5.33669C8.82804 4.8466 9.6739 4.89803 10.165 5.44862C10.6562 5.99922 10.6047 6.84326 10.0529 7.33334L5.82355 11.0816H24.5781C25.3603 11.0816 26 11.7199 26 12.5004C26 13.281 25.3603 13.9193 24.5781 13.9193H5.82052L10.0498 17.6675C10.6016 18.1576 10.6532 18.9986 10.162 19.5523C9.89825 19.8487 9.53141 20 9.16153 20C8.84623 20 8.52789 19.8881 8.27322 19.6642L1.54572 13.7015C1.2001 13.3929 1 12.9573 1 12.5004C1 12.0436 1.2001 11.608 1.54572 11.3025L1.54875 11.2994Z" fill="white" stroke="#222222"/>
</svg>
