<svg width="46" height="42" viewBox="0 0 46 42" fill="none" xmlns="http://www.w3.org/2000/svg">
<mask id="mask0_33_2062" style="mask-type:alpha" maskUnits="userSpaceOnUse" x="0" y="0" width="46" height="42">
<rect width="46" height="42" fill="#D9D9D9"/>
</mask>
<g mask="url(#mask0_33_2062)">
<path d="M40.7346 41L37.5171 35.5645H8.14582L5.56641 41H40.7346Z" stroke="url(#paint0_linear_33_2062)" stroke-width="2" stroke-linecap="round" stroke-linejoin="round"/>
<path d="M24.2656 28.322C24.2656 28.322 35.9069 25.7891 38.6085 8.11328" stroke="url(#paint1_linear_33_2062)" stroke-width="2" stroke-linecap="round" stroke-linejoin="round"/>
<path d="M26.5652 27.3019C26.5652 27.3019 24.0469 22.5852 27.658 18.3477C27.658 18.3477 30.9162 22.2771 28.5676 26.2066" stroke="url(#paint2_linear_33_2062)" stroke-width="2" stroke-linecap="round" stroke-linejoin="round"/>
<path d="M27.625 27.0279C27.625 27.0279 31.1344 30.7246 36.3475 28.8489C36.3475 28.8489 33.9581 24.5361 29.2541 25.7683" stroke="url(#paint3_linear_33_2062)" stroke-width="2" stroke-linecap="round" stroke-linejoin="round"/>
<path d="M32.4141 23.0775C32.4141 23.0775 36.48 25.8568 41.2927 23.0159C41.2927 23.0159 38.0684 19.2986 33.6427 21.4071" stroke="url(#paint4_linear_33_2062)" stroke-width="2" stroke-linecap="round" stroke-linejoin="round"/>
<path d="M35.4141 18.634C35.4141 18.634 40.2199 20.4755 44.1976 16.5392C44.1976 16.5392 40.152 13.6571 36.3712 16.7994" stroke="url(#paint5_linear_33_2062)" stroke-width="2" stroke-linecap="round" stroke-linejoin="round"/>
<path d="M37.418 13.754C37.418 13.754 42.4003 14.1784 45.0001 9.29053C45.0001 9.29053 40.683 7.94876 37.961 11.666" stroke="url(#paint6_linear_33_2062)" stroke-width="2" stroke-linecap="round" stroke-linejoin="round"/>
<path d="M32.4703 22.489C32.4703 22.489 28.703 19.0867 30.7258 13.8086C30.7258 13.8086 34.8868 16.5537 33.9433 20.7365" stroke="url(#paint7_linear_33_2062)" stroke-width="2" stroke-linecap="round" stroke-linejoin="round"/>
<path d="M36.2033 16.2941C36.2033 16.2941 31.7911 13.5831 32.6396 8.05859C32.6396 8.05859 37.3233 9.57151 37.0043 14.4594" stroke="url(#paint8_linear_33_2062)" stroke-width="2" stroke-linecap="round" stroke-linejoin="round"/>
<path d="M37.8102 9.72836C37.8102 9.72836 33.2691 6.60668 34.8371 1C34.8371 1 39.3036 3.30702 38.6112 8.11275" stroke="url(#paint9_linear_33_2062)" stroke-width="2" stroke-linecap="round" stroke-linejoin="round"/>
<path d="M21.7374 28.322C21.7374 28.322 10.0961 25.7891 7.39453 8.11328" stroke="url(#paint10_linear_33_2062)" stroke-width="2" stroke-linecap="round" stroke-linejoin="round"/>
<path d="M19.4315 27.3019C19.4315 27.3019 21.9498 22.5852 18.3386 18.3477C18.3386 18.3477 15.0804 22.2771 17.429 26.2066" stroke="url(#paint11_linear_33_2062)" stroke-width="2" stroke-linecap="round" stroke-linejoin="round"/>
<path d="M18.3787 27.0279C18.3787 27.0279 14.8694 30.7246 9.65625 28.8489C9.65625 28.8489 12.0456 24.5361 16.7496 25.7683" stroke="url(#paint12_linear_33_2062)" stroke-width="2" stroke-linecap="round" stroke-linejoin="round"/>
<path d="M13.5934 23.0775C13.5934 23.0775 9.52748 25.8568 4.71484 23.0159C4.71484 23.0159 7.93911 19.2986 12.3648 21.4071" stroke="url(#paint13_linear_33_2062)" stroke-width="2" stroke-linecap="round" stroke-linejoin="round"/>
<path d="M10.5922 18.634C10.5922 18.634 5.78631 20.4755 1.80859 16.5392C1.80859 16.5392 5.85419 13.6571 9.63507 16.7994" stroke="url(#paint14_linear_33_2062)" stroke-width="2" stroke-linecap="round" stroke-linejoin="round"/>
<path d="M8.58211 13.754C8.58211 13.754 3.59977 14.1784 1 9.29053C1 9.29053 5.31712 7.94876 8.03907 11.666" stroke="url(#paint15_linear_33_2062)" stroke-width="2" stroke-linecap="round" stroke-linejoin="round"/>
<path d="M13.538 22.489C13.538 22.489 17.3053 19.0867 15.2825 13.8086C15.2825 13.8086 11.1215 16.5537 12.065 20.7365" stroke="url(#paint16_linear_33_2062)" stroke-width="2" stroke-linecap="round" stroke-linejoin="round"/>
<path d="M9.80094 16.2941C9.80094 16.2941 14.2131 13.5831 13.3646 8.05859C13.3646 8.05859 8.68093 9.57151 8.99996 14.4594" stroke="url(#paint17_linear_33_2062)" stroke-width="2" stroke-linecap="round" stroke-linejoin="round"/>
<path d="M8.19811 9.72836C8.19811 9.72836 12.7392 6.60668 11.1712 1C11.1712 1 6.70477 3.30702 7.39713 8.11275" stroke="url(#paint18_linear_33_2062)" stroke-width="2" stroke-linecap="round" stroke-linejoin="round"/>
<path d="M19.4688 35.1075L21.5051 28.2617" stroke="url(#paint19_linear_33_2062)" stroke-width="2" stroke-linecap="round" stroke-linejoin="round"/>
<path d="M24.5586 28.2617L26.4796 35.1075" stroke="url(#paint20_linear_33_2062)" stroke-width="2" stroke-linecap="round" stroke-linejoin="round"/>
<path d="M22.8636 28.377C24.3632 28.377 25.5788 27.151 25.5788 25.6387C25.5788 24.1264 24.3632 22.9004 22.8636 22.9004C21.3641 22.9004 20.1484 24.1264 20.1484 25.6387C20.1484 27.151 21.3641 28.377 22.8636 28.377Z" stroke="url(#paint21_linear_33_2062)" stroke-width="2" stroke-linecap="round" stroke-linejoin="round"/>
</g>
<defs>
<linearGradient id="paint0_linear_33_2062" x1="23.1505" y1="35.5645" x2="23.1505" y2="41" gradientUnits="userSpaceOnUse">
<stop stop-color="#568AED"/>
<stop offset="1" stop-color="#2AB8BD"/>
</linearGradient>
<linearGradient id="paint1_linear_33_2062" x1="31.4371" y1="8.11328" x2="31.4371" y2="28.322" gradientUnits="userSpaceOnUse">
<stop stop-color="#568AED"/>
<stop offset="1" stop-color="#2AB8BD"/>
</linearGradient>
<linearGradient id="paint2_linear_33_2062" x1="27.5647" y1="18.3477" x2="27.5647" y2="27.3019" gradientUnits="userSpaceOnUse">
<stop stop-color="#568AED"/>
<stop offset="1" stop-color="#2AB8BD"/>
</linearGradient>
<linearGradient id="paint3_linear_33_2062" x1="31.9862" y1="25.5469" x2="31.9862" y2="29.3799" gradientUnits="userSpaceOnUse">
<stop stop-color="#568AED"/>
<stop offset="1" stop-color="#2AB8BD"/>
</linearGradient>
<linearGradient id="paint4_linear_33_2062" x1="36.8534" y1="20.7598" x2="36.8534" y2="24.2947" gradientUnits="userSpaceOnUse">
<stop stop-color="#568AED"/>
<stop offset="1" stop-color="#2AB8BD"/>
</linearGradient>
<linearGradient id="paint5_linear_33_2062" x1="39.8058" y1="15.332" x2="39.8058" y2="19.0643" gradientUnits="userSpaceOnUse">
<stop stop-color="#568AED"/>
<stop offset="1" stop-color="#2AB8BD"/>
</linearGradient>
<linearGradient id="paint6_linear_33_2062" x1="41.209" y1="9.05469" x2="41.209" y2="13.7633" gradientUnits="userSpaceOnUse">
<stop stop-color="#568AED"/>
<stop offset="1" stop-color="#2AB8BD"/>
</linearGradient>
<linearGradient id="paint7_linear_33_2062" x1="32.1057" y1="13.8086" x2="32.1057" y2="22.489" gradientUnits="userSpaceOnUse">
<stop stop-color="#568AED"/>
<stop offset="1" stop-color="#2AB8BD"/>
</linearGradient>
<linearGradient id="paint8_linear_33_2062" x1="34.7755" y1="8.05859" x2="34.7755" y2="16.2941" gradientUnits="userSpaceOnUse">
<stop stop-color="#568AED"/>
<stop offset="1" stop-color="#2AB8BD"/>
</linearGradient>
<linearGradient id="paint9_linear_33_2062" x1="36.596" y1="1" x2="36.596" y2="9.72836" gradientUnits="userSpaceOnUse">
<stop stop-color="#568AED"/>
<stop offset="1" stop-color="#2AB8BD"/>
</linearGradient>
<linearGradient id="paint10_linear_33_2062" x1="14.566" y1="8.11328" x2="14.566" y2="28.322" gradientUnits="userSpaceOnUse">
<stop stop-color="#568AED"/>
<stop offset="1" stop-color="#2AB8BD"/>
</linearGradient>
<linearGradient id="paint11_linear_33_2062" x1="18.4319" y1="18.3477" x2="18.4319" y2="27.3019" gradientUnits="userSpaceOnUse">
<stop stop-color="#568AED"/>
<stop offset="1" stop-color="#2AB8BD"/>
</linearGradient>
<linearGradient id="paint12_linear_33_2062" x1="14.0175" y1="25.5469" x2="14.0175" y2="29.3799" gradientUnits="userSpaceOnUse">
<stop stop-color="#568AED"/>
<stop offset="1" stop-color="#2AB8BD"/>
</linearGradient>
<linearGradient id="paint13_linear_33_2062" x1="9.15414" y1="20.7598" x2="9.15414" y2="24.2947" gradientUnits="userSpaceOnUse">
<stop stop-color="#568AED"/>
<stop offset="1" stop-color="#2AB8BD"/>
</linearGradient>
<linearGradient id="paint14_linear_33_2062" x1="6.20038" y1="15.332" x2="6.20038" y2="19.0643" gradientUnits="userSpaceOnUse">
<stop stop-color="#568AED"/>
<stop offset="1" stop-color="#2AB8BD"/>
</linearGradient>
<linearGradient id="paint15_linear_33_2062" x1="4.79105" y1="9.05469" x2="4.79105" y2="13.7633" gradientUnits="userSpaceOnUse">
<stop stop-color="#568AED"/>
<stop offset="1" stop-color="#2AB8BD"/>
</linearGradient>
<linearGradient id="paint16_linear_33_2062" x1="13.9026" y1="13.8086" x2="13.9026" y2="22.489" gradientUnits="userSpaceOnUse">
<stop stop-color="#568AED"/>
<stop offset="1" stop-color="#2AB8BD"/>
</linearGradient>
<linearGradient id="paint17_linear_33_2062" x1="11.2287" y1="8.05859" x2="11.2287" y2="16.2941" gradientUnits="userSpaceOnUse">
<stop stop-color="#568AED"/>
<stop offset="1" stop-color="#2AB8BD"/>
</linearGradient>
<linearGradient id="paint18_linear_33_2062" x1="9.41236" y1="1" x2="9.41236" y2="9.72836" gradientUnits="userSpaceOnUse">
<stop stop-color="#568AED"/>
<stop offset="1" stop-color="#2AB8BD"/>
</linearGradient>
<linearGradient id="paint19_linear_33_2062" x1="20.4869" y1="28.2617" x2="20.4869" y2="35.1075" gradientUnits="userSpaceOnUse">
<stop stop-color="#568AED"/>
<stop offset="1" stop-color="#2AB8BD"/>
</linearGradient>
<linearGradient id="paint20_linear_33_2062" x1="25.5191" y1="28.2617" x2="25.5191" y2="35.1075" gradientUnits="userSpaceOnUse">
<stop stop-color="#568AED"/>
<stop offset="1" stop-color="#2AB8BD"/>
</linearGradient>
<linearGradient id="paint21_linear_33_2062" x1="22.8636" y1="22.9004" x2="22.8636" y2="28.377" gradientUnits="userSpaceOnUse">
<stop stop-color="#568AED"/>
<stop offset="1" stop-color="#2AB8BD"/>
</linearGradient>
</defs>
</svg>
