<svg width="19" height="19" viewBox="0 0 19 19" fill="none" xmlns="http://www.w3.org/2000/svg">
<path d="M7.76953 10.371C8.13733 10.8631 8.60659 11.2702 9.14546 11.5648C9.68433 11.8595 10.2802 12.0347 10.8927 12.0786C11.5052 12.1225 12.1199 12.034 12.6953 11.8193C13.2706 11.6045 13.793 11.2684 14.2271 10.8338L16.7965 8.26255C17.5765 7.45431 18.0082 6.37181 17.9984 5.24818C17.9886 4.12456 17.5383 3.04972 16.7443 2.25517C15.9504 1.46062 14.8763 1.00993 13.7535 1.00016C12.6307 0.990398 11.549 1.42234 10.7414 2.20297L9.26831 3.66858" stroke="#666666" stroke-width="2" stroke-linecap="round" stroke-linejoin="round"/>
<path d="M11.229 8.62968C10.8612 8.1376 10.392 7.73044 9.8531 7.43581C9.31423 7.14118 8.71835 6.96598 8.10586 6.92208C7.49338 6.87818 6.87863 6.96662 6.3033 7.18139C5.72798 7.39617 5.20554 7.73225 4.77142 8.16685L2.20207 10.7381C1.42203 11.5463 0.990405 12.6289 1.00016 13.7525C1.00992 14.8761 1.46028 15.9509 2.25424 16.7455C3.0482 17.54 4.12224 17.9907 5.24503 18.0005C6.36781 18.0103 7.44952 17.5783 8.25716 16.7977L9.72168 15.3321" stroke="#666666" stroke-width="2" stroke-linecap="round" stroke-linejoin="round"/>
</svg>
