<svg width="20" height="20" viewBox="0 0 20 20" fill="none" xmlns="http://www.w3.org/2000/svg">
<path d="M17.3218 19H2.67988C2.48092 19 2.32026 18.8361 2.32026 18.6332V9.40866H1.35962C1.16066 9.40866 1 9.2448 1 9.04189V7.22669C1 7.10443 1.06077 6.98896 1.16066 6.92104L9.80146 1.06113C9.92133 0.979624 10.0795 0.979624 10.1994 1.06113L18.8393 6.92019C18.9401 6.98811 19 7.10273 19 7.22584V9.04104C19 9.24395 18.8393 9.40781 18.6404 9.40781H17.6814V18.6324C17.6814 18.8353 17.5207 18.9992 17.3218 18.9992V19ZM3.04033 18.2656H16.9622V9.04104C16.9622 8.83812 17.1228 8.67426 17.3218 8.67426H18.2808V7.42281L10.0004 1.80826L1.72007 7.42281V8.67426H2.67988C2.87883 8.67426 3.0395 8.83812 3.0395 9.04104V18.2656H3.04033Z" fill="white" stroke="white" stroke-width="0.5"/>
<path d="M12.3077 18.9659H7.69262C7.49367 18.9659 7.33301 18.8021 7.33301 18.5992V13.4719C7.33301 11.9709 8.53007 10.75 10.001 10.75C11.4719 10.75 12.669 11.9709 12.669 13.4719V18.5992C12.669 18.8021 12.5083 18.9659 12.3094 18.9659H12.3077ZM8.05224 18.2315H11.9473V13.4719C11.9473 12.3759 11.0732 11.4844 9.99934 11.4844C8.92548 11.4844 8.05141 12.3759 8.05141 13.4719V18.2315H8.05224Z" fill="white" stroke="white" stroke-width="0.5"/>
</svg>
