<svg width="20" height="20" viewBox="0 0 20 20" fill="none" xmlns="http://www.w3.org/2000/svg">
<path d="M12.5 4.1665H5V16.1665H15.5V7.1665H12.5V4.1665ZM3.5 3.41035C3.5 2.99954 3.83562 2.6665 4.24888 2.6665H13.25L16.9998 6.4165L17 16.9109C17 17.3282 16.6663 17.6665 16.2549 17.6665H4.24505C3.83357 17.6665 3.5 17.325 3.5 16.9227V3.41035ZM11.3968 12.0013C10.2463 12.6808 8.73975 12.5263 7.75129 11.5378C6.57973 10.3662 6.57973 8.46676 7.75129 7.29518C8.92288 6.12361 10.8223 6.12361 11.9939 7.29518C12.9824 8.28364 13.1369 9.79023 12.4574 10.9407L14.1153 12.5985L13.0546 13.6592L11.3968 12.0013ZM10.9333 10.4772C11.5191 9.8914 11.5191 8.9416 10.9333 8.35585C10.3475 7.77006 9.39777 7.77006 8.81195 8.35585C8.22617 8.9416 8.22617 9.8914 8.81195 10.4772C9.39777 11.063 10.3475 11.063 10.9333 10.4772Z" fill="#222222"/>
</svg>
