<svg width="35" height="35" viewBox="0 0 35 35" fill="none" xmlns="http://www.w3.org/2000/svg">
<path d="M32.1619 17.0492V25.8082C32.1619 26.0959 31.9243 26.3312 31.6338 26.3312H1.52817C1.23768 26.3312 1 26.0959 1 25.8082V5.93699C1 5.64938 1.23768 5.41406 1.52817 5.41406H13.412" stroke="#568AED" stroke-width="2" stroke-linecap="round" stroke-linejoin="round"/>
<path d="M9.45117 32.084H24.2399" stroke="#568AED" stroke-width="2" stroke-linecap="round" stroke-linejoin="round"/>
<path d="M1 22.6699H32.1619" stroke="#568AED" stroke-width="2" stroke-linecap="round" stroke-linejoin="round"/>
<path d="M13.1475 26.332V32.0842" stroke="#568AED" stroke-width="2" stroke-linecap="round" stroke-linejoin="round"/>
<path d="M20.0137 26.332V32.0842" stroke="#568AED" stroke-width="2" stroke-linecap="round" stroke-linejoin="round"/>
<path d="M28.074 10.9666C28.6497 12.0072 28.2589 13.3093 27.2078 13.8793C26.1567 14.4493 24.8416 14.0623 24.2659 13.0217C23.6902 11.9811 24.081 10.679 25.1321 10.109C26.1832 9.53898 27.4983 9.92594 28.074 10.9666Z" stroke="#568AED" stroke-width="2" stroke-linecap="round" stroke-linejoin="round"/>
<path d="M28.2005 10.1188L28.7656 9.89914C29.6846 9.70043 30.6617 10.1083 31.1318 10.9659C31.7075 12.0065 31.3167 13.3086 30.2656 13.8786C29.7744 14.1453 29.2198 14.2028 28.7181 14.0826C28.7181 14.0826 28.4645 14.0355 28.1582 13.8629" stroke="#568AED" stroke-width="2" stroke-linecap="round" stroke-linejoin="round"/>
<path d="M33.4717 3.31055H13.9823C13.6906 3.31055 13.4541 3.54467 13.4541 3.83347V16.3524C13.4541 16.6412 13.6906 16.8753 13.9823 16.8753H33.4717C33.7634 16.8753 33.9998 16.6412 33.9998 16.3524V3.83347C33.9998 3.54467 33.7634 3.31055 33.4717 3.31055Z" stroke="#568AED" stroke-width="2" stroke-linecap="round" stroke-linejoin="round"/>
<path d="M13.7451 6.76953H33.8155" stroke="#568AED" stroke-width="2" stroke-linecap="round" stroke-linejoin="round"/>
</svg>
