<svg width="35" height="35" viewBox="0 0 35 35" fill="none" xmlns="http://www.w3.org/2000/svg">
<path d="M9.70403 3H25.1404C27.9789 3 30.2858 5.32598 30.2858 8.18807V28.9403H4.55859V8.18807C4.55859 5.32598 6.86547 3 9.70403 3Z" stroke="#222222" stroke-width="2" stroke-linecap="round" stroke-linejoin="round"/>
<path d="M25.9972 9.48438H8.8457V18.5635H25.9972V9.48438Z" stroke="#222222" stroke-width="2" stroke-linecap="round" stroke-linejoin="round"/>
<path d="M12.3429 29.5078V30.4071C12.3429 31.8381 11.1894 33.0011 9.77016 33.0011H9.10983C7.69055 33.0011 6.53711 31.8381 6.53711 30.4071V29.5078" stroke="#222222" stroke-width="2" stroke-linecap="round" stroke-linejoin="round"/>
<path d="M28.3058 29.5078V30.4071C28.3058 31.8381 27.1523 33.0011 25.733 33.0011H25.0727C23.6534 33.0011 22.5 31.8381 22.5 30.4071V29.5078" stroke="#222222" stroke-width="2" stroke-linecap="round" stroke-linejoin="round"/>
<path d="M8.65873 22.457H12.3291C13.2768 22.457 14.0443 23.2309 14.0443 24.1864V24.2858C14.0443 24.7095 13.7056 25.0511 13.2853 25.0511H8.65873C7.97696 25.0511 7.42383 24.4933 7.42383 23.8059V23.7065C7.42383 23.0191 7.97696 22.4614 8.65873 22.4614V22.457Z" fill="#222222"/>
<path d="M26.187 25.0508H21.5604C21.1402 25.0508 20.8014 24.7092 20.8014 24.2855V24.1861C20.8014 23.2306 21.5689 22.4567 22.5166 22.4567H26.187C26.8687 22.4567 27.4219 23.0145 27.4219 23.7019V23.8013C27.4219 24.4887 26.8687 25.0465 26.187 25.0465V25.0508Z" fill="#222222"/>
<path d="M19.9062 18.5659L22.316 13.875" stroke="#222222" stroke-width="2" stroke-linecap="round" stroke-linejoin="round"/>
<path d="M12.8672 18.5659L15.277 13.875" stroke="#222222" stroke-width="2" stroke-linecap="round" stroke-linejoin="round"/>
<path d="M4.46031 15.0848L1 13.3555" stroke="#222222" stroke-width="2" stroke-linecap="round" stroke-linejoin="round"/>
<path d="M30.5449 15.0848L34.0009 13.3555" stroke="#222222" stroke-width="2" stroke-linecap="round" stroke-linejoin="round"/>
</svg>
