<svg width="40" height="80" viewBox="0 0 40 80" fill="none" xmlns="http://www.w3.org/2000/svg">
<circle cx="20" cy="20" r="19.5" fill="white" stroke="#EBEBEB"/>
<path d="M12.1642 12H27.8298C28.0028 12 28.1444 12.1408 28.1444 12.313V23.7961H11.8496V12.313C11.8496 12.1408 11.9912 12 12.1642 12Z" stroke="#666666" stroke-width="2" stroke-linecap="round" stroke-linejoin="round"/>
<path d="M28.1479 23.7969L29.9727 27.5588C30.064 27.7654 29.913 28.0001 29.6864 28.0001H10.3145C10.088 28.0001 9.93384 27.7654 10.0282 27.5588L11.8531 23.7969" stroke="#666666" stroke-width="2" stroke-linecap="round" stroke-linejoin="round"/>
<path d="M14.5684 16.0547H21.3581" stroke="#666666" stroke-width="2" stroke-linecap="round" stroke-linejoin="round"/>
<path d="M14.5684 18.7539H17.9632" stroke="#666666" stroke-width="2" stroke-linecap="round" stroke-linejoin="round"/>
<circle cx="20" cy="60" r="20" fill="#568AED"/>
<path d="M12.1642 52H27.8298C28.0028 52 28.1444 52.1408 28.1444 52.313V63.7961H11.8496V52.313C11.8496 52.1408 11.9912 52 12.1642 52Z" stroke="white" stroke-width="2" stroke-linecap="round" stroke-linejoin="round"/>
<path d="M28.1479 63.7969L29.9727 67.5588C30.064 67.7654 29.913 68.0001 29.6864 68.0001H10.3145C10.088 68.0001 9.93384 67.7654 10.0282 67.5588L11.8531 63.7969" stroke="white" stroke-width="2" stroke-linecap="round" stroke-linejoin="round"/>
<path d="M14.5684 56.0547H21.3581" stroke="white" stroke-width="2" stroke-linecap="round" stroke-linejoin="round"/>
<path d="M14.5684 58.7539H17.9632" stroke="white" stroke-width="2" stroke-linecap="round" stroke-linejoin="round"/>
</svg>
