<svg width="20" height="20" viewBox="0 0 20 20" fill="none" xmlns="http://www.w3.org/2000/svg">
<path d="M15.1663 16.3482H3.338C2.8216 16.3482 2.40039 15.9246 2.40039 15.4052V1.94294C2.40039 1.4236 2.81871 1 3.338 1H15.1663C15.6828 1 16.104 1.4236 16.104 1.94294V15.4052C16.104 15.9246 15.6828 16.3482 15.1663 16.3482ZM3.338 1.72534C3.21972 1.72534 3.12163 1.82398 3.12163 1.94294V15.4052C3.12163 15.5242 3.21972 15.6228 3.338 15.6228H15.1663C15.2846 15.6228 15.3827 15.5242 15.3827 15.4052V1.94294C15.3827 1.82398 15.2846 1.72534 15.1663 1.72534H3.338Z" fill="#222222" stroke="#222222" stroke-width="0.5"/>
<path d="M12.7779 6.93832H5.68093C5.48187 6.93832 5.32031 6.77584 5.32031 6.57565V4.18493C5.32031 3.98474 5.48187 3.82227 5.68093 3.82227H12.7779C12.977 3.82227 13.1386 3.98474 13.1386 4.18493V6.57565C13.1386 6.77584 12.977 6.93832 12.7779 6.93832ZM6.04155 6.21298H12.4173V4.5476H6.04155V6.21298Z" fill="#222222" stroke="#222222" stroke-width="0.5"/>
<path d="M17.6394 18.9997H3.67905C2.75298 18.9997 2 18.2424 2 17.3111C2 16.3797 2.75298 15.6225 3.67905 15.6225H15.3026C15.5016 15.6225 15.6632 15.7849 15.6632 15.9851C15.6632 16.1853 15.5016 16.3478 15.3026 16.3478H3.67905C3.1511 16.3478 2.72124 16.7801 2.72124 17.3111C2.72124 17.842 3.1511 18.2743 3.67905 18.2743H17.2788V3.86619C16.9614 3.84878 16.5142 3.75594 16.1392 3.43679C15.6805 3.048 15.4497 2.43872 15.4497 1.62634C15.4497 1.42615 15.6113 1.26367 15.8103 1.26367C16.0094 1.26367 16.1709 1.42615 16.1709 1.62634C16.1709 2.21532 16.3181 2.63891 16.6066 2.88553C17.0047 3.22499 17.5759 3.13795 17.5817 3.13795C17.6855 3.12054 17.7923 3.14955 17.8759 3.21918C17.9567 3.28882 18.0029 3.39036 18.0029 3.49481V18.6399C18.0029 18.8401 17.8413 19.0026 17.6423 19.0026L17.6394 18.9997Z" fill="#222222" stroke="#222222" stroke-width="0.5"/>
<path d="M15.4621 17.6941H3.86453C3.66546 17.6941 3.50391 17.5316 3.50391 17.3314C3.50391 17.1312 3.66546 16.9688 3.86453 16.9688H15.4621C15.6611 16.9688 15.8227 17.1312 15.8227 17.3314C15.8227 17.5316 15.6611 17.6941 15.4621 17.6941Z" fill="#222222" stroke="#222222" stroke-width="0.5"/>
</svg>
