<svg width="16" height="16" viewBox="0 0 16 16" fill="none" xmlns="http://www.w3.org/2000/svg">
<g clip-path="url(#clip0_3_23651)">
<path d="M8 0C3.58204 0 0 3.58204 0 8C0 12.418 3.58204 16 8 16C12.418 16 16 12.418 16 8C16 3.58204 12.4186 0 8 0ZM7.99692 12.9015C7.48934 12.9015 7.07785 12.49 7.07785 11.9824C7.07785 11.4749 7.48934 11.0634 7.99692 11.0634C8.50451 11.0634 8.91599 11.4749 8.91599 11.9824C8.91599 12.49 8.50451 12.9015 7.99692 12.9015ZM8.91599 9.07738C8.91599 9.58497 8.50451 9.99646 7.99692 9.99646C7.48934 9.99646 7.07785 9.58497 7.07785 9.07738V4.0656C7.07785 3.55802 7.48934 3.14653 7.99692 3.14653C8.50451 3.14653 8.91599 3.55802 8.91599 4.0656V9.07738Z" fill="#568AED"/>
</g>
<defs>
<clipPath id="clip0_3_23651">
<rect width="16" height="16" fill="white"/>
</clipPath>
</defs>
</svg>
