<svg width="381" height="381" viewBox="0 0 381 381" fill="none" xmlns="http://www.w3.org/2000/svg">
<path fill-rule="evenodd" clip-rule="evenodd" d="M190.503 381C139.615 381 91.7783 361.187 55.7983 325.202C19.8184 289.222 0 241.385 0 190.503C0 139.621 19.8184 91.7783 55.7983 55.7983C91.7783 19.8184 139.615 0 190.503 0C241.39 0 289.228 19.8184 325.207 55.7983C361.187 91.7783 381.006 139.615 381.006 190.503C381.006 241.39 361.187 289.228 325.207 325.207C289.228 361.187 241.39 381.006 190.503 381.006V381ZM29.1619 190.503C29.1619 106.45 93.7662 37.2082 175.922 29.815V351.191C93.7615 343.798 29.1619 274.556 29.1619 190.503ZM301.92 307.094C276.236 331.649 242.479 347.826 205.084 351.191V222.588L301.92 307.094ZM321.109 285.134L205.084 183.884V29.815C287.239 37.208 351.844 106.45 351.844 190.503C351.844 225.826 340.435 258.534 321.109 285.134Z" fill="white" fill-opacity="0.3"/>
</svg>
