<svg width="20" height="20" viewBox="0 0 20 20" fill="none" xmlns="http://www.w3.org/2000/svg">
<path d="M2.3686 17.5506C2.29745 17.6234 2.25002 17.7903 2.3775 17.9359C2.4279 17.9936 2.6028 18.03 2.76289 17.9663L11.4639 15.1081C11.5232 15.0899 11.5736 15.0444 11.5973 14.9837L14.2091 8.47541C14.2091 8.47541 14.218 8.45417 14.2209 8.44204L15.2645 7.37401C15.3475 7.28905 15.3475 7.14645 15.2645 7.06149L12.8513 4.52189C12.7713 4.43997 12.626 4.43997 12.546 4.52189L11.4254 5.66881C11.4254 5.66881 11.4135 5.68398 11.4076 5.69005L4.9122 8.10828C4.85291 8.13255 4.80844 8.18413 4.79066 8.24481L2.00989 17.3291C1.98025 17.4262 2.01879 17.5324 2.10476 17.584C2.19073 17.6356 2.29745 17.6234 2.3686 17.5506ZM2.3686 17.5506L7.17417 12.7779" stroke="white" stroke-width="1.5" stroke-linecap="round" stroke-linejoin="round"/>
<path d="M9.23207 11.9018C9.23207 12.5723 8.70142 13.1185 8.04328 13.1185C7.38515 13.1185 6.85449 12.5723 6.85449 11.9018C6.85449 11.2312 7.38515 10.6851 8.04328 10.6851C8.70142 10.6851 9.23207 11.2282 9.23207 11.9018Z" stroke="white" stroke-width="1.5" stroke-linecap="round" stroke-linejoin="round"/>
<path d="M12.5459 4.5257L15.552 1" stroke="white" stroke-width="1.5" stroke-linecap="round" stroke-linejoin="round"/>
<path d="M15.2646 7.37813L19 4.46533" stroke="white" stroke-width="1.5" stroke-linecap="round" stroke-linejoin="round"/>
</svg>
