<svg width="21" height="21" viewBox="0 0 21 21" fill="none" xmlns="http://www.w3.org/2000/svg">
<path d="M14.4271 21.0006C14.3345 21.0006 14.2391 20.9836 14.1494 20.9438C11.1088 19.666 8.17475 17.6498 5.66709 15.1111C3.28285 12.6973 1.35301 9.87467 0.087962 6.95262L0.076742 6.93558C-0.0635074 6.65445 -0.00740764 6.31085 0.211382 6.08935C0.222601 6.07799 0.233821 6.06663 0.245041 6.05527C0.245041 6.05527 0.273091 6.02971 0.275896 6.02971C2.13841 4.37417 3.49602 3.15594 3.68957 2.96568C3.81018 2.82653 3.97848 2.7385 4.16361 2.71862C4.43289 2.69023 4.70217 2.82369 4.84803 3.05655L7.4735 7.26499C7.5857 7.44673 7.61655 7.66822 7.55484 7.86984C7.49313 8.0743 7.34727 8.24184 7.15373 8.32703L5.89709 8.88929C6.69371 10.0479 7.59692 11.1412 8.59269 12.1493C9.68944 13.2596 10.8788 14.2506 12.1354 15.1054L12.7244 13.7565C12.8086 13.5606 12.9741 13.4129 13.176 13.3505C13.378 13.288 13.5968 13.3192 13.7735 13.4328L17.9305 16.0908C18.1633 16.2384 18.2923 16.5082 18.2643 16.7837C18.2447 16.9711 18.1577 17.1443 18.0203 17.2636C17.779 17.5135 16.0343 19.5211 14.9656 20.7507C14.8254 20.9126 14.6262 21.0006 14.4215 21.0006H14.4271Z" fill="#222222"/>
<path d="M12.0781 1C16.4427 1 19.9966 4.59506 19.9966 9.01648" stroke="#C3E0FC" stroke-width="2" stroke-linecap="round" stroke-linejoin="round"/>
<path d="M12.0781 4.42188C14.583 4.42188 16.6138 6.47782 16.6138 9.01367" stroke="#C3E0FC" stroke-width="2" stroke-linecap="round" stroke-linejoin="round"/>
</svg>
