<svg width="20" height="20" viewBox="0 0 20 20" fill="none" xmlns="http://www.w3.org/2000/svg">
<g clip-path="url(#clip0_38_2095)">
<path d="M16.75 3.25C17.1642 3.25 17.5 3.58579 17.5 4V16.0049C17.5 16.4164 17.1585 16.75 16.7561 16.75H3.24385C2.83304 16.75 2.5 16.4163 2.5 16.0049V15.25H16V6.475L10 11.875L2.5 5.125V4C2.5 3.58579 2.83579 3.25 3.25 3.25H16.75ZM7 12.25V13.75H1V12.25H7ZM4.75 8.5V10H1V8.5H4.75ZM15.6744 4.75H4.32561L10 9.85698L15.6744 4.75Z" fill="white"/>
</g>
<defs>
<clipPath id="clip0_38_2095">
<rect width="20" height="20" fill="white"/>
</clipPath>
</defs>
</svg>
