<svg width="90" height="90" viewBox="0 0 90 90" fill="none" xmlns="http://www.w3.org/2000/svg">
<path d="M52.4224 59.2072L46.9539 60.2274L47.9792 54.793" stroke="white" stroke-width="2" stroke-linecap="round" stroke-linejoin="round"/>
<path d="M52.5799 59.2053L65.8001 46.1055C66.0667 45.8403 66.0667 45.4118 65.8001 45.1465L62.1704 41.5349C61.9038 41.2696 61.4731 41.2696 61.2065 41.5349L47.9863 54.6347L52.5799 59.2053Z" stroke="white" stroke-width="2" stroke-linecap="round" stroke-linejoin="round"/>
<path d="M31.69 25V58.6201C31.69 58.6201 31.1022 64.109 27.6228 64.109" stroke="white" stroke-width="2" stroke-linecap="round" stroke-linejoin="round"/>
<path d="M37.4663 35.3281H54.7537" stroke="white" stroke-width="2" stroke-linecap="round" stroke-linejoin="round"/>
<path d="M37.4663 40.9023H54.7537" stroke="white" stroke-width="2" stroke-linecap="round" stroke-linejoin="round"/>
<path d="M37.4663 46.4727H46.3322" stroke="white" stroke-width="2" stroke-linecap="round" stroke-linejoin="round"/>
<path d="M37.4663 52.0469H46.3322" stroke="white" stroke-width="2" stroke-linecap="round" stroke-linejoin="round"/>
<path d="M59.8873 42.8337V25H31.82L31.697 52.2539H24V58.6201C24 62.3746 27.1991 65 31.1023 65H52.785C56.6882 65 59.8873 62.3814 59.8873 58.6201V52.6143" stroke="white" stroke-width="2" stroke-linecap="round" stroke-linejoin="round"/>
</svg>
