<svg width="90" height="90" viewBox="0 0 90 90" fill="none" xmlns="http://www.w3.org/2000/svg">
<path d="M37.7874 50.332H51.2656" stroke="white" stroke-width="2" stroke-linecap="round" stroke-linejoin="round"/>
<path d="M37.7874 45H51.2656" stroke="white" stroke-width="2" stroke-linecap="round" stroke-linejoin="round"/>
<path d="M37.7874 39.668H51.2656" stroke="white" stroke-width="2" stroke-linecap="round" stroke-linejoin="round"/>
<path d="M51.7173 28.332H56.6571V60.9987H32.3962V28.332H37.336" stroke="white" stroke-width="2" stroke-linecap="round" stroke-linejoin="round"/>
<path d="M59.3261 25H29.6739C29.3017 25 29 25.2985 29 25.6667V64.3333C29 64.7015 29.3017 65 29.6739 65H59.3261C59.6983 65 60 64.7015 60 64.3333V25.6667C60 25.2985 59.6983 25 59.3261 25Z" stroke="white" stroke-width="2" stroke-linecap="round" stroke-linejoin="round"/>
<path d="M51.5759 25V29C51.5759 30.4733 50.3696 31.6667 48.8802 31.6667H40.1194C38.63 31.6667 37.4237 30.4733 37.4237 29V25" stroke="white" stroke-width="2" stroke-linecap="round" stroke-linejoin="round"/>
</svg>
