<svg width="90" height="90" viewBox="0 0 90 90" fill="none" xmlns="http://www.w3.org/2000/svg">
<path d="M22.9974 66.81C22.8049 67.0027 22.6765 67.4445 23.0215 67.83C23.1578 67.9826 23.6311 68.079 24.0643 67.9103L47.6083 60.3446C47.7688 60.2965 47.9051 60.176 47.9693 60.0153L55.0365 42.7878C55.0365 42.7878 55.0606 42.7316 55.0686 42.6995L57.8923 39.8724C58.1169 39.6475 58.1169 39.27 57.8923 39.0451L51.3625 32.3228C51.1459 32.1059 50.7529 32.1059 50.5363 32.3228L47.504 35.3587C47.504 35.3587 47.472 35.3989 47.4559 35.4149L29.8801 41.816C29.7197 41.8803 29.5994 42.0168 29.5512 42.1774L22.0268 66.2237C21.9465 66.4807 22.0508 66.7618 22.2835 66.8983C22.5161 67.0349 22.8049 67.0027 22.9974 66.81ZM22.9974 66.81L36.0008 54.1765" stroke="white" stroke-width="2" stroke-linecap="round" stroke-linejoin="round"/>
<path d="M41.568 51.8573C41.568 53.6323 40.1321 55.078 38.3513 55.078C36.5704 55.078 35.1345 53.6323 35.1345 51.8573C35.1345 50.0824 36.5704 48.6367 38.3513 48.6367C40.1321 48.6367 41.568 50.0744 41.568 51.8573Z" stroke="white" stroke-width="2" stroke-linecap="round" stroke-linejoin="round"/>
<path d="M50.5364 32.3326L58.6705 23" stroke="white" stroke-width="2" stroke-linecap="round" stroke-linejoin="round"/>
<path d="M57.8928 39.8821L68.0003 32.1719" stroke="white" stroke-width="2" stroke-linecap="round" stroke-linejoin="round"/>
</svg>
