<svg width="55" height="55" viewBox="0 0 55 55" fill="none" xmlns="http://www.w3.org/2000/svg">
<path d="M31.6765 42.695V37.8438H2V43.3792C2 49.0516 4.31568 50.0026 8.00284 50.0026H37.3209C33.9301 50.0026 31.6765 47.1836 31.6765 42.695Z" fill="white" stroke="#222222" stroke-width="2" stroke-linecap="round" stroke-linejoin="round"/>
<path d="M43.4205 39.0469V43.3781C43.4205 48.3251 40.4363 50.0015 37.3212 50.0015" fill="white"/>
<path d="M43.4205 39.0469V43.3781C43.4205 48.3251 40.4363 50.0015 37.3212 50.0015" stroke="#222222" stroke-width="2" stroke-linecap="round" stroke-linejoin="round"/>
<path d="M43.579 17.3163H53.0002V13.1835C53.0002 8.49645 52.2559 5 47.3489 5H14.7502C10.7736 5 7.82385 7.55905 7.82385 12.4992V37.3644" fill="white"/>
<path d="M43.579 17.3163H53.0002V13.1835C53.0002 8.49645 52.2559 5 47.3489 5H14.7502C10.7736 5 7.82385 7.55905 7.82385 12.4992V37.3644" stroke="#222222" stroke-width="2" stroke-linecap="round" stroke-linejoin="round"/>
<path d="M43.4199 39.0476V12.4992C43.4199 9.99493 43.1097 5 48.0443 5" stroke="#222222" stroke-width="2" stroke-linecap="round" stroke-linejoin="round"/>
<path d="M19.1196 21.406L24.6814 26.3462L33.0206 18.5938" stroke="#0089D0" stroke-width="2" stroke-linecap="round" stroke-linejoin="round"/>
</svg>
