<svg width="55" height="55" viewBox="0 0 55 55" fill="none" xmlns="http://www.w3.org/2000/svg">
<path d="M24.2988 29.333C30.7509 29.333 35.9814 24.1097 35.9814 17.6665C35.9814 11.2233 30.7509 6 24.2988 6C17.8468 6 12.6163 11.2233 12.6163 17.6665C12.6163 24.1097 17.8468 29.333 24.2988 29.333Z" stroke="#222222" stroke-width="2" stroke-linecap="round" stroke-linejoin="round"/>
<path d="M6.00021 46.1559C6.76792 36.7394 14.6675 29.334 24.2973 29.334C33.927 29.334 41.6486 36.5728 42.5665 45.8448" stroke="#222222" stroke-width="2" stroke-linecap="round" stroke-linejoin="round"/>
<path d="M39.8738 51.0031C46.0186 51.0031 51 46.0286 51 39.8922C51 33.7558 46.0186 28.7812 39.8738 28.7812C33.729 28.7812 28.7476 33.7558 28.7476 39.8922C28.7476 46.0286 33.729 51.0031 39.8738 51.0031Z" fill="white" stroke="#0089D0" stroke-width="2" stroke-linecap="round" stroke-linejoin="round"/>
<path d="M35.4839 39.8919L39.4114 42.6696L44.8188 36.5586" fill="white"/>
<path d="M35.4839 39.8919L39.4114 42.6696L44.8188 36.5586" stroke="#0089D0" stroke-width="2" stroke-linecap="round" stroke-linejoin="round"/>
</svg>
