<svg width="132" height="196" viewBox="0 0 132 196" fill="none" xmlns="http://www.w3.org/2000/svg">
<mask id="mask0_111_7723" style="mask-type:alpha" maskUnits="userSpaceOnUse" x="0" y="0" width="132" height="196">
<rect width="132" height="196" fill="#D9D9D9"/>
</mask>
<g mask="url(#mask0_111_7723)">
<rect x="92" y="94" width="1136" height="102" fill="url(#paint0_linear_111_7723)" fill-opacity="0.3"/>
<rect x="92" y="94" width="1136" height="102" fill="url(#paint1_linear_111_7723)" fill-opacity="0.3"/>
<rect width="1136" height="102" transform="matrix(-1 0 0 1 1228 94)" fill="url(#paint2_linear_111_7723)" fill-opacity="0.3"/>
<path d="M0 51.9514L87.2888 1.45794C88.8555 0.53458 90.9444 0 93.108 0H1226.89C1229.06 0 1231.07 0.53458 1232.71 1.45794L1320 52H0V51.9514Z" fill="url(#paint3_linear_111_7723)"/>
<path d="M1320 51.9131L1319.85 89.2158C1319.85 91.8322 1317.69 94.0001 1315.08 94.0001H4.92398C2.31278 94.0001 0.149212 91.907 0.149212 89.2158L0 51.9131H1320Z" fill="url(#paint4_linear_111_7723)"/>
<path style="mix-blend-mode:screen" d="M1320 62.9016V51.9126L1309.7 42.7178L12.5 45L0 51.9126V62.9016H1320Z" fill="url(#paint5_linear_111_7723)"/>
</g>
<defs>
<linearGradient id="paint0_linear_111_7723" x1="690" y1="104" x2="690" y2="158" gradientUnits="userSpaceOnUse">
<stop/>
<stop offset="1" stop-color="white" stop-opacity="0"/>
</linearGradient>
<linearGradient id="paint1_linear_111_7723" x1="1228" y1="99" x2="685" y2="182" gradientUnits="userSpaceOnUse">
<stop stop-color="white"/>
<stop offset="1" stop-color="white" stop-opacity="0"/>
</linearGradient>
<linearGradient id="paint2_linear_111_7723" x1="1136" y1="5" x2="593" y2="88" gradientUnits="userSpaceOnUse">
<stop stop-color="white"/>
<stop offset="1" stop-color="white" stop-opacity="0"/>
</linearGradient>
<linearGradient id="paint3_linear_111_7723" x1="660.037" y1="39" x2="660.037" y2="-22" gradientUnits="userSpaceOnUse">
<stop offset="0.02" stop-color="#F6F6F6"/>
<stop offset="0.96" stop-color="#D8D8D8"/>
<stop offset="0.98" stop-color="#C6C6C6"/>
<stop offset="1" stop-color="#F5F5F5"/>
<stop offset="1" stop-color="#B2B2B2"/>
</linearGradient>
<linearGradient id="paint4_linear_111_7723" x1="660.037" y1="94.0001" x2="660.037" y2="69" gradientUnits="userSpaceOnUse">
<stop offset="0.176666" stop-color="#EFEFEF"/>
<stop offset="1" stop-color="#DCDCDC" stop-opacity="0.6"/>
</linearGradient>
<linearGradient id="paint5_linear_111_7723" x1="660.037" y1="62.9016" x2="660.037" y2="42.7178" gradientUnits="userSpaceOnUse">
<stop offset="0.02"/>
<stop offset="0.06" stop-color="#0C0C0C"/>
<stop offset="0.13" stop-color="#2D2D2D"/>
<stop offset="0.22" stop-color="#626262"/>
<stop offset="0.33" stop-color="#ABABAB"/>
<stop offset="0.44" stop-color="#F5F5F5"/>
<stop offset="0.6" stop-color="#F5F5F5"/>
<stop offset="0.61" stop-color="#EFEFEF"/>
<stop offset="0.76" stop-color="#8A8A8A"/>
<stop offset="0.87" stop-color="#3F3F3F"/>
<stop offset="0.96" stop-color="#111111"/>
<stop offset="1"/>
</linearGradient>
</defs>
</svg>
