<svg width="1056" height="196" viewBox="0 0 1056 196" fill="none" xmlns="http://www.w3.org/2000/svg">
<mask id="mask0_111_7682" style="mask-type:alpha" maskUnits="userSpaceOnUse" x="0" y="0" width="1056" height="196">
<rect width="1056" height="196" transform="matrix(-1 0 0 1 1056 0)" fill="#D9D9D9"/>
</mask>
<g mask="url(#mask0_111_7682)">
<rect x="-40" y="94" width="1136" height="102" fill="url(#paint0_linear_111_7682)" fill-opacity="0.3"/>
<rect x="-40" y="94" width="1136" height="102" fill="url(#paint1_linear_111_7682)" fill-opacity="0.3"/>
<rect width="1136" height="102" transform="matrix(-1 0 0 1 1096 94)" fill="url(#paint2_linear_111_7682)" fill-opacity="0.3"/>
<path d="M-132 51.9514L-44.7112 1.45794C-43.1445 0.53458 -41.0556 0 -38.892 0H1094.89C1097.06 0 1099.07 0.53458 1100.71 1.45794L1188 52H-132V51.9514Z" fill="url(#paint3_linear_111_7682)"/>
<path d="M1188 51.9131L1187.85 89.2158C1187.85 91.8322 1185.69 94.0001 1183.08 94.0001H-127.076C-129.687 94.0001 -131.851 91.907 -131.851 89.2158L-132 51.9131H1188Z" fill="url(#paint4_linear_111_7682)"/>
<path style="mix-blend-mode:screen" d="M1188 62.9016V51.9126L1177.7 42.7178H-121.63L-132 51.9126V62.9016H1188Z" fill="url(#paint5_linear_111_7682)"/>
</g>
<defs>
<linearGradient id="paint0_linear_111_7682" x1="558" y1="104" x2="558" y2="158" gradientUnits="userSpaceOnUse">
<stop/>
<stop offset="1" stop-color="white" stop-opacity="0"/>
</linearGradient>
<linearGradient id="paint1_linear_111_7682" x1="1096" y1="99" x2="553" y2="182" gradientUnits="userSpaceOnUse">
<stop stop-color="white"/>
<stop offset="1" stop-color="white" stop-opacity="0"/>
</linearGradient>
<linearGradient id="paint2_linear_111_7682" x1="1136" y1="5" x2="593" y2="88" gradientUnits="userSpaceOnUse">
<stop stop-color="white"/>
<stop offset="1" stop-color="white" stop-opacity="0"/>
</linearGradient>
<linearGradient id="paint3_linear_111_7682" x1="528.037" y1="39" x2="528.037" y2="-22" gradientUnits="userSpaceOnUse">
<stop offset="0.02" stop-color="#F6F6F6"/>
<stop offset="0.96" stop-color="#D8D8D8"/>
<stop offset="0.98" stop-color="#C6C6C6"/>
<stop offset="1" stop-color="#F5F5F5"/>
<stop offset="1" stop-color="#B2B2B2"/>
</linearGradient>
<linearGradient id="paint4_linear_111_7682" x1="528.037" y1="94.0001" x2="528.037" y2="69" gradientUnits="userSpaceOnUse">
<stop offset="0.176666" stop-color="#EFEFEF"/>
<stop offset="1" stop-color="#DCDCDC" stop-opacity="0.6"/>
</linearGradient>
<linearGradient id="paint5_linear_111_7682" x1="528.037" y1="62.9016" x2="528.037" y2="42.7178" gradientUnits="userSpaceOnUse">
<stop offset="0.02"/>
<stop offset="0.06" stop-color="#0C0C0C"/>
<stop offset="0.13" stop-color="#2D2D2D"/>
<stop offset="0.22" stop-color="#626262"/>
<stop offset="0.33" stop-color="#ABABAB"/>
<stop offset="0.44" stop-color="#F5F5F5"/>
<stop offset="0.6" stop-color="#F5F5F5"/>
<stop offset="0.61" stop-color="#EFEFEF"/>
<stop offset="0.76" stop-color="#8A8A8A"/>
<stop offset="0.87" stop-color="#3F3F3F"/>
<stop offset="0.96" stop-color="#111111"/>
<stop offset="1"/>
</linearGradient>
</defs>
</svg>
