<svg width="70" height="70" viewBox="0 0 70 70" fill="none" xmlns="http://www.w3.org/2000/svg">
<circle cx="35" cy="35" r="35" fill="white"/>
<path d="M28.4405 28.0753C28.4405 30.3275 26.6519 32.1506 24.4424 32.1506C22.233 32.1506 20.4443 30.3275 20.4443 28.0753C20.4443 25.8232 22.233 24 24.4424 24C26.6519 24 28.4405 25.8232 28.4405 28.0753Z" fill="#568AED"/>
<path d="M49.5558 28.0753C49.5558 30.3275 47.7671 32.1506 45.5577 32.1506C43.3482 32.1506 41.5596 30.3275 41.5596 28.0753C41.5596 25.8232 43.3482 24 45.5577 24C47.7671 24 49.5558 25.8232 49.5558 28.0753Z" fill="#568AED"/>
<path d="M30.3747 38.6499C29.3954 36.2988 27.1131 34.6406 24.4423 34.6406C20.8893 34.6406 18 37.5775 18 41.2073V44.9939H27.542" fill="#568AED"/>
<path d="M42.4581 45.0017H52.0002V41.2151C52.0002 37.5936 49.1189 34.6484 45.5579 34.6484C42.8952 34.6484 40.6048 36.2984 39.6255 38.6578" fill="#568AED"/>
<path d="M38.9942 30.0714C38.9942 32.3236 37.2056 34.1467 34.9961 34.1467C32.7867 34.1467 30.998 32.3236 30.998 30.0714C30.998 27.8193 32.7867 25.9961 34.9961 25.9961C37.2056 25.9961 38.9942 27.8193 38.9942 30.0714Z" fill="#293F8F"/>
<path d="M39.6254 38.6531C38.4518 37.4157 36.817 36.6484 34.996 36.6484C33.175 36.6484 31.5401 37.4239 30.3666 38.6531C29.2497 39.8328 28.5537 40.798 28.5537 42.5717V47.0017H41.4302V42.5717C41.4302 40.798 40.7341 39.8328 39.6173 38.6531H39.6254Z" fill="#293F8F"/>
</svg>
