<svg width="80" height="36" viewBox="0 0 80 36" fill="none" xmlns="http://www.w3.org/2000/svg">
<path d="M77.106 9.03541C77.106 8.29141 77.046 7.66741 76.926 7.16341C76.83 6.65941 76.662 6.21541 76.422 5.83141C76.206 5.44741 75.918 5.1114 75.558 4.8234C75.222 4.53541 74.814 4.24741 74.334 3.9594C73.998 3.76741 73.758 3.53941 73.614 3.27541C73.47 3.01141 73.518 2.68741 73.758 2.3034C74.022 1.89541 74.322 1.69141 74.658 1.69141C75.018 1.69141 75.366 1.76341 75.702 1.90741C76.398 2.19541 76.998 2.57941 77.502 3.05941C78.006 3.51541 78.414 4.04341 78.726 4.6434C79.062 5.21941 79.302 5.84341 79.446 6.51541C79.614 7.16341 79.698 7.79941 79.698 8.42341C79.698 12.5514 79.698 16.5114 79.698 20.3034C79.698 24.0714 79.662 27.8394 79.59 31.6074C79.59 31.7994 79.566 32.0634 79.518 32.3994C79.47 32.7354 79.386 33.0714 79.266 33.4074C79.17 33.7434 79.038 34.0314 78.87 34.2714C78.726 34.5114 78.546 34.6314 78.33 34.6314C78.138 34.6314 77.982 34.5234 77.862 34.3074C77.742 34.1154 77.646 33.8634 77.574 33.5514C77.502 33.2634 77.442 32.9394 77.394 32.5794C77.37 32.2434 77.358 31.9434 77.358 31.6794C77.334 31.0794 77.31 30.3594 77.286 29.5194C77.286 28.7034 77.274 27.8034 77.25 26.8194C77.226 25.8354 77.202 24.7914 77.178 23.6874C77.178 22.5594 77.166 21.4194 77.142 20.2674C76.998 20.3154 76.854 20.3634 76.71 20.4114C76.59 20.4594 76.41 20.5314 76.17 20.6274C75.954 20.6994 75.642 20.8194 75.234 20.9874C74.85 21.1554 74.322 21.3834 73.65 21.6714C72.45 22.1754 71.214 22.7154 69.942 23.2914C68.694 23.8434 67.434 24.3594 66.162 24.8394C64.89 25.3194 63.63 25.7274 62.382 26.0634C61.158 26.3994 59.994 26.5914 58.89 26.6394C58.578 26.6634 58.254 26.6874 57.918 26.7114C57.582 26.7114 57.258 26.6874 56.946 26.6394C56.562 26.5914 56.25 26.4714 56.01 26.2794C55.77 26.0634 55.674 25.7634 55.722 25.3794C55.722 24.9954 55.854 24.7194 56.118 24.5514C56.406 24.3834 56.682 24.3234 56.946 24.3714C58.578 24.3954 60.186 24.2154 61.77 23.8314C63.354 23.4234 64.89 22.9314 66.378 22.3554C67.866 21.7554 69.306 21.1314 70.698 20.4834C72.09 19.8114 73.422 19.2234 74.694 18.7194C75.318 18.4794 75.846 18.2154 76.278 17.9274C76.71 17.6394 76.998 17.2554 77.142 16.7754C77.118 15.3594 77.106 13.9914 77.106 12.6714C77.106 11.3514 77.106 10.1394 77.106 9.03541ZM66.774 19.5474C66.27 19.6434 65.706 19.6554 65.082 19.5834C64.482 19.4874 63.906 19.2954 63.354 19.0074C62.826 18.7194 62.382 18.3234 62.022 17.8194C61.662 17.3154 61.482 16.7034 61.482 15.9834C61.482 15.3114 61.614 14.6994 61.878 14.1474C62.166 13.5714 62.538 13.0794 62.994 12.6714C63.474 12.2394 64.026 11.8914 64.65 11.6274C65.274 11.3634 65.91 11.2074 66.558 11.1594C67.23 11.0874 67.866 11.1354 68.466 11.3034C69.09 11.4474 69.63 11.6994 70.086 12.0594C70.542 12.3954 70.902 12.8274 71.166 13.3554C71.43 13.8594 71.55 14.4474 71.526 15.1194C71.478 16.3194 71.01 17.3034 70.122 18.0714C69.234 18.8154 68.118 19.3074 66.774 19.5474ZM60.618 11.4474C60.138 11.4954 59.67 11.4834 59.214 11.4114C58.782 11.3154 58.542 11.0154 58.494 10.5114C58.494 10.1994 58.554 9.95941 58.674 9.79141C58.818 9.59941 58.998 9.46741 59.214 9.39541C59.43 9.29941 59.658 9.23941 59.898 9.21541C60.162 9.19141 60.402 9.17941 60.618 9.17941C61.074 9.15541 61.602 9.09541 62.202 8.99941C62.826 8.90341 63.462 8.79541 64.11 8.67541C64.758 8.53141 65.406 8.38741 66.054 8.24341C66.726 8.09941 67.338 7.96741 67.89 7.84741C67.41 7.48741 66.846 7.1874 66.198 6.9474C65.574 6.68341 65.046 6.49141 64.614 6.37141C64.302 6.27541 64.002 6.17941 63.714 6.08341C63.45 5.98741 63.318 5.7234 63.318 5.2914C63.342 5.0754 63.414 4.9074 63.534 4.78741C63.654 4.64341 63.786 4.53541 63.93 4.46341C64.098 4.36741 64.254 4.3074 64.398 4.28341C64.566 4.25941 64.698 4.25941 64.794 4.28341C65.922 4.54741 66.966 4.93141 67.926 5.43541C68.886 5.93941 69.714 6.57541 70.41 7.34341C70.818 7.27141 71.142 7.34341 71.382 7.55941C71.622 7.77541 71.766 8.02741 71.814 8.3154C71.862 8.57941 71.814 8.84341 71.67 9.10741C71.55 9.34741 71.31 9.47941 70.95 9.50341C70.182 9.57541 69.354 9.70741 68.466 9.89941C67.578 10.0674 66.678 10.2594 65.766 10.4754C64.878 10.6914 63.99 10.8954 63.102 11.0874C62.214 11.2554 61.386 11.3754 60.618 11.4474ZM63.786 15.6234C63.786 16.0554 63.87 16.4154 64.038 16.7034C64.23 16.9914 64.458 17.2074 64.722 17.3514C64.986 17.4954 65.274 17.5914 65.586 17.6394C65.898 17.6634 66.198 17.6514 66.486 17.6034C67.158 17.4594 67.758 17.1714 68.286 16.7394C68.838 16.3074 69.102 15.6714 69.078 14.8314C69.03 14.0874 68.742 13.5954 68.214 13.3554C67.686 13.0914 67.146 12.9834 66.594 13.0314C66.258 13.0554 65.922 13.1274 65.586 13.2474C65.274 13.3674 64.974 13.5354 64.686 13.7514C64.422 13.9674 64.206 14.2314 64.038 14.5434C63.87 14.8554 63.786 15.2154 63.786 15.6234Z" fill="#222222"/>
<path d="M43.0928 2.88291C43.6688 2.85891 44.2448 2.94291 44.8208 3.13491C45.3968 3.30291 45.9008 3.54291 46.3328 3.85491C46.7888 4.16691 47.1488 4.53891 47.4128 4.97091C47.7008 5.37891 47.8448 5.79891 47.8448 6.23091C47.8448 6.95091 47.7008 7.63491 47.4128 8.28291C47.1248 8.90691 46.7408 9.45891 46.2608 9.93891C45.7808 10.4189 45.2048 10.8149 44.5328 11.1269C43.8608 11.4149 43.1528 11.5709 42.4088 11.5949C41.8328 11.6189 41.2808 11.5709 40.7528 11.4509C40.2248 11.3069 39.7568 11.1149 39.3488 10.8749C38.9648 10.6349 38.6408 10.3469 38.3768 10.0109C38.1128 9.67491 37.9568 9.3029 37.9088 8.89491C37.7888 8.1509 37.8728 7.41891 38.1608 6.69891C38.4728 5.95491 38.8928 5.30691 39.4208 4.75491C39.9488 4.20291 40.5368 3.75891 41.1848 3.42291C41.8328 3.06291 42.4688 2.88291 43.0928 2.88291ZM43.1288 4.64691C42.8408 4.74291 42.5408 4.87491 42.2288 5.04291C41.9168 5.21091 41.6168 5.40291 41.3288 5.61891C41.0648 5.83491 40.8248 6.07491 40.6088 6.33891C40.3928 6.60291 40.2488 6.85491 40.1768 7.09491C39.9368 7.93491 40.0568 8.54691 40.5368 8.93091C41.0408 9.29091 41.6888 9.47091 42.4808 9.47091C43.2008 9.47091 43.8728 9.23091 44.4968 8.75091C45.1448 8.27091 45.5288 7.61091 45.6488 6.77091C45.6728 6.45891 45.6008 6.17091 45.4328 5.90691C45.2648 5.64291 45.0488 5.42691 44.7848 5.25891C44.5448 5.06691 44.2688 4.9229 43.9568 4.8269C43.6448 4.7069 43.3688 4.64691 43.1288 4.64691ZM47.3048 12.4589C48.3848 12.0749 49.4288 11.7269 50.4368 11.4149C51.4688 11.1029 52.4408 10.9829 53.3528 11.0549C53.6168 11.0789 53.8568 11.1629 54.0728 11.3069C54.2888 11.4509 54.4208 11.6909 54.4688 12.0269C54.5168 12.3629 54.4088 12.6149 54.1448 12.7829C53.8808 12.9509 53.6288 13.0469 53.3888 13.0709C53.1968 13.0949 52.9448 13.1309 52.6328 13.1789C52.3208 13.2269 51.9968 13.2869 51.6608 13.3589C51.3248 13.4309 51.0008 13.5029 50.6888 13.5749C50.4008 13.6469 50.1728 13.7069 50.0048 13.7549L49.4648 13.9349C49.2968 14.1029 49.2728 14.5349 49.3928 15.2309C49.4648 15.8789 49.5248 16.5749 49.5728 17.3189C49.6208 18.0629 49.6448 18.8069 49.6448 19.5509C49.6448 20.2709 49.6088 20.9789 49.5368 21.6749C49.4648 22.3469 49.3448 22.9469 49.1768 23.4749C49.1288 23.6189 49.0568 23.7869 48.9608 23.9789C48.8648 24.1709 48.7568 24.3509 48.6368 24.5189C48.5168 24.6869 48.3728 24.8189 48.2048 24.9149C48.0368 24.9869 47.8448 24.9869 47.6288 24.9149C47.2688 24.7949 47.0768 24.5309 47.0528 24.1229C47.0528 23.6909 47.0768 23.3069 47.1248 22.9709C47.2448 21.8669 47.2928 20.7749 47.2688 19.6949C47.2688 18.5909 47.1728 17.4989 46.9808 16.4189C46.9088 16.0109 46.8008 15.6869 46.6568 15.4469C46.5368 15.2069 46.3928 15.1229 46.2248 15.1949L42.5168 16.7429C42.3488 16.8149 42.2888 17.0309 42.3368 17.3909C42.3848 17.7269 42.4328 18.0509 42.4808 18.3629C42.5048 18.7229 42.5288 19.1669 42.5528 19.6949C42.6008 20.2229 42.6248 20.7749 42.6248 21.3509C42.6248 21.9269 42.6008 22.5029 42.5528 23.0789C42.5288 23.6309 42.4688 24.1229 42.3728 24.5549C42.3488 24.7229 42.3008 24.9029 42.2288 25.0949C42.1568 25.2629 42.0608 25.4189 41.9408 25.5629C41.8448 25.7069 41.7248 25.8269 41.5808 25.9229C41.4368 26.0189 41.2808 26.0549 41.1128 26.0309C40.6568 25.9829 40.3808 25.8029 40.2848 25.4909C40.1888 25.1789 40.1648 24.8189 40.2128 24.4109C40.3328 23.3789 40.3568 22.2629 40.2848 21.0629C40.2368 19.8389 40.1648 18.7469 40.0688 17.7869C39.1328 18.1949 38.2448 18.5789 37.4048 18.9389C36.5648 19.2749 35.8448 19.5629 35.2448 19.8029C34.3808 20.1389 33.4328 20.3549 32.4008 20.4509C31.3688 20.5229 30.3488 20.5469 29.3408 20.5229C29.0048 20.5229 28.7048 20.4629 28.4408 20.3429C28.1768 20.2229 28.0448 19.9709 28.0448 19.5869C27.9968 19.2029 28.1048 18.8909 28.3688 18.6509C28.6328 18.4109 28.8968 18.2789 29.1608 18.2549C29.9288 18.2309 30.6968 18.2189 31.4648 18.2189C32.2568 18.2189 33.0008 18.0989 33.6968 17.8589C34.6328 17.5469 35.7008 17.1509 36.9008 16.6709C38.1248 16.1669 39.3608 15.6629 40.6088 15.1589C41.8808 14.6309 43.1048 14.1269 44.2808 13.6469C45.4568 13.1429 46.4648 12.7469 47.3048 12.4589ZM53.0648 28.4789C53.2088 28.6709 53.1728 28.9709 52.9568 29.3789C52.7648 29.8109 52.4528 30.2549 52.0208 30.7109C51.6128 31.1669 51.1088 31.5989 50.5088 32.0069C49.9328 32.4149 49.3208 32.7269 48.6728 32.9429C47.9768 33.1829 47.2568 33.2669 46.5128 33.1949C45.7928 33.1469 45.1088 32.9789 44.4608 32.6909C43.2368 32.2589 42.1448 31.6949 41.1848 30.9989C40.2488 30.3269 39.3008 29.5349 38.3408 28.6229C38.0528 28.3349 37.7648 28.0589 37.4768 27.7949C37.2128 27.5309 36.9128 27.2909 36.5768 27.0749C36.2648 26.8589 35.9168 26.6789 35.5328 26.5349C35.1488 26.3909 34.7048 26.2949 34.2008 26.2469C33.8408 26.1989 33.4928 26.0549 33.1568 25.8149C32.8448 25.5749 32.7008 25.1909 32.7248 24.6629C32.7248 24.4229 32.7968 24.2309 32.9408 24.0869C33.0848 23.9429 33.2528 23.8349 33.4448 23.7629C33.6608 23.6909 33.8888 23.6549 34.1288 23.6549C34.3688 23.6549 34.5968 23.6669 34.8128 23.6909C35.7008 23.8109 36.4568 24.0389 37.0808 24.3749C37.7048 24.6869 38.3288 25.1189 38.9528 25.6709C39.6008 26.2709 40.2368 26.8829 40.8608 27.5069C41.4848 28.1309 42.1208 28.6949 42.7688 29.1989C43.4408 29.7269 44.1128 30.1589 44.7848 30.4949C45.4808 30.8309 46.2128 31.0109 46.9808 31.0349C48.2048 31.0589 49.5848 30.4469 51.1208 29.1989C51.2408 29.1269 51.3848 29.0189 51.5528 28.8749C51.7448 28.7309 51.9368 28.5989 52.1288 28.4789C52.3208 28.3589 52.5008 28.2869 52.6688 28.2629C52.8368 28.2389 52.9688 28.3109 53.0648 28.4789Z" fill="#222222"/>
<path d="M21.0319 6.48134C21.0319 5.85734 20.8759 5.34134 20.5639 4.93334C20.2519 4.50134 19.6999 4.11734 18.9079 3.78134C18.3559 3.54134 17.9359 3.25334 17.6479 2.91734C17.3599 2.55734 17.3479 2.13734 17.6119 1.65734C17.8759 1.17734 18.1879 0.973337 18.5479 1.04534C18.9319 1.09334 19.4359 1.26134 20.0599 1.54934C20.7799 1.88534 21.3679 2.24534 21.8239 2.62934C22.2799 2.98934 22.6399 3.39734 22.9039 3.85334C23.1679 4.30934 23.3479 4.83734 23.4439 5.43734C23.5399 6.01334 23.5879 6.67334 23.5879 7.41734V15.6253C23.5879 16.5373 23.5759 17.3893 23.5519 18.1813C23.5279 18.9733 23.4439 19.7893 23.2999 20.6293C23.6839 20.7973 23.8999 21.1093 23.9479 21.5653C23.9719 22.1893 23.9839 22.8853 23.9839 23.6533C24.0079 24.3973 23.9959 25.1653 23.9479 25.9573C23.8999 26.7493 23.8039 27.5293 23.6599 28.2973C23.5399 29.0893 23.3479 29.8213 23.0839 30.4933C22.9399 30.8773 22.9519 31.1533 23.1199 31.3213C23.2639 31.4413 23.4199 31.5493 23.5879 31.6453C23.7559 31.7413 23.9359 31.8493 24.1279 31.9693C24.2959 32.0893 24.4519 32.2813 24.5959 32.5453C24.7639 32.8333 24.7639 33.1093 24.5959 33.3733C24.4279 33.6373 24.2119 33.7573 23.9479 33.7333C23.6839 33.7333 23.4199 33.6973 23.1559 33.6253C22.0519 33.3133 20.9119 33.0493 19.7359 32.8333C18.5599 32.6413 17.4319 32.5453 16.3519 32.5453C16.1359 32.5453 15.8959 32.5333 15.6319 32.5093C15.3679 32.5093 15.1279 32.5333 14.9119 32.5813C14.6959 32.6533 14.5159 32.7733 14.3719 32.9413C14.2279 33.1333 14.1559 33.4093 14.1559 33.7693C14.1559 34.1053 14.0599 34.3933 13.8679 34.6333C13.6999 34.8973 13.4119 35.0053 13.0039 34.9573C12.5959 34.9573 12.3079 34.7893 12.1399 34.4533C11.9959 34.1173 11.8879 33.7813 11.8159 33.4453C11.6239 32.6053 11.4199 31.7053 11.2039 30.7453C10.9879 29.8093 10.7479 28.9693 10.4839 28.2253C10.2679 27.6013 9.9679 27.0733 9.5839 26.6413C9.2239 26.1853 8.7079 25.8373 8.0359 25.5973C7.8199 25.5253 7.6039 25.4533 7.3879 25.3813C7.1959 25.3093 7.0159 25.2133 6.8479 25.0933C6.7039 24.9733 6.5959 24.8293 6.5239 24.6613C6.4519 24.4933 6.4639 24.2773 6.5599 24.0133C6.7279 23.5333 7.0519 23.2213 7.5319 23.0773C8.0359 22.9093 8.5519 22.9573 9.0799 23.2213C9.3919 23.3893 9.6679 23.5213 9.9079 23.6173C10.1479 23.7133 10.3759 23.7973 10.5919 23.8693C10.8079 23.9173 11.0239 23.9533 11.2399 23.9773C11.4799 23.9773 11.7559 23.9773 12.0679 23.9773C12.6919 23.7373 13.3999 23.4613 14.1919 23.1493C14.9839 22.8133 15.7879 22.4893 16.6039 22.1773C17.4439 21.8653 18.2599 21.5773 19.0519 21.3133C19.8679 21.0253 20.5879 20.8093 21.2119 20.6653C21.1639 19.9933 21.1279 19.2733 21.1039 18.5053C21.1039 17.7133 21.1039 16.8973 21.1039 16.0573L21.0319 6.48134ZM11.0959 16.5613C10.6159 17.2093 10.0399 17.8933 9.3679 18.6133C8.6959 19.3093 7.9519 19.9573 7.1359 20.5573C6.3439 21.1573 5.5039 21.6733 4.6159 22.1053C3.7279 22.5133 2.8399 22.7533 1.9519 22.8253C1.7839 22.8493 1.5679 22.8373 1.3039 22.7893C1.0639 22.7173 0.931897 22.5973 0.907897 22.4293C0.883897 22.2373 0.979897 22.0813 1.1959 21.9613C1.4119 21.8173 1.6039 21.6973 1.7719 21.6013C3.0919 20.8813 4.2679 20.1133 5.2999 19.2973C6.3559 18.4813 7.2799 17.5813 8.0719 16.5973C8.8879 15.6133 9.5959 14.5333 10.1959 13.3573C10.7959 12.1573 11.3119 10.8373 11.7439 9.39734C10.8799 9.56534 10.1359 9.75734 9.5119 9.97334C8.8879 10.1653 8.3359 10.3093 7.8559 10.4053C7.4239 10.5013 6.9319 10.5853 6.3799 10.6573C5.8519 10.7053 5.4439 10.7173 5.1559 10.6933C4.7959 10.6693 4.4839 10.6093 4.2199 10.5133C3.9799 10.3933 3.8239 10.1533 3.7519 9.79334C3.6799 9.38534 3.7279 9.06134 3.8959 8.82134C4.0879 8.58134 4.3519 8.43734 4.6879 8.38934C5.0959 8.34134 5.4559 8.31734 5.7679 8.31734C6.1039 8.29334 6.4759 8.24534 6.8839 8.17334C7.9879 7.95734 9.0199 7.72934 9.9799 7.48934C10.9399 7.24934 11.9479 7.03334 13.0039 6.84134C13.2199 6.81734 13.4359 6.78134 13.6519 6.73334C13.8679 6.66134 14.0719 6.61334 14.2639 6.58934C14.4559 6.56534 14.6239 6.58934 14.7679 6.66134C14.9119 6.70934 15.0199 6.82934 15.0919 7.02134C15.2119 7.35734 15.2239 7.70534 15.1279 8.06534C15.0319 8.40134 14.9239 8.68934 14.8039 8.92934C14.6119 9.33734 14.3839 9.86534 14.1199 10.5133C13.8559 11.1613 13.5559 11.8573 13.2199 12.6013C12.9079 13.3213 12.5599 14.0413 12.1759 14.7613C11.8159 15.4573 11.4559 16.0573 11.0959 16.5613ZM20.0239 23.2933C19.6879 23.3893 19.2319 23.5453 18.6559 23.7613C18.0799 23.9533 17.4799 24.1693 16.8559 24.4093C16.2319 24.6253 15.6199 24.8533 15.0199 25.0933C14.4439 25.3093 13.9759 25.4893 13.6159 25.6333C13.2319 25.8013 12.9559 25.9693 12.7879 26.1373C12.6199 26.2813 12.5599 26.5213 12.6079 26.8573C12.6319 26.9773 12.6799 27.1693 12.7519 27.4333C12.8239 27.6973 12.8959 27.9973 12.9679 28.3333C13.0639 28.6693 13.1479 29.0053 13.2199 29.3413C13.3159 29.6773 13.3879 29.9533 13.4359 30.1693C13.5319 30.6013 13.6519 30.8053 13.7959 30.7813C13.9399 30.7813 14.1199 30.7573 14.3359 30.7093C14.7439 30.6133 15.2239 30.5293 15.7759 30.4573C16.3519 30.4093 16.9399 30.3733 17.5399 30.3493C18.1399 30.3493 18.7159 30.3613 19.2679 30.3853C19.8439 30.4333 20.3479 30.5053 20.7799 30.6013C20.9719 30.3613 21.1279 29.9293 21.2479 29.3053C21.3679 28.6813 21.4399 28.0213 21.4639 27.3253C21.5119 26.6533 21.5239 26.0173 21.4999 25.4173C21.4999 24.7933 21.4639 24.3493 21.3919 24.0853C21.2959 23.7493 21.1639 23.4973 20.9959 23.3293C20.8279 23.1613 20.5039 23.1493 20.0239 23.2933Z" fill="#222222"/>
</svg>
