<svg width="43" height="43" viewBox="0 0 43 43" fill="none" xmlns="http://www.w3.org/2000/svg">
<circle cx="21.5" cy="21.5" r="21.5" fill="#DB5527"/>
<path d="M10.477 31.4434C10.3849 31.5334 10.3236 31.7395 10.4885 31.9194C10.5538 31.9906 10.7801 32.0356 10.9873 31.9569L22.2475 28.4262C22.3243 28.4038 22.3895 28.3475 22.4202 28.2726L25.8002 20.233C25.8002 20.233 25.8117 20.2068 25.8155 20.1918L27.166 18.8725C27.2734 18.7675 27.2734 18.5914 27.166 18.4864L24.043 15.3493C23.9395 15.2481 23.7515 15.2481 23.6479 15.3493L22.1977 16.7661C22.1977 16.7661 22.1823 16.7848 22.1746 16.7923L13.7688 19.7795C13.692 19.8095 13.6345 19.8732 13.6115 19.9482L10.0128 31.1698C9.97444 31.2898 10.0243 31.4209 10.1356 31.4846C10.2468 31.5484 10.3849 31.5334 10.477 31.4434ZM10.477 31.4434L16.6961 25.5478" stroke="white" stroke-width="2" stroke-linecap="round" stroke-linejoin="round"/>
<path d="M19.3582 24.4678C19.3582 25.2961 18.6714 25.9708 17.8197 25.9708C16.968 25.9708 16.2812 25.2961 16.2812 24.4678C16.2812 23.6395 16.968 22.9648 17.8197 22.9648C18.6714 22.9648 19.3582 23.6357 19.3582 24.4678Z" stroke="white" stroke-width="2" stroke-linecap="round" stroke-linejoin="round"/>
<path d="M23.6484 15.3552L27.5387 11" stroke="white" stroke-width="2" stroke-linecap="round" stroke-linejoin="round"/>
<path d="M27.1641 18.8794L31.9981 15.2812" stroke="white" stroke-width="2" stroke-linecap="round" stroke-linejoin="round"/>
</svg>
