<svg width="20" height="20" viewBox="0 0 20 20" fill="none" xmlns="http://www.w3.org/2000/svg">
<path d="M16.4772 10.7694C16.4795 10.9626 16.4454 11.1512 16.3749 11.324C16.3044 11.499 16.1999 11.6581 16.0635 11.7945L12.9608 14.8973L9.85801 18L5.93014 14.0721L2 10.1465L5.10274 7.04379L8.20549 3.94105C8.34187 3.80467 8.50099 3.70011 8.67601 3.62964C8.85104 3.55918 9.0397 3.52281 9.23064 3.52735L12.6584 3.26368L16.0862 3C16.3363 3.00455 16.5613 3.10683 16.7272 3.27277C16.8909 3.43643 16.9955 3.66374 17 3.91377L16.7363 7.34157L16.4726 10.7694H16.4772ZM12.3516 7.6507C12.6221 7.9212 12.9767 8.05758 13.3313 8.05986C13.6859 8.05986 14.0405 7.92575 14.3087 7.65752C14.5792 7.38703 14.7133 7.0347 14.711 6.6801C14.711 6.3255 14.5746 5.9709 14.3019 5.70041C14.0314 5.42991 13.6768 5.29353 13.3222 5.29126C12.9676 5.29126 12.613 5.42309 12.3447 5.69359C12.0743 5.96409 11.9401 6.31641 11.9424 6.67101C11.9424 7.02561 12.0788 7.38021 12.3516 7.6507Z" stroke="#002753" stroke-width="2" stroke-linecap="round" stroke-linejoin="round"/>
</svg>
