<svg width="20" height="20" viewBox="0 0 20 20" fill="none" xmlns="http://www.w3.org/2000/svg">
<path d="M16.8473 6.39994V1.59999C16.8473 1.27 16.5764 1 16.2452 1H4.80617C3.81278 1 3 1.80999 3 2.79998V17.1998" stroke="#0089D0" stroke-width="2" stroke-linecap="round" stroke-linejoin="round"/>
<path d="M16.8473 15.3986H4.80617C3.81278 15.3986 3 16.2086 3 17.1986C3 18.1886 3.81278 18.9986 4.80617 18.9986H16.2452C16.5764 18.9986 16.8473 18.7286 16.8473 18.3986V10.0977" stroke="#0089D0" stroke-width="2" stroke-linecap="round" stroke-linejoin="round"/>
<path d="M4.80664 14.2012V2.40234" stroke="#0089D0" stroke-width="2" stroke-linecap="round" stroke-linejoin="round"/>
<path d="M17.1739 10.0647H13.0679C12.0715 10.0647 11.2617 9.25775 11.2617 8.26476V8.25276C11.2617 7.26277 12.0625 6.45878 13.0558 6.45278L17.1739 6.42578C17.1739 6.42578 17.9987 6.44678 17.9987 6.99878V10.8477C17.9987 10.8477 18.0499 11.6967 16.9963 11.6967" stroke="#0089D0" stroke-width="2" stroke-linecap="round" stroke-linejoin="round"/>
<path d="M13.0842 8.49843C13.2505 8.49843 13.3853 8.36412 13.3853 8.19843C13.3853 8.03275 13.2505 7.89844 13.0842 7.89844C12.918 7.89844 12.7832 8.03275 12.7832 8.19843C12.7832 8.36412 12.918 8.49843 13.0842 8.49843Z" stroke="#0089D0" stroke-width="2" stroke-linecap="round" stroke-linejoin="round"/>
</svg>
