<svg width="18" height="18" viewBox="0 0 18 18" fill="none" xmlns="http://www.w3.org/2000/svg">
<path d="M8.49758 15.9958C10.4238 15.9958 11.9854 12.6389 11.9854 8.49788C11.9854 4.35692 10.4238 1 8.49758 1C6.57131 1 5.00977 4.35692 5.00977 8.49788C5.00977 12.6389 6.57131 15.9958 8.49758 15.9958Z" fill="#F5F5F5" stroke="#666666" stroke-width="1.5" stroke-linecap="round" stroke-linejoin="round"/>
<path d="M8.49788 1C6.13635 1 4.03367 2.08994 2.65762 3.79751C1.62217 5.08274 1 6.71765 1 8.49788H8.49788V1Z" stroke="#666666" stroke-width="1.5" stroke-linecap="round" stroke-linejoin="round"/>
<path d="M1 8.49609C1 12.6379 4.35611 15.994 8.49788 15.994V8.49609H1Z" stroke="#666666" stroke-width="1.5" stroke-linecap="round" stroke-linejoin="round"/>
<path d="M8.49805 1V8.49788H15.9959C15.9959 6.71765 15.3738 5.07819 14.3383 3.79751C12.9623 2.08994 10.8596 1 8.49805 1Z" stroke="#666666" stroke-width="1.5" stroke-linecap="round" stroke-linejoin="round"/>
<path d="M8.49805 15.994C12.6398 15.994 15.9959 12.6379 15.9959 8.49609H8.49805V15.994Z" stroke="#666666" stroke-width="1.5" stroke-linecap="round" stroke-linejoin="round"/>
<path d="M14.3387 3.79751C12.9309 4.71942 10.8373 5.30981 8.49847 5.30981C6.15964 5.30981 4.06604 4.71942 2.6582 3.79751C4.03425 2.08994 6.13693 1 8.49847 1C10.86 1 12.9627 2.08994 14.3387 3.79751Z" stroke="#666666" stroke-width="1.5" stroke-linecap="round" stroke-linejoin="round"/>
<path d="M14.3387 13.2037C12.9309 12.2818 10.8373 11.6914 8.49847 11.6914C6.15964 11.6914 4.06604 12.2818 2.6582 13.2037C4.03425 14.9113 6.13693 16.0012 8.49847 16.0012C10.86 16.0012 12.9627 14.9113 14.3387 13.2037Z" stroke="#666666" stroke-width="1.5" stroke-linecap="round" stroke-linejoin="round"/>
</svg>
