<svg width="18" height="18" viewBox="0 0 18 18" fill="none" xmlns="http://www.w3.org/2000/svg">
<g clip-path="url(#clip0_3_11725)">
<path d="M9 0C4.0298 0 0 4.0298 0 9C0 13.9702 4.0298 18 9 18C13.9702 18 18 13.9702 18 9C18 4.0298 13.9709 0 9 0ZM8.99654 14.5142C8.4255 14.5142 7.96258 14.0513 7.96258 13.4803C7.96258 12.9092 8.4255 12.4463 8.99654 12.4463C9.56757 12.4463 10.0305 12.9092 10.0305 13.4803C10.0305 14.0513 9.56757 14.5142 8.99654 14.5142ZM10.0305 10.2121C10.0305 10.7831 9.56757 11.246 8.99654 11.246C8.4255 11.246 7.96258 10.7831 7.96258 10.2121V4.5738C7.96258 4.00277 8.4255 3.53985 8.99654 3.53985C9.56757 3.53985 10.0305 4.00277 10.0305 4.5738V10.2121Z" fill="#DB5527"/>
</g>
<defs>
<clipPath id="clip0_3_11725">
<rect width="18" height="18" fill="white"/>
</clipPath>
</defs>
</svg>
