<svg width="14" height="14" viewBox="0 0 14 14" fill="none" xmlns="http://www.w3.org/2000/svg">
<path d="M9.9165 3.49935H12.8332V4.66602H11.6665V12.2493C11.6665 12.5715 11.4053 12.8327 11.0832 12.8327H2.9165C2.59434 12.8327 2.33317 12.5715 2.33317 12.2493V4.66602H1.1665V3.49935H4.08317V1.74935C4.08317 1.42719 4.34434 1.16602 4.6665 1.16602H9.33317C9.65535 1.16602 9.9165 1.42719 9.9165 1.74935V3.49935ZM10.4998 4.66602H3.49984V11.666H10.4998V4.66602ZM5.24984 6.41602H6.4165V9.91602H5.24984V6.41602ZM7.58317 6.41602H8.74984V9.91602H7.58317V6.41602ZM5.24984 2.33268V3.49935H8.74984V2.33268H5.24984Z" fill="#222222"/>
</svg>
