<svg width="121" height="30" viewBox="0 0 121 30" fill="none" xmlns="http://www.w3.org/2000/svg">
<g clip-path="url(#clip0_234_2642)">
<path d="M13.4712 27.1143C13.4712 27.8098 14.0113 28.1591 15.0915 28.1591C15.3319 28.1591 15.4536 28.3712 15.4536 28.7953C15.4536 29.3006 14.8417 29.5532 13.6211 29.5532C12.2349 29.5532 11.5419 28.6238 11.5419 26.765C11.5419 24.5943 13.5899 20.0626 17.6858 13.1638L10.1651 21.8029C5.72257 26.9178 2.49761 29.4753 0.496453 29.4753C0.274795 29.4753 0.165527 29.3037 0.165527 28.9575C0.165527 28.4803 0.349722 28.1872 0.714988 28.0811C1.87323 27.7724 2.92844 27.2453 3.88375 26.4968C5.07633 25.5705 7.61135 22.9507 11.4857 18.6467L19.9149 8.70698C20.2833 8.52609 20.7766 8.43564 21.4009 8.43564C22.0253 8.43564 22.3375 8.93777 22.3375 9.94515C22.3375 11.0274 20.8577 13.9466 17.9012 18.7059C14.9448 23.4622 13.4681 26.266 13.4681 27.1174L13.4712 27.1143ZM23.3927 5.92498C22.5123 5.92498 22.0722 5.29186 22.0722 4.02874C22.0722 2.96834 22.5217 2.01398 23.4208 1.15942C24.2294 0.382828 25.0349 -0.00390625 25.8435 -0.00390625C26.7988 -0.00390625 27.2764 0.732137 27.2764 2.20422C27.2764 3.26151 26.7988 4.16597 25.8435 4.9176C25.0161 5.59127 24.2013 5.92498 23.3927 5.92498Z" fill="white"/>
<path d="M12.8219 27.1143C13.0061 27.8098 13.6367 28.1591 14.7107 28.1591C14.9511 28.1591 15.129 28.3712 15.2477 28.7953C15.385 29.3006 14.8449 29.5532 13.6243 29.5532C12.2381 29.5532 11.3015 28.6238 10.8208 26.765C10.2588 24.5943 11.058 20.0626 13.0685 13.1638L8.19832 21.8029C5.09824 26.9178 2.48206 29.4753 0.480898 29.4753C0.259241 29.4753 0.11251 29.3037 0.0375832 28.9575C-0.0654407 28.4803 0.0531928 28.1872 0.396606 28.0811C1.47992 27.7724 2.40713 27.2453 3.18137 26.4968C4.14293 25.5705 6.00048 22.9507 8.66661 18.6467L13.874 8.70698C14.1612 8.52609 14.5921 8.43564 15.1665 8.43564C15.7409 8.43564 16.1811 8.93777 16.4808 9.94515C16.8055 11.0274 16.2841 13.9466 14.8418 18.7059C13.2964 23.4622 12.5971 26.266 12.825 27.1174L12.8219 27.1143ZM16.2373 5.92498C15.4319 5.92498 14.8418 5.29186 14.4641 4.02874C14.1487 2.96834 14.2674 2.01398 14.8168 1.15942C15.3039 0.382828 15.9033 -0.00390625 16.6244 -0.00390625C17.4736 -0.00390625 18.1354 0.732137 18.6006 2.20422C18.9378 3.26151 18.7911 4.16597 18.1573 4.9176C17.6141 5.59127 16.971 5.92498 16.2342 5.92498H16.2373Z" fill="url(#paint0_linear_234_2642)"/>
<path d="M25.4907 29.1702V25.8955H21.1575V24.5388H31.4318V25.8955H27.0985V29.1702H25.4907ZM27.1485 19.9603C27.1235 20.1693 27.0735 20.3658 26.9986 20.5498L30.7793 22.5209L29.9613 23.7248L26.1557 21.7537C25.7217 22.1716 25.191 22.549 24.5666 22.8827C23.9422 23.2195 23.2929 23.5189 22.6154 23.784L21.8599 22.5178C22.3126 22.3338 22.7403 22.1466 23.1493 21.9501C23.5551 21.7599 23.9235 21.5572 24.2482 21.3513C24.5729 21.1424 24.8507 20.924 25.0755 20.6933C25.3034 20.4625 25.4533 20.2192 25.5282 19.9603H22.5623V18.666H30.1892V19.9603H27.1485Z" fill="white"/>
<path d="M38.428 21.5138C38.428 21.9411 38.353 22.3372 38.2094 22.699C38.0627 23.0639 37.8598 23.3757 37.6007 23.6408C37.3415 23.9059 37.0325 24.1118 36.6703 24.2615C36.3113 24.4112 35.9148 24.4892 35.4902 24.4892C35.0657 24.4892 34.6723 24.4143 34.3164 24.2615C33.9605 24.1118 33.6483 23.9028 33.386 23.6408C33.1238 23.3789 32.9178 23.0639 32.771 22.699C32.6243 22.3341 32.5525 21.938 32.5525 21.5138C32.5525 21.0896 32.6243 20.6936 32.771 20.3287C32.9178 19.9637 33.1238 19.6519 33.386 19.3868C33.6483 19.1248 33.9605 18.9158 34.3164 18.7661C34.6723 18.6164 35.0625 18.5384 35.4902 18.5384C35.9179 18.5384 36.3113 18.6133 36.6703 18.7661C37.0293 18.9158 37.3384 19.1248 37.6007 19.3868C37.8598 19.6487 38.0627 19.9637 38.2094 20.3287C38.3562 20.6936 38.428 21.0865 38.428 21.5138ZM36.8951 21.5138C36.8951 21.2893 36.8608 21.0772 36.789 20.8807C36.7172 20.6842 36.6204 20.5127 36.4955 20.3661C36.3706 20.2226 36.2208 20.1072 36.0491 20.0261C35.8774 19.945 35.69 19.9076 35.4902 19.9076C35.2904 19.9076 35.1031 19.945 34.9314 20.0261C34.7597 20.1072 34.6098 20.2195 34.485 20.3661C34.3601 20.5127 34.2602 20.6842 34.1884 20.8807C34.1166 21.0772 34.0822 21.2893 34.0822 21.5138C34.0822 21.9848 34.2165 22.3684 34.4787 22.6709C34.741 22.9703 35.0781 23.1231 35.4871 23.1231C35.8961 23.1231 36.2364 22.9734 36.4986 22.6709C36.764 22.3684 36.8951 21.9848 36.8951 21.5138ZM42.0182 29.2672C41.6498 29.3701 41.3064 29.445 40.9817 29.5011C40.6602 29.5573 40.2886 29.5822 39.8703 29.5822H35.0969V25.5683H36.6922V28.291H39.8703C40.273 28.291 40.6289 28.2661 40.9443 28.2162C41.2596 28.1663 41.5749 28.1039 41.8933 28.029L42.0182 29.2703V29.2672ZM43.0484 22.6927H41.4656V26.3324H39.8703V18.2266H41.4656V21.3891H43.0484V22.6927Z" fill="white"/>
<path d="M53.173 24.7395H51.5777V23.258H49.1426C48.8741 23.5356 48.5588 23.7508 48.1935 23.9067C47.8283 24.0627 47.4193 24.1375 46.9697 24.1375C46.542 24.1375 46.1487 24.0689 45.7896 23.9254C45.4306 23.782 45.1215 23.5855 44.8593 23.336C44.6002 23.0834 44.3973 22.7871 44.2505 22.4409C44.1038 22.0947 44.032 21.7111 44.032 21.2932C44.032 20.8752 44.1038 20.5041 44.2505 20.1517C44.3973 19.7992 44.6002 19.4967 44.8593 19.2472C45.1184 18.9946 45.4275 18.8012 45.7896 18.6577C46.1518 18.5143 46.542 18.4425 46.9697 18.4425C47.438 18.4425 47.8626 18.5299 48.2466 18.7014C48.6275 18.8729 48.9522 19.1069 49.2206 19.3969H51.5808V18.2305H53.1761V24.7426L53.173 24.7395ZM48.3746 21.29C48.3746 20.8472 48.2435 20.4885 47.9812 20.2172C47.719 19.9458 47.3787 19.8117 46.9697 19.8117C46.5608 19.8117 46.2236 19.9458 45.9582 20.2172C45.696 20.4916 45.5617 20.8472 45.5617 21.29C45.5617 21.7329 45.6929 22.0791 45.9582 22.3567C46.2236 22.6311 46.5608 22.7715 46.9697 22.7715C47.3787 22.7715 47.719 22.6311 47.9812 22.3567C48.2466 22.0822 48.3746 21.7267 48.3746 21.29ZM53.0357 27.3873C53.0357 27.771 52.9576 28.1234 52.7953 28.4415C52.636 28.7596 52.4206 29.0341 52.149 29.2618C51.8774 29.4926 51.5559 29.6734 51.1812 29.8044C50.8066 29.9323 50.407 29.9978 49.9824 29.9978C49.5578 29.9978 49.1551 29.9323 48.7836 29.8044C48.4121 29.6734 48.0874 29.4926 47.8095 29.2618C47.5317 29.0341 47.3163 28.7565 47.1602 28.4415C47.0072 28.1234 46.9291 27.771 46.9291 27.3873C46.9291 27.0037 47.0072 26.6482 47.1602 26.3269C47.3163 26.0057 47.5317 25.7281 47.8095 25.4973C48.0843 25.2697 48.4089 25.0888 48.7836 24.964C49.1551 24.8393 49.5578 24.7769 49.9824 24.7769C50.407 24.7769 50.8097 24.8393 51.1812 24.964C51.5527 25.0888 51.8743 25.2697 52.149 25.4973C52.4206 25.7281 52.636 26.0026 52.7953 26.3269C52.9545 26.6482 53.0357 27.0006 53.0357 27.3873ZM51.5278 27.3873C51.5278 27.2033 51.4872 27.038 51.4091 26.8852C51.3311 26.7355 51.2187 26.6045 51.0751 26.4985C50.9346 26.3893 50.7691 26.3051 50.5787 26.2459C50.3882 26.1866 50.1916 26.1585 49.9824 26.1585C49.7639 26.1585 49.5641 26.1866 49.3799 26.2459C49.1957 26.302 49.0333 26.3862 48.8897 26.4985C48.7461 26.6076 48.6368 26.7355 48.5557 26.8852C48.4776 27.038 48.437 27.2033 48.437 27.3873C48.437 27.5714 48.4745 27.7398 48.5557 27.8895C48.6368 28.0392 48.7461 28.1702 48.8897 28.2762C49.0333 28.3854 49.1957 28.4696 49.3799 28.5288C49.5641 28.585 49.7639 28.6162 49.9824 28.6162C50.2009 28.6162 50.3882 28.585 50.5787 28.5288C50.7691 28.4696 50.9315 28.3854 51.0751 28.2762C51.2187 28.1671 51.3279 28.0361 51.4091 27.8895C51.4903 27.7367 51.5278 27.5714 51.5278 27.3873ZM49.9075 21.29C49.9075 21.524 49.8825 21.7454 49.8325 21.9543H51.5777V20.7006H49.845C49.8856 20.9095 49.9075 21.106 49.9075 21.29Z" fill="white"/>
<path d="M54.7808 23.6385C54.965 23.5138 55.1616 23.3703 55.3708 23.2112C55.58 23.0522 55.786 22.8806 55.9858 22.6966C56.1888 22.5126 56.3761 22.3193 56.5509 22.1134C56.7257 21.9076 56.8787 21.7017 57.0036 21.4928C57.1722 21.2089 57.2908 20.9095 57.3626 20.6008C57.4344 20.2889 57.4687 19.9427 57.4687 19.5591V18.3802H59.0391V19.7119C59.0391 20.1111 58.9923 20.5197 58.9017 20.9283L61.7271 23.2736L60.7718 24.3777L58.3117 22.3068C58.1618 22.5407 57.9839 22.7746 57.7778 23.0023C57.5718 23.2331 57.3564 23.4545 57.1253 23.6697C56.8943 23.8849 56.657 24.0845 56.4167 24.2716C56.1731 24.4588 55.9484 24.6209 55.7392 24.7551L54.7839 23.6385H54.7808ZM63.8999 27.3905C63.8999 27.7585 63.825 28.1016 63.6752 28.4197C63.5253 28.7378 63.3161 29.0123 63.0445 29.2462C62.776 29.4801 62.4607 29.6641 62.0986 29.7982C61.7333 29.9323 61.3368 30.0009 60.9091 30.0009C60.4814 30.0009 60.0849 29.9323 59.7228 29.7982C59.3606 29.6641 59.0422 29.4801 58.7768 29.2462C58.5084 29.0123 58.2992 28.7347 58.1493 28.4197C57.9995 28.1016 57.9245 27.7585 57.9245 27.3905C57.9245 27.0224 57.9995 26.6794 58.1493 26.3612C58.2992 26.0431 58.5084 25.7656 58.7768 25.5316C59.0453 25.2977 59.3606 25.1168 59.7228 24.9796C60.0881 24.8455 60.4845 24.78 60.9091 24.78C61.3337 24.78 61.7302 24.8486 62.0986 24.9796C62.4607 25.1137 62.776 25.2977 63.0445 25.5316C63.313 25.7656 63.5222 26.0431 63.6752 26.3612C63.825 26.6794 63.8999 27.0224 63.8999 27.3905ZM62.392 27.3905C62.392 27.0412 62.2516 26.7449 61.9706 26.5141C61.6896 26.2802 61.3368 26.1616 60.9091 26.1616C60.4814 26.1616 60.1286 26.277 59.8477 26.5141C59.5667 26.748 59.4262 27.0412 59.4262 27.3905C59.4262 27.7398 59.5667 28.0329 59.8477 28.27C60.1286 28.5039 60.4814 28.6224 60.9091 28.6224C61.3368 28.6224 61.6896 28.5039 61.9706 28.27C62.2516 28.0361 62.392 27.7429 62.392 27.3905ZM65.6576 22.1196H64.0748V24.7426H62.4795V18.2305H64.0748V20.8129H65.6576V22.1165V22.1196Z" fill="white"/>
<path d="M72.5695 18.7451V25.4942H67.0156V18.7451H72.5695ZM68.5984 24.203H70.9836V20.0363H68.5984V24.203ZM75.8445 25.5597H74.2492V18.2305H75.8445V25.5597Z" fill="white"/>
<path d="M84.8638 25.0911C84.3362 25.2346 83.7649 25.3468 83.1436 25.4311C82.5224 25.5153 81.8917 25.5589 81.2455 25.5589H78.4326V18.7443H83.6431V20.0355H80.0154V24.2397H81.2455C81.8043 24.2397 82.3756 24.2022 82.9469 24.1305C83.5214 24.0619 84.0708 23.9621 84.5984 23.8373L84.8638 25.0911ZM87.1522 25.5558H85.5569V18.2266H87.1522V25.5558Z" fill="white"/>
<path d="M98.3912 25.5562H96.7959V22.7462H95.1881C95.1194 23.1298 95.007 23.4884 94.8416 23.819C94.6792 24.1496 94.47 24.4334 94.2203 24.6736C93.9674 24.9106 93.674 25.1009 93.3399 25.2381C93.0059 25.3784 92.6375 25.4439 92.2347 25.4439C91.7758 25.4439 91.3606 25.3566 90.9922 25.182C90.6238 25.0073 90.3085 24.7672 90.0494 24.4615C89.7903 24.159 89.5873 23.8003 89.4469 23.3886C89.3033 22.9769 89.2314 22.5403 89.2314 22.0725C89.2314 21.6047 89.3033 21.1649 89.4469 20.7563C89.5873 20.3447 89.7903 19.9891 90.0494 19.6835C90.3085 19.3778 90.6207 19.1377 90.9922 18.963C91.3606 18.7884 91.7758 18.701 92.2347 18.701C92.6344 18.701 93.009 18.7696 93.3462 18.9069C93.6833 19.0472 93.9799 19.2375 94.2297 19.4839C94.4825 19.7302 94.6886 20.0203 94.8509 20.3571C95.0133 20.6908 95.1257 21.0557 95.185 21.4487H96.7928V18.2363H98.3881V25.5656L98.3912 25.5562ZM93.6958 22.0694C93.6958 21.7949 93.6615 21.5329 93.599 21.2928C93.5366 21.0495 93.4429 20.8405 93.3181 20.6597C93.1932 20.4788 93.0402 20.3353 92.8591 20.2324C92.6781 20.1263 92.472 20.0764 92.2379 20.0764C92.0037 20.0764 91.7946 20.1263 91.6166 20.2324C91.4355 20.3353 91.2826 20.4788 91.1577 20.6597C91.0328 20.8405 90.9391 21.0495 90.8767 21.2928C90.8143 21.536 90.783 21.7949 90.783 22.0694C90.783 22.3438 90.8143 22.6058 90.8767 22.8491C90.9391 23.0923 91.0328 23.3013 91.1577 23.4822C91.2857 23.6631 91.4386 23.8066 91.6166 23.9095C91.7977 24.0124 92.0037 24.0654 92.2379 24.0654C92.472 24.0654 92.6781 24.0124 92.8591 23.9095C93.0402 23.8066 93.1932 23.6631 93.3181 23.4822C93.4461 23.3013 93.5397 23.0923 93.599 22.8491C93.6615 22.6058 93.6958 22.3469 93.6958 22.0694Z" fill="white"/>
<path d="M99.874 24.0658C100.299 23.7134 100.689 23.3235 101.042 22.89C101.391 22.4596 101.654 22.0479 101.819 21.6549C101.935 21.3618 102.016 21.0468 102.059 20.7068C102.1 20.3669 102.122 20.0051 102.122 19.6215V18.5174H103.692V19.7587C103.692 20.0269 103.683 20.292 103.661 20.5602C103.642 20.8316 103.598 21.0967 103.542 21.3649L105.84 23.9005L104.81 24.8798L102.952 22.8214C102.709 23.2393 102.403 23.6541 102.034 24.0658C101.666 24.4744 101.291 24.8361 100.904 25.1449L99.8771 24.0658H99.874ZM110.56 29.2711C110.192 29.374 109.845 29.4489 109.524 29.505C109.202 29.5612 108.831 29.5861 108.413 29.5861H103.264V25.5722H104.863V28.2949H108.416C108.818 28.2949 109.177 28.27 109.493 28.2201C109.805 28.1702 110.123 28.1078 110.442 28.0329L110.567 29.2742L110.56 29.2711ZM107.76 26.0618H106.202V21.7672H104.632V20.4635H106.202V18.2305H107.76V26.0618ZM108.537 18.2305H110.095V26.4611H108.537V18.2305Z" fill="white"/>
<path d="M116.907 22.7091C116.37 22.7528 115.864 22.7777 115.387 22.7902C114.909 22.8027 114.432 22.8089 113.957 22.8089H113.807V24.4401H114.535C115.096 24.4401 115.665 24.4057 116.236 24.334C116.81 24.2623 117.36 24.1656 117.888 24.0377L118.15 25.2946C117.622 25.435 117.048 25.5504 116.43 25.6346C115.811 25.7188 115.178 25.7593 114.531 25.7593H112.221V18.7451H117.182V20.0363H113.804V21.5177H113.954C114.397 21.5177 114.862 21.5146 115.349 21.5052C115.833 21.4959 116.352 21.4709 116.907 21.4304V22.7122V22.7091ZM121.003 28.507H119.408V22.6966H117.625V21.393H119.408V18.2305H121.003V28.507Z" fill="white"/>
<path d="M24.4261 12.1661L24.2638 14.9637C24.2419 15.3411 24.2388 15.6436 24.2513 15.8651C24.2638 16.0959 24.3231 16.2799 24.4292 16.4171C24.2606 16.5075 24.1295 16.5512 24.0296 16.545C23.8673 16.5356 23.7799 16.3953 23.7674 16.127C23.7518 15.8276 23.7767 15.3099 23.836 14.5832L24.1701 10.903L24.0421 10.2449C23.8954 9.4933 23.7674 8.98181 23.6519 8.72607C23.7955 8.698 23.9266 8.75102 24.0483 8.87889C24.1358 8.97558 24.22 9.18454 24.2981 9.50578C24.3761 9.8239 24.526 10.5662 24.7477 11.7077C24.7914 11.9291 24.8288 12.1069 24.8569 12.2348L24.91 12.4687C25.2191 13.8004 25.4657 14.4678 25.6468 14.5427C25.8435 14.6238 26.0901 14.3244 26.3929 13.7287C26.6957 13.2328 26.8456 12.8149 26.8425 12.4C27.0173 12.5061 27.1453 12.6059 27.2327 12.6901C27.3919 12.8492 27.4762 13.0176 27.4918 13.1954C27.4981 13.2546 27.4918 13.4043 27.4762 13.6445C27.4606 13.8659 27.4513 14.0499 27.4513 14.1934L27.42 15.812C27.42 15.9306 27.42 16.0491 27.4325 16.1645C27.4606 16.5169 27.5418 16.7415 27.676 16.835C27.5231 16.9535 27.3888 17.019 27.2733 17.019C27.086 17.019 26.9736 16.7726 26.9393 16.283C26.9268 16.0865 26.9205 15.8495 26.9236 15.5719L26.958 13.2952C26.8175 13.8441 26.6146 14.3119 26.3492 14.7017C26.0838 15.154 25.8341 15.3692 25.5999 15.3037C25.4157 15.2538 25.2191 14.97 25.013 14.4398C24.807 13.8846 24.6134 13.1267 24.4386 12.1661H24.4261Z" fill="white"/>
<path d="M28.7937 15.2577C28.7937 15.7692 29.0123 16.025 29.4462 16.025C29.824 16.025 30.2361 15.8472 30.6919 15.4885C31.1445 15.1299 31.5535 14.6589 31.9188 14.0757L32.1436 14.1973C31.8001 14.8367 31.3537 15.3669 30.8043 15.7848C30.2548 16.2059 29.7365 16.4148 29.2433 16.4148C28.928 16.4148 28.6782 16.3119 28.4971 16.1092C28.3161 15.9064 28.2224 15.6289 28.2224 15.2796C28.2224 14.7712 28.3879 14.3377 28.7188 13.979C29.0497 13.6203 29.4493 13.4395 29.9176 13.4395C30.1424 13.4395 30.3235 13.4956 30.4608 13.611C30.5951 13.7233 30.6638 13.8761 30.6638 14.0663C30.6638 14.3813 30.4765 14.6558 30.0987 14.8959C29.7209 15.1361 29.287 15.2577 28.7968 15.2577H28.7937ZM28.8156 15.0051C29.1808 14.9864 29.4962 14.8835 29.7584 14.6901C30.0206 14.4999 30.1518 14.2815 30.1518 14.032C30.1518 13.8075 30.0519 13.6983 29.8521 13.6983C29.6148 13.6983 29.3931 13.8262 29.1933 14.0788C28.9935 14.3346 28.8655 14.6433 28.8187 15.0051H28.8156Z" fill="white"/>
<path d="M33.6295 14.8146C33.3548 15.3074 33.0707 15.6973 32.771 15.9842C32.4713 16.2711 32.2059 16.4177 31.9718 16.4177C31.7844 16.4177 31.6346 16.3366 31.5253 16.1713C31.4161 16.006 31.3599 15.7877 31.3599 15.5133C31.3599 14.9612 31.5253 14.4778 31.8531 14.063C32.1809 13.6482 32.5649 13.4392 33.002 13.4392C33.2642 13.4392 33.5483 13.5234 33.8543 13.6887L34.1353 12.2759C33.9823 12.3071 33.8543 12.3227 33.7513 12.3227C33.5983 12.3227 33.4859 12.2853 33.4141 12.2135C33.3423 12.1418 33.2861 12.0046 33.2424 11.8019C33.3673 11.8861 33.5608 11.9297 33.8231 11.9297C34.1478 11.9297 34.4599 11.8705 34.7597 11.752L34.1883 14.6275C34.1228 14.9488 34.0916 15.2232 34.0916 15.4478C34.0916 15.7472 34.1758 15.9 34.3476 15.9C34.5193 15.9 34.794 15.7035 35.1874 15.3105C35.5776 14.9176 35.9054 14.5059 36.1645 14.0755L36.3799 14.2127C36.0677 14.7835 35.6775 15.2918 35.2123 15.7441C34.7472 16.1932 34.3725 16.4177 34.0947 16.4177C33.7419 16.4177 33.564 16.1339 33.564 15.5663C33.564 15.3324 33.5858 15.0829 33.6295 14.8146ZM33.7669 14.1191C33.4047 13.879 33.0988 13.7605 32.8584 13.7605C32.5962 13.7605 32.3682 13.9227 32.1778 14.2439C31.9874 14.5651 31.8906 14.9456 31.8906 15.3854C31.8906 15.7378 32.0061 15.9156 32.2371 15.9156C32.4869 15.9156 32.9645 15.3667 33.6701 14.2688C33.6826 14.2501 33.7138 14.2002 33.7669 14.1223V14.1191Z" fill="white"/>
<path d="M38.7621 14.2034C38.3656 14.8958 37.966 15.4384 37.5633 15.8314C37.1605 16.2213 36.7953 16.4178 36.4737 16.4178C36.277 16.4178 36.1209 16.3523 35.9992 16.2244C35.8806 16.0965 35.8181 15.9281 35.8181 15.7223C35.8181 15.6443 35.8368 15.5164 35.8712 15.3449L35.9305 15.0579C36.0148 14.6431 36.0585 14.35 36.0585 14.1816C36.0585 14.0818 36.0304 14.0007 35.968 13.9383C36.1959 13.8853 36.3395 13.8603 36.3957 13.8603C36.5237 13.8603 36.5892 13.9508 36.5892 14.1317C36.5892 14.2658 36.5643 14.4591 36.5143 14.7118L36.4113 15.2232C36.3613 15.4696 36.3364 15.6287 36.3364 15.7035C36.3364 15.9187 36.4269 16.0279 36.6111 16.0279C36.8296 16.0279 37.12 15.8439 37.4852 15.4759C37.8505 15.1078 38.2033 14.6431 38.5436 14.0786L38.7621 14.2065V14.2034ZM36.4269 12.8841H36.4644C36.583 12.8841 36.7516 12.8217 36.9701 12.7095C37.1886 12.5972 37.3604 12.4818 37.4852 12.3633C37.4072 12.6034 37.2729 12.8062 37.0763 12.9683C36.7797 13.2178 36.5767 13.3395 36.4706 13.3395C36.4019 13.3395 36.3645 13.2958 36.3645 13.2116C36.3645 13.09 36.3832 12.9808 36.4238 12.881L36.4269 12.8841Z" fill="white"/>
<path d="M40.2855 14.7455C40.0607 15.2102 39.7829 15.6031 39.4551 15.9275C39.1272 16.2518 38.84 16.414 38.5965 16.414C38.4123 16.414 38.2625 16.3298 38.1501 16.1645C38.0377 15.9992 37.9846 15.7809 37.9846 15.5033C37.9846 14.9575 38.1501 14.4741 38.481 14.0593C38.8119 13.6414 39.1959 13.4355 39.633 13.4355C39.8984 13.4355 40.1856 13.5166 40.4915 13.6819C40.5352 13.5198 40.7226 13.4387 41.0472 13.4387C41.0691 13.4387 41.1034 13.4387 41.1503 13.4387C41.0504 13.5884 40.9754 13.7973 40.9224 14.0624L40.8787 14.2839C40.8287 14.5334 40.8037 14.8234 40.8037 15.154C40.8037 15.5376 40.8943 15.7279 41.0722 15.7279C41.2627 15.7279 41.5187 15.5688 41.8465 15.2538C42.1743 14.9357 42.4958 14.5365 42.8143 14.0468L43.0203 14.1872C42.6956 14.7642 42.3272 15.2445 41.9089 15.6312C41.4937 16.0179 41.1347 16.2082 40.8349 16.2082C40.4572 16.2082 40.2668 15.8963 40.2668 15.2632C40.2668 15.1322 40.273 14.9544 40.2824 14.733L40.2855 14.7455ZM40.4104 14.1186C40.042 13.8784 39.736 13.7599 39.4925 13.7599C39.2272 13.7599 38.9993 13.9221 38.8057 14.2433C38.6121 14.5646 38.5153 14.9451 38.5153 15.3848C38.5153 15.7372 38.6309 15.915 38.8619 15.915C39.1116 15.915 39.5924 15.3661 40.3011 14.2683C40.3105 14.2527 40.3448 14.2059 40.4104 14.1217V14.1186Z" fill="white"/>
</g>
<defs>
<linearGradient id="paint0_linear_234_2642" x1="0.000119921" y1="14.7762" x2="18.7786" y2="14.7762" gradientUnits="userSpaceOnUse">
<stop stop-color="#FFF33A"/>
<stop offset="0.04" stop-color="#FEE62B"/>
<stop offset="0.12" stop-color="#FDD419"/>
<stop offset="0.2" stop-color="#FDCA0D"/>
<stop offset="0.28" stop-color="#FDC70A"/>
<stop offset="0.67" stop-color="#F3903F"/>
<stop offset="0.89" stop-color="#ED683C"/>
<stop offset="1" stop-color="#E93E39"/>
</linearGradient>
<clipPath id="clip0_234_2642">
<rect width="121" height="30" fill="white"/>
</clipPath>
</defs>
</svg>
