<svg width="34" height="31" viewBox="0 0 34 31" fill="none" xmlns="http://www.w3.org/2000/svg">
<path d="M29.0745 15.0402C29.0745 22.7952 22.7893 29.0805 15.0343 29.0805C7.27927 29.0805 1 22.7893 1 15.0402C1 7.29122 7.28525 1 15.0402 1C22.7952 1 29.0805 7.28525 29.0805 15.0402H29.0745Z" stroke="white" stroke-width="2" stroke-linecap="round" stroke-linejoin="round"/>
<path d="M21.6544 18.1111C19.9576 18.1111 18.5835 16.7369 18.5835 15.0402C18.5835 13.3434 19.9576 11.9692 21.6544 11.9692C23.3512 11.9692 24.7254 13.3434 24.7254 15.0402C24.7254 16.7369 23.3512 18.1111 21.6544 18.1111Z" stroke="white" stroke-width="2" stroke-linecap="round" stroke-linejoin="round"/>
<path d="M8.42054 18.1111C6.72376 18.1111 5.34961 16.7369 5.34961 15.0402C5.34961 13.3434 6.72376 11.9692 8.42054 11.9692C10.1173 11.9692 11.4915 13.3434 11.4915 15.0402C11.4915 16.7369 10.1173 18.1111 8.42054 18.1111Z" stroke="white" stroke-width="2" stroke-linecap="round" stroke-linejoin="round"/>
<path d="M18.1111 8.42042C18.1111 10.1172 16.7369 11.4913 15.0402 11.4913C13.3434 11.4913 11.9692 10.1172 11.9692 8.42042C11.9692 6.72364 13.3434 5.34949 15.0402 5.34949C16.7369 5.34949 18.1111 6.72364 18.1111 8.42042Z" stroke="white" stroke-width="2" stroke-linecap="round" stroke-linejoin="round"/>
<path d="M18.1111 21.6541C18.1111 23.3508 16.7369 24.725 15.0402 24.725C13.3434 24.725 11.9692 23.3508 11.9692 21.6541C11.9692 19.9573 13.3434 18.5831 15.0402 18.5831C16.7369 18.5831 18.1111 19.9573 18.1111 21.6541Z" stroke="white" stroke-width="2" stroke-linecap="round" stroke-linejoin="round"/>
<path d="M26.231 23.7512H30.6103C31.9307 23.7512 33.0001 24.8207 33.0001 26.141C33.0001 27.4614 31.9307 28.5309 30.6103 28.5309H26.231" stroke="white" stroke-width="2" stroke-linecap="round" stroke-linejoin="round"/>
</svg>
