<svg width="40" height="40" viewBox="0 0 40 40" fill="none" xmlns="http://www.w3.org/2000/svg">
<g clip-path="url(#clip0_878_14702)">
<path d="M40 20C40 31.048 31.048 40 20 40C8.95195 40 0 31.0416 0 20C0 8.9584 8.95195 0 20 0C31.048 0 40 8.95195 40 20Z" fill="url(#paint0_linear_878_14702)"/>
<path d="M24.8613 30.9707H15.1354C11.6398 30.9707 8.78906 28.1265 8.78906 24.6308V15.1758C8.78906 11.6737 11.6333 8.82947 15.1354 8.82947H24.8613C28.3569 8.82947 31.2076 11.6737 31.2076 15.1758V24.6308C31.2076 28.1265 28.3634 30.9707 24.8613 30.9707ZM15.1354 10.8804C12.7684 10.8804 10.84 12.8088 10.84 15.1758V24.6308C10.84 26.9978 12.7684 28.9198 15.1354 28.9198H24.8613C27.2283 28.9198 29.1567 26.9914 29.1567 24.6308V15.1758C29.1567 12.8088 27.2283 10.8804 24.8613 10.8804H15.1354Z" fill="white"/>
<path d="M19.9983 25.7143C16.7929 25.7143 14.1873 23.1087 14.1873 19.9033C14.1873 16.6979 16.7929 14.0923 19.9983 14.0923C23.2037 14.0923 25.8093 16.6979 25.8093 19.9033C25.8093 23.1087 23.2037 25.7143 19.9983 25.7143ZM19.9983 16.1432C17.9215 16.1432 16.2382 17.833 16.2382 19.9033C16.2382 21.9736 17.9215 23.6634 19.9983 23.6634C22.075 23.6634 23.7584 21.9801 23.7584 19.9033C23.7584 17.8266 22.0686 16.1432 19.9983 16.1432Z" fill="white"/>
<path d="M27.383 13.9762C27.383 14.7308 26.7703 15.3435 26.0157 15.3435C25.2611 15.3435 24.6484 14.7308 24.6484 13.9762C24.6484 13.2216 25.2611 12.6089 26.0157 12.6089C26.7703 12.6089 27.383 13.2216 27.383 13.9762Z" fill="white"/>
</g>
<defs>
<linearGradient id="paint0_linear_878_14702" x1="5.93357" y1="34.0664" x2="32.8152" y2="7.18478" gradientUnits="userSpaceOnUse">
<stop offset="0.03" stop-color="#FCB214"/>
<stop offset="0.19" stop-color="#F46131"/>
<stop offset="0.3" stop-color="#EE2E44"/>
<stop offset="0.35" stop-color="#ED1B4C"/>
<stop offset="0.71" stop-color="#8F2685"/>
<stop offset="1" stop-color="#5757A2"/>
</linearGradient>
<clipPath id="clip0_878_14702">
<rect width="40" height="40" fill="white"/>
</clipPath>
</defs>
</svg>
