<svg width="30" height="35" viewBox="0 0 30 35" fill="none" xmlns="http://www.w3.org/2000/svg">
<g clip-path="url(#clip0_65_267)">
<path d="M24.0288 34.9998H12.062C11.4686 34.9998 10.9858 34.5178 10.9858 33.9252C10.9858 33.3327 11.4686 32.8507 12.062 32.8507H24.0288C26.0981 32.8507 27.8476 30.1182 27.8476 26.8853V18.3871C27.8476 17.7945 28.3303 17.3125 28.9237 17.3125C29.5172 17.3125 29.9999 17.7945 29.9999 18.3871V26.8853C29.9999 31.3586 27.3218 34.9998 24.0288 34.9998Z" fill="white"/>
<path d="M9.3408 23.5114C8.74738 23.5114 8.26465 23.0294 8.26465 22.4368V4.11096C8.26465 1.84518 9.84505 0 11.7883 0C13.7315 0 15.3119 1.84518 15.3119 4.11096V16.2965C15.3119 16.889 14.8292 17.3711 14.2357 17.3711C13.6423 17.3711 13.1596 16.889 13.1596 16.2965V4.11096C13.1596 3.06404 12.517 2.14912 11.7883 2.14912C11.0596 2.14912 10.4169 3.06711 10.4169 4.11096V22.4368C10.4169 23.0294 9.93422 23.5114 9.3408 23.5114Z" fill="white"/>
<path d="M11.7901 34.9415C11.7892 34.9434 11.7872 34.9446 11.7851 34.9446C11.4727 34.9435 11.1637 34.7993 10.9645 34.5271L0.879468 20.7143C0.175358 19.7503 -0.125964 18.5836 0.0492946 17.5091C0.190731 16.6371 0.642715 15.8942 1.31915 15.4152C2.09705 14.8656 3.11479 14.7121 4.11407 14.9946C5.04878 15.2586 5.89433 15.8727 6.49697 16.72L10.1374 21.8472C10.4634 22.3047 10.3557 22.9402 9.89453 23.2656C9.4364 23.5911 8.79993 23.4836 8.47401 23.0231L4.83355 17.8959C4.50456 17.4323 4.04027 17.0885 3.55754 16.9534C3.32079 16.8858 2.86881 16.8121 2.49984 17.0762C2.20774 17.2819 2.10013 17.6042 2.06323 17.8345C1.97714 18.3656 2.14933 18.995 2.52752 19.5108L12.6126 33.3205C12.9446 33.7749 12.8432 34.4104 12.3912 34.742C12.2108 34.8733 12.003 34.9377 11.7951 34.9384C11.793 34.9385 11.791 34.9396 11.7901 34.9415V34.9415Z" fill="white"/>
<path d="M14.2358 17.064C13.6424 17.064 13.1597 16.582 13.1597 15.9895V12.3206C13.1597 10.4509 14.6847 8.93115 16.5572 8.93115H16.8124C18.6849 8.93115 20.2069 10.454 20.2069 12.3206V15.8145C20.2069 16.407 19.7242 16.889 19.1308 16.889C18.5373 16.889 18.0546 16.407 18.0546 15.8145V12.3206C18.0546 11.636 17.4981 11.0803 16.8124 11.0803H16.5572C15.8716 11.0803 15.312 11.636 15.312 12.3206V15.9895C15.312 16.582 14.8292 17.064 14.2358 17.064Z" fill="white"/>
<path d="M19.1338 17.064C18.5403 17.064 18.0576 16.582 18.0576 15.9895V12.3206C18.0576 10.4509 19.5827 8.93115 21.4521 8.93115H21.7073C23.5798 8.93115 25.1049 10.454 25.1049 12.3206V15.8145C25.1049 16.407 24.6221 16.889 24.0287 16.889C23.4353 16.889 22.9526 16.407 22.9526 15.8145V12.3206C22.9526 11.636 22.396 11.0803 21.7073 11.0803H21.4521C20.7664 11.0803 20.2099 11.636 20.2099 12.3206V15.9895C20.2099 16.582 19.7272 17.064 19.1338 17.064Z" fill="white"/>
<path d="M28.9241 21.1902C28.3307 21.1902 27.8479 20.7082 27.8479 20.1157V12.3236C27.8479 11.6389 27.2914 11.0832 26.6057 11.0832H26.3505C25.6649 11.0832 25.1084 11.6389 25.1084 12.3236V15.9924C25.1084 16.585 24.6256 17.067 24.0322 17.067C23.4388 17.067 22.9561 16.585 22.9561 15.9924V12.3236C22.9561 10.4538 24.478 8.93408 26.3505 8.93408H26.6057C28.4782 8.93408 30.0002 10.4569 30.0002 12.3236V20.1157C30.0002 20.7082 29.5175 21.1902 28.9241 21.1902Z" fill="white"/>
</g>
<defs>
<clipPath id="clip0_65_267">
<rect width="30" height="35" fill="white"/>
</clipPath>
</defs>
</svg>
