<svg width="10" height="10" viewBox="0 0 10 10" fill="none" xmlns="http://www.w3.org/2000/svg">
<path d="M8.75 6.84167V8.31504C8.75 8.53379 8.58087 8.71529 8.36271 8.73071C8.18046 8.74358 8.03179 8.75 7.91667 8.75C4.23475 8.75 1.25 5.76525 1.25 2.08333C1.25 1.96821 1.25644 1.81953 1.26931 1.63729C1.28474 1.41912 1.46622 1.25 1.68494 1.25H3.15838C3.26533 1.25 3.3549 1.33101 3.36564 1.43742C3.37528 1.53295 3.38424 1.60964 3.39253 1.66751C3.47681 2.25613 3.64897 2.8164 3.89529 3.3346C3.93483 3.41777 3.90905 3.51733 3.8341 3.57086L2.93481 4.21325C3.4823 5.49213 4.50787 6.51771 5.78675 7.06521L6.42796 6.16746C6.48217 6.09162 6.58292 6.06554 6.66708 6.1055C7.18525 6.35162 7.74546 6.52358 8.334 6.60767C8.3915 6.61592 8.46771 6.62479 8.56258 6.63437C8.669 6.64512 8.75 6.73471 8.75 6.84167Z" fill="white"/>
</svg>
