<svg width="211" height="53" viewBox="0 0 211 53" fill="none" xmlns="http://www.w3.org/2000/svg">
<g clip-path="url(#clip0_878_23335)">
<path d="M23.2343 47.9033C23.2343 49.132 24.1774 49.7491 26.0636 49.7491C26.4833 49.7491 26.696 50.1238 26.696 50.8732C26.696 51.7658 25.6275 52.2121 23.4959 52.2121C21.0755 52.2121 19.8652 50.5701 19.8652 47.2862C19.8652 43.4513 23.4414 35.4454 30.5938 23.2574L17.4611 38.5199C9.70366 47.5562 4.07226 52.0743 0.577858 52.0743C0.190802 52.0743 0 51.7713 0 51.1597C0 50.3167 0.321638 49.7987 0.959463 49.6114C2.98197 49.0659 4.82457 48.1347 6.49273 46.8124C8.5752 45.1759 13.0018 40.5476 19.7671 32.9439L34.4861 15.3837C35.1294 15.0641 35.9907 14.9044 37.081 14.9044C38.1713 14.9044 38.7165 15.7915 38.7165 17.5712C38.7165 19.4831 36.1325 24.6404 30.9699 33.0485C25.8074 41.4512 23.2288 46.4046 23.2288 47.9088L23.2343 47.9033ZM40.5591 10.4744C39.0218 10.4744 38.2531 9.35586 38.2531 7.12434C38.2531 5.25096 39.0381 3.56492 40.6082 2.0552C42.0201 0.683231 43.4266 0 44.8385 0C46.5067 0 47.3408 1.30034 47.3408 3.90103C47.3408 5.7689 46.5067 7.36677 44.8385 8.69467C43.3939 9.88481 41.971 10.4744 40.5591 10.4744Z" fill="#E6E7E8"/>
<path d="M22.1013 47.9033C22.423 49.132 23.5242 49.7491 25.3995 49.7491C25.8193 49.7491 26.13 50.1238 26.3372 50.8732C26.577 51.7658 25.6339 52.2121 23.5024 52.2121C21.0819 52.2121 19.4465 50.5701 18.6069 47.2862C17.6257 43.4513 19.0213 35.4454 22.532 23.2574L14.0277 38.5199C8.61436 47.5562 4.04601 52.0743 0.551599 52.0743C0.164543 52.0743 -0.0916773 51.7713 -0.222513 51.1597C-0.402412 50.3167 -0.195256 49.7987 0.404408 49.6114C2.29608 49.0659 3.91517 48.1347 5.26714 46.8124C6.9462 45.1759 10.1898 40.5476 14.8454 32.9439L23.9385 15.3837C24.44 15.0641 25.1923 14.9044 26.1954 14.9044C27.1985 14.9044 27.9672 15.7915 28.4905 17.5712C29.0574 19.4831 28.1471 24.6404 25.6285 33.0485C22.93 41.4512 21.7088 46.4046 22.1068 47.9088L22.1013 47.9033ZM28.0653 10.4744C26.6588 10.4744 25.6285 9.35586 24.9688 7.12434C24.4182 5.25096 24.6254 3.56492 25.5849 2.0552C26.4353 0.683231 27.482 0 28.7413 0C30.2241 0 31.3798 1.30034 32.1921 3.90103C32.7808 5.7689 32.5246 7.36677 31.4179 8.69467C30.4694 9.88481 29.3464 10.4744 28.0598 10.4744H28.0653Z" fill="url(#paint0_linear_878_23335)"/>
<path d="M44.2229 51.5342V45.7488H36.6562V43.352H54.5971V45.7488H47.0304V51.5342H44.2229ZM47.1177 35.2634C47.0741 35.6326 46.9868 35.9797 46.856 36.3048L53.4578 39.7871L52.0295 41.9139L45.3841 38.4316C44.6263 39.17 43.6996 39.8367 42.6093 40.4262C41.519 41.0213 40.3851 41.5503 39.2021 42.0186L37.8828 39.7816C38.6733 39.4565 39.4202 39.1259 40.1343 38.7788C40.843 38.4427 41.4863 38.0845 42.0532 37.7209C42.6202 37.3517 43.1054 36.966 43.4979 36.5583C43.8958 36.1505 44.1575 35.7208 44.2883 35.2634H39.1094V32.9768H52.4274V35.2634H47.1177Z" fill="#1A75BC"/>
<path d="M66.8144 38.0075C66.8144 38.7624 66.6836 39.4621 66.4328 40.1013C66.1766 40.746 65.8222 41.2969 65.3698 41.7653C64.9173 42.2336 64.3776 42.5973 63.7452 42.8618C63.1183 43.1262 62.4259 43.264 61.6845 43.264C60.9431 43.264 60.2563 43.1318 59.6348 42.8618C59.0133 42.5973 58.4682 42.2281 58.0102 41.7653C57.5523 41.3025 57.1925 40.746 56.9363 40.1013C56.6801 39.4566 56.5547 38.7569 56.5547 38.0075C56.5547 37.2582 56.6801 36.5584 56.9363 35.9137C57.1925 35.2691 57.5523 34.7181 58.0102 34.2497C58.4682 33.7869 59.0133 33.4177 59.6348 33.1533C60.2563 32.8888 60.9377 32.751 61.6845 32.751C62.4314 32.751 63.1183 32.8833 63.7452 33.1533C64.3721 33.4177 64.9118 33.7869 65.3698 34.2497C65.8222 34.7126 66.1766 35.2691 66.4328 35.9137C66.689 36.5584 66.8144 37.2527 66.8144 38.0075ZM64.1377 38.0075C64.1377 37.6108 64.0777 37.2361 63.9524 36.889C63.827 36.5419 63.658 36.2388 63.4399 35.9799C63.2219 35.7264 62.9602 35.5225 62.6604 35.3793C62.3605 35.236 62.0334 35.1699 61.6845 35.1699C61.3356 35.1699 61.0086 35.236 60.7087 35.3793C60.4089 35.5225 60.1472 35.7209 59.9292 35.9799C59.7111 36.2388 59.5367 36.5419 59.4113 36.889C59.2859 37.2361 59.2259 37.6108 59.2259 38.0075C59.2259 38.8395 59.4603 39.5172 59.9183 40.0517C60.3762 40.5807 60.9649 40.8506 61.6791 40.8506C62.3932 40.8506 62.9874 40.5862 63.4454 40.0517C63.9088 39.5172 64.1377 38.8395 64.1377 38.0075ZM73.0891 51.7107C72.4458 51.8925 71.8461 52.0248 71.2792 52.124C70.7177 52.2231 70.0689 52.2672 69.3384 52.2672H61.0031V45.1759H63.7888V49.9861H69.3384C70.0417 49.9861 70.6632 49.942 71.2138 49.8539C71.7644 49.7657 72.315 49.6555 72.871 49.5233L73.0891 51.7162V51.7107ZM74.8881 40.0958H72.1242V46.5259H69.3384V32.2056H72.1242V37.7926H74.8881V40.0958Z" fill="#1A75BC"/>
<path d="M92.5596 43.7048H89.7739V41.0876H85.5218C85.0529 41.578 84.5023 41.9581 83.8645 42.2336C83.2267 42.5091 82.5125 42.6414 81.7275 42.6414C80.9807 42.6414 80.2938 42.5202 79.6668 42.2667C79.0399 42.0132 78.5002 41.6661 78.0423 41.2253C77.5898 40.779 77.2355 40.2556 76.9793 39.644C76.723 39.0324 76.5977 38.3546 76.5977 37.6163C76.5977 36.878 76.723 36.2223 76.9793 35.5997C77.2355 34.9771 77.5898 34.4426 78.0423 34.0018C78.4948 33.5555 79.0345 33.2139 79.6668 32.9604C80.2992 32.707 80.9807 32.5802 81.7275 32.5802C82.5452 32.5802 83.2866 32.7345 83.9572 33.0376C84.6223 33.3406 85.1892 33.7539 85.658 34.2663H89.7794V32.2056H92.5651V43.7103L92.5596 43.7048ZM84.1807 37.6108C84.1807 36.8284 83.9517 36.1948 83.4938 35.7154C83.0359 35.236 82.4417 34.9991 81.7275 34.9991C81.0134 34.9991 80.4246 35.236 79.9612 35.7154C79.5033 36.2003 79.2689 36.8284 79.2689 37.6108C79.2689 38.3932 79.4978 39.0048 79.9612 39.4952C80.4246 39.9801 81.0134 40.228 81.7275 40.228C82.4417 40.228 83.0359 39.9801 83.4938 39.4952C83.9572 39.0103 84.1807 38.3822 84.1807 37.6108ZM92.3198 48.3882C92.3198 49.0659 92.1835 49.6886 91.9 50.2506C91.622 50.8126 91.2458 51.2975 90.7715 51.6997C90.2973 52.1074 89.7358 52.427 89.0816 52.6584C88.4274 52.8843 87.7296 53 86.9882 53C86.2468 53 85.5436 52.8843 84.8948 52.6584C84.2461 52.427 83.6791 52.1074 83.194 51.6997C82.7088 51.2975 82.3326 50.8071 82.0601 50.2506C81.7929 49.6886 81.6566 49.0659 81.6566 48.3882C81.6566 47.7105 81.7929 47.0824 82.0601 46.5148C82.3326 45.9473 82.7088 45.4569 83.194 45.0492C83.6737 44.647 84.2406 44.3274 84.8948 44.107C85.5436 43.8866 86.2468 43.7764 86.9882 43.7764C87.7296 43.7764 88.4329 43.8866 89.0816 44.107C89.7303 44.3274 90.2918 44.647 90.7715 45.0492C91.2458 45.4569 91.622 45.9418 91.9 46.5148C92.178 47.0824 92.3198 47.705 92.3198 48.3882ZM89.6921 48.3882C89.6921 48.0631 89.6213 47.7711 89.485 47.5011C89.3487 47.2367 89.1524 47.0052 88.9017 46.8179C88.6564 46.625 88.3674 46.4763 88.0349 46.3716C87.7024 46.2669 87.3589 46.2173 86.9937 46.2173C86.6121 46.2173 86.2632 46.2669 85.9415 46.3716C85.6199 46.4708 85.3364 46.6195 85.0856 46.8179C84.8349 47.0107 84.6441 47.2367 84.5023 47.5011C84.366 47.7711 84.2952 48.0631 84.2952 48.3882C84.2952 48.7133 84.3606 49.0108 84.5023 49.2753C84.6441 49.5398 84.8349 49.7712 85.0856 49.9586C85.3364 50.1514 85.6199 50.3002 85.9415 50.4049C86.2632 50.504 86.6121 50.5591 86.9937 50.5591C87.3753 50.5591 87.7024 50.504 88.0349 50.4049C88.3674 50.3002 88.6509 50.1514 88.9017 49.9586C89.1524 49.7657 89.3432 49.5343 89.485 49.2753C89.6267 49.0053 89.6921 48.7133 89.6921 48.3882ZM86.8628 37.6108C86.8628 38.0241 86.8192 38.4153 86.732 38.7844H89.7794V36.5694H86.7538C86.8247 36.9386 86.8628 37.2857 86.8628 37.6108Z" fill="#1A75BC"/>
<path d="M95.3672 41.7597C95.6888 41.5393 96.0323 41.2858 96.3975 41.0048C96.7628 40.7238 97.1226 40.4208 97.4715 40.0957C97.8258 39.7706 98.1529 39.429 98.4582 39.0653C98.7635 38.7017 99.0306 38.338 99.2486 37.9688C99.543 37.4674 99.7502 36.9385 99.8756 36.393C100.001 35.842 100.061 35.2304 100.061 34.5527V32.4699H102.803V34.8227C102.803 35.5279 102.721 36.2497 102.563 36.9715L107.497 41.115L105.829 43.0655L101.533 39.4069C101.271 39.8202 100.96 40.2334 100.601 40.6357C100.241 41.0434 99.8647 41.4346 99.4613 41.8148C99.0578 42.195 98.6435 42.5476 98.2238 42.8782C97.7985 43.2088 97.406 43.4953 97.0408 43.7322L95.3726 41.7597H95.3672ZM111.291 48.3881C111.291 49.0383 111.16 49.6444 110.898 50.2064C110.637 50.7684 110.272 51.2533 109.797 51.6665C109.328 52.0798 108.778 52.4049 108.145 52.6418C107.508 52.8787 106.815 52.9999 106.068 52.9999C105.322 52.9999 104.629 52.8787 103.997 52.6418C103.365 52.4049 102.808 52.0798 102.345 51.6665C101.876 51.2533 101.511 50.7629 101.249 50.2064C100.988 49.6444 100.857 49.0383 100.857 48.3881C100.857 47.7379 100.988 47.1319 101.249 46.5698C101.511 46.0078 101.876 45.5174 102.345 45.1042C102.814 44.691 103.365 44.3714 103.997 44.1289C104.635 43.892 105.327 43.7763 106.068 43.7763C106.81 43.7763 107.502 43.8975 108.145 44.1289C108.778 44.3659 109.328 44.691 109.797 45.1042C110.266 45.5174 110.631 46.0078 110.898 46.5698C111.16 47.1319 111.291 47.7379 111.291 48.3881ZM108.663 48.3881C108.663 47.771 108.418 47.2476 107.927 46.8398C107.437 46.4266 106.821 46.2172 106.074 46.2172C105.327 46.2172 104.711 46.4211 104.22 46.8398C103.73 47.2531 103.484 47.771 103.484 48.3881C103.484 49.0052 103.73 49.5232 104.22 49.9419C104.711 50.3552 105.327 50.5645 106.074 50.5645C106.821 50.5645 107.437 50.3552 107.927 49.9419C108.418 49.5287 108.663 49.0107 108.663 48.3881ZM114.36 39.0708H111.596V43.7047H108.811V32.2H111.596V36.7622H114.36V39.0653V39.0708Z" fill="#1A75BC"/>
<path d="M126.433 33.1146V45.0381H116.734V33.1146H126.433ZM119.498 42.7515H123.663V35.3902H119.498V42.7515ZM132.151 45.1483H129.365V32.2H132.151V45.1483Z" fill="#00AEEF"/>
<path d="M147.898 44.3273C146.977 44.5808 145.979 44.7791 144.894 44.9279C143.809 45.0767 142.708 45.1538 141.58 45.1538H136.668V33.1146H145.767V35.3957H139.432V42.8231H141.58C142.556 42.8231 143.553 42.757 144.551 42.6302C145.554 42.509 146.513 42.3327 147.435 42.1123L147.898 44.3273ZM151.894 45.1483H149.108V32.2H151.894V45.1483Z" fill="#00AEEF"/>
<path d="M171.522 45.1484H168.736V40.1839H165.929C165.809 40.8616 165.613 41.4953 165.324 42.0793C165.04 42.6634 164.675 43.1648 164.239 43.589C163.797 44.0078 163.285 44.3439 162.702 44.5863C162.118 44.8343 161.475 44.95 160.772 44.95C159.97 44.95 159.245 44.7957 158.602 44.4872C157.959 44.1786 157.408 43.7543 156.956 43.2144C156.503 42.6799 156.149 42.0463 155.903 41.319C155.653 40.5916 155.527 39.8203 155.527 38.9938C155.527 38.1673 155.653 37.3904 155.903 36.6686C156.149 35.9413 156.503 35.3131 156.956 34.7732C157.408 34.2332 157.953 33.8089 158.602 33.5004C159.245 33.1918 159.97 33.0375 160.772 33.0375C161.469 33.0375 162.124 33.1587 162.712 33.4012C163.301 33.6491 163.819 33.9852 164.255 34.4205C164.697 34.8558 165.057 35.3682 165.34 35.9633C165.624 36.5529 165.82 37.1975 165.923 37.8918H168.731V32.2166H171.517V45.1649L171.522 45.1484ZM163.323 38.9883C163.323 38.5034 163.263 38.0405 163.154 37.6163C163.045 37.1865 162.881 36.8173 162.663 36.4978C162.445 36.1782 162.178 35.9247 161.862 35.7429C161.546 35.5556 161.186 35.4674 160.777 35.4674C160.368 35.4674 160.003 35.5556 159.692 35.7429C159.376 35.9247 159.109 36.1782 158.891 36.4978C158.673 36.8173 158.509 37.1865 158.4 37.6163C158.291 38.0461 158.237 38.5034 158.237 38.9883C158.237 39.4731 158.291 39.936 158.4 40.3657C158.509 40.7955 158.673 41.1647 158.891 41.4843C159.114 41.8038 159.382 42.0573 159.692 42.2391C160.008 42.4209 160.368 42.5146 160.777 42.5146C161.186 42.5146 161.546 42.4209 161.862 42.2391C162.178 42.0573 162.445 41.8038 162.663 41.4843C162.887 41.1647 163.05 40.7955 163.154 40.3657C163.263 39.936 163.323 39.4786 163.323 38.9883Z" fill="#00AEEF"/>
<path d="M174.109 42.5145C174.851 41.8919 175.532 41.2032 176.148 40.4373C176.759 39.6769 177.217 38.9496 177.506 38.2554C177.707 37.7374 177.849 37.1809 177.925 36.5803C177.996 35.9798 178.034 35.3406 178.034 34.6629V32.7124H180.777V34.9053C180.777 35.3792 180.76 35.8475 180.722 36.3214C180.689 36.8007 180.613 37.2691 180.515 37.7429L184.527 42.2225L182.728 43.9526L179.485 40.3161C179.059 41.0544 178.525 41.7872 177.882 42.5145C177.239 43.2363 176.584 43.8755 175.908 44.421L174.115 42.5145H174.109ZM192.775 51.7106C192.132 51.8924 191.527 52.0247 190.965 52.1239C190.404 52.223 189.755 52.2671 189.025 52.2671H180.035V45.1758H182.826V49.986H189.03C189.733 49.986 190.36 49.9419 190.911 49.8538C191.456 49.7656 192.012 49.6554 192.568 49.5232L192.786 51.7161L192.775 51.7106ZM187.885 46.0354H185.165V38.4482H182.423V36.1451H185.165V32.2H187.885V46.0354ZM189.243 32.2055H191.963V46.7462H189.243V32.2055Z" fill="#00AEEF"/>
<path d="M203.855 40.1178C202.917 40.195 202.034 40.239 201.2 40.2611C200.366 40.2831 199.532 40.2941 198.703 40.2941H198.441V43.1758H199.711C200.693 43.1758 201.685 43.1152 202.683 42.9885C203.686 42.8618 204.645 42.691 205.566 42.4651L206.024 44.6856C205.103 44.9335 204.1 45.1374 203.02 45.2861C201.941 45.4349 200.834 45.5065 199.706 45.5065H195.672V33.1147H204.334V35.3958H198.436V38.013H198.697C199.472 38.013 200.284 38.0075 201.134 37.991C201.979 37.9745 202.884 37.9304 203.855 37.8588V40.1233V40.1178ZM211.001 50.3608H208.216V40.0958H205.103V37.7926H208.216V32.2056H211.001V50.3608Z" fill="#00AEEF"/>
<path d="M42.3637 21.4942L42.0802 26.4366C42.0421 27.1033 42.0366 27.6378 42.0584 28.029C42.0802 28.4367 42.1838 28.7618 42.3691 29.0042C42.0748 29.164 41.8458 29.2412 41.6713 29.2301C41.3879 29.2136 41.2352 28.9657 41.2134 28.4918C41.1862 27.9628 41.2298 27.0482 41.3334 25.7644L41.9167 19.2627L41.6932 18.1001C41.4369 16.7722 41.2134 15.8686 41.0117 15.4167C41.2625 15.3672 41.4914 15.4608 41.7041 15.6867C41.8567 15.8575 42.0039 16.2267 42.1402 16.7942C42.2765 17.3562 42.5381 18.6676 42.9252 20.6842C43.0015 21.0754 43.0669 21.3895 43.116 21.6154L43.2087 22.0287C43.7484 24.3814 44.179 25.5605 44.4952 25.6928C44.8387 25.836 45.2693 25.3071 45.7981 24.2547C46.3269 23.3786 46.5886 22.6403 46.5831 21.9074C46.8884 22.0948 47.1119 22.2711 47.2646 22.4199C47.5426 22.7009 47.6898 22.9984 47.7171 23.3125C47.728 23.4172 47.7171 23.6816 47.6898 24.1059C47.6625 24.4971 47.6462 24.8222 47.6462 25.0756L47.5917 27.9353C47.5917 28.1447 47.5917 28.3541 47.6135 28.5579C47.6625 29.1805 47.8043 29.5773 48.0387 29.7426C47.7716 29.9519 47.5372 30.0676 47.3354 30.0676C47.0084 30.0676 46.8121 29.6324 46.7521 28.7673C46.7303 28.4202 46.7194 28.0014 46.7249 27.511L46.7848 23.4888C46.5395 24.4585 46.1852 25.285 45.7218 25.9738C45.2584 26.7727 44.8223 27.1529 44.4134 27.0372C44.0918 26.949 43.7484 26.4476 43.3886 25.5109C43.0288 24.5302 42.6908 23.1912 42.3855 21.4942H42.3637Z" fill="#221E1F"/>
<path d="M49.9898 26.9545C49.9898 27.8581 50.3714 28.3099 51.1292 28.3099C51.7888 28.3099 52.5084 27.9959 53.3043 27.3622C54.0948 26.7286 54.8089 25.8966 55.4468 24.8662L55.8393 25.0811C55.2396 26.2106 54.46 27.1473 53.5006 27.8857C52.5411 28.6295 51.6362 28.9987 50.7748 28.9987C50.2242 28.9987 49.7881 28.8168 49.4719 28.4587C49.1557 28.1005 48.9922 27.6102 48.9922 26.993C48.9922 26.0949 49.2811 25.329 49.859 24.6954C50.4368 24.0618 51.1346 23.7422 51.9523 23.7422C52.3449 23.7422 52.661 23.8414 52.9009 24.0452C53.1353 24.2436 53.2553 24.5136 53.2553 24.8497C53.2553 25.4062 52.9282 25.8911 52.2685 26.3153C51.6089 26.7396 50.8511 26.9545 49.9953 26.9545H49.9898ZM50.0225 26.5082C50.6603 26.4751 51.2109 26.2933 51.6689 25.9517C52.1268 25.6156 52.3558 25.2299 52.3558 24.7891C52.3558 24.3924 52.1813 24.1995 51.8324 24.1995C51.4181 24.1995 51.031 24.4254 50.6821 24.8717C50.3333 25.3235 50.1097 25.869 50.028 26.5082H50.0225Z" fill="#221E1F"/>
<path d="M58.4359 26.1722C57.9562 27.0428 57.4601 27.7315 56.9367 28.2384C56.4134 28.7454 55.95 29.0043 55.5411 29.0043C55.2141 29.0043 54.9524 28.8611 54.7616 28.569C54.5708 28.277 54.4727 27.8913 54.4727 27.4064C54.4727 26.4312 54.7616 25.5772 55.334 24.8443C55.9064 24.1115 56.5769 23.7423 57.3401 23.7423C57.7981 23.7423 58.2942 23.8911 58.8284 24.1831L59.319 21.6871C59.0519 21.7422 58.8284 21.7698 58.6485 21.7698C58.3814 21.7698 58.1851 21.7037 58.0597 21.5769C57.9344 21.4502 57.8362 21.2078 57.7599 20.8496C57.978 20.9984 58.316 21.0755 58.7739 21.0755C59.3408 21.0755 59.886 20.9709 60.4093 20.7615L59.4117 25.8416C59.2972 26.4092 59.2427 26.894 59.2427 27.2907C59.2427 27.8197 59.3899 28.0897 59.6897 28.0897C59.9896 28.0897 60.4693 27.7426 61.1562 27.0483C61.8376 26.3541 62.41 25.6267 62.8625 24.8664L63.2387 25.1088C62.6935 26.1171 62.0121 27.0152 61.1998 27.8142C60.3875 28.6076 59.7333 29.0043 59.2482 29.0043C58.6321 29.0043 58.3214 28.5029 58.3214 27.5001C58.3214 27.0869 58.3596 26.6461 58.4359 26.1722ZM58.6758 24.9435C58.0434 24.5192 57.5091 24.3099 57.0894 24.3099C56.6314 24.3099 56.2335 24.5964 55.9009 25.1639C55.5684 25.7314 55.3994 26.4036 55.3994 27.1805C55.3994 27.8032 55.6011 28.1172 56.0045 28.1172C56.4406 28.1172 57.2747 27.1475 58.5068 25.208C58.5286 25.1749 58.5831 25.0868 58.6758 24.949V24.9435Z" fill="#221E1F"/>
<path d="M67.3986 25.0922C66.7062 26.3154 66.0084 27.2741 65.3052 27.9683C64.602 28.6571 63.9641 29.0042 63.4026 29.0042C63.0592 29.0042 62.7866 28.8885 62.574 28.6626C62.3668 28.4367 62.2578 28.1392 62.2578 27.7755C62.2578 27.6378 62.2905 27.4118 62.3505 27.1088L62.4541 26.6019C62.6013 25.8691 62.6776 25.3511 62.6776 25.0536C62.6776 24.8773 62.6285 24.734 62.5195 24.6238C62.9174 24.5302 63.1682 24.4861 63.2663 24.4861C63.4899 24.4861 63.6043 24.6459 63.6043 24.9654C63.6043 25.2024 63.5607 25.544 63.4735 25.9903L63.2936 26.8939C63.2064 27.3292 63.1628 27.6102 63.1628 27.7424C63.1628 28.1226 63.3209 28.3155 63.6425 28.3155C64.0241 28.3155 64.5311 27.9904 65.1689 27.3402C65.8067 26.69 66.4228 25.8691 67.017 24.8718L67.3986 25.0977V25.0922ZM63.3154 22.7615H63.3808C63.588 22.7615 63.8824 22.6513 64.264 22.4529C64.6456 22.2546 64.9454 22.0507 65.1635 21.8413C65.0272 22.2656 64.7928 22.6237 64.4493 22.9102C63.9314 23.351 63.5771 23.5659 63.3917 23.5659C63.2718 23.5659 63.2064 23.4888 63.2064 23.34C63.2064 23.1251 63.2391 22.9323 63.31 22.756L63.3154 22.7615Z" fill="#221E1F"/>
<path d="M70.0568 26.051C69.6643 26.872 69.1791 27.5662 68.6067 28.1392C68.0343 28.7123 67.5328 28.9988 67.1076 28.9988C66.7859 28.9988 66.5242 28.85 66.328 28.558C66.1317 28.266 66.0391 27.8803 66.0391 27.3899C66.0391 26.4257 66.328 25.5716 66.9059 24.8388C67.4837 24.1005 68.1542 23.7368 68.9174 23.7368C69.3808 23.7368 69.8824 23.8801 70.4166 24.1721C70.4929 23.8856 70.82 23.7423 71.387 23.7423C71.4251 23.7423 71.4851 23.7423 71.5669 23.7423C71.3924 24.0068 71.2616 24.376 71.1689 24.8443L71.0926 25.2355C71.0054 25.6763 70.9618 26.1887 70.9618 26.7728C70.9618 27.4505 71.1199 27.7866 71.4306 27.7866C71.7631 27.7866 72.2101 27.5056 72.7826 26.9491C73.355 26.3871 73.9165 25.6818 74.4725 24.8168L74.8323 25.0647C74.2654 26.084 73.6221 26.9326 72.8916 27.6158C72.1665 28.299 71.5396 28.6351 71.0163 28.6351C70.3566 28.6351 70.0241 28.0841 70.0241 26.9656C70.0241 26.7342 70.035 26.4202 70.0514 26.0289L70.0568 26.051ZM70.2694 24.9435C69.6261 24.5192 69.0919 24.3098 68.6667 24.3098C68.2033 24.3098 67.8053 24.5964 67.4674 25.1639C67.1294 25.7314 66.9604 26.4036 66.9604 27.1805C66.9604 27.8031 67.1621 28.1172 67.5655 28.1172C68.0016 28.1172 68.8411 27.1475 70.0786 25.208C70.095 25.1804 70.1549 25.0978 70.2694 24.949V24.9435Z" fill="#221E1F"/>
</g>
<defs>
<linearGradient id="paint0_linear_878_23335" x1="-0.287931" y1="26.106" x2="32.5028" y2="26.106" gradientUnits="userSpaceOnUse">
<stop stop-color="#FFF33A"/>
<stop offset="0.04" stop-color="#FEE62B"/>
<stop offset="0.12" stop-color="#FDD419"/>
<stop offset="0.2" stop-color="#FDCA0D"/>
<stop offset="0.28" stop-color="#FDC70A"/>
<stop offset="0.67" stop-color="#F3903F"/>
<stop offset="0.89" stop-color="#ED683C"/>
<stop offset="1" stop-color="#E93E39"/>
</linearGradient>
<clipPath id="clip0_878_23335">
<rect width="211" height="53" fill="white"/>
</clipPath>
</defs>
</svg>
