<svg width="32" height="27" viewBox="0 0 32 27" fill="none" xmlns="http://www.w3.org/2000/svg">
<g clip-path="url(#clip0_488_10355)">
<path d="M22.562 6.57735C22.9321 6.42314 23.3408 6.33832 23.7649 6.33832C24.189 6.33832 24.5977 6.42314 24.9678 6.57735C25.3379 6.73157 25.6695 6.9629 25.9548 7.24049C26.2324 7.51808 26.4637 7.84964 26.6179 8.22747C26.7721 8.59759 26.8647 9.00627 26.8647 9.43037C26.8647 9.85446 26.7798 10.2631 26.6179 10.6333C26.4637 11.0034 26.2324 11.3349 25.9548 11.6202C25.6772 11.9055 25.3456 12.1292 24.9678 12.2834C24.5977 12.4376 24.189 12.5224 23.7649 12.5224C23.3408 12.5224 22.9321 12.4376 22.562 12.2834" stroke="#FDCA0D" stroke-width="2" stroke-linecap="round" stroke-linejoin="round"/>
<path d="M19.6011 9.43037C19.6011 11.1345 18.2131 12.5224 16.509 12.5224C14.8049 12.5224 13.417 11.1345 13.417 9.43037C13.417 7.72627 14.8049 6.33832 16.509 6.33832C18.2131 6.33832 19.6011 7.71856 19.6011 9.43037Z" stroke="#FDCA0D" stroke-width="2" stroke-linecap="round" stroke-linejoin="round"/>
<path d="M26.9881 1.15662H5.01216C2.88287 1.15662 1.15674 2.88275 1.15674 5.01204V21.5904C1.15674 23.7196 2.88287 25.4458 5.01216 25.4458H26.9881C29.1174 25.4458 30.8435 23.7196 30.8435 21.5904V5.01204C30.8435 2.88275 29.1174 1.15662 26.9881 1.15662Z" stroke="#333333" stroke-width="2" stroke-linecap="round" stroke-linejoin="round"/>
</g>
<defs>
<clipPath id="clip0_488_10355">
<rect width="32" height="27" fill="white"/>
</clipPath>
</defs>
</svg>
