<svg width="28" height="28" viewBox="0 0 28 28" fill="none" xmlns="http://www.w3.org/2000/svg">
<g clip-path="url(#clip0_488_9615)">
<path d="M23.1041 4.97241H21.4539V6.71177C21.4539 7.67215 20.689 8.45112 19.7512 8.45112C18.8135 8.45112 18.0486 7.67215 18.0486 6.71177V4.97241H9.95965V6.71177C9.95965 7.67215 9.19476 8.45112 8.25175 8.45112C7.30874 8.45112 6.5491 7.67215 6.5491 6.71177V4.97241H4.89883C3.01805 4.97241 1.48828 6.53036 1.48828 8.44578V23.0329C1.48828 24.9483 3.01281 26.5063 4.89883 26.5063H23.1041C24.9902 26.5063 26.5147 24.9536 26.5147 23.0329V8.44578C26.5147 6.52503 24.9902 4.97241 23.1041 4.97241Z" stroke="#333333" stroke-width="2" stroke-linecap="round" stroke-linejoin="round"/>
<path d="M8.25344 1.49902C7.31043 1.49902 6.55078 2.278 6.55078 3.23838V6.71175C6.55078 7.67213 7.31567 8.4511 8.25344 8.4511C9.19121 8.4511 9.96133 7.67213 9.96133 6.71175V3.23838C9.96133 2.278 9.19645 1.49902 8.25344 1.49902Z" stroke="#333333" stroke-width="2" stroke-linecap="round" stroke-linejoin="round"/>
<path d="M19.7495 1.49902C18.8065 1.49902 18.0469 2.278 18.0469 3.23838V6.71175C18.0469 7.67213 18.8118 8.4511 19.7495 8.4511C20.6873 8.4511 21.4522 7.67213 21.4522 6.71175V3.23838C21.4522 2.278 20.6873 1.49902 19.7495 1.49902Z" stroke="#333333" stroke-width="2" stroke-linecap="round" stroke-linejoin="round"/>
<path d="M9.96069 15.8941L13.6751 19.6716L18.3168 13.0557" stroke="#FDCA0D" stroke-width="2" stroke-linejoin="round"/>
</g>
<defs>
<clipPath id="clip0_488_9615">
<rect width="28" height="28" fill="white"/>
</clipPath>
</defs>
</svg>
