<svg width="30" height="28" viewBox="0 0 30 28" fill="none" xmlns="http://www.w3.org/2000/svg">
<g clip-path="url(#clip0_488_9596)">
<path d="M23.8889 3.09644H26.0984C26.27 3.09644 26.4362 3.11206 26.5918 3.14332C26.7526 3.17458 26.9082 3.22146 27.053 3.28398C27.1978 3.34649 27.3426 3.41943 27.4713 3.50278C27.6 3.58613 27.7233 3.68511 27.8359 3.79451C27.9486 3.90391 28.0505 4.01852 28.1363 4.14876C28.2274 4.27379 28.3025 4.40924 28.3615 4.55511C28.4259 4.69576 28.4741 4.84684 28.5063 5.00313C28.5385 5.15941 28.5546 5.32091 28.5546 5.4824V24.1898C28.5546 24.3566 28.5385 24.5128 28.5063 24.6691C28.4741 24.8254 28.4259 24.9765 28.3615 25.1171C28.2971 25.2578 28.2221 25.3985 28.1363 25.5235C28.0505 25.6485 27.9486 25.7683 27.8359 25.8777C27.7233 25.9871 27.6053 26.0861 27.4713 26.1695C27.3426 26.2528 27.2031 26.331 27.053 26.3883C26.9082 26.4508 26.7526 26.4977 26.5918 26.5289C26.4309 26.5602 26.2646 26.5758 26.0984 26.5758H3.9015C3.72989 26.5758 3.569 26.5602 3.40812 26.5289C3.24723 26.4977 3.09171 26.4508 2.94691 26.3883C2.80212 26.3258 2.65732 26.2528 2.52861 26.1695C2.3999 26.0861 2.27656 25.9871 2.16394 25.8777C2.05132 25.7683 1.95478 25.6537 1.86362 25.5235C1.77781 25.3985 1.69737 25.263 1.63838 25.1171C1.57402 24.9765 1.52576 24.8254 1.49358 24.6691C1.4614 24.5128 1.44531 24.3513 1.44531 24.1898V5.4824C1.44531 5.3157 1.4614 5.15941 1.49358 5.00313C1.52576 4.84684 1.57402 4.69576 1.63838 4.55511C1.70273 4.40924 1.77781 4.27379 1.86362 4.14876C1.95478 4.02373 2.05132 3.90391 2.16394 3.79451C2.27656 3.68511 2.3999 3.58613 2.52861 3.50278C2.65732 3.41422 2.79675 3.34128 2.94691 3.28398C3.09707 3.22146 3.24723 3.17458 3.40812 3.14332C3.569 3.11206 3.73525 3.09644 3.9015 3.09644H6.111" stroke="#333333" stroke-width="2" stroke-linecap="round" stroke-linejoin="round"/>
<path d="M12.7932 3.09644H15.0027H17.2068" stroke="#333333" stroke-width="2" stroke-linecap="round" stroke-linejoin="round"/>
<path d="M9.53125 1.42419V4.37279" stroke="#333333" stroke-width="2" stroke-linecap="round" stroke-linejoin="round"/>
<path d="M20.4727 1.42419V4.37279" stroke="#333333" stroke-width="2" stroke-linecap="round" stroke-linejoin="round"/>
<path d="M1.69141 8.66028H27.9855" stroke="#333333" stroke-width="2" stroke-linecap="round" stroke-linejoin="round"/>
<path d="M7.24219 14.6825H9.4785" stroke="#FDCA0D" stroke-width="2" stroke-linecap="round" stroke-linejoin="round"/>
<path d="M13.8867 14.6825H16.1177" stroke="#FDCA0D" stroke-width="2" stroke-linecap="round" stroke-linejoin="round"/>
<path d="M20.5273 14.6825H22.7583" stroke="#FDCA0D" stroke-width="2" stroke-linecap="round" stroke-linejoin="round"/>
<path d="M7.24219 20.2515H9.4785" stroke="#FDCA0D" stroke-width="2" stroke-linecap="round" stroke-linejoin="round"/>
<path d="M13.8867 20.2515H16.1177" stroke="#FDCA0D" stroke-width="2" stroke-linecap="round" stroke-linejoin="round"/>
<path d="M20.5273 20.2515H22.7583" stroke="#FDCA0D" stroke-width="2" stroke-linecap="round" stroke-linejoin="round"/>
</g>
<defs>
<clipPath id="clip0_488_9596">
<rect width="30" height="28" fill="white"/>
</clipPath>
</defs>
</svg>
