<svg width="29" height="29" viewBox="0 0 29 29" fill="none" xmlns="http://www.w3.org/2000/svg">
<g clip-path="url(#clip0_462_37615)">
<path d="M14.5 1.39258C21.727 1.39258 27.6074 7.27307 27.6074 14.5" stroke="#FDCA0D" stroke-width="2" stroke-linecap="round" stroke-linejoin="round"/>
<path d="M14.5 5.59668C19.4069 5.59668 23.4032 9.58897 23.4032 14.4998" stroke="#FDCA0D" stroke-width="2" stroke-linecap="round" stroke-linejoin="round"/>
<path d="M14.5 10.2842C16.8239 10.2842 18.7161 12.1763 18.7161 14.5002" stroke="#FDCA0D" stroke-width="2" stroke-linecap="round" stroke-linejoin="round"/>
<path d="M23.2266 23.5524C23.1834 23.8939 23.0225 24.2354 22.8066 24.4513L21.2167 26.0451C15.7995 30.5791 8.92187 23.8232 8.85121 23.7565L5.2554 20.1567C5.18867 20.0861 -1.57115 13.2124 2.94325 7.81086L4.56058 6.19353C4.77256 5.98155 5.11801 5.8206 5.4556 5.7735C5.52234 5.76564 5.58515 5.76172 5.64796 5.76172C5.89919 5.76172 6.10332 5.82845 6.22109 5.94622L9.58137 9.82467C9.9857 10.229 9.9857 10.8806 9.58137 11.285L8.35659 12.5137C8.05432 12.8395 7.84234 13.1457 7.70495 13.4558C7.43801 14.1899 7.01013 16.1095 8.85514 18.0958L10.92 20.1646C12.8945 21.9978 14.8141 21.5699 15.5718 21.2952C15.8544 21.1695 16.1645 20.9536 16.4982 20.6435L17.7151 19.4266C18.1038 19.038 18.7633 19.0144 19.1951 19.4462L23.0382 22.7751C23.1991 22.9439 23.2659 23.2265 23.2227 23.5524H23.2266Z" stroke="#222222" stroke-width="2" stroke-linecap="round" stroke-linejoin="round"/>
</g>
<defs>
<clipPath id="clip0_462_37615">
<rect width="29" height="29" fill="white"/>
</clipPath>
</defs>
</svg>
