<svg width="242" height="60" viewBox="0 0 242 60" fill="none" xmlns="http://www.w3.org/2000/svg">
<g opacity="0.6" clip-path="url(#clip0_878_23257)">
<path d="M26.9395 54.2301C26.9395 55.6211 28.0197 56.3197 30.1801 56.3197C30.6609 56.3197 30.9044 56.7438 30.9044 57.5922C30.9044 58.6027 29.6806 59.1079 27.2392 59.1079C24.4669 59.1079 23.0808 57.2491 23.0808 53.5314C23.0808 49.19 27.1768 40.1267 35.3687 26.329L20.3273 43.6073C11.4422 53.8371 4.9923 58.952 0.989976 58.952C0.546661 58.952 0.328125 58.6089 0.328125 57.9165C0.328125 56.9622 0.696514 56.3758 1.42705 56.1637C3.74352 55.5462 5.85395 54.492 7.76458 52.995C10.1497 51.1424 15.2198 45.9028 22.9684 37.2948L39.8269 17.4154C40.5636 17.0536 41.5502 16.8727 42.799 16.8727C44.0477 16.8727 44.6721 17.877 44.6721 19.8918C44.6721 22.0562 41.7125 27.8947 35.7996 37.4133C29.8866 46.9258 26.9333 52.5334 26.9333 54.2363L26.9395 54.2301ZM46.7825 11.8514C45.0218 11.8514 44.1414 10.5852 44.1414 8.05894C44.1414 5.93814 45.0405 4.02942 46.8387 2.3203C48.4559 0.767122 50.0668 -0.00634766 51.684 -0.00634766C53.5946 -0.00634766 54.5499 1.46574 54.5499 4.40991C54.5499 6.52448 53.5946 8.3334 51.684 9.83667C50.0294 11.184 48.3997 11.8514 46.7825 11.8514Z" fill="#E6E7E8"/>
<path d="M25.6443 54.2301C26.0127 55.6211 27.274 56.3197 29.4219 56.3197C29.9026 56.3197 30.2585 56.7438 30.4958 57.5922C30.7705 58.6027 29.6903 59.1079 27.249 59.1079C24.4767 59.1079 22.6035 57.2491 21.642 53.5314C20.5181 49.19 22.1165 40.1267 26.1376 26.329L16.3971 43.6073C10.197 53.8371 4.96461 58.952 0.962285 58.952C0.51897 58.952 0.225508 58.6089 0.0756546 57.9165C-0.130393 56.9622 0.106874 56.3758 0.7937 56.1637C2.96032 55.5462 4.81475 54.492 6.36323 52.995C8.28635 51.1424 12.0015 45.9028 17.3337 37.2948L27.7485 17.4154C28.3229 17.0536 29.1846 16.8727 30.3335 16.8727C31.4823 16.8727 32.3627 17.877 32.9621 19.8918C33.6115 22.0562 32.5688 27.8947 29.6841 37.4133C26.5934 46.9258 25.1948 52.5334 25.6506 54.2363L25.6443 54.2301ZM32.4751 11.8514C30.8642 11.8514 29.6841 10.5852 28.9286 8.05894C28.298 5.93814 28.5352 4.02942 29.6341 2.3203C30.6082 0.767122 31.807 -0.00634766 33.2494 -0.00634766C34.9477 -0.00634766 36.2714 1.46574 37.2017 4.40991C37.8761 6.52448 37.5826 8.3334 36.3151 9.83667C35.2287 11.184 33.9424 11.8514 32.4689 11.8514H32.4751Z" fill="url(#paint0_linear_878_23257)"/>
<path d="M50.979 58.3406V51.791H42.3125V49.0777H62.8611V51.791H54.1946V58.3406H50.979ZM54.2945 39.9208C54.2445 40.3387 54.1446 40.7317 53.9948 41.0997L61.5561 45.0419L59.9202 47.4496L52.3089 43.5074C51.441 44.3433 50.3796 45.098 49.1308 45.7655C47.882 46.4391 46.5833 47.0379 45.2284 47.5681L43.7174 45.0357C44.6227 44.6676 45.4781 44.2934 46.2961 43.9004C47.1078 43.5199 47.8446 43.1145 48.4939 42.7028C49.1433 42.2849 49.699 41.8482 50.1486 41.3866C50.6044 40.925 50.9041 40.4385 51.0539 39.9208H45.1222V37.3322H60.376V39.9208H54.2945Z" fill="white"/>
<path d="M76.8525 43.0271C76.8525 43.8817 76.7027 44.6739 76.4155 45.3974C76.122 46.1272 75.7161 46.751 75.1979 47.2812C74.6797 47.8114 74.0615 48.2231 73.3372 48.5225C72.6192 48.8219 71.8262 48.9778 70.977 48.9778C70.1279 48.9778 69.3412 48.8281 68.6294 48.5225C67.9175 48.2231 67.2932 47.8052 66.7687 47.2812C66.2442 46.7572 65.8321 46.1272 65.5386 45.3974C65.2452 44.6676 65.1016 43.8754 65.1016 43.0271C65.1016 42.1788 65.2452 41.3866 65.5386 40.6568C65.8321 39.927 66.2442 39.3032 66.7687 38.773C67.2932 38.2491 67.9175 37.8312 68.6294 37.5318C69.3412 37.2323 70.1216 37.0764 70.977 37.0764C71.8325 37.0764 72.6192 37.2261 73.3372 37.5318C74.0553 37.8312 74.6734 38.2491 75.1979 38.773C75.7161 39.297 76.122 39.927 76.4155 40.6568C76.7089 41.3866 76.8525 42.1726 76.8525 43.0271ZM73.7868 43.0271C73.7868 42.578 73.7181 42.1539 73.5745 41.7609C73.4309 41.3679 73.2373 41.0248 72.9876 40.7317C72.7378 40.4447 72.4381 40.2139 72.0947 40.0518C71.7513 39.8896 71.3767 39.8147 70.977 39.8147C70.5774 39.8147 70.2028 39.8896 69.8594 40.0518C69.516 40.2139 69.2163 40.4385 68.9665 40.7317C68.7168 41.0248 68.517 41.3679 68.3734 41.7609C68.2297 42.1539 68.1611 42.578 68.1611 43.0271C68.1611 43.969 68.4295 44.7362 68.954 45.3413C69.4785 45.9401 70.1529 46.2458 70.9708 46.2458C71.7888 46.2458 72.4693 45.9463 72.9938 45.3413C73.5246 44.7362 73.7868 43.969 73.7868 43.0271ZM84.033 58.5339C83.2962 58.7398 82.6094 58.8895 81.96 59.0018C81.3169 59.114 80.5739 59.1639 79.7372 59.1639H70.1903V51.1361H73.3809V56.5815H79.7372C80.5427 56.5815 81.2545 56.5316 81.8851 56.4318C82.5157 56.332 83.1464 56.2073 83.7832 56.0576L84.033 58.5402V58.5339ZM86.0935 45.385H82.9278V52.6643H79.7372V36.4526H82.9278V42.7776H86.0935V45.385Z" fill="white"/>
<path d="M106.345 49.477H103.154V46.5141H98.2837C97.7468 47.0692 97.1161 47.4996 96.3856 47.8115C95.6551 48.1234 94.8371 48.2731 93.938 48.2731C93.0826 48.2731 92.2958 48.1359 91.5778 47.8489C90.8598 47.562 90.2416 47.169 89.7171 46.67C89.1989 46.1648 88.793 45.5722 88.4996 44.8798C88.2061 44.1874 88.0625 43.4202 88.0625 42.5844C88.0625 41.7485 88.2061 41.0062 88.4996 40.3014C88.793 39.5965 89.1989 38.9915 89.7171 38.4925C90.2354 37.9872 90.8535 37.6005 91.5778 37.3135C92.3021 37.0266 93.0826 36.8831 93.938 36.8831C94.8746 36.8831 95.7237 37.0578 96.4917 37.4009C97.2535 37.7439 97.9029 38.2118 98.4398 38.7919H103.16V36.459H106.351V49.4832L106.345 49.477ZM96.7477 42.5781C96.7477 41.6924 96.4855 40.975 95.961 40.4324C95.4365 39.8897 94.7559 39.6215 93.938 39.6215C93.12 39.6215 92.4457 39.8897 91.915 40.4324C91.3905 40.9813 91.122 41.6924 91.122 42.5781C91.122 43.4639 91.3842 44.1562 91.915 44.7114C92.4457 45.2603 93.12 45.541 93.938 45.541C94.7559 45.541 95.4365 45.2603 95.961 44.7114C96.4917 44.1625 96.7477 43.4514 96.7477 42.5781ZM106.07 54.7727C106.07 55.54 105.914 56.2448 105.589 56.8811C105.271 57.5173 104.84 58.0662 104.297 58.5216C103.753 58.9832 103.11 59.3449 102.361 59.6069C101.612 59.8627 100.812 59.9937 99.9633 59.9937C99.1142 59.9937 98.3087 59.8627 97.5657 59.6069C96.8227 59.3449 96.1733 58.9832 95.6176 58.5216C95.0619 58.0662 94.6311 57.5111 94.3189 56.8811C94.0129 56.2448 93.8568 55.54 93.8568 54.7727C93.8568 54.0055 94.0129 53.2944 94.3189 52.6519C94.6311 52.0095 95.0619 51.4543 95.6176 50.9927C96.1671 50.5374 96.8164 50.1756 97.5657 49.9261C98.3087 49.6766 99.1142 49.5518 99.9633 49.5518C100.812 49.5518 101.618 49.6766 102.361 49.9261C103.104 50.1756 103.747 50.5374 104.297 50.9927C104.84 51.4543 105.271 52.0032 105.589 52.6519C105.907 53.2944 106.07 53.9993 106.07 54.7727ZM103.054 54.7727C103.054 54.4047 102.973 54.0741 102.817 53.7685C102.661 53.4691 102.436 53.2071 102.149 52.995C101.868 52.7767 101.537 52.6083 101.156 52.4898C100.775 52.3712 100.382 52.3151 99.9633 52.3151C99.5263 52.3151 99.1266 52.3712 98.7583 52.4898C98.3899 52.602 98.0652 52.7705 97.778 52.995C97.4908 53.2133 97.2722 53.4691 97.1099 53.7685C96.9538 54.0741 96.8726 54.4047 96.8726 54.7727C96.8726 55.1408 96.9475 55.4776 97.1099 55.777C97.2722 56.0764 97.4908 56.3384 97.778 56.5505C98.0652 56.7688 98.3899 56.9372 98.7583 57.0557C99.1266 57.168 99.5263 57.2304 99.9633 57.2304C100.4 57.2304 100.775 57.168 101.156 57.0557C101.537 56.9372 101.861 56.7688 102.149 56.5505C102.436 56.3322 102.654 56.0702 102.817 55.777C102.979 55.4714 103.054 55.1408 103.054 54.7727ZM99.8135 42.5781C99.8135 43.0459 99.7635 43.4888 99.6636 43.9067H103.154V41.3992H99.6886C99.7698 41.8171 99.8135 42.2101 99.8135 42.5781Z" fill="white"/>
<path d="M109.559 47.2751C109.927 47.0256 110.32 46.7386 110.739 46.4205C111.157 46.1024 111.569 45.7593 111.969 45.3913C112.375 45.0233 112.749 44.6365 113.099 44.2249C113.449 43.8132 113.754 43.4015 114.004 42.9836C114.341 42.4159 114.579 41.8171 114.722 41.1996C114.866 40.5758 114.935 39.8835 114.935 39.1162V36.7584H118.075V39.4219C118.075 40.2203 117.982 41.0374 117.801 41.8546L123.451 46.5453L121.541 48.7534L116.62 44.6116C116.321 45.0794 115.965 45.5472 115.553 46.0026C115.141 46.4642 114.71 46.9071 114.248 47.3375C113.786 47.7679 113.311 48.1671 112.83 48.5413C112.343 48.9156 111.894 49.2399 111.475 49.5082L109.565 47.2751H109.559ZM127.797 54.779C127.797 55.515 127.647 56.2012 127.347 56.8374C127.048 57.4736 126.629 58.0226 126.086 58.4904C125.549 58.9582 124.919 59.3262 124.194 59.5944C123.464 59.8627 122.671 59.9999 121.815 59.9999C120.96 59.9999 120.167 59.8627 119.443 59.5944C118.718 59.3262 118.081 58.9582 117.551 58.4904C117.014 58.0226 116.595 57.4674 116.296 56.8374C115.996 56.2012 115.846 55.515 115.846 54.779C115.846 54.0429 115.996 53.3568 116.296 52.7205C116.595 52.0843 117.014 51.5292 117.551 51.0613C118.088 50.5935 118.718 50.2317 119.443 49.9573C120.173 49.689 120.966 49.5581 121.815 49.5581C122.664 49.5581 123.457 49.6953 124.194 49.9573C124.919 50.2255 125.549 50.5935 126.086 51.0613C126.623 51.5292 127.041 52.0843 127.347 52.7205C127.647 53.3568 127.797 54.0429 127.797 54.779ZM124.781 54.779C124.781 54.0804 124.5 53.4878 123.938 53.0262C123.376 52.5584 122.671 52.3213 121.815 52.3213C120.96 52.3213 120.254 52.5521 119.692 53.0262C119.13 53.494 118.849 54.0804 118.849 54.779C118.849 55.4776 119.13 56.0639 119.692 56.538C120.254 57.0058 120.96 57.2428 121.815 57.2428C122.671 57.2428 123.376 57.0058 123.938 56.538C124.5 56.0702 124.781 55.4838 124.781 54.779ZM131.312 44.2373H128.147V49.4832H124.956V36.459H128.147V41.6238H131.312V44.2311V44.2373Z" fill="white"/>
<path d="M145.139 37.4882V50.9865H134.031V37.4882H145.139ZM137.197 48.4041H141.967V40.0706H137.197V48.4041ZM151.689 51.1175H148.498V36.459H151.689V51.1175Z" fill="white"/>
<path d="M169.726 50.1817C168.67 50.4686 167.528 50.6932 166.285 50.8616C165.043 51.03 163.781 51.1174 162.489 51.1174H156.863V37.4881H167.284V40.0705H160.029V48.4788H162.489C163.607 48.4788 164.749 48.404 165.892 48.2605C167.041 48.1233 168.14 47.9237 169.195 47.6742L169.726 50.1817ZM174.302 51.1111H171.112V36.4526H174.302V51.1111Z" fill="white"/>
<path d="M196.78 51.111H193.59V45.4908H190.374C190.237 46.2581 190.012 46.9754 189.681 47.6366C189.356 48.2978 188.938 48.8654 188.439 49.3457C187.933 49.8198 187.346 50.2003 186.678 50.4747C186.01 50.7554 185.273 50.8864 184.468 50.8864C183.55 50.8864 182.719 50.7118 181.982 50.3624C181.246 50.0131 180.615 49.5328 180.097 48.9215C179.579 48.3165 179.173 47.5992 178.892 46.7758C178.605 45.9524 178.461 45.0792 178.461 44.1435C178.461 43.2079 178.605 42.3284 178.892 41.5112C179.173 40.6878 179.579 39.9768 180.097 39.3655C180.615 38.7542 181.239 38.2739 181.982 37.9246C182.719 37.5753 183.55 37.4006 184.468 37.4006C185.267 37.4006 186.016 37.5378 186.69 37.8123C187.365 38.093 187.958 38.4735 188.457 38.9663C188.963 39.459 189.375 40.0391 189.7 40.7128C190.025 41.3802 190.249 42.11 190.368 42.896H193.584V36.4712H196.774V51.1297L196.78 51.111ZM187.39 44.1373C187.39 43.5884 187.321 43.0644 187.196 42.5841C187.071 42.0976 186.884 41.6796 186.634 41.3178C186.384 40.9561 186.078 40.6691 185.716 40.4633C185.354 40.2512 184.942 40.1514 184.474 40.1514C184.005 40.1514 183.587 40.2512 183.231 40.4633C182.869 40.6691 182.563 40.9561 182.313 41.3178C182.064 41.6796 181.876 42.0976 181.751 42.5841C181.627 43.0706 181.564 43.5884 181.564 44.1373C181.564 44.6862 181.627 45.2101 181.751 45.6967C181.876 46.1832 182.064 46.6011 182.313 46.9629C182.569 47.3247 182.875 47.6116 183.231 47.8175C183.593 48.0233 184.005 48.1294 184.474 48.1294C184.942 48.1294 185.354 48.0233 185.716 47.8175C186.078 47.6116 186.384 47.3247 186.634 46.9629C186.89 46.6011 187.077 46.1832 187.196 45.6967C187.321 45.2101 187.39 44.6924 187.39 44.1373Z" fill="white"/>
<path d="M199.746 48.1296C200.595 47.4248 201.376 46.6451 202.081 45.778C202.781 44.9172 203.305 44.0939 203.636 43.3079C203.867 42.7216 204.029 42.0916 204.117 41.4117C204.198 40.7318 204.242 40.0082 204.242 39.241V37.0328H207.382V39.5154C207.382 40.0519 207.364 40.5821 207.32 41.1185C207.282 41.6612 207.195 42.1914 207.083 42.7278L211.678 47.799L209.618 49.7577L205.903 45.6408C205.416 46.4767 204.804 47.3063 204.067 48.1296C203.33 48.9468 202.581 49.6703 201.807 50.2879L199.752 48.1296H199.746ZM221.119 58.5403C220.382 58.7461 219.689 58.8958 219.046 59.0081C218.403 59.1204 217.66 59.1703 216.823 59.1703H206.527V51.1424H209.724V56.5879H216.829C217.635 56.5879 218.353 56.538 218.983 56.4382C219.608 56.3384 220.245 56.2136 220.882 56.0639L221.131 58.5465L221.119 58.5403ZM215.518 52.1217H212.402V43.5325H209.262V40.9251H212.402V36.459H215.518V52.1217ZM217.073 36.459H220.189V52.9202H217.073V36.459Z" fill="white"/>
<path d="M233.81 45.4163C232.736 45.5036 231.724 45.5535 230.769 45.5784C229.813 45.6034 228.858 45.6159 227.909 45.6159H227.609V48.8782H229.064C230.188 48.8782 231.325 48.8095 232.467 48.6661C233.616 48.5226 234.715 48.3292 235.77 48.0735L236.295 50.5873C235.239 50.868 234.091 51.0988 232.854 51.2672C231.618 51.4356 230.35 51.5167 229.058 51.5167H224.438V37.4882H234.359V40.0706H227.603V43.0335H227.903C228.789 43.0335 229.72 43.0272 230.694 43.0085C231.662 42.9898 232.698 42.9399 233.81 42.8588V45.4225V45.4163ZM242.002 57.0121H238.811V45.3913H235.246V42.784H238.811V36.459H242.002V57.0121Z" fill="white"/>
<path d="M48.8532 24.3332L48.5285 29.9284C48.4848 30.6832 48.4785 31.2882 48.5035 31.7311C48.5285 32.1927 48.6471 32.5607 48.8594 32.8352C48.5222 33.0161 48.26 33.1034 48.0602 33.0909C47.7355 33.0722 47.5607 32.7915 47.5357 32.2551C47.5045 31.6563 47.5544 30.6208 47.6731 29.1674L48.3412 21.807L48.0852 20.4909C47.7917 18.9876 47.5357 17.9646 47.3047 17.4531C47.5919 17.397 47.8541 17.503 48.0977 17.7588C48.2725 17.9521 48.4411 18.3701 48.5972 19.0125C48.7533 19.6488 49.053 21.1333 49.4963 23.4163C49.5837 23.8592 49.6586 24.2147 49.7148 24.4705L49.821 24.9383C50.4391 27.6018 50.9324 28.9366 51.2945 29.0863C51.6879 29.2485 52.1812 28.6497 52.7868 27.4583C53.3925 26.4665 53.6922 25.6307 53.6859 24.8011C54.0356 25.0132 54.2916 25.2128 54.4664 25.3812C54.7848 25.6993 54.9534 26.0361 54.9846 26.3917C54.9971 26.5102 54.9847 26.8096 54.9534 27.2899C54.9222 27.7328 54.9035 28.1008 54.9035 28.3877L54.841 31.6251C54.841 31.8621 54.841 32.0991 54.866 32.3299C54.9222 33.0348 55.0846 33.4839 55.353 33.671C55.0471 33.908 54.7786 34.039 54.5476 34.039C54.1729 34.039 53.9482 33.5463 53.8795 32.567C53.8545 32.174 53.842 31.6999 53.8483 31.1448L53.9169 26.5913C53.636 27.6891 53.2301 28.6248 52.6994 29.4045C52.1687 30.3089 51.6692 30.7393 51.2009 30.6083C50.8325 30.5085 50.4391 29.9409 50.027 28.8805C49.6149 27.7702 49.2278 26.2544 48.8781 24.3332H48.8532Z" fill="white"/>
<path d="M57.5879 30.515C57.5879 31.5379 58.025 32.0494 58.8929 32.0494C59.6484 32.0494 60.4726 31.6939 61.3842 30.9766C62.2896 30.2592 63.1075 29.3173 63.8381 28.1509L64.2876 28.3942C63.6008 29.6729 62.7079 30.7333 61.609 31.5691C60.5101 32.4112 59.4736 32.8291 58.4871 32.8291C57.8564 32.8291 57.3569 32.6233 56.9948 32.2179C56.6326 31.8124 56.4453 31.2573 56.4453 30.5586C56.4453 29.5419 56.7762 28.6749 57.4381 27.9575C58.0999 27.2402 58.8992 26.8784 59.8357 26.8784C60.2853 26.8784 60.6474 26.9907 60.9222 27.2215C61.1907 27.446 61.328 27.7517 61.328 28.1322C61.328 28.7622 60.9534 29.3111 60.1979 29.7914C59.4424 30.2717 58.5745 30.515 57.5942 30.515H57.5879ZM57.6316 30.0097C58.3622 29.9723 58.9928 29.7665 59.5173 29.3797C60.0418 28.9992 60.304 28.5626 60.304 28.0636C60.304 27.6145 60.1042 27.3961 59.7046 27.3961C59.2301 27.3961 58.7868 27.6519 58.3872 28.1571C57.9875 28.6686 57.7315 29.2862 57.6379 30.0097H57.6316Z" fill="white"/>
<path d="M67.262 29.629C66.7125 30.6146 66.1443 31.3943 65.5449 31.9682C64.9455 32.542 64.4147 32.8352 63.9465 32.8352C63.5718 32.8352 63.2721 32.673 63.0536 32.3424C62.835 32.0118 62.7227 31.5752 62.7227 31.0263C62.7227 29.9222 63.0536 28.9554 63.7092 28.1258C64.3648 27.2962 65.1328 26.8782 66.0069 26.8782C66.5314 26.8782 67.0996 27.0466 67.7115 27.3772L68.2735 24.5516C67.9675 24.614 67.7115 24.6452 67.5055 24.6452C67.1995 24.6452 66.9747 24.5703 66.8311 24.4268C66.6875 24.2834 66.5751 24.0089 66.4877 23.6035C66.7375 23.7719 67.1246 23.8592 67.6491 23.8592C68.2984 23.8592 68.9228 23.7407 69.5222 23.5037L68.3796 29.2548C68.2485 29.8973 68.186 30.4462 68.186 30.8953C68.186 31.4941 68.3546 31.7997 68.698 31.7997C69.0415 31.7997 69.5909 31.4068 70.3776 30.6208C71.1581 29.8349 71.8137 29.0115 72.332 28.1507L72.7628 28.4252C72.1384 29.5667 71.3579 30.5834 70.4276 31.4879C69.4973 32.3861 68.748 32.8352 68.1923 32.8352C67.4867 32.8352 67.1308 32.2676 67.1308 31.1323C67.1308 30.6645 67.1745 30.1655 67.262 29.629ZM67.5367 28.238C66.8124 27.7577 66.2005 27.5207 65.7197 27.5207C65.1952 27.5207 64.7394 27.8451 64.3586 28.4875C63.9777 29.13 63.7841 29.891 63.7841 30.7705C63.7841 31.4754 64.0151 31.8309 64.4772 31.8309C64.9767 31.8309 65.932 30.7331 67.3431 28.5374C67.3681 28.5 67.4305 28.4002 67.5367 28.2443V28.238Z" fill="white"/>
<path d="M77.5247 28.4063C76.7317 29.7911 75.9325 30.8764 75.127 31.6623C74.3216 32.4421 73.591 32.835 72.9479 32.835C72.5546 32.835 72.2424 32.704 71.9989 32.4483C71.7616 32.1925 71.6367 31.8557 71.6367 31.444C71.6367 31.2881 71.6742 31.0323 71.7429 30.6893L71.8615 30.1154C72.0301 29.2858 72.1175 28.6995 72.1175 28.3626C72.1175 28.163 72.0613 28.0008 71.9364 27.8761C72.3922 27.77 72.6794 27.7201 72.7918 27.7201C73.0478 27.7201 73.179 27.901 73.179 28.2628C73.179 28.531 73.129 28.9178 73.0291 29.423L72.8231 30.446C72.7231 30.9388 72.6732 31.2569 72.6732 31.4066C72.6732 31.837 72.8543 32.0553 73.2227 32.0553C73.6597 32.0553 74.2404 31.6873 74.9709 30.9513C75.7015 30.2152 76.407 29.2858 77.0876 28.1568L77.5247 28.4125V28.4063ZM72.8543 25.7678H72.9292C73.1665 25.7678 73.5036 25.643 73.9407 25.4185C74.3778 25.1939 74.7212 24.9631 74.9709 24.7261C74.8148 25.2064 74.5464 25.6118 74.153 25.9362C73.5598 26.4352 73.154 26.6785 72.9417 26.6785C72.8043 26.6785 72.7294 26.5911 72.7294 26.4227C72.7294 26.1794 72.7669 25.9611 72.848 25.7615L72.8543 25.7678Z" fill="white"/>
<path d="M80.5705 29.4919C80.1209 30.4213 79.5652 31.2072 78.9096 31.856C78.254 32.5047 77.6796 32.829 77.1925 32.829C76.8242 32.829 76.5245 32.6606 76.2997 32.33C76.0749 31.9994 75.9688 31.5628 75.9688 31.0076C75.9688 29.916 76.2997 28.9492 76.9615 28.1196C77.6234 27.2838 78.3914 26.8721 79.2655 26.8721C79.7962 26.8721 80.3707 27.0342 80.9826 27.3648C81.07 27.0405 81.4446 26.8783 82.094 26.8783C82.1377 26.8783 82.2064 26.8783 82.3 26.8783C82.1002 27.1777 81.9504 27.5956 81.8442 28.1258L81.7568 28.5687C81.6569 29.0677 81.607 29.6478 81.607 30.309C81.607 31.0762 81.788 31.4567 82.1439 31.4567C82.5248 31.4567 83.0368 31.1386 83.6924 30.5086C84.348 29.8724 84.9911 29.074 85.628 28.0947L86.0401 28.3753C85.3908 29.5293 84.654 30.4899 83.8173 31.2634C82.9869 32.0368 82.2688 32.4173 81.6694 32.4173C80.9139 32.4173 80.533 31.7936 80.533 30.5273C80.533 30.2654 80.5455 29.9098 80.5642 29.4669L80.5705 29.4919ZM80.8202 28.2381C80.0835 27.7578 79.4716 27.5208 78.9845 27.5208C78.4538 27.5208 77.998 27.8451 77.6109 28.4876C77.2238 29.1301 77.0302 29.8911 77.0302 30.7706C77.0302 31.4755 77.2612 31.831 77.7233 31.831C78.2228 31.831 79.1843 30.7332 80.6017 28.5375C80.6204 28.5063 80.6891 28.4128 80.8202 28.2444V28.2381Z" fill="white"/>
</g>
<defs>
<linearGradient id="paint0_linear_878_23257" x1="0.000728124" y1="29.5539" x2="37.5576" y2="29.5539" gradientUnits="userSpaceOnUse">
<stop stop-color="#FFF33A"/>
<stop offset="0.04" stop-color="#FEE62B"/>
<stop offset="0.12" stop-color="#FDD419"/>
<stop offset="0.2" stop-color="#FDCA0D"/>
<stop offset="0.28" stop-color="#FDC70A"/>
<stop offset="0.67" stop-color="#F3903F"/>
<stop offset="0.89" stop-color="#ED683C"/>
<stop offset="1" stop-color="#E93E39"/>
</linearGradient>
<clipPath id="clip0_878_23257">
<rect width="242" height="60" fill="white"/>
</clipPath>
</defs>
</svg>
