<svg width="32" height="29" viewBox="0 0 32 29" fill="none" xmlns="http://www.w3.org/2000/svg">
<path d="M24.1506 4.05187V1H3.99338C3.58179 1 3.18624 1.08477 2.8281 1.23313C2.46997 1.38148 2.14925 1.59872 1.87663 1.86893C1.60402 2.13915 1.38486 2.45705 1.23519 2.81205C1.08553 3.16704 1 3.55912 1 3.96709V24.6626C1 24.2546 1.08553 23.8625 1.23519 23.5075C1.38486 23.1525 1.60402 22.8346 1.87663 22.5644C2.14925 22.2942 2.46997 22.077 2.8281 21.9286C3.18624 21.7802 3.58179 21.6955 3.99338 21.6955H24.1506V17.0488" stroke="#222222" stroke-width="2" stroke-linecap="round" stroke-linejoin="round"/>
<path d="M1 24.6552V25.0313C1 26.6685 2.34168 27.9984 3.99338 27.9984H24.1506V21.6934H3.99338C2.34168 21.6934 1 23.0233 1 24.6605V24.6552Z" stroke="#222222" stroke-width="2" stroke-linecap="round" stroke-linejoin="round"/>
<path d="M21.6104 15.3528C20.844 15.8155 19.4797 16.2238 18.5828 16.251L16.5553 16.3218C15.6584 16.3545 15.2888 15.7393 15.7345 14.9609L16.7401 13.1971C17.1858 12.4186 18.1805 11.4006 18.947 10.9379L21.8061 9.2068C22.5725 8.74408 23.8282 7.98195 24.6 7.51923L27.4592 5.79355C28.2256 5.33083 29.1551 5.44515 29.5193 6.05485C29.8835 6.66456 30.4814 7.65532 30.851 8.26502C31.2152 8.87473 30.8891 9.75117 30.1172 10.2139L27.2526 11.945C26.4862 12.4077 25.2306 13.1699 24.4587 13.6326L21.5941 15.3583L21.6104 15.3528Z" stroke="#FDCA0D" stroke-width="2" stroke-linecap="round" stroke-linejoin="round"/>
<path d="M4.63672 7.30859H10.0913" stroke="#222222" stroke-width="2" stroke-linecap="round" stroke-linejoin="round"/>
</svg>
