<svg width="24" height="24" viewBox="0 0 24 24" fill="none" xmlns="http://www.w3.org/2000/svg">
<g clip-path="url(#clip0_488_9708)">
<path d="M23.8679 13.7872C24.8555 7.23374 20.3435 1.12054 13.7901 0.132934C7.23667 -0.854668 1.12347 3.65732 0.135868 10.2107C-0.851734 16.7642 3.66025 22.8774 10.2137 23.865C16.7671 24.8526 22.8803 20.3406 23.8679 13.7872Z" fill="#29ADE3"/>
<path d="M17.9337 8.32377C17.9337 8.32377 16.827 8.95066 16.4903 8.84618C16.4903 8.84618 15.7474 8.11093 14.7335 8.11093C13.7196 8.11093 12.3962 8.90035 12.3962 10.5295C12.3962 10.5295 12.3613 10.8468 12.4542 10.9861C12.4542 10.9861 9.69511 11.2648 7.54355 8.5753C7.54355 8.5753 6.46003 10.3554 8.25558 11.6595C8.25558 11.6595 7.79508 11.88 7.22236 11.4505C7.22236 11.4505 7.11401 13.1725 9.10691 13.7685C9.10691 13.7685 8.70059 13.9774 8.06983 13.8613C8.06983 13.8613 8.39489 15.386 10.2562 15.4673C10.2562 15.4673 9.045 16.6553 6.77734 16.4695C6.77734 16.4695 10.5581 19.4144 15.0392 15.7498C15.0392 15.7498 17.1211 13.9581 17.1095 10.456C17.1095 10.456 17.9724 9.88713 18.2743 9.2912C18.2743 9.2912 17.8331 9.68591 16.9702 9.55821C16.9702 9.55821 17.8873 8.9197 17.9376 8.32377H17.9337Z" fill="white"/>
</g>
<defs>
<clipPath id="clip0_488_9708">
<rect width="24" height="24" fill="white"/>
</clipPath>
</defs>
</svg>
