<svg width="34" height="29" viewBox="0 0 34 29" fill="none" xmlns="http://www.w3.org/2000/svg">
<g clip-path="url(#clip0_462_37611)">
<path d="M1.80347 16.3318V24.1242C1.80347 24.9646 2.1409 25.7316 2.68722 26.2865C3.23354 26.8413 3.98875 27.184 4.81627 27.184H29.1919C30.0194 27.184 30.7746 26.8413 31.3129 26.2865C31.8592 25.7316 32.1966 24.9646 32.1966 24.1242V8.5394C32.1966 7.69896 31.8592 6.93196 31.3129 6.37711C30.7666 5.82226 30.0113 5.47956 29.1919 5.47956H22.3548L22.2745 5.13686L22.1941 4.79416C22.0093 3.9782 21.5032 3.22752 20.8283 2.68899C20.1615 2.15046 19.334 1.81592 18.5065 1.81592H15.4936C14.6661 1.81592 13.8386 2.15046 13.1718 2.68899C12.5049 3.22752 11.9988 3.97004 11.806 4.79416L11.7256 5.13686L11.6453 5.47956H4.81627C3.98875 5.47956 3.23354 5.82226 2.68722 6.37711C2.1409 6.93196 1.80347 7.69896 1.80347 8.5394V16.3318Z" stroke="white" stroke-width="2" stroke-linecap="round" stroke-linejoin="round"/>
<path d="M22.869 16.3807C22.869 19.669 20.2418 22.3371 17.0041 22.3371C13.7663 22.3371 11.1392 19.669 11.1392 16.3807C11.1392 13.0924 13.7663 10.416 17.0041 10.416C20.2418 10.416 22.869 13.0842 22.869 16.3807Z" stroke="#FDCA0D" stroke-width="2" stroke-linecap="round" stroke-linejoin="round"/>
</g>
<defs>
<clipPath id="clip0_462_37611">
<rect width="34" height="29" fill="white"/>
</clipPath>
</defs>
</svg>
