<svg width="27" height="32" viewBox="0 0 27 32" fill="none" xmlns="http://www.w3.org/2000/svg">
<path d="M25.0711 3.7781C25.0711 2.24636 23.8305 1 22.293 1H3.7781C2.24054 1 1 2.24054 1 3.7781V28.2219C1 29.7536 2.24054 31 3.7781 31H14.7041L25.0711 20.6331V3.7781Z" stroke="white" stroke-width="2" stroke-linecap="round" stroke-linejoin="round"/>
<path d="M25.071 20.6272H17.4763C15.9446 20.6272 14.6982 21.8677 14.6982 23.4053V30.9999L25.0652 20.633L25.071 20.6272Z" stroke="white" stroke-width="2" stroke-linecap="round" stroke-linejoin="round"/>
<path d="M17.0342 12.8288C15.7412 14.1218 13.6504 14.1218 12.3574 12.8288C11.0645 11.5359 11.0645 9.44504 12.3574 8.15209C13.6504 6.85913 15.7412 6.85913 17.0342 8.15209C18.3271 9.44504 18.3271 11.5417 17.0342 12.8288Z" stroke="white" stroke-width="2" stroke-linecap="round" stroke-linejoin="round"/>
<path d="M12.2583 12.9279L8.71729 16.4689" stroke="white" stroke-width="2" stroke-linecap="round" stroke-linejoin="round"/>
</svg>
