<svg width="30" height="35" viewBox="0 0 30 35" fill="none" xmlns="http://www.w3.org/2000/svg">
<g clip-path="url(#clip0_488_9590)">
<path d="M22.2864 19.153C26.3121 15.1273 26.3121 8.60084 22.2864 4.57516C18.2668 0.54949 11.7403 0.54949 7.71459 4.57516C3.68889 8.60084 3.68889 15.1273 7.71459 19.153L15.0035 26.4419L22.2925 19.153H22.2864Z" stroke="#FDCA0D" stroke-width="2" stroke-linecap="round" stroke-linejoin="round"/>
<path d="M18.9607 11.2785C18.9607 13.4682 17.1857 15.2432 14.996 15.2432C12.8062 15.2432 11.0312 13.4682 11.0312 11.2785C11.0312 9.0888 12.8062 7.31995 14.996 7.31995C17.1857 7.31995 18.9607 9.0949 18.9607 11.2785Z" stroke="#333333" stroke-width="2" stroke-linecap="round" stroke-linejoin="round"/>
<path d="M24.5117 23.2701C26.9454 24.3498 28.452 25.838 28.452 27.4849C28.452 29.1318 26.9454 30.62 24.5117 31.6997C22.0779 32.7793 18.7171 33.4441 14.9964 33.4441C11.2756 33.4441 7.9209 32.7793 5.48718 31.6997C3.05346 30.62 1.54688 29.1318 1.54688 27.4849C1.54688 25.838 3.05346 24.3498 5.48718 23.2701" stroke="#333333" stroke-width="2" stroke-linecap="round" stroke-linejoin="round"/>
</g>
<defs>
<clipPath id="clip0_488_9590">
<rect width="30" height="35" fill="white"/>
</clipPath>
</defs>
</svg>
