<svg width="37" height="26" viewBox="0 0 37 26" fill="none" xmlns="http://www.w3.org/2000/svg">
<g clip-path="url(#clip0_488_9582)">
<path d="M21.8039 7.71135C21.8039 8.73846 20.9725 9.57419 19.9508 9.57419C18.929 9.57419 18.0977 8.73846 18.0977 7.71135C18.0977 6.68424 18.929 5.84851 19.9508 5.84851C20.9725 5.84851 21.8039 6.68424 21.8039 7.71135Z" stroke="#333333" stroke-width="2" stroke-linecap="round" stroke-linejoin="round"/>
<path d="M29.6914 17.8613C30.7512 18.6141 32.4584 19.2265 33.4929 19.2265C34.5273 19.2265 35.3714 18.1611 35.3714 16.8597V9.14039C35.3714 7.83895 34.5273 6.77356 33.4929 6.77356C32.4584 6.77356 30.7512 7.386 29.6914 8.13879" stroke="#333333" stroke-width="2" stroke-linecap="round" stroke-linejoin="round"/>
<path d="M4.39347 1.63794H23.5784C25.1015 1.63794 26.3391 2.88196 26.3391 4.41306V21.5869C26.3391 23.118 25.1015 24.362 23.5784 24.362H4.39347C2.87035 24.362 1.63281 23.118 1.63281 21.5869V4.41306C1.63281 2.88196 2.87035 1.63794 4.39347 1.63794Z" stroke="#333333" stroke-width="2" stroke-linecap="round" stroke-linejoin="round"/>
<path d="M5.3125 19.9792H13.7404" stroke="#FDCA0D" stroke-width="2" stroke-linecap="round" stroke-linejoin="round"/>
</g>
<defs>
<clipPath id="clip0_488_9582">
<rect width="37" height="26" fill="white"/>
</clipPath>
</defs>
</svg>
