<svg width="14" height="14" viewBox="0 0 14 14" fill="none" xmlns="http://www.w3.org/2000/svg">
<path d="M10.7122 9.06321L9.88723 8.23826L10.7122 7.41331C11.8512 6.27429 11.8512 4.42755 10.7122 3.28852C9.57316 2.14949 7.72638 2.14949 6.58737 3.28852L5.76241 4.11348L4.93746 3.28852L5.76241 2.46356C7.35708 0.868918 9.94247 0.868918 11.5371 2.46356C13.1318 4.0582 13.1318 6.6436 11.5371 8.23826L10.7122 9.06321ZM9.06222 10.7132L8.23727 11.5381C6.64267 13.1327 4.05722 13.1327 2.46258 11.5381C0.867941 9.94345 0.867941 7.35801 2.46258 5.76339L3.28754 4.93843L4.1125 5.76339L3.28754 6.58836C2.14851 7.72737 2.14851 9.57409 3.28754 10.7132C4.42657 11.8522 6.2733 11.8522 7.41232 10.7132L8.23727 9.88815L9.06222 10.7132ZM8.64974 4.52596L9.47475 5.35091L5.34994 9.47568L4.52497 8.65073L8.64974 4.52596Z" fill="black"/>
</svg>
