<svg width="34" height="32" viewBox="0 0 34 32" fill="none" xmlns="http://www.w3.org/2000/svg">
<path d="M4.36569 9.62486H4.95243C6.80936 9.62486 8.31812 11.1336 8.31812 12.9905V15.0022C8.31812 16.8592 6.80936 18.3679 4.95243 18.3679H4.36569C2.50876 18.3679 1 16.8592 1 15.0022V12.9905C1 11.1336 2.50876 9.61841 4.37214 9.61841L4.36569 9.62486Z" stroke="white" stroke-width="2" stroke-linecap="round" stroke-linejoin="round"/>
<path d="M33 3.27376C33 1.42328 31.6138 0.514153 29.918 1.26208L13.9858 8.27072C12.2901 9.01865 10.9038 11.1464 10.9038 12.9969V15.0085C10.9038 16.859 12.2901 18.9868 13.9858 19.7347L29.918 26.7433C31.6138 27.4913 33 26.5821 33 24.7317V3.27376Z" stroke="white" stroke-width="2" stroke-linecap="round" stroke-linejoin="round"/>
<path d="M2.85693 20.5604V26.1054C2.85693 27.9559 4.35924 29.6581 6.20328 29.8838L13.5407 30.7736C15.3783 30.9992 16.8871 29.6646 16.8871 27.8141V24.4484" stroke="white" stroke-width="2" stroke-linecap="round" stroke-linejoin="round"/>
</svg>
