<svg width="24" height="21" viewBox="0 0 24 21" fill="none" xmlns="http://www.w3.org/2000/svg">
<path d="M9.88438 10.6375C9.88438 11.0288 9.55864 11.3472 9.15826 11.3472C8.75787 11.3472 8.43213 11.0288 8.43213 10.6375C8.43213 10.2461 8.75787 9.92773 9.15826 9.92773C9.55864 9.92773 9.88438 10.2461 9.88438 10.6375Z" fill="white"/>
<path d="M13.6134 10.6375C13.6134 11.0288 13.2876 11.3472 12.8873 11.3472C12.4869 11.3472 12.1611 11.0288 12.1611 10.6375C12.1611 10.2461 12.4869 9.92773 12.8873 9.92773C13.2876 9.92773 13.6134 10.2461 13.6134 10.6375Z" fill="white"/>
<path d="M16.6094 11.3472C17.0105 11.3472 17.3356 11.0294 17.3356 10.6375C17.3356 10.2455 17.0105 9.92773 16.6094 9.92773C16.2084 9.92773 15.8833 10.2455 15.8833 10.6375C15.8833 11.0294 16.2084 11.3472 16.6094 11.3472Z" fill="white"/>
<path d="M12.7787 1C7.40742 1 3.05744 5.25502 3.05744 10.5017C3.05744 12.1068 3.46801 13.6158 4.18735 14.9424L1.5 19.3035L7.15633 18.2456L7.14954 18.2356C8.73752 19.3433 10.6784 20 12.7787 20C18.1466 20 22.5 15.745 22.5 10.4983C22.5 5.2517 18.1466 1 12.7787 1Z" stroke="white" stroke-width="1.5" stroke-linecap="round" stroke-linejoin="round"/>
</svg>
