<svg width="38" height="32" viewBox="0 0 38 32" fill="none" xmlns="http://www.w3.org/2000/svg">
<g clip-path="url(#clip0_496_10210)">
<path d="M1.90381 18.0355V26.6937C1.90381 27.6275 2.28342 28.4797 2.89803 29.0962C3.51265 29.7127 4.36226 30.0935 5.29321 30.0935H32.7158C33.6467 30.0935 34.4963 29.7127 35.1019 29.0962C35.7165 28.4797 36.0961 27.6275 36.0961 26.6937V9.37727C36.0961 8.44346 35.7165 7.59124 35.1019 6.97473C34.4873 6.35823 33.6377 5.97745 32.7158 5.97745H25.0241L24.9337 5.59667L24.8433 5.2159C24.6354 4.30928 24.066 3.47519 23.3068 2.87682C22.5566 2.27845 21.6256 1.90674 20.6947 1.90674H17.3053C16.3743 1.90674 15.4434 2.27845 14.6932 2.87682C13.943 3.47519 13.3736 4.30021 13.1566 5.2159L13.0662 5.59667L12.9759 5.97745H5.29321C4.36226 5.97745 3.51265 6.35823 2.89803 6.97473C2.28342 7.59124 1.90381 8.44346 1.90381 9.37727V18.0355Z" stroke="#222222" stroke-width="2" stroke-linecap="round" stroke-linejoin="round"/>
<path d="M25.6023 18.0898C25.6023 21.7435 22.6468 24.7081 19.0043 24.7081C15.3618 24.7081 12.4062 21.7435 12.4062 18.0898C12.4062 14.4361 15.3618 11.4624 19.0043 11.4624C22.6468 11.4624 25.6023 14.427 25.6023 18.0898Z" stroke="#FDCA0D" stroke-width="2" stroke-linecap="round" stroke-linejoin="round"/>
</g>
<defs>
<clipPath id="clip0_496_10210">
<rect width="38" height="32" fill="white"/>
</clipPath>
</defs>
</svg>
