<svg width="20" height="18" viewBox="0 0 20 18" fill="none" xmlns="http://www.w3.org/2000/svg">
<path d="M7.36157 8.4831H7.97469L7.66813 7.83008L7.36157 8.4831Z" fill="#3C1D1D"/>
<path d="M10.0028 0C4.47914 0 0 3.47721 0 7.7693C0 10.32 1.58388 12.5805 4.02498 13.9981C4.53591 14.294 4.08743 15.0363 4.08743 15.0363L2.07777 17.6205C2.04371 17.7265 2.0721 17.8381 2.15158 17.9163C2.20835 17.9721 2.27647 18 2.35595 18C2.41839 18 2.47516 17.9777 2.53193 17.933C2.53193 17.933 3.76384 17.693 5.48964 16.8614C6.89753 16.2363 8.19756 15.4102 8.19756 15.4102C8.78796 15.494 9.38405 15.5386 9.99716 15.5386C15.5209 15.5386 20 12.0614 20 7.7693C20 3.47721 15.5209 0 9.99716 0H10.0028ZM4.94465 9.9907C4.94465 9.9907 4.94465 10.013 4.94465 10.0242C4.94465 10.4093 4.62674 10.7163 4.2407 10.7163C3.85467 10.7163 3.53676 10.4037 3.53676 10.0242C3.53676 10.013 3.53676 10.0019 3.53676 9.9907V6.72H2.59438C2.25944 6.69209 1.9983 6.4186 1.9983 6.0893C1.9983 5.76 2.25944 5.48093 2.59438 5.4586H5.73375C6.0914 5.4586 6.37525 5.74326 6.37525 6.0893C6.37525 6.43535 6.08572 6.72 5.73375 6.72H4.94465V9.9907ZM17.3034 10.6884C17.0764 10.6884 16.872 10.5823 16.7414 10.4149L15.5152 8.78512L15.254 9.03628V10.013C15.254 10.3981 14.9418 10.7051 14.5501 10.7051C14.2435 10.7051 13.9881 10.5153 13.8916 10.2474C13.8291 10.5098 13.5907 10.7051 13.3068 10.7051V10.7163H10.6784V10.6995C10.4173 10.6772 10.1959 10.5098 10.0937 10.2809C10.0823 10.3033 10.0766 10.3312 10.0653 10.3591C9.94607 10.5767 9.71331 10.7219 9.44649 10.7219C9.41243 10.7219 9.37269 10.7219 9.33863 10.7107C9.33296 10.7107 9.32728 10.7107 9.3216 10.7107C9.28754 10.7051 9.25348 10.694 9.21941 10.6828C9.21941 10.6828 9.20806 10.6828 9.20238 10.6828C9.16832 10.6716 9.13994 10.6549 9.10588 10.6381C9.07181 10.6214 9.04343 10.5991 9.01504 10.5767C8.98666 10.5544 8.95827 10.5265 8.93557 10.5042C8.86176 10.4205 8.805 10.32 8.77661 10.2084L8.54953 9.71721H6.80102L6.57394 10.2084C6.50014 10.5098 6.22197 10.7386 5.89271 10.7386C5.50667 10.7386 5.18876 10.426 5.18876 10.0465C5.18876 9.95721 5.20579 9.87349 5.23985 9.79535C5.23985 9.79535 5.25688 9.7507 5.26824 9.73396L6.97701 6.05023C7.03378 5.72651 7.3233 5.48093 7.6696 5.48093C7.6696 5.48093 7.67528 5.48093 7.68095 5.48093C7.68663 5.48093 7.68663 5.48093 7.69231 5.48093C8.0386 5.48093 8.32813 5.72651 8.3849 6.05023L10.0596 9.66698V6.31256C10.0596 6.31256 10.0596 6.25674 10.0596 6.22884C10.0596 5.8493 10.3775 5.53674 10.7636 5.53674C11.1496 5.53674 11.4675 5.8493 11.4675 6.22884C11.4675 6.25674 11.4675 6.28465 11.4675 6.31256V9.54977H13.3239C13.5623 9.54977 13.7667 9.6893 13.8632 9.88465V6.23442C13.8632 5.85488 14.1811 5.54233 14.5671 5.54233C14.9532 5.54233 15.2711 5.85488 15.2711 6.23442V7.10512L16.6222 5.77674C16.7528 5.63163 16.9401 5.54233 17.1502 5.54233C17.5419 5.54233 17.8541 5.85488 17.8541 6.23442C17.8541 6.41302 17.786 6.57488 17.6724 6.69767L17.6611 6.70884C17.6497 6.72 17.6384 6.73116 17.627 6.74233L16.5314 7.81953L17.8598 9.58884C17.9563 9.70605 18.0187 9.85674 18.0187 10.0242C18.0187 10.4093 17.7008 10.7163 17.3148 10.7163L17.3034 10.6884Z" fill="#3C1D1D"/>
<path d="M10.1547 9.95849C10.1547 9.95849 10.1547 9.925 10.1491 9.90825C10.1491 9.90825 10.1491 9.89709 10.1491 9.89151C10.1491 9.86918 10.1377 9.85244 10.132 9.83011C10.132 9.83011 10.1207 9.79104 10.1093 9.76872C10.1093 9.76872 10.0923 9.72965 10.0809 9.70732L10.0469 9.63477V9.79104H10.0809C10.0582 9.85802 10.0469 9.93058 10.0469 10.0031C10.0469 10.098 10.0696 10.1873 10.1036 10.271C10.1377 10.1929 10.1604 10.1092 10.1604 10.0143C10.1604 9.99198 10.1604 9.96965 10.1604 9.94732L10.1547 9.95849Z" fill="#FCEE2C"/>
<path d="M13.853 9.85742V10.0137C13.853 10.0974 13.8701 10.1756 13.8984 10.2481C13.9098 10.2035 13.9155 10.1588 13.9155 10.1142C13.9155 10.0193 13.8928 9.93556 13.853 9.85742Z" fill="#FCEE2C"/>
</svg>
