<svg width="23" height="23" viewBox="0 0 23 23" fill="none" xmlns="http://www.w3.org/2000/svg">
<g clip-path="url(#clip0_878_14712)">
<path d="M18.9785 4.08447H17.623V5.51323C17.623 6.30211 16.9947 6.94198 16.2244 6.94198C15.454 6.94198 14.8258 6.30211 14.8258 5.51323V4.08447H8.18128V5.51323C8.18128 6.30211 7.55298 6.94198 6.77836 6.94198C6.00375 6.94198 5.37975 6.30211 5.37975 5.51323V4.08447H4.02418C2.47925 4.08447 1.22266 5.36422 1.22266 6.9376V18.9199C1.22266 20.4932 2.47495 21.773 4.02418 21.773H18.9785C20.5278 21.773 21.7801 20.4976 21.7801 18.9199V6.9376C21.7801 5.35983 20.5278 4.08447 18.9785 4.08447Z" stroke="white" stroke-width="1.5" stroke-linecap="round" stroke-linejoin="round"/>
<path d="M6.77752 1.23132C6.0029 1.23132 5.37891 1.8712 5.37891 2.66008V5.51321C5.37891 6.30209 6.0072 6.94196 6.77752 6.94196C7.54783 6.94196 8.18043 6.30209 8.18043 5.51321V2.66008C8.18043 1.8712 7.55213 1.23132 6.77752 1.23132Z" stroke="white" stroke-width="1.5" stroke-linecap="round" stroke-linejoin="round"/>
<path d="M16.2228 1.23132C15.4482 1.23132 14.8242 1.8712 14.8242 2.66008V5.51321C14.8242 6.30209 15.4525 6.94196 16.2228 6.94196C16.9931 6.94196 17.6214 6.30209 17.6214 5.51321V2.66008C17.6214 1.8712 16.9931 1.23132 16.2228 1.23132Z" stroke="white" stroke-width="1.5" stroke-linecap="round" stroke-linejoin="round"/>
<path d="M8.18359 13.0558L11.2347 16.1588L15.0475 10.7242" stroke="#FDCA0D" stroke-width="1.5" stroke-linejoin="round"/>
</g>
<defs>
<clipPath id="clip0_878_14712">
<rect width="23" height="23" fill="white"/>
</clipPath>
</defs>
</svg>
