<svg width="24" height="24" viewBox="0 0 24 24" fill="none" xmlns="http://www.w3.org/2000/svg">
<circle cx="12" cy="12" r="11.5" fill="white" stroke="#DDDDDD"/>
<g clip-path="url(#clip0_488_9722)">
<path d="M12 7.59796C9.24022 7.59796 7 9.9796 7 12.9136C7 14.1401 7.40695 15.27 8.06282 16.1857C8.10826 16.2571 8.17542 16.3306 8.22086 16.3789C8.28803 16.4755 8.3789 16.5722 8.46977 16.6667C9.41999 17.7483 10.6428 18.5674 12 19C13.3572 18.5674 14.58 17.7483 15.5302 16.6667C15.6211 16.5701 15.6883 16.4734 15.7791 16.3789C15.8246 16.3075 15.8917 16.234 15.9372 16.1857C16.593 15.2952 17 14.1653 17 12.9136C17 9.9796 14.7598 7.59796 12 7.59796ZM12 14.934C10.9372 14.934 10.0759 14.0204 10.0759 12.8884C10.0759 11.7564 10.9352 10.8428 12 10.8428C13.0648 10.8428 13.9004 11.7564 13.9004 12.8884C13.9004 14.0204 13.0628 14.934 12 14.934Z" fill="#F68A41"/>
<path d="M13.6312 7.47809C13.971 7.40668 14.2199 7.09375 14.2199 6.70731C14.2199 6.27467 13.8801 5.93654 13.4969 5.93654C13.3843 5.93654 13.2697 5.95964 13.1808 6.00794C13.0445 5.43038 12.5703 4.99774 12.0034 4.99774C11.4364 4.99774 10.9623 5.43038 10.8497 6.00794C10.7588 5.95964 10.6462 5.93654 10.5336 5.93654C10.1266 5.93654 9.80859 6.29777 9.80859 6.70731C9.80859 7.09165 10.0575 7.40458 10.3973 7.47809C10.9169 7.28487 11.4601 7.19036 12.0271 7.19036C12.5941 7.19036 13.1136 7.28697 13.6332 7.47809H13.6312Z" fill="#5EBD71"/>
</g>
<defs>
<clipPath id="clip0_488_9722">
<rect width="10" height="14" fill="white" transform="translate(7 5)"/>
</clipPath>
</defs>
</svg>
