<svg width="32" height="37" viewBox="0 0 32 37" fill="none" xmlns="http://www.w3.org/2000/svg">
<path d="M6.33594 36H22.8428" stroke="#333333" stroke-width="2" stroke-linecap="round" stroke-linejoin="round"/>
<path d="M14.2482 7.96252H4.88028C2.73294 7.96252 1 9.69377 1 11.825V26.9C1 29.0313 2.73922 30.7625 4.88028 30.7625H24.2942C26.4416 30.7625 28.1745 29.0313 28.1745 26.9V15.175" stroke="#333333" stroke-width="2" stroke-linejoin="round"/>
<path d="M31 9.03125C31 13.4625 27.3897 17.0625 22.9317 17.0625C18.4738 17.0625 14.8635 13.4688 14.8635 9.03125C14.8635 4.59375 18.4738 1 22.9317 1C27.3897 1 31 4.59375 31 9.03125Z" stroke="#FDCA0D" stroke-width="2" stroke-linecap="round" stroke-linejoin="round"/>
<path d="M19.4221 9.09375L22.1534 11.8125L26.4418 6.25" stroke="#FDCA0D" stroke-width="2" stroke-linecap="round" stroke-linejoin="round"/>
<path d="M9.45468 12.962H5.00391V17.3924H9.45468V12.962Z" stroke="#FDCA0D" stroke-width="2" stroke-linecap="round" stroke-linejoin="round"/>
<path d="M9.45468 20.9368H5.00391V25.3671H9.45468V20.9368Z" stroke="#333333" stroke-width="2" stroke-linejoin="round"/>
</svg>
