<svg width="29" height="34" viewBox="0 0 29 34" fill="none" xmlns="http://www.w3.org/2000/svg">
<path d="M1.9248 15.9065V29.6712C1.9248 31.5125 3.41224 33 5.25353 33H23.8584C25.6997 33 27.1872 31.5125 27.1872 29.6712V15.9065H1.9248Z" stroke="white" stroke-width="2" stroke-linecap="round" stroke-linejoin="round"/>
<path d="M8.58838 24.2491H21.1596" stroke="white" stroke-width="2" stroke-linecap="round" stroke-linejoin="round"/>
<path d="M5.55377 6.08201L3.32263 6.78974C1.57129 7.34752 0.599665 9.21881 1.15745 10.9701L1.86518 13.2013L2.15907 14.1309L8.1088 12.2417L11.2336 11.252L5.93763 5.95605L5.54778 6.08201H5.55377Z" stroke="white" stroke-width="2" stroke-linecap="round" stroke-linejoin="round"/>
<path d="M20.4883 8.31319L15.1983 3.01721L12.4334 3.89888L5.94385 5.96209L11.2338 11.2521L14.9884 10.0585L20.4883 8.31319Z" stroke="white" stroke-width="2" stroke-linecap="round" stroke-linejoin="round"/>
<path d="M21.8676 7.87536L26.2399 6.48389L25.2383 3.3231C25.1243 2.96323 24.9504 2.63336 24.7345 2.34547C23.9128 1.23589 22.4493 0.714094 21.0579 1.15792L19.3185 1.70971L15.2041 3.01721L20.5001 8.31319L21.8736 7.87536H21.8676Z" stroke="white" stroke-width="2" stroke-linecap="round" stroke-linejoin="round"/>
</svg>
