<svg width="40" height="40" viewBox="0 0 40 40" fill="none" xmlns="http://www.w3.org/2000/svg">
<g clip-path="url(#clip0_878_14694)">
<path d="M40 20C40 31.0416 31.048 40 20 40C8.95195 40 0 31.0416 0 20C0 8.9584 8.95195 0 20 0C31.048 0 40 8.95195 40 20Z" fill="#3B599A"/>
<path d="M24.3937 8.86169V12.3702H22.4846C21.9171 12.3702 21.5559 12.525 21.3753 12.8346C21.2463 13.041 21.1947 13.4022 21.1947 13.8923V15.4918H24.4453L24.0583 19.0262H21.1947V29.2229H16.9896V19.0262H14.9258V15.4918H16.9896V13.3764C16.9896 11.2093 17.7378 9.81623 19.2083 9.22287C19.9306 8.93909 20.5498 8.86169 21.1947 8.86169H24.3937Z" fill="#F7F8F8"/>
</g>
<defs>
<clipPath id="clip0_878_14694">
<rect width="40" height="40" fill="white"/>
</clipPath>
</defs>
</svg>
