<svg width="40" height="40" viewBox="0 0 40 40" fill="none" xmlns="http://www.w3.org/2000/svg">
<g clip-path="url(#clip0_878_14687)">
<path d="M40 20C40 31.048 31.048 40 20 40C8.95195 40 0 31.0416 0 20C0 8.9584 8.95195 0 20 0C31.048 0 40 8.95195 40 20Z" fill="#FCEE2C"/>
<path d="M17 19.4067H17.6965L17.3483 18.6521L17 19.4067Z" fill="#3C1D1D"/>
<path d="M20.0008 9.60339C13.7254 9.60339 8.63672 13.6215 8.63672 18.5811C8.63672 21.5286 10.4361 24.1406 13.2094 25.7788C13.7899 26.1206 13.2804 26.9784 13.2804 26.9784L10.9972 29.9646C10.9585 30.0871 10.9908 30.2161 11.0811 30.3064C11.1456 30.3709 11.223 30.4031 11.3133 30.4031C11.3842 30.4031 11.4487 30.3773 11.5132 30.3257C11.5132 30.3257 12.9128 30.0484 14.8734 29.0874C16.4729 28.3651 17.9498 27.4106 17.9498 27.4106C18.6206 27.5073 19.2978 27.5589 19.9943 27.5589C26.2697 27.5589 31.3584 23.5408 31.3584 18.5811C31.3584 13.6215 26.2697 9.60339 19.9943 9.60339H20.0008ZM14.2543 21.1481C14.2543 21.1481 14.2543 21.1739 14.2543 21.1868C14.2543 21.6318 13.8931 21.9865 13.4545 21.9865C13.016 21.9865 12.6548 21.6253 12.6548 21.1868C12.6548 21.1739 12.6548 21.161 12.6548 21.1481V17.3686H11.5842C11.2036 17.3364 10.907 17.0204 10.907 16.6398C10.907 16.2593 11.2036 15.9368 11.5842 15.911H15.1507C15.5571 15.911 15.8795 16.24 15.8795 16.6398C15.8795 17.0397 15.5506 17.3686 15.1507 17.3686H14.2543V21.1481ZM28.2949 21.9542C28.0369 21.9542 27.8047 21.8317 27.6564 21.6382L26.2633 19.755L25.9666 20.0452V21.1739C25.9666 21.6189 25.6119 21.9736 25.1669 21.9736C24.8186 21.9736 24.5284 21.7543 24.4187 21.4447C24.3478 21.7479 24.0769 21.9736 23.7544 21.9736V21.9865H20.7683V21.9671C20.4716 21.9414 20.2201 21.7479 20.104 21.4834C20.0911 21.5092 20.0846 21.5415 20.0717 21.5737C19.9363 21.8253 19.6719 21.9929 19.3687 21.9929C19.33 21.9929 19.2849 21.9929 19.2462 21.98C19.2398 21.98 19.2333 21.98 19.2268 21.98C19.1882 21.9736 19.1495 21.9607 19.1108 21.9478C19.1108 21.9478 19.0979 21.9478 19.0914 21.9478C19.0527 21.9349 19.0205 21.9156 18.9818 21.8962C18.9431 21.8769 18.9108 21.8511 18.8786 21.8253C18.8463 21.7995 18.8141 21.7672 18.7883 21.7414C18.7044 21.6447 18.6399 21.5286 18.6077 21.3996L18.3497 20.832H16.3633L16.1053 21.3996C16.0214 21.7479 15.7054 22.0123 15.3313 22.0123C14.8928 22.0123 14.5316 21.6511 14.5316 21.2126C14.5316 21.1094 14.5509 21.0126 14.5896 20.9223C14.5896 20.9223 14.609 20.8707 14.6219 20.8514L16.5632 16.5947C16.6277 16.2206 16.9566 15.9368 17.35 15.9368C17.35 15.9368 17.3565 15.9368 17.3629 15.9368C17.3694 15.9368 17.3694 15.9368 17.3758 15.9368C17.7693 15.9368 18.0982 16.2206 18.1627 16.5947L20.0653 20.774V16.8978C20.0653 16.8978 20.0653 16.8333 20.0653 16.8011C20.0653 16.3625 20.4265 16.0013 20.865 16.0013C21.3036 16.0013 21.6648 16.3625 21.6648 16.8011C21.6648 16.8333 21.6648 16.8656 21.6648 16.8978V20.6385H23.7738C24.0447 20.6385 24.2768 20.7998 24.3865 21.0255V16.8075C24.3865 16.369 24.7477 16.0078 25.1862 16.0078C25.6248 16.0078 25.986 16.369 25.986 16.8075V17.8136L27.5209 16.2787C27.6693 16.111 27.8821 16.0078 28.1208 16.0078C28.5658 16.0078 28.9205 16.369 28.9205 16.8075C28.9205 17.0139 28.8431 17.2009 28.7141 17.3428L28.7012 17.3557C28.6883 17.3686 28.6754 17.3815 28.6625 17.3944L27.4178 18.6392L28.9269 20.6837C29.0366 20.8191 29.1075 20.9933 29.1075 21.1868C29.1075 21.6318 28.7464 21.9865 28.3078 21.9865L28.2949 21.9542Z" fill="#3C1D1D"/>
<path d="M20.1733 21.1093C20.1733 21.1093 20.1733 21.0706 20.1669 21.0513C20.1669 21.0513 20.1669 21.0384 20.1669 21.0319C20.1669 21.0061 20.154 20.9868 20.1475 20.961C20.1475 20.961 20.1346 20.9158 20.1217 20.89C20.1217 20.89 20.1024 20.8449 20.0895 20.8191L20.0508 20.7352V20.9158H20.0895C20.0637 20.9932 20.0508 21.0771 20.0508 21.1609C20.0508 21.2705 20.0766 21.3737 20.1153 21.4705C20.154 21.3802 20.1798 21.2834 20.1798 21.1738C20.1798 21.148 20.1798 21.1222 20.1798 21.0964L20.1733 21.1093Z" fill="#FCEE2C"/>
<path d="M24.375 20.9933V21.1739C24.375 21.2706 24.3943 21.3609 24.4266 21.4448C24.4395 21.3932 24.4459 21.3416 24.4459 21.29C24.4459 21.1803 24.4201 21.0836 24.375 20.9933Z" fill="#FCEE2C"/>
</g>
<defs>
<clipPath id="clip0_878_14687">
<rect width="40" height="40" fill="white"/>
</clipPath>
</defs>
</svg>
