<svg width="32" height="27" viewBox="0 0 32 27" fill="none" xmlns="http://www.w3.org/2000/svg">
<g clip-path="url(#clip0_550_11760)">
<path d="M22.5623 6.57741C22.9324 6.4232 23.3411 6.33838 23.7651 6.33838C24.1892 6.33838 24.5979 6.4232 24.968 6.57741C25.3382 6.73163 25.6697 6.96296 25.955 7.24055C26.2326 7.51814 26.4639 7.8497 26.6182 8.22754C26.7724 8.59766 26.8649 9.00633 26.8649 9.43043C26.8649 9.85452 26.7801 10.2632 26.6182 10.6333C26.4639 11.0034 26.2326 11.335 25.955 11.6203C25.6774 11.9056 25.3459 12.1292 24.968 12.2834C24.5979 12.4377 24.1892 12.5225 23.7651 12.5225C23.3411 12.5225 22.9324 12.4377 22.5623 12.2834" stroke="#FDCA0D" stroke-width="2" stroke-linecap="round" stroke-linejoin="round"/>
<path d="M19.6008 9.43043C19.6008 11.1345 18.2129 12.5225 16.5088 12.5225C14.8047 12.5225 13.4167 11.1345 13.4167 9.43043C13.4167 7.72633 14.8047 6.33838 16.5088 6.33838C18.2129 6.33838 19.6008 7.71862 19.6008 9.43043Z" stroke="#FDCA0D" stroke-width="2" stroke-linecap="round" stroke-linejoin="round"/>
<path d="M26.9876 1.15674H5.01167C2.88238 1.15674 1.15625 2.88287 1.15625 5.01216V21.5905C1.15625 23.7198 2.88238 25.4459 5.01167 25.4459H26.9876C29.1169 25.4459 30.843 23.7198 30.843 21.5905V5.01216C30.843 2.88287 29.1169 1.15674 26.9876 1.15674Z" stroke="#333333" stroke-width="2" stroke-linecap="round" stroke-linejoin="round"/>
</g>
<defs>
<clipPath id="clip0_550_11760">
<rect width="32" height="27" fill="white"/>
</clipPath>
</defs>
</svg>
