<svg width="40" height="40" viewBox="0 0 40 40" fill="none" xmlns="http://www.w3.org/2000/svg">
<g clip-path="url(#clip0_878_14679)">
<path d="M40 20C40 31.048 31.048 40 20 40C8.95195 40 0 31.0416 0 20C0 8.9584 8.95195 0 20 0C31.048 0 40 8.95195 40 20Z" fill="#41B649"/>
<path d="M21.1802 18.9617C20.6642 18.9617 20.2385 19.3809 20.2385 19.9033C20.2385 20.4257 20.6577 20.8385 21.1802 20.8385C21.7026 20.8385 22.1218 20.4193 22.1218 19.9033C22.1218 19.3873 21.7026 18.9617 21.1802 18.9617Z" fill="white"/>
<path d="M26.3199 19.0326C25.8426 19.0326 25.4492 19.4196 25.4492 19.9033C25.4492 20.387 25.8362 20.774 26.3199 20.774C26.8036 20.774 27.1906 20.387 27.1906 19.9033C27.1906 19.4196 26.8036 19.0326 26.3199 19.0326Z" fill="white"/>
<path d="M27.146 11.5963H12.4604C10.2933 11.5963 8.53906 13.3506 8.53906 15.5176V23.1281C8.53906 25.2951 10.2933 27.0494 12.4604 27.0494H17.9812L19.8064 30.6418L21.8702 27.0494H27.1524C29.3195 27.0494 31.0737 25.2951 31.0737 23.1281V15.5176C31.0737 13.3506 29.3195 11.5963 27.1524 11.5963H27.146ZM13.402 22.0059C13.0021 22.0059 12.6281 21.8962 12.3056 21.7092V21.9801H10.8351V16.0142H12.3056V17.9878C12.6281 17.8008 13.0021 17.6911 13.402 17.6911C14.5952 17.6911 15.5626 18.6586 15.5626 19.8517C15.5626 21.0449 14.5952 22.0123 13.402 22.0123V22.0059ZM17.9812 18.0329V22.0059H16.5687V18.0329C16.5687 17.1687 16.0205 17.1687 16.0205 17.1687V16.0142C17.3104 15.9949 17.749 16.8527 17.9038 17.4525C17.9747 17.7427 17.9812 17.9749 17.9812 18.02V18.0329ZM21.1801 22.1864C19.916 22.1864 18.897 21.1674 18.897 19.9033C18.897 18.6392 19.916 17.6202 21.1801 17.6202C22.4443 17.6202 23.4633 18.6392 23.4633 19.9033C23.4633 21.1674 22.4443 22.1864 21.1801 22.1864ZM26.1076 24.0633V22.9088C26.1076 22.9088 27.3846 23.0571 27.3846 22.3348V21.7221C27.0686 21.9091 26.7074 22.0123 26.3204 22.0123C25.1531 22.0123 24.2114 21.0642 24.2114 19.9033C24.2114 18.7424 25.1595 17.7943 26.3204 17.7943C26.7074 17.7943 27.075 17.904 27.3846 18.0845V17.8975H28.7519V22.3348C28.7519 22.3348 29.0486 24.0633 26.1076 24.0633Z" fill="white"/>
<path d="M13.2482 18.9681C12.7645 18.9681 12.3711 19.3616 12.3711 19.8453C12.3711 20.329 12.7645 20.7224 13.2482 20.7224C13.7319 20.7224 14.1254 20.329 14.1254 19.8453C14.1254 19.3616 13.7319 18.9681 13.2482 18.9681Z" fill="white"/>
</g>
<defs>
<clipPath id="clip0_878_14679">
<rect width="40" height="40" fill="white"/>
</clipPath>
</defs>
</svg>
