<svg width="24" height="24" viewBox="0 0 24 24" fill="none" xmlns="http://www.w3.org/2000/svg">
<path d="M8.76906 10.25H7.57681C7.36431 10.25 7.18614 10.1781 7.04231 10.0343C6.89864 9.89043 6.82681 9.71227 6.82681 9.49976C6.82681 9.2871 6.89864 9.10901 7.04231 8.96552C7.18614 8.82185 7.36431 8.75002 7.57681 8.75002H8.76906V7.55777C8.76906 7.34527 8.84097 7.1671 8.98481 7.02327C9.12864 6.8796 9.30681 6.80777 9.51931 6.80777C9.73197 6.80777 9.91006 6.8796 10.0536 7.02327C10.1972 7.1671 10.2691 7.34527 10.2691 7.55777V8.75002H11.4613C11.6738 8.75002 11.852 8.82193 11.9958 8.96577C12.1395 9.1096 12.2113 9.28777 12.2113 9.50027C12.2113 9.71293 12.1395 9.89102 11.9958 10.0345C11.852 10.1782 11.6738 10.25 11.4613 10.25H10.2691V11.4423C10.2691 11.6548 10.1971 11.8329 10.0533 11.9768C9.90948 12.1204 9.73131 12.1923 9.51881 12.1923C9.30614 12.1923 9.12806 12.1204 8.98456 11.9768C8.84089 11.8329 8.76906 11.6548 8.76906 11.4423V10.25ZM9.51906 15.6153C7.80989 15.6153 6.36339 15.0235 5.17956 13.84C3.99573 12.6565 3.40381 11.2103 3.40381 9.50152C3.40381 7.79285 3.99556 6.34618 5.17906 5.16152C6.36256 3.97702 7.80872 3.38477 9.51756 3.38477C11.2262 3.38477 12.6729 3.97668 13.8576 5.16051C15.0421 6.34435 15.6343 7.79085 15.6343 9.50002C15.6343 10.2142 15.5145 10.8963 15.2748 11.5463C15.035 12.1963 14.7151 12.7616 14.3151 13.2423L20.0691 18.9963C20.2076 19.1346 20.2784 19.3086 20.2816 19.5183C20.2847 19.7279 20.2139 19.9052 20.0691 20.05C19.9242 20.1948 19.7486 20.2673 19.5421 20.2673C19.3357 20.2673 19.1601 20.1948 19.0153 20.05L13.2613 14.296C12.7613 14.7088 12.1863 15.0319 11.5363 15.2653C10.8863 15.4986 10.2139 15.6153 9.51906 15.6153ZM9.51906 14.1155C10.8076 14.1155 11.8989 13.6683 12.7931 12.774C13.6874 11.8798 14.1346 10.7885 14.1346 9.50002C14.1346 8.21152 13.6874 7.12018 12.7931 6.22601C11.8989 5.33168 10.8076 4.88452 9.51906 4.88452C8.23056 4.88452 7.13922 5.33168 6.24506 6.22601C5.35072 7.12018 4.90356 8.21152 4.90356 9.50002C4.90356 10.7885 5.35072 11.8798 6.24506 12.774C7.13922 13.6683 8.23056 14.1155 9.51906 14.1155Z" fill="white"/>
</svg>
