<svg width="40" height="40" viewBox="0 0 40 40" fill="none" xmlns="http://www.w3.org/2000/svg">
<g clip-path="url(#clip0_878_14697)">
<path d="M39.5 20C39.5 30.7656 30.7718 39.5 20 39.5C9.2282 39.5 0.5 30.7656 0.5 20C0.5 9.23444 9.2282 0.5 20 0.5C30.7719 0.5 39.5 9.22809 39.5 20Z" fill="white" stroke="#DDDDDD"/>
<path d="M19.3708 29.1019C19.3708 29.6432 19.7867 29.915 20.6184 29.915C20.8035 29.915 20.8972 30.0801 20.8972 30.4102C20.8972 30.8034 20.4261 31 19.4862 31C18.419 31 17.8853 30.2767 17.8853 28.8301C17.8853 27.1408 19.4622 23.6141 22.6158 18.2451L16.8253 24.9684C13.4048 28.949 10.9218 30.9393 9.38101 30.9393C9.21035 30.9393 9.12622 30.8058 9.12622 30.5364C9.12622 30.165 9.26804 29.9369 9.54927 29.8544C10.4411 29.6141 11.2535 29.2039 11.989 28.6214C12.9073 27.9005 14.8591 25.8617 17.8421 22.5121L24.3321 14.7767C24.6157 14.6359 24.9955 14.5655 25.4763 14.5655C25.957 14.5655 26.1974 14.9563 26.1974 15.7403C26.1974 16.5825 25.058 18.8544 22.7817 22.5583C20.5054 26.2597 19.3684 28.4417 19.3684 29.1044L19.3708 29.1019ZM27.0098 12.6141C26.332 12.6141 25.9931 12.1214 25.9931 11.1383C25.9931 10.3131 26.3392 9.57039 27.0315 8.90534C27.654 8.30097 28.2742 8 28.8967 8C29.6323 8 30 8.57282 30 9.71845C30 10.5413 29.6323 11.2451 28.8967 11.8301C28.2598 12.3544 27.6324 12.6141 27.0098 12.6141Z" fill="#E6E7E8"/>
<path d="M18.8708 29.1019C19.0126 29.6432 19.4982 29.915 20.3251 29.915C20.5101 29.915 20.6472 30.0801 20.7385 30.4102C20.8443 30.8034 20.4284 31 19.4886 31C18.4213 31 17.7002 30.2767 17.33 28.8301C16.8974 27.1408 17.5127 23.6141 19.0607 18.2451L15.3109 24.9684C12.924 28.949 10.9097 30.9393 9.36895 30.9393C9.19828 30.9393 9.08531 30.8058 9.02762 30.5364C8.9483 30.165 9.03964 29.9369 9.30405 29.8544C10.1381 29.6141 10.852 29.2039 11.4482 28.6214C12.1885 27.9005 13.6187 25.8617 15.6715 22.5121L19.6809 14.7767C19.902 14.6359 20.2337 14.5655 20.676 14.5655C21.1183 14.5655 21.4572 14.9563 21.688 15.7403C21.938 16.5825 21.5365 18.8544 20.426 22.5583C19.2362 26.2597 18.6978 28.4417 18.8732 29.1044L18.8708 29.1019ZM21.5005 12.6141C20.8803 12.6141 20.426 12.1214 20.1352 11.1383C19.8924 10.3131 19.9837 9.57039 20.4068 8.90534C20.7818 8.30097 21.2433 8 21.7985 8C22.4523 8 22.9619 8.57282 23.3201 9.71845C23.5797 10.5413 23.4667 11.2451 22.9788 11.8301C22.5605 12.3544 22.0654 12.6141 21.4981 12.6141H21.5005Z" fill="url(#paint0_linear_878_14697)"/>
</g>
<defs>
<linearGradient id="paint0_linear_878_14697" x1="8.99878" y1="19.5" x2="23.4571" y2="19.5" gradientUnits="userSpaceOnUse">
<stop stop-color="#FFF33A"/>
<stop offset="0.04" stop-color="#FEE62B"/>
<stop offset="0.12" stop-color="#FDD419"/>
<stop offset="0.2" stop-color="#FDCA0D"/>
<stop offset="0.28" stop-color="#FDC70A"/>
<stop offset="0.67" stop-color="#F3903F"/>
<stop offset="0.89" stop-color="#ED683C"/>
<stop offset="1" stop-color="#E93E39"/>
</linearGradient>
<clipPath id="clip0_878_14697">
<rect width="40" height="40" fill="white"/>
</clipPath>
</defs>
</svg>
