<svg width="16" height="14" viewBox="0 0 16 14" fill="none" xmlns="http://www.w3.org/2000/svg">
<path d="M13.7069 9.53277L16.0021 6.60179H14.3888C14.2869 4.82905 13.5031 3.2261 12.2931 2.04967C10.9917 0.784291 9.18503 0 7.19958 0C5.21414 0 3.40956 0.784291 2.10811 2.04967C0.806653 3.31504 0 5.06959 0 7C0 8.93041 0.806653 10.685 2.10811 11.9503C3.40748 13.2157 5.21414 14.002 7.19958 14C9.18503 14 10.9896 13.2157 12.289 11.9503L11.158 10.8507C10.1414 11.8371 8.74636 12.4456 7.19958 12.4456C5.65073 12.4456 4.25572 11.8371 3.23909 10.8507C2.22453 9.86226 1.59875 8.50592 1.59875 7.00202C1.59875 5.4961 2.22453 4.13976 3.23909 3.15131C4.25572 2.16489 5.64865 1.55645 7.19958 1.55645C8.74844 1.55645 10.1435 2.16489 11.158 3.15131C12.0832 4.05082 12.6819 5.25758 12.7817 6.60381H11.4096L13.7048 9.5348L13.7069 9.53277Z" fill="white"/>
</svg>
