<svg 
 xmlns="http://www.w3.org/2000/svg"
 xmlns:xlink="http://www.w3.org/1999/xlink"
 width="12px" height="14px">
<path fill-rule="evenodd"  fill="rgb(102, 102, 102)"
 d="M11.777,7.038 C9.965,8.954 8.153,10.870 6.342,12.786 C5.609,13.561 4.502,12.322 5.237,11.545 C6.850,9.838 8.463,8.131 10.077,6.426 C8.472,4.777 6.866,3.129 5.261,1.480 C4.515,0.715 5.623,-0.523 6.365,0.239 C8.169,2.091 9.973,3.943 11.777,5.796 C12.084,6.111 12.077,6.719 11.777,7.038 ZM6.777,7.038 C4.965,8.954 3.153,10.870 1.342,12.786 C0.609,13.561 -0.498,12.322 0.237,11.545 C1.850,9.838 3.463,8.131 5.077,6.426 C3.472,4.777 1.866,3.129 0.261,1.480 C-0.485,0.715 0.623,-0.523 1.365,0.239 C3.169,2.091 4.973,3.943 6.777,5.796 C7.084,6.111 7.077,6.719 6.777,7.038 Z"/>
</svg>