<svg 
 xmlns="http://www.w3.org/2000/svg"
 xmlns:xlink="http://www.w3.org/1999/xlink"
 width="13px" height="14px">
<path fill-rule="evenodd"  fill="rgb(102, 102, 102)"
 d="M6.923,6.426 C8.537,8.131 10.150,9.838 11.763,11.545 C12.498,12.322 11.391,13.561 10.658,12.786 C8.846,10.870 7.035,8.954 5.223,7.038 C4.923,6.719 4.915,6.111 5.223,5.796 C7.027,3.943 8.831,2.091 10.635,0.239 C11.377,-0.523 12.485,0.715 11.739,1.480 C10.134,3.129 8.528,4.777 6.923,6.426 ZM1.923,6.426 C3.537,8.131 5.150,9.838 6.763,11.545 C7.498,12.322 6.391,13.561 5.658,12.786 C3.846,10.870 2.035,8.954 0.223,7.038 C-0.077,6.719 -0.085,6.111 0.223,5.796 C2.027,3.943 3.831,2.091 5.635,0.239 C6.377,-0.523 7.485,0.715 6.739,1.480 C5.134,3.129 3.528,4.777 1.923,6.426 Z"/>
</svg>