<?xml version="1.0" encoding="utf-8"?>
<!-- Generator: Adobe Illustrator 26.5.0, SVG Export Plug-In . SVG Version: 6.00 Build 0)  -->
<svg version="1.1" id="레이어_1" xmlns="http://www.w3.org/2000/svg" xmlns:xlink="http://www.w3.org/1999/xlink" x="0px"
	 y="0px" viewBox="0 0 1285.36 1285.48" style="enable-background:new 0 0 1285.36 1285.48;" xml:space="preserve">
<style type="text/css">
	.st0{fill-rule:evenodd;clip-rule:evenodd;fill:#FFFFFF;}
</style>
<g>
	<path class="st0" d="M875.3,168.35L70.31,973.34c-1.42,1.42-2.32,3.01-2.75,4.99L0.26,1272.92c-1.68,7.35,4.95,13.97,12.3,12.3
		l294.37-67.51c1.98-0.43,3.57-1.33,4.99-2.75l804.99-804.99L875.3,168.35L875.3,168.35z M124.01,1196.29l-34.96-34.96l35.35-154.8
		l154.32,154.32L124.01,1196.29L124.01,1196.29z"/>
	<path class="st0" d="M1019.69,23.96L917.26,126.39L1158.88,368l102.42-102.42c32.08-32.08,32.08-84.36,0-116.44L1136.13,23.96
		C1104.05-8.12,1051.51-7.86,1019.69,23.96L1019.69,23.96z"/>
</g>
</svg>
