<?xml version="1.0" encoding="utf-8"?>
<!-- Generator: Adobe Illustrator 26.5.0, SVG Export Plug-In . SVG Version: 6.00 Build 0)  -->
<svg version="1.1" id="icons" xmlns="http://www.w3.org/2000/svg" xmlns:xlink="http://www.w3.org/1999/xlink" x="0px" y="0px"
	 viewBox="0 0 214.22 201.48" style="enable-background:new 0 0 214.22 201.48;" xml:space="preserve">
<style type="text/css">
	.st0{fill:#ffffff;}
</style>
<path class="st0" d="M200.8,0.19H13.3C5.9,0.19-0.1,6.39-0.1,14.05v187.04h187.5c14.79,0,26.79-12.41,26.79-27.71V14.05
	C214.19,6.39,208.19,0.19,200.8,0.19z M120.44,40.37c0-3.7,3-6.7,6.7-6.7h40.18c3.7,0,6.7,3,6.7,6.7v40.18c0,3.7-3,6.7-6.7,6.7
	h-40.18c-3.7,0-6.7-3-6.7-6.7V40.37z M43.43,42.04h40.18c4.62,0,8.37,3.75,8.37,8.37c0,4.62-3.75,8.37-8.37,8.37H43.43
	c-4.62,0-8.37-3.75-8.37-8.37C35.06,45.79,38.81,42.04,43.43,42.04z M43.43,75.53h40.18c4.62,0,8.37,3.75,8.37,8.37
	c0,4.62-3.75,8.37-8.37,8.37H43.43c-4.62,0-8.37-3.75-8.37-8.37C35.06,79.27,38.81,75.53,43.43,75.53z M170.66,159.23H43.43
	c-4.62,0-8.37-3.75-8.37-8.37c0-4.62,3.75-8.37,8.37-8.37h127.23c4.62,0,8.37,3.75,8.37,8.37
	C179.03,155.48,175.29,159.23,170.66,159.23z M170.66,125.75H43.43c-4.62,0-8.37-3.75-8.37-8.37c0-4.62,3.75-8.37,8.37-8.37h127.23
	c4.62,0,8.37,3.75,8.37,8.37C179.03,122,175.29,125.75,170.66,125.75z"/>
</svg>
