<?xml version="1.0" encoding="utf-8"?>
<!-- Generator: Adobe Illustrator 26.5.0, SVG Export Plug-In . SVG Version: 6.00 Build 0)  -->
<svg version="1.1" id="Layer_1" xmlns="http://www.w3.org/2000/svg" xmlns:xlink="http://www.w3.org/1999/xlink" x="0px" y="0px"
	 viewBox="0 0 725.63 677.33" style="enable-background:new 0 0 725.63 677.33;" xml:space="preserve">
<style type="text/css">
	path{fill:#0248a4;}
</style>
<g>
	<path d="M-0.05,224.92v416.73c0,19.68,16.01,35.69,35.69,35.69h654.14c19.68,0,35.69-16.01,35.69-35.69V224.92H-0.05z
		 M226.71,593.64c0,6.91-5.6,12.51-12.51,12.51h-97.21c-6.91,0-12.51-5.6-12.51-12.51v-97.21c0-6.91,5.6-12.51,12.51-12.51h97.21
		c6.91,0,12.51,5.6,12.51,12.51V593.64z M226.71,405.87c0,6.91-5.6,12.51-12.51,12.51h-97.21c-6.91,0-12.51-5.6-12.51-12.51v-97.21
		c0-6.91,5.6-12.51,12.51-12.51h97.21c6.91,0,12.51,5.6,12.51,12.51V405.87z M423.82,593.64c0,6.91-5.6,12.51-12.51,12.51H314.1
		c-6.91,0-12.51-5.6-12.51-12.51v-97.21c0-6.91,5.6-12.51,12.51-12.51h97.21c6.91,0,12.51,5.6,12.51,12.51V593.64z M423.82,405.87
		c0,6.91-5.6,12.51-12.51,12.51H314.1c-6.91,0-12.51-5.6-12.51-12.51v-97.21c0-6.91,5.6-12.51,12.51-12.51h97.21
		c6.91,0,12.51,5.6,12.51,12.51V405.87z M620.93,593.64c0,6.91-5.6,12.51-12.51,12.51h-97.21c-6.91,0-12.51-5.6-12.51-12.51v-97.21
		c0-6.91,5.6-12.51,12.51-12.51h97.21c6.91,0,12.51,5.6,12.51,12.51V593.64z M620.93,405.87c0,6.91-5.6,12.51-12.51,12.51h-97.21
		c-6.91,0-12.51-5.6-12.51-12.51v-97.21c0-6.91,5.6-12.51,12.51-12.51h97.21c6.91,0,12.51,5.6,12.51,12.51V405.87z"/>
	<path d="M170.1,125.76c-13.88,0-25.17-11.29-25.17-25.17V25.6c0-13.8,11.29-25.02,25.17-25.02c13.8,0,25.02,11.22,25.02,25.02
		v74.99C195.13,114.46,183.9,125.76,170.1,125.76z"/>
	<path d="M555.3,125.76c-13.8,0-25.02-11.29-25.02-25.17V25.6c0-13.8,11.23-25.02,25.02-25.02c13.88,0,25.18,11.22,25.18,25.02
		v74.99C580.48,114.46,569.18,125.76,555.3,125.76z"/>
	<path d="M681.92,63.17h-45.09h-4.79H605.5v37.42c0,27.67-22.52,50.19-50.19,50.19c-27.6,0-50.04-22.51-50.04-50.19V63.17h-21.64
		H241.75h-21.61v37.42c0,27.67-22.45,50.19-50.04,50.19c-27.67,0-50.19-22.51-50.19-50.19V63.17H92.3H43.45
		c-23.97,0-43.47,19.5-43.47,43.47v93.27h725.42v-93.27C725.39,82.67,705.89,63.17,681.92,63.17z"/>
</g>
</svg>
