<?xml version="1.0" encoding="utf-8"?>
<!-- Generator: Adobe Illustrator 26.5.0, SVG Export Plug-In . SVG Version: 6.00 Build 0)  -->
<svg version="1.1" id="Layer_3" xmlns="http://www.w3.org/2000/svg" xmlns:xlink="http://www.w3.org/1999/xlink" x="0px" y="0px"
	 viewBox="0 0 217.5 195.39" style="enable-background:new 0 0 217.5 195.39;" xml:space="preserve">
<style type="text/css">
	.st0{fill:#ffffff;}
</style>
<path class="st0" d="M200.41,185.17V76.39c0-6.84-5.55-12.39-12.39-12.39h-64.67V12.45c0-6.84-5.55-12.39-12.39-12.39H32.76
	c-6.84,0-12.39,5.55-12.39,12.39v172.72H0v10.23h220.8v-10.23H200.41z M55.82,162.15H41.55v-14.27h14.27V162.15z M55.82,130.82
	H41.55v-14.27h14.27V130.82z M55.82,99.48H41.55V85.21h14.27V99.48z M55.82,68.14H41.55V53.87h14.27V68.14z M55.82,36.81H41.55
	V22.54h14.27V36.81z M80.05,162.15H65.78v-14.27h14.27V162.15z M80.05,130.82H65.78v-14.27h14.27V130.82z M80.05,99.48H65.78V85.21
	h14.27V99.48z M80.05,68.14H65.78V53.87h14.27V68.14z M80.05,36.81H65.78V22.54h14.27V36.81z M104.29,162.15H90.02v-14.27h14.27
	V162.15z M104.29,130.82H90.02v-14.27h14.27V130.82z M104.29,99.48H90.02V85.21h14.27V99.48z M104.29,68.14H90.02V53.87h14.27V68.14
	z M104.29,36.81H90.02V22.54h14.27V36.81z M143.06,166.32h-11.58v-11.58h11.58V166.32z M143.06,143.35h-11.58v-11.58h11.58V143.35z
	 M143.06,120.37h-11.58v-11.58h11.58V120.37z M143.06,97.39h-11.58V85.81h11.58V97.39z M162.45,166.32h-11.58v-11.58h11.58V166.32z
	 M162.45,143.35h-11.58v-11.58h11.58V143.35z M162.45,120.37h-11.58v-11.58h11.58V120.37z M162.45,97.39h-11.58V85.81h11.58V97.39z
	 M181.84,166.32h-11.58v-11.58h11.58V166.32z M181.84,143.35h-11.58v-11.58h11.58V143.35z M181.84,120.37h-11.58v-11.58h11.58
	V120.37z M181.84,97.39h-11.58V85.81h11.58V97.39z"/>
</svg>
