<?xml version="1.0" encoding="utf-8"?>
<!-- Generator: Adobe Illustrator 26.5.0, SVG Export Plug-In . SVG Version: 6.00 Build 0)  -->
<svg version="1.1" id="icons" xmlns="http://www.w3.org/2000/svg" xmlns:xlink="http://www.w3.org/1999/xlink" x="0px" y="0px"
	 viewBox="0 0 214.29 257.81" style="enable-background:new 0 0 214.29 257.81;" xml:space="preserve">
<style type="text/css">
	.st0{fill:#FFFFFF;}
</style>
<g>
	<g>
		<path class="st0" d="M200.89,0H13.39C6,0,0,6,0,13.39v133.93c0,7.4,6,13.39,13.39,13.39h187.5c7.4,0,13.39-6,13.39-13.39V13.39
			C214.29,6,208.29,0,200.89,0z M43.53,125.56c-9.25,0-16.74-7.5-16.74-16.74c0-9.25,7.5-16.74,16.74-16.74
			c9.25,0,16.74,7.5,16.74,16.74C60.27,118.06,52.77,125.56,43.53,125.56z M43.53,71.99c-9.25,0-16.74-7.5-16.74-16.74
			c0-9.25,7.5-16.74,16.74-16.74c9.25,0,16.74,7.5,16.74,16.74C60.27,64.49,52.77,71.99,43.53,71.99z M150.67,123.88H97.1
			c-4.62,0-8.37-3.75-8.37-8.37c0-4.62,3.75-8.37,8.37-8.37h53.57c4.62,0,8.37,3.75,8.37,8.37
			C159.04,120.14,155.29,123.88,150.67,123.88z M177.46,90.4H97.1c-4.62,0-8.37-3.75-8.37-8.37c0-4.62,3.75-8.37,8.37-8.37h80.36
			c4.62,0,8.37,3.75,8.37,8.37C185.83,86.65,182.08,90.4,177.46,90.4z M177.46,56.92H97.1c-4.62,0-8.37-3.75-8.37-8.37
			s3.75-8.37,8.37-8.37h80.36c4.62,0,8.37,3.75,8.37,8.37S182.08,56.92,177.46,56.92z"/>
		<path class="st0" d="M91.55,160.59l-0.12,0.13h0.25L91.55,160.59z M159.21,237.32l-42.02-42.02v-8.99
			c0-5.55-4.5-10.04-10.04-10.04c-5.55,0-10.04,4.5-10.04,10.04v8.99l-42.02,42.02c-3.92,3.92-3.92,10.28,0,14.2
			c1.96,1.96,4.53,2.94,7.1,2.94c2.57,0,5.14-0.98,7.1-2.94l27.82-27.82v24.06c0,5.55,4.5,10.04,10.04,10.04
			c5.55,0,10.04-4.5,10.04-10.04v-24.06L145,251.52c1.96,1.96,4.53,2.94,7.1,2.94c2.57,0,5.14-0.98,7.1-2.94
			C163.13,247.6,163.13,241.24,159.21,237.32z"/>
	</g>
</g>
</svg>
