<?xml version="1.0" encoding="utf-8"?>
<!-- Generator: Adobe Illustrator 26.5.0, SVG Export Plug-In . SVG Version: 6.00 Build 0)  -->
<svg version="1.1" id="Layer_1" xmlns="http://www.w3.org/2000/svg" xmlns:xlink="http://www.w3.org/1999/xlink" x="0px" y="0px"
	 viewBox="0 0 726 677" style="enable-background:new 0 0 726 677; fill:#999;" xml:space="preserve">
<g>
	<path d="M0.24,224.46v416.73c0,19.68,16.01,35.69,35.69,35.69h654.14c19.68,0,35.69-16.01,35.69-35.69V224.46H0.24z M227,593.18
		c0,6.91-5.6,12.51-12.51,12.51h-97.21c-6.91,0-12.51-5.6-12.51-12.51v-97.21c0-6.91,5.6-12.51,12.51-12.51h97.21
		c6.91,0,12.51,5.6,12.51,12.51V593.18z M227,405.41c0,6.91-5.6,12.51-12.51,12.51h-97.21c-6.91,0-12.51-5.6-12.51-12.51v-97.21
		c0-6.91,5.6-12.51,12.51-12.51h97.21c6.91,0,12.51,5.6,12.51,12.51V405.41z M424.12,593.18c0,6.91-5.6,12.51-12.51,12.51h-97.21
		c-6.91,0-12.51-5.6-12.51-12.51v-97.21c0-6.91,5.6-12.51,12.51-12.51h97.21c6.91,0,12.51,5.6,12.51,12.51V593.18z M424.12,405.41
		c0,6.91-5.6,12.51-12.51,12.51h-97.21c-6.91,0-12.51-5.6-12.51-12.51v-97.21c0-6.91,5.6-12.51,12.51-12.51h97.21
		c6.91,0,12.51,5.6,12.51,12.51V405.41z M621.23,593.18c0,6.91-5.6,12.51-12.51,12.51h-97.21c-6.91,0-12.51-5.6-12.51-12.51v-97.21
		c0-6.91,5.6-12.51,12.51-12.51h97.21c6.91,0,12.51,5.6,12.51,12.51V593.18z M621.23,405.41c0,6.91-5.6,12.51-12.51,12.51h-97.21
		c-6.91,0-12.51-5.6-12.51-12.51v-97.21c0-6.91,5.6-12.51,12.51-12.51h97.21c6.91,0,12.51,5.6,12.51,12.51V405.41z"/>
	<path d="M170.4,125.29c-13.88,0-25.17-11.29-25.17-25.17V25.14c0-13.8,11.29-25.02,25.17-25.02c13.8,0,25.02,11.22,25.02,25.02
		v74.99C195.42,114,184.2,125.29,170.4,125.29z"/>
	<path d="M555.6,125.29c-13.8,0-25.02-11.29-25.02-25.17V25.14c0-13.8,11.23-25.02,25.02-25.02c13.88,0,25.18,11.22,25.18,25.02
		v74.99C580.77,114,569.48,125.29,555.6,125.29z"/>
	<path d="M682.22,62.71h-45.09h-4.79h-26.55v37.42c0,27.67-22.52,50.19-50.19,50.19c-27.6,0-50.04-22.51-50.04-50.19V62.71h-21.64
		H242.04h-21.61v37.42c0,27.67-22.45,50.19-50.04,50.19c-27.67,0-50.19-22.51-50.19-50.19V62.71H92.6H43.74
		c-23.97,0-43.47,19.5-43.47,43.47v93.27h725.42v-93.27C725.69,82.21,706.19,62.71,682.22,62.71z"/>
</g>
</svg>
