<?xml version="1.0" encoding="UTF-8"?>
<svg id="_레이어_2" data-name="레이어 2" xmlns="http://www.w3.org/2000/svg" viewBox="0 0 72.12 60.3">
  <defs>
    <style>
      .cls-1 {
        fill: #fff;
        fill-rule: evenodd;
      }
    </style>
  </defs>
  <g id="Calque_62_-_copie" data-name="Calque 62 - copie">
    <path class="cls-1" d="M71.9,11.33s.09,0,.09-.02l.12-2.59v-2.03s-.13-.07-.13-.1c0-.04-.07-.34-.07-.38-.03-1.08-.37-2.67-1.92-2.67h-20.16c-.02-1-.06-.37-.07-.53-.03-1.51-.99-2.66-2.44-2.95-.37-.07-.75-.04-1.13-.05-2.04,0-11.08,0-13.12,.01-1.61,0-2.79,.95-3.05,2.52-.04,.29-.04,0-.05,1H10c-1.1,0-2,.96-2,2.07l.07,1.31,.04,8.12v7.5H2.27c-1.28,0-2.27,1.14-2.27,2.25L8,57.91c.39,1.22,1.61,2.37,2.89,2.37l58.08,.02c.24,0,.48-.04,.72-.13,1-.27,1.72-.96,2.01-1.94,0-.01,0-.02,.01-.04,.04-.12,.07-.24,.09-.37,0-.02,0-.03,.01-.05v-.02c.02-.17,.04-.35,.04-.53,0-15.3,.03-30.6,.03-45.9ZM5,29.54l-1-4H23l1,4H5Zm59-4.75c0-1.1-1.18-2.25-2.46-2.25H10.68c0-2,.43-3.42,.43-5.38v-.62h58v.61c0,9.24-.18,18.36-.15,27.6l-4.97-19.96Z"/>
  </g>
</svg>