<?xml version="1.0" encoding="utf-8"?>
<!-- Generator: Adobe Illustrator 26.5.0, SVG Export Plug-In . SVG Version: 6.00 Build 0)  -->
<svg version="1.1" id="Layer_1" xmlns="http://www.w3.org/2000/svg" xmlns:xlink="http://www.w3.org/1999/xlink" x="0px" y="0px"
	 viewBox="0 0 380.07 322.67" style="enable-background:new 0 0 380.07 322.67;" xml:space="preserve">
<style type="text/css">
	.st0{fill:#0248a4;}
</style>
<g>
	<path class="st0" d="M12.27,206.63l187.18,57.65c0.81,0.25,1.65,0.44,2.48,0.56c0.81,0.12,1.64,0.18,2.47,0.18
		c1.22,0,2.42-0.13,3.57-0.38c1.22-0.27,2.4-0.67,3.44-1.18l158.42-72c4.1-1.88,7.23-5.23,8.81-9.45c1.58-4.21,1.43-8.79-0.41-12.92
		c-1.88-4.12-5.23-7.26-9.45-8.83c-4.24-1.59-8.85-1.4-12.97,0.5l-152.55,69.29L22.2,174.37c-4.31-1.36-8.88-0.94-12.87,1.17
		c-3.97,2.1-6.9,5.63-8.27,9.97c-1.32,4.31-0.87,8.89,1.25,12.88C4.43,202.39,7.97,205.32,12.27,206.63z"/>
	<path class="st0" d="M0.32,133.8c0.21,3.49,1.44,6.77,3.56,9.5c2.14,2.75,5.05,4.75,8.38,5.75l187.21,57.59
		c0.81,0.24,1.63,0.42,2.44,0.54c0.83,0.12,1.66,0.19,2.48,0.19c1.25,0,2.48-0.13,3.66-0.38c1.25-0.26,2.46-0.66,3.59-1.19l0.1-0.05
		c0.69-0.35,16.11-7.64,36.87-17.22c18.53-8.55,44.44-20.35,62.64-28.05c25.14-10.56,39.62-22.87,46.96-39.89
		c6.73-15.6,6.71-33.89,6.68-55.08v-2.18c0-3.79-1.27-7.5-3.58-10.46c-2.31-2.97-5.6-5.09-9.23-5.95L165.76,1.01
		c-2.54-0.62-5.11-0.65-7.64-0.11c-2.51,0.54-4.83,1.63-6.88,3.23c-1.99,1.55-3.63,3.59-4.75,5.89c-1.12,2.3-1.71,4.86-1.71,7.41
		c0,18.13-2.28,30.45-7.16,38.77c-4.21,7.17-10.53,12.04-21.82,16.79L10.63,117.36c-3.2,1.34-5.87,3.61-7.73,6.57
		c-1.86,2.96-2.75,6.36-2.58,9.84L0.32,133.8z"/>
	<path class="st0" d="M378.24,226.71l-0.01-0.02c-1.88-4.09-5.23-7.22-9.44-8.81c-4.25-1.6-8.86-1.43-12.98,0.46l-152.55,69.36
		L22.2,231.96c-4.31-1.36-8.9-0.93-12.91,1.21c-3.99,2.13-6.92,5.68-8.24,10c-1.32,4.31-0.87,8.87,1.25,12.86
		c2.11,3.97,5.65,6.9,9.96,8.26l187.18,57.58c0.82,0.25,1.64,0.44,2.46,0.57c0.83,0.13,1.66,0.19,2.49,0.19
		c1.21,0,2.42-0.13,3.58-0.39c1.21-0.27,2.38-0.68,3.43-1.18l158.4-71.99c4.11-1.83,7.25-5.18,8.83-9.42
		C380.22,235.42,380.08,230.83,378.24,226.71z"/>
</g>
</svg>
