<?xml version="1.0" encoding="utf-8"?>
<!-- Generator: Adobe Illustrator 26.5.0, SVG Export Plug-In . SVG Version: 6.00 Build 0)  -->
<svg version="1.1" id="격리_모드" xmlns="http://www.w3.org/2000/svg" xmlns:xlink="http://www.w3.org/1999/xlink" x="0px"
	 y="0px" viewBox="0 0 221.12 187.87" style="enable-background:new 0 0 221.12 187.87;" xml:space="preserve">
<style type="text/css">
	.st0{fill:#FFFFFF;}
</style>
<path class="st0" d="M127.34,10.17c0-5.56-3-10.06-6.7-10.06H93.86c-3.7,0-6.7,4.5-6.7,10.06v140.87h40.18V10.17z M184.26,30.3
	c0-5.56-3-10.06-6.7-10.06h-26.79c-3.7,0-6.7,4.5-6.7,10.06v120.74h40.18V30.3z M211.05,167.78H10.15c-5.55,0-10.04,4.5-10.04,10.04
	s4.5,10.04,10.04,10.04h200.89c5.55,0,10.04-4.5,10.04-10.04S216.59,167.78,211.05,167.78z M70.42,60.48c0-5.56-3-10.06-6.7-10.06
	H36.94c-3.7,0-6.7,4.5-6.7,10.06v90.56h40.18V60.48z"/>
</svg>
