<?xml version="1.0" encoding="utf-8"?>
<!-- Generator: Adobe Illustrator 26.5.0, SVG Export Plug-In . SVG Version: 6.00 Build 0)  -->
<svg version="1.1" id="Layer_1" xmlns="http://www.w3.org/2000/svg" xmlns:xlink="http://www.w3.org/1999/xlink" x="0px" y="0px"
	 viewBox="0 0 192.89 111.89" style="enable-background:new 0 0 192.89 111.89;" xml:space="preserve">
<style type="text/css">
	.st0{fill:#0248a4;}
</style>
<path class="st0" d="M96.44,64c-26.51,0-48,21.49-48,48h96C144.44,85.49,122.95,64,96.44,64z"/>
<circle class="st0" cx="154.04" cy="40" r="24"/>
<path class="st0" d="M154.04,68.27c-6.43,0-12.48,1.59-17.81,4.38c10.01,10.12,16.21,24.03,16.21,39.35h39.62
	c0.24-1.74,0.38-3.52,0.38-5.33C192.44,85.46,175.25,68.27,154.04,68.27z"/>
<path class="st0" d="M38.84,68.27c-21.21,0-38.4,17.19-38.4,38.4c0,1.81,0.13,3.59,0.38,5.33h39.62c0-15.33,6.19-29.23,16.21-39.35
	C51.33,69.85,45.27,68.27,38.84,68.27z"/>
<circle class="st0" cx="96.44" cy="28" r="28"/>
<circle class="st0" cx="38.84" cy="40" r="24"/>
</svg>
