<?xml version="1.0" encoding="utf-8"?>
<!-- Generator: Adobe Illustrator 26.5.0, SVG Export Plug-In . SVG Version: 6.00 Build 0)  -->
<svg version="1.1" id="_1" xmlns="http://www.w3.org/2000/svg" xmlns:xlink="http://www.w3.org/1999/xlink" x="0px" y="0px"
	 viewBox="0 0 531.63 531.81" style="enable-background:new 0 0 531.63 531.81;" xml:space="preserve">
<style type="text/css">
	.st0{fill:#201600;}
</style>
<path class="st0" d="M522.88,479.93l-149.09-149.1c25.64-34.5,40.83-77.24,40.83-123.53C414.62,92.81,321.8,0,207.31,0
	C92.82,0,0,92.81,0,207.3c0,114.49,92.82,207.3,207.31,207.3c46.19,0,88.84-15.12,123.31-40.67l149.12,149.12
	c11.75,11.75,31.07,11.66,42.93-0.21C534.54,510.99,534.62,491.67,522.88,479.93z M207.31,362.97
	c-85.98,0-155.68-69.7-155.68-155.67c0-85.97,69.69-155.67,155.68-155.67c85.97,0,155.67,69.7,155.67,155.67
	C362.98,293.27,293.29,362.97,207.31,362.97z"/>
</svg>
