<?xml version="1.0" encoding="utf-8"?>
<!-- Generator: Adobe Illustrator 26.5.0, SVG Export Plug-In . SVG Version: 6.00 Build 0)  -->
<svg version="1.1" id="ligin_iocns" xmlns="http://www.w3.org/2000/svg" xmlns:xlink="http://www.w3.org/1999/xlink" x="0px"
	 y="0px" viewBox="0 0 134.81 187.4" style="enable-background:new 0 0 134.81 187.4;" xml:space="preserve">
<style type="text/css">
	.st0{fill:#FFFFFF;}
</style>
<g>
	<g>
		<path class="st0" d="M8.78,72.76V47.88l0.01-3.25c0.02-1.25,0.09-2.5,0.22-3.74c0.26-2.49,0.7-4.97,1.37-7.39
			c1.31-4.85,3.46-9.46,6.28-13.6C22.29,11.6,30.73,5.26,40.31,2.21c2.39-0.77,4.84-1.33,7.32-1.69c1.24-0.18,2.49-0.31,3.74-0.38
			c0.62-0.05,1.25-0.06,1.87-0.08l1.72-0.01H67.4h12.44l1.72,0.01c0.62,0.02,1.25,0.03,1.87,0.08c1.25,0.08,2.5,0.2,3.74,0.38
			c2.48,0.36,4.94,0.92,7.33,1.69c9.58,3.05,18.02,9.39,23.65,17.68c2.82,4.14,4.96,8.76,6.28,13.6c0.67,2.42,1.11,4.9,1.37,7.39
			c0.12,1.25,0.2,2.5,0.22,3.74l0.01,3.25v24.88h-15.7V47.88l-0.01-2.97c-0.02-0.82-0.06-1.65-0.14-2.46
			c-0.17-1.63-0.46-3.25-0.9-4.83c-0.85-3.16-2.25-6.17-4.1-8.88c-3.69-5.44-9.24-9.6-15.48-11.58c-1.56-0.5-3.16-0.87-4.78-1.11
			c-0.81-0.12-1.63-0.2-2.45-0.25c-0.41-0.03-0.82-0.04-1.23-0.05l-1.39-0.01H67.4H54.96l-1.39,0.01c-0.41,0.01-0.82,0.02-1.23,0.05
			c-0.82,0.05-1.64,0.13-2.45,0.25c-1.62,0.23-3.22,0.6-4.78,1.11c-6.24,1.98-11.79,6.14-15.48,11.58c-1.85,2.71-3.25,5.72-4.1,8.88
			c-0.44,1.58-0.72,3.19-0.89,4.83c-0.08,0.82-0.13,1.64-0.14,2.46l-0.01,2.97v24.88H8.78z"/>
	</g>
	<g id="XMLID_30_">
		<g>
			<path class="st0" d="M134.81,93.79v78.35c0,8.43-7.74,15.27-17.27,15.27H17.25c-9.53,0-17.27-6.83-17.27-15.27V93.79
				c0-8.43,7.74-15.28,17.27-15.28h100.29C127.07,78.51,134.81,85.36,134.81,93.79z M77.17,138.8c3.81-2.94,6.29-7.54,6.29-12.72
				c0-8.88-7.19-16.07-16.06-16.07c-8.86,0-16.06,7.19-16.06,16.07c0,5.18,2.48,9.78,6.29,12.72l-2.42,23.41h24.37L77.17,138.8z"/>
		</g>
	</g>
</g>
</svg>
