<?xml version="1.0" encoding="utf-8"?>
<!-- Generator: Adobe Illustrator 26.5.0, SVG Export Plug-In . SVG Version: 6.00 Build 0)  -->
<svg version="1.1" id="icons" xmlns="http://www.w3.org/2000/svg" xmlns:xlink="http://www.w3.org/1999/xlink" x="0px" y="0px"
	 viewBox="0 0 257.81 201.95" style="enable-background:new 0 0 257.81 201.95;" xml:space="preserve">
<style type="text/css">
	.st0{fill:#FFFFFF;}
</style>
<g>
	<g>
		<path class="st0" d="M244.42,0h-13.39c-7.4,0-13.39,6-13.39,13.39V187.5c0,7.4,6,13.39,13.39,13.39h13.39
			c7.4,0,13.39-6,13.39-13.39V13.39C257.81,6,251.82,0,244.42,0z"/>
		<path class="st0" d="M196.64,19.3L45.97,61.67c-1.44,0.41-2.44,1.72-2.44,3.22v79.93h0v26.62c0,10.91,7.89,20.22,18.65,22.02
			l49.11,8.18c1.23,0.21,2.46,0.31,3.69,0.31c5.24,0,10.35-1.85,14.41-5.29c5.02-4.25,7.89-10.46,7.89-17.03v-9.38l59.39,16.1
			c2.13,0.58,4.23-1.03,4.23-3.23V22.52C200.89,20.3,198.77,18.7,196.64,19.3z M117.19,179.62c0,0.85-0.43,1.4-0.79,1.7
			c-0.36,0.3-0.97,0.64-1.8,0.5c0,0,0,0-0.01,0l-49.11-8.18c-1.08-0.18-1.86-1.11-1.86-2.2v-21.17l53.57,14.53V179.62z M23.44,66.96
			H13.39C6,66.96,0,72.96,0,80.36v46.87c0,7.4,6,13.39,13.39,13.39h10.04c1.85,0,3.35-1.5,3.35-3.35V70.31
			C26.79,68.46,25.29,66.96,23.44,66.96z"/>
	</g>
</g>
</svg>
