<?xml version="1.0" encoding="utf-8"?>
<!-- Generator: Adobe Illustrator 26.5.0, SVG Export Plug-In . SVG Version: 6.00 Build 0)  -->
<svg version="1.1" id="Layer_1" xmlns="http://www.w3.org/2000/svg" xmlns:xlink="http://www.w3.org/1999/xlink" x="0px" y="0px"
	 viewBox="0 0 1241 1240.92" style="enable-background:new 0 0 1241 1240.92;" xml:space="preserve">
<style type="text/css">
	.st0{fill:#FFFFFF;}
</style>
<path class="st0" d="M1192.22,378.93c-31.25-73.88-75.99-140.24-132.96-197.21c-56.97-56.97-123.32-101.7-197.21-132.96
	C785.54,16.41,704.28,0,620.53,0c-83.75,0-165.01,16.41-241.52,48.77c-73.88,31.26-140.24,75.99-197.21,132.96
	C124.82,238.7,80.1,305.05,48.85,378.93C16.48,455.44,0.07,536.71,0.07,620.45c0,83.76,16.41,165.01,48.78,241.52
	c31.25,73.89,75.98,140.25,132.96,197.22c56.97,56.97,123.32,101.7,197.21,132.95c76.51,32.36,157.77,48.78,241.52,48.78
	c83.75,0,165.01-16.41,241.52-48.78c73.88-31.25,140.24-75.98,197.21-132.95c56.97-56.97,101.71-123.32,132.96-197.22
	c32.36-76.51,48.77-157.76,48.77-241.52C1240.98,536.71,1224.58,455.44,1192.22,378.93z M1018.79,1018.72
	c-23.93,23.93-49.69,45.49-77.1,64.54c-31.83,22.13-65.89,40.92-101.94,56.16c-69.42,29.37-143.17,44.26-219.22,44.26
	s-149.8-14.89-219.23-44.26c-36.03-15.25-70.09-34.03-101.93-56.16c-27.42-19.06-53.17-40.61-77.11-64.55
	c-1.11-1.11-2.22-2.24-3.33-3.37c27.7-150.19,137.55-271.58,281.24-315.83c-85.84-43.85-144.62-133.12-144.62-236.13
	c0-146.34,118.63-264.97,264.98-264.97c146.34,0,264.97,118.63,264.97,264.97c0,103.01-58.77,192.28-144.62,236.13
	c143.69,44.25,253.55,165.65,281.24,315.84C1021.02,1016.47,1019.9,1017.61,1018.79,1018.72z"/>
</svg>
