<?xml version="1.0" encoding="utf-8"?>
<!-- Generator: Adobe Illustrator 26.5.0, SVG Export Plug-In . SVG Version: 6.00 Build 0)  -->
<svg version="1.1" id="Layer_1" xmlns="http://www.w3.org/2000/svg" xmlns:xlink="http://www.w3.org/1999/xlink" x="0px" y="0px"
	 viewBox="0 0 81.46 81.54" style="enable-background:new 0 0 81.46 81.54;" xml:space="preserve">
<style type="text/css">
	.st0{fill:#0248a4;}
</style>
<path class="st0" d="M4.78,0.02h44.46c1.31,0,2.5,0.54,3.36,1.4C53.46,2.27,54,3.47,54,4.78V19.5h-4.9V4.91H11.19l20.37,12.37
	c0.82,0.5,1.51,1.37,1.95,2.38c0.38,0.87,0.61,1.89,0.61,2.85v37.08H49.1V45.01H54v14.72c0,1.31-0.53,2.5-1.4,3.36
	c-0.86,0.86-2.05,1.4-3.36,1.4H34.12v12.98c0,0.96-0.24,1.82-0.64,2.47c-0.28,0.45-0.63,0.82-1.04,1.09
	c-0.51,0.33-1.08,0.51-1.69,0.51c-0.57,0-1.16-0.16-1.73-0.51L2.58,64.96c-0.82-0.5-1.51-1.37-1.95-2.38
	c-0.38-0.87-0.61-1.89-0.61-2.85V4.78c0-0.96,0.24-1.82,0.64-2.47c0.21-0.34,0.45-0.63,0.74-0.87l0.02-0.02
	C2.27,0.55,3.47,0.02,4.78,0.02L4.78,0.02z M81.42,24.62H60.28v-7.63L43.28,32.25l17.01,15.26v-7.63h21.14V24.62L81.42,24.62z"/>
</svg>