<?xml version="1.0" encoding="utf-8"?>
<!-- Generator: Adobe Illustrator 26.5.0, SVG Export Plug-In . SVG Version: 6.00 Build 0)  -->
<svg version="1.1" id="Layer_1" xmlns="http://www.w3.org/2000/svg" xmlns:xlink="http://www.w3.org/1999/xlink" x="0px" y="0px"
	 viewBox="0 0 791.11 685.06" style="enable-background:new 0 0 791.11 685.06;" xml:space="preserve">
<style type="text/css">
	.st0{fill-rule:evenodd;clip-rule:evenodd;fill:#FFFFFF;}
</style>
<g>
	<path class="st0" d="M525.55,493.3c-14.67-0.4-27.16,10.52-27.88,24.37c-0.72,14.05,12.21,27.02,27.12,27.19
		c14.07,0.16,26.78-11.84,27.12-25.62C552.25,505.34,540.42,493.71,525.55,493.3z"/>
	<path class="st0" d="M443.45,312.27c-1.76,4.43-2.61,8.36-2.77,11.83h49.72c7.34-12.24,19.73-18.05,35.19-18.21
		c15.59-0.16,27.92,6.35,33.85,20.94c6.53,16.06,4.3,31.29-8.6,44.09c-11.37,11.27-23.18,24.31-33.71,36.36
		c-12.02,13.77-16,34.58-17.43,61.33h47.31c-1.35-24.55,10.39-41.02,28.31-60.91c8.13-9.03,17.66-17.23,24.96-27.04
		c19.24-25.89,17.16-66.6-3.78-90.95C556.52,243.23,466.25,254.79,443.45,312.27z"/>
	<path class="st0" d="M283.72,545.21c-0.13-0.21-0.26-0.42-0.37-0.63c-1.39-2.33-2.79-4.77-4.17-7.26
		c-23.23-41.8-35.5-89.28-35.5-137.28c0-140.2,104.58-260.89,243.29-280.74l2.05-0.29c1.29-0.18,2.59-0.34,3.88-0.5
		c0.24-0.03,0.46-0.06,0.65-0.08c1.38-0.16,2.76-0.32,4.2-0.47c0,0,2.14-0.21,2.27-0.22c-22.85-32.7-52.75-60.34-87.19-80.47
		c-41.76-24.4-89.5-37.3-138.04-37.3C123.42-0.02,0.29,123.12,0.29,274.47c0,54.64,16,107.39,46.28,152.56l4.08,6.12L1.81,570.78
		l147.16-52.22l5.54,2.7c37.18,18.13,78.77,27.71,120.27,27.71c3.68,0,7.38-0.08,11.08-0.22c-0.01-0.02-0.02-0.03-0.03-0.05
		C285.12,547.53,284.41,546.37,283.72,545.21z"/>
	<path class="st0" d="M740.47,542.57c28.31-42.24,43.23-91.34,43.23-142.53c0-141.41-115.04-256.45-256.45-256.45
		S270.81,258.63,270.81,400.04c0,141.4,115.04,256.45,256.45,256.45c38.9,0,77.6-8.93,112.37-25.88l151.12,53.63L740.47,542.57z
		 M637.44,597.74l-5.84,3.04c-32.43,16.9-67.54,25.46-104.34,25.46c-124.73,0-226.21-101.47-226.21-226.2
		c0-124.73,101.48-226.21,226.21-226.21c124.73,0,226.21,101.47,226.21,226.21c0,47.51-14.57,92.98-42.13,131.49l-4.59,6.42
		L741,634.49L637.44,597.74z"/>
</g>
</svg>
