<?xml version="1.0" encoding="utf-8"?>
<!-- Generator: Adobe Illustrator 26.5.0, SVG Export Plug-In . SVG Version: 6.00 Build 0)  -->
<svg version="1.1" id="레이어_1" xmlns="http://www.w3.org/2000/svg" xmlns:xlink="http://www.w3.org/1999/xlink" x="0px"
	 y="0px" viewBox="0 0 1640.37 1640.3" style="enable-background:new 0 0 1640.37 1640.3;" xml:space="preserve">
<style type="text/css">
	.st0{fill-rule:evenodd;clip-rule:evenodd;fill:#0248a4;}
</style>
<path class="st0" d="M1530.92,820.08c0,392.29-318.49,710.78-710.78,710.78c-392.29,0-710.78-318.49-710.78-710.78
	c0-392.29,318.49-710.78,710.78-710.78c198.81,0,378.67,81.81,507.7,213.55c15.55,15.87,39.15,20.76,59.72,12.36
	c20.57-8.4,34.01-28.4,34.01-50.62V54.62c0-30.18-24.5-54.68-54.68-54.68s-54.68,24.5-54.68,54.68v109.46
	C1175.1,61.03,1004.7-0.06,820.14-0.06C367.49-0.06,0,367.43,0,820.08c0,452.64,367.49,820.13,820.14,820.13
	s820.14-367.49,820.14-820.13c0-30.18-24.5-54.68-54.67-54.68C1555.42,765.4,1530.92,789.9,1530.92,820.08L1530.92,820.08z"/>
<path class="st0" d="M820.14,218.64c-331.94,0-601.43,269.49-601.43,601.43c0,331.94,269.49,601.43,601.43,601.43
	c331.94,0,601.43-269.49,601.43-601.43C1421.57,488.14,1152.08,218.64,820.14,218.64L820.14,218.64z M765.46,492.02v328.05
	c0,14.5,5.76,28.41,16.01,38.66l218.7,218.7c21.34,21.34,55.99,21.34,77.32,0c21.34-21.34,21.34-55.98,0-77.32L874.81,797.43V492.02
	c0-30.18-24.5-54.68-54.68-54.68C789.96,437.35,765.46,461.85,765.46,492.02L765.46,492.02z"/>
</svg>
