<?xml version="1.0" encoding="UTF-8"?>
<svg id="_레이어_2" data-name="레이어 2" xmlns="http://www.w3.org/2000/svg" viewBox="0 0 67 60">
  <defs>
    <style>
      .cls-1 {
        fill: #fff;
      }
    </style>
  </defs>
  <g id="Calque_75_-_copie" data-name="Calque 75 - copie">
    <g>
      <path class="cls-1" d="M2.71,25h3.58c1.5,0,2.71,1.21,2.71,2.71v29.58c0,1.5-1.21,2.71-2.71,2.71H2.71c-1.5,0-2.71-1.21-2.71-2.71V27.71c0-1.5,1.21-2.71,2.71-2.71Z"/>
      <rect class="cls-1" x="14" y="19" width="9" height="41" rx="2.71" ry="2.71"/>
      <path class="cls-1" d="M30.71,13h3.58c1.5,0,2.71,1.21,2.71,2.71V57.29c0,1.5-1.21,2.71-2.71,2.71h-3.58c-1.5,0-2.71-1.21-2.71-2.71V15.71c0-1.5,1.21-2.71,2.71-2.71Z"/>
      <path class="cls-1" d="M44.71,8h4.58c1.5,0,2.71,1.21,2.71,2.71V57.29c0,1.5-1.21,2.71-2.71,2.71h-4.58c-1.5,0-2.71-1.21-2.71-2.71V10.71c0-1.5,1.21-2.71,2.71-2.71Z"/>
      <path class="cls-1" d="M59.71,0h4.58c1.5,0,2.71,1.21,2.71,2.71V57.29c0,1.5-1.21,2.71-2.71,2.71h-4.58c-1.5,0-2.71-1.21-2.71-2.71V2.71c0-1.5,1.21-2.71,2.71-2.71Z"/>
    </g>
  </g>
</svg>