<?xml version="1.0" encoding="UTF-8"?>
<svg id="_레이어_2" data-name="레이어 2" xmlns="http://www.w3.org/2000/svg" viewBox="0 0 63.48 54.23">
  <defs>
    <style>
      .cls-1 {
        fill: #fff;
        fill-rule: evenodd;
      }
    </style>
  </defs>
  <g id="Calque_10_-_copie" data-name="Calque 10 - copie">
    <g>
      <path class="cls-1" d="M58.78,5.39c-.52-.03-1.05-.01-1.57-.01-13.54,0-27.09,0-40.63,0-.56,0-1.14,.13-1.67-.14-.11-.34-.21-.63-.3-.93C13.94,1.9,11.6-.05,8.73,0c-1.78,.03-3.56,.02-5.33,0C1.74-.02,.3,.3,0,2.83c-.1,3.07,1.75,3.47,3.45,3.46,1.36,0,2.71,0,4.07,0,.35,0,.7,.06,1.1,.1,.1,.36,.18,.65,.25,.95,1.77,7.53,3.53,15.06,5.3,22.58,.5,2.14,.98,4.28,1.53,6.4,.62,2.4,2.22,3.86,4.61,4.41,.65,.15,1.35,.13,2.03,.13,9.46,0,18.93,0,28.39,0,.37,0,.73,.01,1.1,0,1.68-.11,2.95-1.4,3-3.04,.05-1.68-1.26-3.09-3-3.21-.47-.03-.94-.01-1.41-.01-8.99,0-17.99,0-26.98,0-.56,0-1.14,.13-1.69-.16-.29-1.06-.68-2.09-.65-3.31,.63,0,1.2-.04,1.76-.04h28.39c.42,0,.84,.02,1.25,0,2.32-.1,3.96-1.18,4.84-3.34,.12-.29,.22-.58,.33-.88,1.62-4.36,3.23-8.72,4.85-13.08,.25-.69,.54-1.36,.74-2.07,.88-3.08-1.31-6.14-4.51-6.34ZM21.93,26.04c0,.2-.04,.41-.07,.64-.61,.35-1.21,.25-1.9,.12-.78-2.82-1.38-5.92-2.04-8.76-.66-2.84-1.43-5.94-1.96-8.94h5.78c.07,0,.18,.87,.18,1.17,.01,5.18,0,10.6,0,15.78Zm6.52,.63c-1.18,.32-3.4,.33-4.7,.02-.03-.18-.09-.38-.09-.58,0-5.44,0-10.87,0-16.48,1.69-.16,3.18-.14,4.75-.03,.05,.29,.14,.54,.14,.79,0,5.23,0,10.46,0,15.69,0,.2-.06,.4-.09,.58Zm6.97-.7c0,.25-.06,.5-.09,.72-1.21,.29-3.41,.32-4.95,.05-.03-.2-.11-.45-.11-.69,0-5.22,0-10.44,0-15.65,0-.2,.05-.41,.08-.59,1-.33,2.56-.38,4.88-.17,.06,.26,.19,.55,.19,.84,.01,5.17,.01,10.33,0,15.5Zm7.1-1.26c0,.67,.07,1.35-.09,1.99-1.28,.3-3.93,.29-5.13,0-.22-1.29-.22-15.69,.02-17.07,1.62-.21,3.26-.09,4.92-.07,.41,.55,.26,1.14,.26,1.69,.01,4.48,0,8.97,0,13.45Zm7.09,1.6c0,.1-.04,.2-.09,.41-1.25,.27-3.63,.28-5.02,.04-.03-.03-.07-.06-.09-.1-.03-.04-.05-.1-.05-.15-.02-5.38-.03-10.76-.04-16.14,0-.2,.05-.41,.08-.6,1.04-.3,2.88-.35,5.05-.14,.05,.21,.17,.45,.17,.69,0,5.33,0,10.66,0,15.98Zm9.62-15.59c-.08,.3-.2,.59-.31,.89-1.69,4.55-3.38,9.1-5.08,13.65-.05,.15-.1,.3-.15,.44-.49,1.25-.62,1.31-2.22,1.05-.2-1.94-.15-15.81,.06-17.1,.21-.03,.45-.1,.69-.1,1.88,0,3.76,0,5.64,0,.21,0,.42,0,.62,.03,.57,.1,.89,.59,.74,1.14Z"/>
      <path class="cls-1" d="M24.85,42.33c-3.29-.08-5.98,2.63-5.99,5.94,0,3.31,2.67,6.02,5.97,5.96,3.46-.07,5.86-2.69,5.92-5.87,.06-2.99-2.16-5.94-5.91-6.04Z"/>
      <path class="cls-1" d="M45.46,42.34c-3.88,0-6.05,3.22-5.93,5.98,.01,3.32,2.71,6.01,6,5.92,3.21-.08,5.84-2.47,5.87-5.91,.03-3.38-2.55-5.99-5.94-5.98Z"/>
    </g>
  </g>
</svg>