<?xml version="1.0" encoding="utf-8"?>
<!-- Generator: Adobe Illustrator 26.5.0, SVG Export Plug-In . SVG Version: 6.00 Build 0)  -->
<svg version="1.1" id="_xF91C_迹_x5F_1" xmlns="http://www.w3.org/2000/svg" xmlns:xlink="http://www.w3.org/1999/xlink" x="0px"
	 y="0px" viewBox="0 0 2146 2800" style="enable-background:new 0 0 2146 2800;" xml:space="preserve">
<style type="text/css">
	.st0{fill:#1A1A1A;}
	.st1{fill:#FFFFFF;}
</style>
<g>
	<path class="st0" d="M2009.39,779.91l-153.77,1939.71c-3.58,45.38-41.47,80.38-86.99,80.38H377.38c-45.53,0-83.42-35-86.99-80.38
		L136.61,779.91c-2.98-37.8,26.88-70.16,64.82-70.16h1743.13C1982.51,709.75,2012.37,742.11,2009.39,779.91z"/>
	<path class="st1" d="M1070.18,2588.62h-0.04c-31.34,0-56.74-25.41-56.74-56.74V987.83c0-31.34,25.41-56.74,56.74-56.74h0.04
		c31.34,0,56.74,25.41,56.74,56.74v1544.04C1126.93,2563.21,1101.52,2588.62,1070.18,2588.62z"/>
	<path class="st1" d="M666.92,2586.06l-0.04,0c-31.24,2.46-58.56-20.87-61.02-52.12L484.71,994.67
		c-2.46-31.24,20.87-58.56,52.12-61.02l0.04,0c31.24-2.46,58.56,20.87,61.02,52.12l121.15,1539.28
		C721.5,2556.28,698.17,2583.6,666.92,2586.06z"/>
	<path class="st1" d="M1479.08,2586.06l0.04,0c31.24,2.46,58.56-20.87,61.02-52.12l121.15-1539.28
		c2.46-31.24-20.87-58.56-52.12-61.02l-0.04,0c-31.24-2.46-58.56,20.87-61.02,52.12l-121.15,1539.28
		C1424.5,2556.28,1447.83,2583.6,1479.08,2586.06z"/>
	<path class="st0" d="M2110.38,400.19c-21.91-21.91-52.2-35.48-85.63-35.48h-549.26C1455.48,160.27,1282.6,0,1073,0
		S690.52,160.27,670.51,364.71H121.25c-33.43,0-63.72,13.57-85.63,35.48C13.71,422.1,0.15,452.39,0.15,485.82
		c0,66.9,54.24,121.14,121.11,121.14h1903.49c66.87,0,121.11-54.24,121.11-121.14C2145.85,452.39,2132.29,422.1,2110.38,400.19z
		 M842.22,364.71c18.93-110.26,115.2-194.42,230.78-194.42s211.85,84.15,230.78,194.42H842.22z"/>
</g>
</svg>
