<?xml version="1.0" encoding="utf-8"?>
<!-- Generator: Adobe Illustrator 26.5.0, SVG Export Plug-In . SVG Version: 6.00 Build 0)  -->
<svg version="1.1" id="Layer_2" xmlns="http://www.w3.org/2000/svg" xmlns:xlink="http://www.w3.org/1999/xlink" x="0px" y="0px"
	 viewBox="0 0 401.81 324.87" style="enable-background:new 0 0 401.81 324.87;" xml:space="preserve">
<style type="text/css">
	.st0{fill:#FFFFFF;}
</style>
<path class="st0" d="M170.01,205.24c-1.41-4.38-3.17-8.59-5.27-12.56l10.2-21.38c-5.97-8.12-13.17-15.33-21.27-21.26l-21.38,10.2
	c-4-2.13-8.21-3.92-12.62-5.3l-7.92-22.3c-4.9-0.69-9.88-1.1-15.01-1.1c-5.1,0-10.11,0.4-15.04,1.1l-7.9,22.3
	c-4.38,1.38-8.58,3.17-12.59,5.3l-21.38-10.2c-8.12,5.93-15.3,13.14-21.26,21.26l10.14,21.38c-2.05,3.97-3.8,8.18-5.22,12.56
	l-22.3,7.95c-0.72,4.9-1.18,9.91-1.18,14.98c0,5.13,0.46,10.2,1.18,15.1l22.3,7.89c1.41,4.38,3.17,8.59,5.22,12.56l-10.14,21.38
	c5.96,8.12,13.14,15.33,21.26,21.26l21.38-10.14c4,2.07,8.21,3.86,12.59,5.25l7.9,22.24c4.93,0.75,9.94,1.15,15.04,1.15
	c5.13,0,10.12-0.41,15.01-1.15l7.92-22.24c4.41-1.38,8.62-3.17,12.59-5.25l21.41,10.14c8.1-5.93,15.3-13.14,21.27-21.26l-10.2-21.38
	c2.1-3.97,3.86-8.18,5.27-12.56l22.31-7.89c0.72-4.9,1.12-9.97,1.12-15.1c0-5.07-0.4-10.09-1.12-14.98L170.01,205.24z M96.74,264.6
	c-20.08,0-36.42-16.25-36.42-36.36c0-20.11,16.34-36.42,36.42-36.42c20.09,0,36.39,16.31,36.39,36.42
	C133.13,248.34,116.82,264.6,96.74,264.6z"/>
<path class="st0" d="M400.31,141.02c0.99-6.25,1.5-12.51,1.5-18.98c0-6.47-0.51-12.8-1.5-18.98l-28.14-10.04
	c-1.67-5.53-3.89-10.76-6.58-15.85l12.8-26.91c-7.46-10.33-16.5-19.41-26.83-26.91l-26.91,12.87c-5.08-2.69-10.36-4.95-15.89-6.62
	L298.72,1.47c-6.18-0.95-12.48-1.45-18.95-1.45c-6.43,0-12.8,0.51-18.94,1.45l-10.04,28.14c-5.53,1.67-10.79,3.93-15.85,6.62
	L208,23.36c-10.32,7.49-19.38,16.58-26.83,26.91l12.8,26.91c-2.69,5.09-4.9,10.33-6.58,15.85l-28.14,10.04
	c-0.98,6.18-1.49,12.51-1.49,18.98c0,6.47,0.51,12.72,1.49,18.98l28.14,9.96c1.68,5.53,3.89,10.83,6.58,15.92l-12.8,26.91
	c7.46,10.33,16.51,19.34,26.83,26.91l26.94-12.87c5.05,2.62,10.32,4.87,15.85,6.62l10.04,28.14c6.14,0.94,12.51,1.46,18.94,1.46
	c6.47,0,12.77-0.51,18.95-1.46l10.03-28.14c5.53-1.75,10.8-4,15.89-6.62l26.91,12.87c10.32-7.56,19.37-16.58,26.83-26.91
	l-12.8-26.91c2.66-5.09,4.91-10.4,6.58-15.92L400.31,141.02z M279.77,167.93c-25.34,0-45.96-20.51-45.96-45.88
	c0-25.38,20.62-45.96,45.96-45.96c25.35,0,45.93,20.58,45.93,45.96C325.7,147.42,305.12,167.93,279.77,167.93z"/>
</svg>
