<?xml version="1.0" encoding="utf-8"?>
<!-- Generator: Adobe Illustrator 26.5.0, SVG Export Plug-In . SVG Version: 6.00 Build 0)  -->
<svg version="1.1" id="격리_모드" xmlns="http://www.w3.org/2000/svg" xmlns:xlink="http://www.w3.org/1999/xlink" x="0px"
	 y="0px" viewBox="0 0 20 28.96" style="enable-background:new 0 0 20 28.96;" xml:space="preserve">
<style type="text/css">
	.st0{fill:#FFFFFF;}
</style>
<g>
	<rect x="6" y="23.46" class="st0" width="8" height="1.5"/>
	<path class="st0" d="M5.2,18.78c0.45,0.25,0.73,0.69,0.78,1.18H8v-9H7c-1.1,0-2-0.9-2-2s0.9-2,2-2s2,0.9,2,2v1h2v-1
		c0-1.1,0.9-2,2-2s2,0.9,2,2s-0.9,2-2,2h-1v9h2.02c0.05-0.49,0.33-0.94,0.78-1.19C18.01,17.01,20,13.65,20,10
		c0-2.73-1.08-5.27-3.03-7.17C15.01,0.93,12.43-0.07,9.7,0C4.59,0.15,0.24,4.43,0.01,9.54C-0.16,13.39,1.83,16.93,5.2,18.78z"/>
	<path class="st0" d="M7,7.96c-0.55,0-1,0.45-1,1s0.45,1,1,1h1v-1C8,8.41,7.55,7.96,7,7.96z"/>
	<rect x="6" y="20.96" class="st0" width="8" height="1.5"/>
	<path class="st0" d="M10,28.96c1.65,0,3-1.35,3-3H7C7,27.61,8.35,28.96,10,28.96z"/>
	<path class="st0" d="M14,8.96c0-0.55-0.45-1-1-1s-1,0.45-1,1v1h1C13.55,9.96,14,9.51,14,8.96z"/>
	<rect x="9" y="10.96" class="st0" width="2" height="9"/>
</g>
</svg>
