<?xml version="1.0" encoding="utf-8"?>
<!-- Generator: Adobe Illustrator 26.5.0, SVG Export Plug-In . SVG Version: 6.00 Build 0)  -->
<svg version="1.1" id="Layer_1" xmlns="http://www.w3.org/2000/svg" xmlns:xlink="http://www.w3.org/1999/xlink" x="0px" y="0px"
	 viewBox="0 0 800 800" style="enable-background:new 0 0 800 800; fill:#fff" xml:space="preserve">
<g>
	<path d="M613.92,360.08h49.92c8.83,0,15.99-7.16,15.99-15.99v-47.98c0-8.82-7.16-15.99-15.99-15.99h-49.92
		c-8.83,0-15.99,7.16-15.99,15.99v47.98C597.93,352.92,605.09,360.08,613.92,360.08z"/>
	<path d="M613.92,519.99h49.92c8.83,0,15.99-7.16,15.99-15.99v-47.98c0-8.82-7.16-15.99-15.99-15.99h-49.92
		c-8.83,0-15.99,7.16-15.99,15.99V504C597.93,512.82,605.09,519.99,613.92,519.99z"/>
	<path d="M759.78,80.25h-319.8V16c0-10.55-10.03-18.21-20.2-15.43L12.03,117c-6.96,1.89-11.79,8.22-11.79,15.42v535.25
		c0,7.2,4.83,13.53,11.79,15.42l407.76,116.34c10.17,2.77,20.2-4.88,20.2-15.43v-78.42h319.8c22.08,0,39.98-17.88,39.98-39.98
		V120.22C799.76,98.12,781.86,80.25,759.78,80.25z M350.75,494.34c14.13,16.98,11.85,42.2-5.11,56.33
		c-7.48,6.21-33.08,19.29-56.29-5.11l-69.24-83.09l-69.24,83.09c-23.2,25.03-48.82,11.32-56.29,5.11
		c-16.96-14.13-19.24-39.35-5.11-56.33l78.6-94.32l-78.6-94.32c-14.13-16.98-11.85-42.2,5.11-56.33
		c16.96-14.13,42.14-11.83,56.29,5.12l69.24,83.08l69.24-83.08c14.11-16.95,39.33-19.25,56.29-5.12
		c16.96,14.14,19.24,39.35,5.11,56.33l-78.6,94.32L350.75,494.34z M719.81,625.62H439.98V519.99h63.95
		c8.83,0,15.99-7.16,15.99-15.99v-47.98c0-8.82-7.16-15.99-15.99-15.99h-63.95v-79.95h63.95c8.83,0,15.99-7.16,15.99-15.99v-47.98
		c0-8.82-7.16-15.99-15.99-15.99h-63.95V160.2h279.83V625.62z"/>
</g>
</svg>
