<svg width="284" height="312" viewBox="0 0 284 312" fill="none" xmlns="http://www.w3.org/2000/svg">
<path d="M130.415 222.59C92.5273 216.795 64.1897 183.117 64.1897 143.488C64.1897 106.678 88.3 74.8801 122.9 66.2649L124.779 65.795V41.3594L121.96 41.9859C75.1489 51.5409 41.1758 94.3032 41.1758 143.488C41.1758 200.661 86.4213 247.026 142 247.026C148.263 247.026 153.429 241.7 153.429 235.278V66.2649C191.473 72.0606 219.654 105.581 219.654 145.368C219.654 182.178 195.387 213.975 160.631 222.747L158.752 223.217V243.893L159.379 247.339L161.727 246.869C208.695 237.314 242.669 194.552 242.669 145.368C242.669 88.1944 197.423 41.6726 141.844 41.6726C135.425 41.6726 130.415 46.8417 130.415 53.5772V222.434V222.59Z" fill="white" fill-opacity="0.05"/>
<path d="M284 145.517C284 68.1379 225.447 5.16908 151.55 0V26.3153C211.356 31.3278 258.481 82.862 258.481 145.674C258.481 208.486 211.356 260.02 151.55 265.033C148.419 265.346 145.288 265.503 142 265.503C138.712 265.503 135.581 265.346 132.45 265.033C72.6438 260.02 25.5194 208.486 25.5194 145.674C25.5194 82.862 72.6438 31.4844 132.45 26.3153V0C58.5534 5.16908 0 68.1379 0 145.517C0 211.306 42.2713 266.913 100.355 285.239H6.57526V311.555H277.425V285.239H183.645C241.729 266.913 284 211.306 284 145.517Z" fill="white" fill-opacity="0.05"/>
</svg>
