<svg width="210" height="36" viewBox="0 0 210 36" fill="none" xmlns="http://www.w3.org/2000/svg">
<path d="M40.1953 11.4151H47.6342V13.569H44.8512V24.0237H42.9784V13.569H40.1953V11.4151ZM50.3647 24.0237H48.5093V11.4151H50.3122V16.2309H50.3822C50.6972 15.1276 51.3799 14.4446 52.4126 14.4446C53.8303 14.4446 54.7755 15.7755 54.7755 17.9996V24.0237H52.9202V18.4549C52.9202 17.2816 52.4651 16.5986 51.6949 16.5986C50.9248 16.5986 50.3647 17.3166 50.3647 18.5599V24.0237ZM55.6857 19.3305C55.6857 16.406 56.9809 14.4271 58.9763 14.4271C60.7791 14.4271 62.1793 16.0032 62.1793 19.2254V19.9609H57.5235C57.5235 21.3969 58.1361 22.2725 59.0988 22.2725C59.7289 22.2725 60.184 21.8872 60.359 21.3093H62.1268C61.8643 23.0605 60.7266 24.1988 59.0463 24.1988C56.9634 24.1988 55.6857 22.325 55.6857 19.3305ZM60.4115 18.3323C60.4115 17.1765 59.8339 16.3709 59.0112 16.3709C58.1886 16.3709 57.5585 17.2465 57.5235 18.3323H60.429H60.4115ZM65.8025 11.3975H69.3732C71.4385 11.3975 72.6287 13.1487 72.6287 15.653C72.6287 18.1572 71.421 19.9084 69.3207 19.9084H67.6929V24.0237H65.8025V11.4151V11.3975ZM69.0231 17.7894C70.1433 17.7894 70.6859 16.9138 70.6859 15.653C70.6859 14.3921 70.1433 13.5515 69.0231 13.5515H67.6929V17.8069H69.0231V17.7894ZM73.1363 19.313C73.1363 16.3885 74.4141 14.4271 76.4795 14.4271C78.5448 14.4271 79.8401 16.3885 79.8401 19.313C79.8401 22.2375 78.5448 24.1988 76.4795 24.1988C74.4141 24.1988 73.1363 22.2375 73.1363 19.313ZM77.9322 19.313C77.9322 17.6318 77.4421 16.406 76.4795 16.406C75.5168 16.406 75.0092 17.6493 75.0092 19.313C75.0092 20.9766 75.5168 22.2024 76.4795 22.2024C77.4421 22.2024 77.9322 20.9591 77.9322 19.313ZM82.5881 24.0237H80.7327V11.4151H82.5881V24.0237ZM83.9183 27.5261V25.5297C84.1634 25.5472 84.4259 25.5647 84.6709 25.5647C85.0385 25.5647 85.3361 25.5122 85.5636 24.6891L85.6686 24.2864L83.2182 14.5672H85.161L86.5963 21.537H86.6663L88.1016 14.5672H90.0794L87.419 25.0744C87.0339 26.5804 86.2812 27.5786 84.846 27.5786C84.4784 27.5786 84.1458 27.5786 83.9008 27.5261M90.7271 14.5672H92.4949V16.2133H92.5649C92.8624 15.1101 93.5451 14.4271 94.4552 14.4271C95.3654 14.4271 96.083 15.1101 96.3106 16.2133H96.3806C96.6606 15.1276 97.4308 14.4271 98.4459 14.4271C99.7062 14.4271 100.599 15.6004 100.599 17.6493V24.0062H98.7435V18.1572C98.7435 17.0714 98.2885 16.5636 97.6758 16.5636C96.9757 16.5636 96.5731 17.2465 96.5731 18.2447V24.0237H94.7703V18.1046C94.7703 17.159 94.3502 16.5636 93.7201 16.5636C93.09 16.5636 92.5999 17.2641 92.5999 18.3323V24.0062H90.7445V14.5497L90.7271 14.5672ZM101.492 19.348C101.492 16.4235 102.787 14.4446 104.782 14.4446C106.585 14.4446 107.985 16.0207 107.985 19.2429V19.9784H103.329C103.329 21.4144 103.942 22.29 104.905 22.29C105.535 22.29 105.99 21.9047 106.165 21.3268H107.933C107.67 23.078 106.55 24.2163 104.852 24.2163C102.769 24.2163 101.492 22.3425 101.492 19.348ZM106.217 18.3498C106.217 17.194 105.64 16.3885 104.817 16.3885C103.994 16.3885 103.364 17.2641 103.329 18.3498H106.235H106.217ZM108.878 14.5672H110.681V16.1958H110.751C110.996 15.0225 111.626 14.4271 112.396 14.4271C112.589 14.4271 112.816 14.4621 112.991 14.5147V16.8087C112.816 16.7387 112.466 16.6687 112.203 16.6687C111.363 16.6687 110.751 17.4917 110.751 18.63V24.0062H108.895V14.5497L108.878 14.5672ZM119.73 13.4289C118.785 13.4289 118.242 14.0419 118.242 14.8824C118.242 15.7931 118.925 16.2133 119.695 16.441L120.518 16.7212C122.075 17.2115 123.248 18.2973 123.248 20.4162C123.248 22.7278 121.935 24.1988 119.73 24.1988C117.524 24.1988 116.124 22.7803 116.072 20.0835H117.91C117.98 21.3619 118.697 21.9923 119.712 21.9923C120.728 21.9923 121.34 21.3443 121.34 20.3987C121.34 19.5406 120.78 19.1554 119.782 18.7876L118.785 18.4549C117.262 17.9295 116.317 16.8788 116.317 15.0225C116.317 12.7285 117.77 11.2049 119.765 11.2049C121.76 11.2049 123.108 12.746 123.125 14.9875H121.323C121.253 13.9893 120.675 13.4114 119.747 13.4114M123.913 19.2955C123.913 16.371 125.191 14.4096 127.256 14.4096C129.322 14.4096 130.599 16.371 130.599 19.2955C130.599 22.22 129.304 24.1813 127.256 24.1813C125.208 24.1813 123.913 22.22 123.913 19.2955ZM128.709 19.2955C128.709 17.6143 128.219 16.3885 127.256 16.3885C126.294 16.3885 125.786 17.6318 125.786 19.2955C125.786 20.9591 126.294 22.1849 127.256 22.1849C128.219 22.1849 128.709 20.9416 128.709 19.2955ZM131.229 19.2955C131.229 16.406 132.49 14.4096 134.573 14.4096C136.323 14.4096 137.531 15.8456 137.601 17.9996H135.85C135.745 17.0539 135.29 16.406 134.59 16.406C133.697 16.406 133.102 17.4567 133.102 19.2429C133.102 21.0291 133.68 22.1149 134.59 22.1149C135.238 22.1149 135.728 21.5545 135.85 20.5388H137.601C137.513 22.6753 136.375 24.1638 134.573 24.1638C132.49 24.1638 131.229 22.1674 131.229 19.2779M138.388 11.9754C138.388 11.2399 138.843 10.6445 139.403 10.6445C139.964 10.6445 140.401 11.2399 140.401 11.9754C140.401 12.7109 139.946 13.2888 139.403 13.2888C138.861 13.2888 138.388 12.6934 138.388 11.9754ZM138.476 14.5147H140.331V23.9711H138.476V14.5147ZM141.241 19.2955C141.241 16.371 142.537 14.3921 144.532 14.3921C146.335 14.3921 147.735 15.9682 147.735 19.1904V19.9259H143.079C143.079 21.3619 143.692 22.2375 144.654 22.2375C145.285 22.2375 145.74 21.8522 145.915 21.2743H147.682C147.42 23.0255 146.282 24.1638 144.602 24.1638C142.519 24.1638 141.241 22.29 141.241 19.2955ZM145.967 18.2973C145.967 17.1415 145.39 16.3359 144.567 16.3359C143.744 16.3359 143.114 17.2115 143.079 18.2973H145.985H145.967ZM152.216 16.4585H150.938V21.0817C150.938 21.8347 151.201 22.0273 151.586 22.0448C151.778 22.0448 152.093 22.0448 152.321 21.9923V24.0237C152.128 24.0762 151.796 24.1112 151.323 24.1112C149.975 24.1112 149.065 23.2707 149.083 21.4494V16.476H148.138V14.5497H149.083V12.2907H150.938V14.5497H152.216V16.476V16.4585ZM153.266 27.4911V25.4947C153.511 25.5122 153.774 25.5297 154.019 25.5297C154.386 25.5297 154.684 25.4772 154.911 24.6541L155.016 24.2513L152.566 14.5322H154.509L155.944 21.502H156.014L157.449 14.5322H159.427L156.767 25.0394C156.382 26.5454 155.629 27.5436 154.194 27.5436C153.826 27.5436 153.494 27.5436 153.248 27.4911M162.49 19.2779C162.49 16.3534 163.768 14.3921 165.833 14.3921C167.899 14.3921 169.176 16.3534 169.176 19.2779C169.176 22.2024 167.881 24.1638 165.833 24.1638C163.785 24.1638 162.49 22.2024 162.49 19.2779ZM167.286 19.2779C167.286 17.5968 166.796 16.3709 165.851 16.3709C164.906 16.3709 164.381 17.6143 164.381 19.2779C164.381 20.9416 164.888 22.1674 165.851 22.1674C166.813 22.1674 167.286 20.9241 167.286 19.2779ZM173.71 16.4585H172.362V23.9887H170.507V16.4585H169.544V14.5322H170.507V13.8142C170.507 11.8353 171.382 10.7846 172.747 10.7846C173.167 10.7846 173.517 10.8372 173.85 10.9422V12.9036C173.587 12.8686 173.395 12.851 173.29 12.851C172.695 12.851 172.379 13.1838 172.379 13.9718V14.5497H173.727V16.476L173.71 16.4585ZM177.28 11.3625H179.171V16.9488H179.293L182.601 11.3625H184.877L181.481 17.0014L184.912 23.9711H182.654L180.133 18.7526L179.171 20.3637V23.9711H177.28V11.3625ZM184.737 19.2779C184.737 16.3534 186.014 14.3921 188.08 14.3921C190.145 14.3921 191.423 16.3534 191.423 19.2779C191.423 22.2024 190.128 24.1638 188.08 24.1638C186.032 24.1638 184.737 22.2024 184.737 19.2779ZM189.533 19.2779C189.533 17.5968 189.043 16.3709 188.08 16.3709C187.117 16.3709 186.61 17.6143 186.61 19.2779C186.61 20.9416 187.117 22.1674 188.08 22.1674C189.043 22.1674 189.533 20.9241 189.533 19.2779ZM192.333 14.5147H194.136V16.1433H194.206C194.451 14.97 195.081 14.3746 195.851 14.3746C196.044 14.3746 196.271 14.4096 196.446 14.4621V16.7562C196.271 16.6862 195.921 16.6161 195.659 16.6161C194.819 16.6161 194.206 17.4392 194.206 18.5775V23.9536H192.351V14.4972L192.333 14.5147ZM196.586 19.2955C196.586 16.371 197.882 14.3921 199.877 14.3921C201.68 14.3921 203.08 15.9682 203.08 19.1904V19.9259H198.424C198.424 21.3619 199.037 22.2375 200 22.2375C200.63 22.2375 201.085 21.8522 201.26 21.2743H203.028C202.765 23.0255 201.627 24.1638 199.947 24.1638C197.864 24.1638 196.586 22.29 196.586 19.2955ZM201.312 18.2973C201.312 17.1415 200.735 16.3359 199.912 16.3359C199.089 16.3359 198.459 17.2115 198.424 18.2973H201.33H201.312ZM206.178 18.4199C206.668 18.3848 207.578 18.3148 207.876 18.2973V17.5267C207.876 16.7387 207.473 16.2659 206.791 16.2659C206.161 16.2659 205.758 16.6687 205.653 17.3166H203.885C203.99 15.6705 205.023 14.3921 206.843 14.3921C208.331 14.3921 209.731 15.3202 209.731 17.5968V23.9711H207.981V22.6577H207.928C207.596 23.5333 206.948 24.1463 205.933 24.1463C204.62 24.1463 203.658 23.2006 203.658 21.3268C203.658 19.2254 204.883 18.5249 206.196 18.4199M206.458 22.3776C207.298 22.3776 207.911 21.5895 207.893 20.5913V19.8909C207.613 19.9084 206.826 19.9609 206.493 20.0134C205.846 20.101 205.443 20.5213 205.443 21.2568C205.443 21.9923 205.863 22.3776 206.458 22.3776Z" fill="#999999"/>
<path d="M15.3284 25.7086C11.0926 25.0607 7.92448 21.2956 7.92448 16.8651C7.92448 12.7498 10.62 9.19483 14.4882 8.23167L14.6983 8.17913V5.44727L14.3832 5.51731C9.14971 6.58554 5.35156 11.3663 5.35156 16.8651C5.35156 23.2569 10.4099 28.4405 16.6236 28.4405C17.3237 28.4405 17.9013 27.8451 17.9013 27.1271V8.23167C22.1546 8.87961 25.3052 12.6272 25.3052 17.0752C25.3052 21.1905 22.5922 24.7455 18.7065 25.7261L18.4964 25.7787V28.0902L18.5665 28.4755L18.829 28.423C24.0799 27.3547 27.8782 22.574 27.8782 17.0752C27.8782 10.6833 22.8197 5.48228 16.6061 5.48228C15.8885 5.48228 15.3284 6.06018 15.3284 6.8132V25.6911V25.7086Z" fill="#999999"/>
<path d="M32.4969 17.0909C32.4969 8.43998 25.9507 1.40016 17.6892 0.822266V3.76428C24.3754 4.32466 29.6438 10.0861 29.6438 17.1084C29.6438 24.1307 24.3754 29.8921 17.6892 30.4525C17.3391 30.4876 16.989 30.5051 16.6214 30.5051C16.2539 30.5051 15.9038 30.4876 15.5538 30.4525C8.86756 29.8921 3.59912 24.1307 3.59912 17.1084C3.59912 10.0861 8.86756 4.34217 15.5538 3.76428V0.822266C7.29227 1.40016 0.746094 8.43998 0.746094 17.0909C0.746094 24.4459 5.47196 30.6627 11.9656 32.7116H1.4812V35.6536H31.7618V32.7116H21.2773C27.771 30.6627 32.4969 24.4459 32.4969 17.0909Z" fill="#999999"/>
</svg>
