<svg width="360" height="60" viewBox="0 0 360 60" fill="none" xmlns="http://www.w3.org/2000/svg">
<path d="M67.957 18.2492H80.7711V21.9596H75.9771V39.9686H72.7511V21.9596H67.957V18.2492ZM85.4746 39.9686H82.2787V18.2492H85.3842V26.5448H85.5048C86.0475 24.6444 87.2234 23.4679 89.0023 23.4679C91.4445 23.4679 93.0727 25.7605 93.0727 29.5916V39.9686H89.8767V30.3759C89.8767 28.3548 89.0927 27.1783 87.7661 27.1783C86.4395 27.1783 85.4746 28.4151 85.4746 30.5569V39.9686ZM94.6405 31.8842C94.6405 26.8465 96.8717 23.4377 100.309 23.4377C103.414 23.4377 105.826 26.1526 105.826 31.7032V32.9701H97.8064C97.8064 35.4437 98.8616 36.952 100.52 36.952C101.605 36.952 102.389 36.2884 102.691 35.2929H105.736C105.284 38.3095 103.324 40.2703 100.429 40.2703C96.8415 40.2703 94.6405 37.0425 94.6405 31.8842ZM102.781 30.1647C102.781 28.1738 101.786 26.7861 100.369 26.7861C98.952 26.7861 97.8667 28.2944 97.8064 30.1647H102.811H102.781ZM112.068 18.219H118.218C121.776 18.219 123.826 21.2356 123.826 25.5493C123.826 29.8631 121.746 32.8796 118.128 32.8796H115.324V39.9686H112.068V18.2492V18.219ZM117.615 29.2296C119.545 29.2296 120.48 27.7213 120.48 25.5493C120.48 23.3774 119.545 21.9294 117.615 21.9294H115.324V29.2597H117.615V29.2296ZM124.701 31.854C124.701 26.8163 126.902 23.4377 130.46 23.4377C134.017 23.4377 136.249 26.8163 136.249 31.854C136.249 36.8917 134.017 40.2703 130.46 40.2703C126.902 40.2703 124.701 36.8917 124.701 31.854ZM132.962 31.854C132.962 28.9581 132.118 26.8465 130.46 26.8465C128.801 26.8465 127.927 28.9882 127.927 31.854C127.927 34.7198 128.801 36.8314 130.46 36.8314C132.118 36.8314 132.962 34.6896 132.962 31.854ZM140.982 39.9686H137.786V18.2492H140.982V39.9686ZM143.274 46.0018V42.5629C143.696 42.5931 144.148 42.6232 144.57 42.6232C145.203 42.6232 145.716 42.5327 146.108 41.1149L146.289 40.4211L142.068 23.679H145.414L147.887 35.6851H148.007L150.48 23.679H153.887L149.304 41.7786C148.641 44.3729 147.344 46.0923 144.872 46.0923C144.239 46.0923 143.666 46.0923 143.244 46.0018M155.002 23.679H158.048V26.5146H158.168C158.681 24.6142 159.857 23.4377 161.424 23.4377C162.992 23.4377 164.228 24.6142 164.62 26.5146H164.741C165.223 24.6443 166.55 23.4377 168.299 23.4377C170.47 23.4377 172.007 25.4588 172.007 28.9882V39.9385H168.811V29.8631C168.811 27.9928 168.028 27.118 166.972 27.118C165.766 27.118 165.073 28.2944 165.073 30.0139V39.9686H161.967V29.7726C161.967 28.1436 161.244 27.118 160.158 27.118C159.073 27.118 158.228 28.3246 158.228 30.1647V39.9385H155.032V23.6489L155.002 23.679ZM173.545 31.9143C173.545 26.8766 175.776 23.4679 179.213 23.4679C182.319 23.4679 184.731 26.1828 184.731 31.7333V33.0003H176.711C176.711 35.4739 177.766 36.9822 179.424 36.9822C180.51 36.9822 181.294 36.3186 181.595 35.3231H184.641C184.188 38.3397 182.259 40.3005 179.334 40.3005C175.746 40.3005 173.545 37.0727 173.545 31.9143ZM181.686 30.1949C181.686 28.2039 180.691 26.8163 179.274 26.8163C177.857 26.8163 176.771 28.3246 176.711 30.1949H181.716H181.686ZM186.269 23.679H189.374V26.4845H189.495C189.917 24.4634 191.002 23.4377 192.329 23.4377C192.661 23.4377 193.053 23.498 193.354 23.5885V27.5403C193.053 27.4196 192.45 27.299 191.997 27.299C190.55 27.299 189.495 28.7167 189.495 30.6775V39.9385H186.299V23.6489L186.269 23.679ZM204.962 21.7183C203.334 21.7183 202.399 22.7741 202.399 24.222C202.399 25.7907 203.575 26.5146 204.902 26.9068L206.319 27.3894C209.002 28.2341 211.023 30.1044 211.023 33.7545C211.023 37.7364 208.761 40.2703 204.962 40.2703C201.163 40.2703 198.751 37.8268 198.661 33.1813H201.827C201.947 35.3834 203.183 36.4694 204.932 36.4694C206.681 36.4694 207.736 35.3532 207.736 33.7243C207.736 32.2462 206.771 31.5825 205.053 30.949L203.334 30.3759C200.711 29.4709 199.083 27.6609 199.083 24.4634C199.083 20.5116 201.585 17.8872 205.023 17.8872C208.46 17.8872 210.781 20.5418 210.811 24.403H207.706C207.585 22.6836 206.59 21.6881 204.992 21.6881M212.168 31.8238C212.168 26.7861 214.369 23.4075 217.927 23.4075C221.485 23.4075 223.686 26.7861 223.686 31.8238C223.686 36.8615 221.455 40.2401 217.927 40.2401C214.399 40.2401 212.168 36.8615 212.168 31.8238ZM220.43 31.8238C220.43 28.9279 219.585 26.8163 217.927 26.8163C216.269 26.8163 215.394 28.9581 215.394 31.8238C215.394 34.6896 216.269 36.8012 217.927 36.8012C219.585 36.8012 220.43 34.6594 220.43 31.8238ZM224.771 31.8238C224.771 26.8465 226.942 23.4075 230.53 23.4075C233.545 23.4075 235.626 25.8812 235.746 29.5916H232.731C232.55 27.9626 231.766 26.8465 230.56 26.8465C229.023 26.8465 227.997 28.6564 227.997 31.7333C227.997 34.8103 228.992 36.6805 230.56 36.6805C231.676 36.6805 232.52 35.7152 232.731 33.9656H235.746C235.595 37.6459 233.636 40.21 230.53 40.21C226.942 40.21 224.771 36.771 224.771 31.7937M237.103 19.2145C237.103 17.9475 237.887 16.9219 238.852 16.9219C239.817 16.9219 240.57 17.9475 240.57 19.2145C240.57 20.4815 239.786 21.4769 238.852 21.4769C237.917 21.4769 237.103 20.4513 237.103 19.2145ZM237.254 23.5885H240.45V39.8781H237.254V23.5885ZM242.018 31.8238C242.018 26.7861 244.249 23.3774 247.686 23.3774C250.791 23.3774 253.203 26.0923 253.203 31.6428V32.9098H245.183C245.183 35.3834 246.239 36.8917 247.897 36.8917C248.982 36.8917 249.766 36.2281 250.068 35.2326H253.113C252.661 38.2492 250.701 40.21 247.807 40.21C244.219 40.21 242.018 36.9822 242.018 31.8238ZM250.158 30.1044C250.158 28.1134 249.163 26.7258 247.746 26.7258C246.329 26.7258 245.244 28.2341 245.183 30.1044H250.188H250.158ZM260.922 26.937H258.721V34.9008C258.721 36.1979 259.173 36.5297 259.837 36.5599C260.168 36.5599 260.711 36.5599 261.103 36.4694V39.9686C260.771 40.0591 260.198 40.1195 259.384 40.1195C257.063 40.1195 255.495 38.6715 255.525 35.5342V26.9671H253.897V23.6489H255.525V19.7575H258.721V23.6489H260.922V26.9671V26.937ZM262.731 45.9415V42.5026C263.153 42.5327 263.605 42.5629 264.028 42.5629C264.661 42.5629 265.173 42.4724 265.565 41.0546L265.746 40.3608L261.525 23.6187H264.872L267.344 35.6247H267.465L269.937 23.6187H273.344L268.761 41.7183C268.098 44.3125 266.801 46.032 264.329 46.032C263.696 46.032 263.123 46.032 262.701 45.9415M278.621 31.7937C278.621 26.756 280.822 23.3774 284.379 23.3774C287.937 23.3774 290.138 26.756 290.138 31.7937C290.138 36.8314 287.907 40.21 284.379 40.21C280.852 40.21 278.621 36.8314 278.621 31.7937ZM286.882 31.7937C286.882 28.8977 286.038 26.7861 284.41 26.7861C282.781 26.7861 281.877 28.9279 281.877 31.7937C281.877 34.6594 282.751 36.771 284.41 36.771C286.068 36.771 286.882 34.6293 286.882 31.7937ZM297.947 26.937H295.626V39.9083H292.43V26.937H290.771V23.6187H292.43V22.3819C292.43 18.9732 293.937 17.1632 296.289 17.1632C297.013 17.1632 297.616 17.2537 298.188 17.4347V20.8133C297.736 20.7529 297.404 20.7228 297.224 20.7228C296.198 20.7228 295.656 21.2959 295.656 22.6534V23.6489H297.977V26.9671L297.947 26.937ZM304.098 18.1587H307.354V27.7816H307.565L313.264 18.1587H317.183L311.334 27.8721L317.244 39.8781H313.354L309.013 30.8887L307.354 33.664V39.8781H304.098V18.1587ZM316.942 31.7937C316.942 26.756 319.143 23.3774 322.701 23.3774C326.259 23.3774 328.46 26.756 328.46 31.7937C328.46 36.8314 326.229 40.21 322.701 40.21C319.173 40.21 316.942 36.8314 316.942 31.7937ZM325.203 31.7937C325.203 28.8977 324.359 26.7861 322.701 26.7861C321.043 26.7861 320.168 28.9279 320.168 31.7937C320.168 34.6594 321.043 36.771 322.701 36.771C324.359 36.771 325.203 34.6293 325.203 31.7937ZM330.028 23.5885H333.133V26.394H333.254C333.676 24.3729 334.761 23.3472 336.088 23.3472C336.42 23.3472 336.812 23.4075 337.113 23.498V27.4498C336.812 27.3291 336.209 27.2084 335.756 27.2084C334.309 27.2084 333.254 28.6263 333.254 30.587V39.848H330.058V23.5584L330.028 23.5885ZM337.354 31.8238C337.354 26.7861 339.585 23.3774 343.023 23.3774C346.128 23.3774 348.54 26.0923 348.54 31.6428V32.9098H340.52C340.52 35.3834 341.575 36.8917 343.234 36.8917C344.319 36.8917 345.103 36.2281 345.405 35.2326H348.45C347.998 38.2492 346.038 40.21 343.143 40.21C339.555 40.21 337.354 36.9822 337.354 31.8238ZM345.495 30.1044C345.495 28.1134 344.5 26.7258 343.083 26.7258C341.666 26.7258 340.58 28.2341 340.52 30.1044H345.525H345.495ZM353.877 30.3155C354.721 30.2552 356.289 30.1346 356.801 30.1044V28.7771C356.801 27.4196 356.108 26.6051 354.932 26.6051C353.847 26.6051 353.153 27.299 352.972 28.4151H349.927C350.108 25.5795 351.887 23.3774 355.023 23.3774C357.585 23.3774 359.997 24.9762 359.997 28.8977V39.8781H356.982V37.6157H356.892C356.319 39.124 355.204 40.1798 353.455 40.1798C351.193 40.1798 349.535 38.5508 349.535 35.3231C349.535 31.7032 351.646 30.4965 353.907 30.3155M354.359 37.133C355.806 37.133 356.862 35.7756 356.832 34.0561V32.8495C356.349 32.8796 354.992 32.9701 354.42 33.0606C353.304 33.2115 352.611 33.9355 352.611 35.2024C352.611 36.4694 353.334 37.133 354.359 37.133Z" fill="white"/>
<path d="M25.1156 42.8668C17.8191 41.7507 12.3618 35.265 12.3618 27.633C12.3618 20.544 17.005 14.4203 23.6683 12.7612L24.0302 12.6707V7.96484L23.4874 8.0855C14.4723 9.92562 7.92969 18.1609 7.92969 27.633C7.92969 38.6436 16.6432 47.5727 27.3467 47.5727C28.5527 47.5727 29.5477 46.547 29.5477 45.3102V12.7612C36.8744 13.8774 42.3016 20.3329 42.3016 27.995C42.3016 35.084 37.6281 41.2077 30.9347 42.897L30.5729 42.9875V46.9694L30.6935 47.633L31.1457 47.5425C40.191 45.7024 46.7337 37.4671 46.7337 27.995C46.7337 16.9844 38.0201 8.02517 27.3166 8.02517C26.0804 8.02517 25.1156 9.02065 25.1156 10.3178V42.8366V42.8668Z" fill="white"/>
<path d="M54.6935 28.0241C54.6935 13.1222 43.4171 0.995475 29.1859 0V5.06787C40.7035 6.03318 49.7789 15.9578 49.7789 28.0543C49.7789 40.1508 40.7035 50.0754 29.1859 51.0407C28.5829 51.1011 27.9799 51.1312 27.3467 51.1312C26.7135 51.1312 26.1105 51.1011 25.5075 51.0407C13.9899 50.0754 4.91459 40.1508 4.91459 28.0543C4.91459 15.9578 13.9899 6.06335 25.5075 5.06787V0C11.2764 0.995475 0 13.1222 0 28.0241C0 40.6938 8.14072 51.4027 19.3267 54.9321H1.26628V60H53.4272V54.9321H35.3668C46.5527 51.4027 54.6935 40.6938 54.6935 28.0241Z" fill="white"/>
</svg>
