<svg width="1636" height="163" viewBox="0 0 1636 163" fill="none" xmlns="http://www.w3.org/2000/svg">
<path d="M0 7.41679H71.784V28.15H44.9284V128.782H26.8561V28.15H0V7.41679ZM98.1329 128.782H80.2292V7.41679H97.6263V53.7715H98.302C101.342 43.1521 107.93 36.5781 117.895 36.5781C131.576 36.5781 140.697 49.3888 140.697 70.7963V128.782H122.793V75.1789C122.793 63.8852 118.402 57.3113 110.97 57.3113C103.538 57.3113 98.1329 64.2223 98.1329 76.1903V128.782ZM149.48 83.607C149.48 55.4571 161.979 36.4095 181.234 36.4095C198.631 36.4095 212.143 51.5802 212.143 82.5957V89.6753H167.215C167.215 103.497 173.126 111.926 182.416 111.926C188.497 111.926 192.888 108.217 194.577 102.655H211.636C209.103 119.511 198.124 130.467 181.909 130.467C161.81 130.467 149.48 112.431 149.48 83.607ZM195.084 73.9989C195.084 62.8738 189.51 55.12 181.571 55.12C173.633 55.12 167.553 63.5481 167.215 73.9989H195.253H195.084ZM247.106 7.24819H281.563C301.493 7.24819 312.978 24.1045 312.978 48.2089C312.978 72.3133 301.324 89.1696 281.056 89.1696H265.348V128.782H247.106V7.41679V7.24819ZM278.184 68.7735C288.994 68.7735 294.23 60.3454 294.23 48.2089C294.23 36.0724 288.994 27.9814 278.184 27.9814H265.348V68.9421H278.184V68.7735ZM317.877 83.4385C317.877 55.2885 330.207 36.4095 350.137 36.4095C370.068 36.4095 382.567 55.2885 382.567 83.4385C382.567 111.588 370.068 130.467 350.137 130.467C330.207 130.467 317.877 111.588 317.877 83.4385ZM364.156 83.4385C364.156 67.2565 359.427 55.4571 350.137 55.4571C340.848 55.4571 335.949 67.425 335.949 83.4385C335.949 99.4519 340.848 111.251 350.137 111.251C359.427 111.251 364.156 99.2833 364.156 83.4385ZM409.085 128.782H391.181V7.41679H409.085V128.782ZM421.921 162.494V143.278C424.286 143.447 426.819 143.615 429.184 143.615C432.731 143.615 435.603 143.11 437.798 135.187L438.812 131.31L415.165 37.758H433.913L447.764 104.846H448.439L462.29 37.758H481.375L455.702 138.896C451.986 153.392 444.723 163 430.873 163C427.326 163 424.117 163 421.752 162.494M487.625 37.758H504.684V53.6029H505.36C508.231 42.9835 514.818 36.4095 523.601 36.4095C532.384 36.4095 539.309 42.9835 541.505 53.6029H542.181C544.883 43.152 552.315 36.4095 562.111 36.4095C574.272 36.4095 582.886 47.7032 582.886 67.425V128.613H564.983V72.3133C564.983 61.8625 560.591 56.9742 554.68 56.9742C547.924 56.9742 544.039 63.5481 544.039 73.1561V128.782H526.642V71.8077C526.642 62.7053 522.588 56.9742 516.507 56.9742C510.427 56.9742 505.697 63.7166 505.697 73.9989V128.613H487.794V37.5894L487.625 37.758ZM591.501 83.7756C591.501 55.6257 604 36.5781 623.255 36.5781C640.652 36.5781 654.164 51.7487 654.164 82.7642V89.8439H609.235C609.235 103.666 615.147 112.094 624.437 112.094C630.517 112.094 634.909 108.386 636.598 102.823H653.657C651.124 119.679 640.314 130.636 623.93 130.636C603.83 130.636 591.501 112.6 591.501 83.7756ZM637.104 74.1675C637.104 63.0424 631.531 55.2886 623.592 55.2886C615.654 55.2886 609.573 63.7167 609.235 74.1675H637.273H637.104ZM662.778 37.758H680.175V53.4344H680.85C683.215 42.1407 689.296 36.4095 696.727 36.4095C698.585 36.4095 700.781 36.7466 702.47 37.2523V59.334C700.781 58.6598 697.403 57.9856 694.87 57.9856C686.762 57.9856 680.85 65.908 680.85 76.8645V128.613H662.947V37.5894L662.778 37.758ZM767.498 26.8014C758.377 26.8014 753.142 32.7012 753.142 40.7922C753.142 49.5574 759.729 53.6029 767.16 55.7942L775.099 58.4912C790.131 63.211 801.448 73.6619 801.448 94.0579C801.448 116.308 788.78 130.467 767.498 130.467C746.216 130.467 732.704 116.814 732.197 90.8552H749.932C750.608 103.16 757.533 109.229 767.329 109.229C777.126 109.229 783.037 102.992 783.037 93.8893C783.037 85.6298 777.632 81.9214 768.005 78.3816L758.378 75.1789C743.683 70.122 734.562 60.0083 734.562 42.1406C734.562 20.0589 748.581 5.394 767.836 5.394C787.091 5.394 800.096 20.2275 800.265 41.8035H782.868C782.193 32.1954 776.619 26.6329 767.667 26.6329M807.866 83.2699C807.866 55.12 820.196 36.241 840.127 36.241C860.057 36.241 872.387 55.12 872.387 83.2699C872.387 111.42 859.889 130.299 840.127 130.299C820.365 130.299 807.866 111.42 807.866 83.2699ZM854.146 83.2699C854.146 67.0879 849.416 55.2886 840.127 55.2886C830.837 55.2886 825.939 67.2565 825.939 83.2699C825.939 99.2834 830.837 111.083 840.127 111.083C849.416 111.083 854.146 99.1148 854.146 83.2699ZM878.468 83.2699C878.468 55.4571 890.629 36.241 910.728 36.241C927.619 36.241 939.273 50.0631 939.949 70.7963H923.059C922.045 61.6939 917.654 55.4571 910.897 55.4571C902.283 55.4571 896.541 65.5708 896.541 82.7642C896.541 99.9576 902.114 110.408 910.897 110.408C917.147 110.408 921.876 105.014 923.059 95.2379H939.949C939.104 115.802 928.125 130.13 910.728 130.13C890.629 130.13 878.468 110.914 878.468 83.1013M947.549 12.8108C947.549 5.73116 951.941 0 957.346 0C962.751 0 966.973 5.73116 966.973 12.8108C966.973 19.8904 962.582 25.453 957.346 25.453C952.11 25.453 947.549 19.7219 947.549 12.8108ZM948.394 37.2523H966.298V128.276H948.394V37.2523ZM975.081 83.2699C975.081 55.12 987.58 36.0724 1006.83 36.0724C1024.23 36.0724 1037.74 51.243 1037.74 82.2585V89.3381H992.815C992.815 103.16 998.727 111.588 1008.02 111.588C1014.1 111.588 1018.49 107.88 1020.18 102.317H1037.24C1034.7 119.174 1023.73 130.13 1007.51 130.13C987.411 130.13 975.081 112.094 975.081 83.2699ZM1020.68 73.6619C1020.68 62.5367 1015.11 54.7828 1007.17 54.7828C999.234 54.7828 993.153 63.211 992.815 73.6619H1020.85H1020.68ZM1080.98 55.9628H1068.65V100.463C1068.65 107.711 1071.19 109.566 1074.9 109.734C1076.76 109.734 1079.8 109.734 1082 109.229V128.782C1080.14 129.287 1076.93 129.625 1072.37 129.625C1059.36 129.625 1050.58 121.534 1050.75 104.003V56.1314H1041.63V37.5894H1050.75V15.8449H1068.65V37.5894H1080.98V56.1314V55.9628ZM1091.12 162.157V142.941C1093.48 143.11 1096.02 143.278 1098.38 143.278C1101.93 143.278 1104.8 142.772 1106.99 134.85L1108.01 130.973L1084.36 37.4209H1103.11L1116.96 104.509H1117.64L1131.49 37.4209H1150.57L1124.9 138.558C1121.18 153.055 1113.92 162.663 1100.07 162.663C1096.52 162.663 1093.31 162.663 1090.95 162.157M1180.13 83.1013C1180.13 54.9514 1192.46 36.0724 1212.39 36.0724C1232.32 36.0724 1244.65 54.9514 1244.65 83.1013C1244.65 111.251 1232.15 130.13 1212.39 130.13C1192.63 130.13 1180.13 111.251 1180.13 83.1013ZM1226.41 83.1013C1226.41 66.9193 1221.68 55.12 1212.56 55.12C1203.44 55.12 1198.37 67.0879 1198.37 83.1013C1198.37 99.1148 1203.27 110.914 1212.56 110.914C1221.85 110.914 1226.41 98.9462 1226.41 83.1013ZM1288.4 55.9628H1275.39V128.445H1257.49V55.9628H1248.2V37.4209H1257.49V30.5098C1257.49 11.4623 1265.93 1.34853 1279.11 1.34853C1283.16 1.34853 1286.54 1.85422 1289.75 2.8656V21.7446C1287.21 21.4075 1285.36 21.2389 1284.34 21.2389C1278.6 21.2389 1275.56 24.4416 1275.56 32.0269V37.5894H1288.57V56.1314L1288.4 55.9628ZM1322.85 6.91106H1341.09V60.6825H1342.28L1374.2 6.91106H1396.16L1363.39 61.1882L1396.5 128.276H1374.71L1350.38 78.0445L1341.09 93.5522V128.276H1322.85V6.91106ZM1394.81 83.1013C1394.81 54.9514 1407.14 36.0724 1427.07 36.0724C1447 36.0724 1459.33 54.9514 1459.33 83.1013C1459.33 111.251 1446.83 130.13 1427.07 130.13C1407.31 130.13 1394.81 111.251 1394.81 83.1013ZM1441.09 83.1013C1441.09 66.9193 1436.36 55.12 1427.07 55.12C1417.78 55.12 1412.88 67.0879 1412.88 83.1013C1412.88 99.1148 1417.78 110.914 1427.07 110.914C1436.36 110.914 1441.09 98.9462 1441.09 83.1013ZM1468.11 37.2523H1485.51V52.9286H1486.18C1488.55 41.6349 1494.63 35.9038 1502.06 35.9038C1503.92 35.9038 1506.11 36.2409 1507.8 36.7466V58.8284C1506.11 58.1541 1502.74 57.4798 1500.2 57.4798C1492.09 57.4798 1486.18 65.4023 1486.18 76.3589V128.108H1468.28V37.0838L1468.11 37.2523ZM1509.15 83.2699C1509.15 55.12 1521.65 36.0724 1540.91 36.0724C1558.3 36.0724 1571.82 51.243 1571.82 82.2585V89.3381H1526.89C1526.89 103.16 1532.8 111.588 1542.09 111.588C1548.17 111.588 1552.56 107.88 1554.25 102.317H1571.31C1568.78 119.174 1557.8 130.13 1541.58 130.13C1521.48 130.13 1509.15 112.094 1509.15 83.2699ZM1554.76 73.6619C1554.76 62.5367 1549.18 54.7828 1541.25 54.7828C1533.31 54.7828 1527.23 63.211 1526.89 73.6619H1554.93H1554.76ZM1601.71 74.8418C1606.44 74.5047 1615.22 73.8304 1618.1 73.6619V66.2451C1618.1 58.6598 1614.21 54.1086 1607.62 54.1086C1601.54 54.1086 1597.66 57.9855 1596.65 64.2223H1579.59C1580.6 48.3775 1590.57 36.0724 1608.13 36.0724C1622.49 36.0724 1636 45.0062 1636 66.9193V128.276H1619.11V115.634H1618.6C1615.39 124.062 1609.14 129.962 1599.35 129.962C1586.68 129.962 1577.39 120.859 1577.39 102.823C1577.39 82.5957 1589.21 75.8532 1601.88 74.8418M1604.42 112.937C1612.52 112.937 1618.43 105.352 1618.27 95.7435V89.0011C1615.56 89.1696 1607.96 89.6753 1604.75 90.181C1598.5 91.0238 1594.62 95.0693 1594.62 102.149C1594.62 109.229 1598.67 112.937 1604.42 112.937Z" fill="#568AED" fill-opacity="0.05"/>
</svg>
