<svg width="58" height="116" viewBox="0 0 58 116" fill="none" xmlns="http://www.w3.org/2000/svg">
<path d="M53.9853 30.4972H4.01514V52.9894H53.9853V30.4972Z" stroke="#222222" stroke-width="2" stroke-linecap="round" stroke-linejoin="round"/>
<path d="M20.3495 11.7716H9.97932L4.01514 30.4972H53.9853L48.0211 11.7716H37.4226" stroke="#222222" stroke-width="2" stroke-linecap="round" stroke-linejoin="round"/>
<path d="M36.7779 22.6826V4.01062H21.2227V22.6826" fill="#FFA021"/>
<path d="M36.7779 22.6826V4.01062H21.2227V22.6826" stroke="#222222" stroke-width="2" stroke-linecap="round" stroke-linejoin="round"/>
<path d="M21.2227 22.6826H36.7779" stroke="#2B2B2B" stroke-width="2" stroke-linecap="round" stroke-linejoin="round"/>
<path d="M36.7778 22.6826H41.7614C43.0778 22.6826 44.139 21.5165 44.139 20.0822C44.139 18.648 43.0778 17.4818 41.7614 17.4818H37.9331" stroke="#2B2B2B" stroke-width="2" stroke-linecap="round" stroke-linejoin="round"/>
<path d="M20.0673 17.4818H16.2389C14.9225 17.4818 13.8613 18.648 13.8613 20.0822C13.8613 21.5165 14.9225 22.6826 16.2389 22.6826H21.2225" stroke="#2B2B2B" stroke-width="2" stroke-linecap="round" stroke-linejoin="round"/>
<path d="M53.9853 88.4972H4.01514V110.989H53.9853V88.4972Z" stroke="white" stroke-width="2" stroke-linecap="round" stroke-linejoin="round"/>
<path d="M20.3495 69.7716H9.97932L4.01514 88.4972H53.9853L48.0211 69.7716H37.4226" stroke="white" stroke-width="2" stroke-linecap="round" stroke-linejoin="round"/>
<path d="M36.7779 80.6826V62.0106H21.2227V80.6826" fill="#FFA021"/>
<path d="M36.7779 80.6826V62.0106H21.2227V80.6826" stroke="white" stroke-width="2" stroke-linecap="round" stroke-linejoin="round"/>
<path d="M21.2227 80.6826H36.7779" stroke="white" stroke-width="2" stroke-linecap="round" stroke-linejoin="round"/>
<path d="M36.7778 80.6826H41.7614C43.0778 80.6826 44.139 79.5164 44.139 78.0822C44.139 76.6479 43.0778 75.4818 41.7614 75.4818H37.9331" stroke="white" stroke-width="2" stroke-linecap="round" stroke-linejoin="round"/>
<path d="M20.0673 75.4818H16.2389C14.9225 75.4818 13.8613 76.648 13.8613 78.0822C13.8613 79.5165 14.9225 80.6826 16.2389 80.6826H21.2225" stroke="white" stroke-width="2" stroke-linecap="round" stroke-linejoin="round"/>
</svg>
