<svg width="65" height="55" viewBox="0 0 65 55" fill="none" xmlns="http://www.w3.org/2000/svg">
<mask id="mask0_13_1646" style="mask-type:alpha" maskUnits="userSpaceOnUse" x="0" y="0" width="65" height="55">
<rect width="65" height="55" fill="#D9D9D9"/>
</mask>
<g mask="url(#mask0_13_1646)">
<g clip-path="url(#clip0_13_1646)">
<path d="M41.1648 17.5176H16.3018V24.7693H41.1648V17.5176Z" stroke="white" stroke-width="3" stroke-linecap="round" stroke-linejoin="round"/>
<path d="M41.1645 37.2002H31.8408V43.4159H41.1645V37.2002Z" stroke="white" stroke-width="3" stroke-linecap="round" stroke-linejoin="round"/>
<path d="M16.3018 11.3018H41.1648" stroke="white" stroke-width="3" stroke-linecap="round" stroke-linejoin="round"/>
<path d="M16.3018 30.9844H41.1648" stroke="white" stroke-width="3" stroke-linecap="round" stroke-linejoin="round"/>
<path d="M16.3018 37.2002H24.5894" stroke="white" stroke-width="3" stroke-linecap="round" stroke-linejoin="round"/>
<path d="M16.3018 43.416H24.5894" stroke="white" stroke-width="3" stroke-linecap="round" stroke-linejoin="round"/>
<path d="M52.5601 51.7039H13.1936C10.9042 51.7039 9.0498 49.8496 9.0498 47.5601V6.12172C9.0498 4.98217 9.98217 4.0498 11.1217 4.0498H46.3443C47.4839 4.0498 48.4162 4.98217 48.4162 6.12172V47.5601C48.4162 49.8496 50.2706 51.7039 52.5601 51.7039ZM52.5601 51.7039C54.8496 51.7039 56.7039 49.8496 56.7039 47.5601V12.3375C56.7039 11.1979 55.7716 10.2656 54.632 10.2656H51.5241" stroke="white" stroke-width="3" stroke-linecap="round" stroke-linejoin="round"/>
</g>
</g>
<defs>
<clipPath id="clip0_13_1646">
<rect width="49.726" height="49.726" fill="white" transform="translate(8.01367 3.01367)"/>
</clipPath>
</defs>
</svg>
