<svg width="58" height="116" viewBox="0 0 58 116" fill="none" xmlns="http://www.w3.org/2000/svg">
<path d="M18.1963 19.5589C18.1963 23.1836 15.2503 26.1179 11.6111 26.1179C7.97189 26.1179 5.02588 23.1836 5.02588 19.5589C5.02588 15.9343 7.97189 13 11.6111 13C15.2503 13 18.1963 15.9343 18.1963 19.5589Z" stroke="#222222" stroke-width="2" stroke-linecap="round" stroke-linejoin="round"/>
<path d="M52.9751 19.5589C52.9751 23.1836 50.0291 26.1179 46.3899 26.1179C42.7507 26.1179 39.8047 23.1836 39.8047 19.5589C39.8047 15.9343 42.7507 13 46.3899 13C50.0291 13 52.9751 15.9343 52.9751 19.5589Z" stroke="#222222" stroke-width="2" stroke-linecap="round" stroke-linejoin="round"/>
<path d="M21.3821 36.5803C19.7692 32.7963 16.01 30.1276 11.611 30.1276C5.75894 30.1276 1 34.8543 1 40.6962V46.7905H16.7165" stroke="#222222" stroke-width="2" stroke-linecap="round" stroke-linejoin="round"/>
<path d="M41.2843 46.8038H57.0008V40.7095C57.0008 34.8808 52.2552 30.1409 46.3898 30.1409C42.0041 30.1409 38.2316 32.7963 36.6187 36.5936" stroke="#222222" stroke-width="2" stroke-linecap="round" stroke-linejoin="round"/>
<path d="M35.5791 22.772C35.5791 26.3967 32.6331 29.331 28.9939 29.331C25.3547 29.331 22.4087 26.3967 22.4087 22.772C22.4087 19.1473 25.3547 16.2131 28.9939 16.2131C32.6331 16.2131 35.5791 19.1473 35.5791 22.772Z" fill="#FFA021" stroke="#222222" stroke-width="2" stroke-linecap="round" stroke-linejoin="round"/>
<path d="M36.6188 36.5803C34.6859 34.5887 31.9931 33.3539 28.9938 33.3539C25.9945 33.3539 23.3017 34.602 21.3688 36.5803C19.5292 38.4789 18.3828 40.0324 18.3828 42.887V50.0168H39.5914V42.887C39.5914 40.0324 38.445 38.4789 36.6054 36.5803H36.6188Z" stroke="#222222" stroke-width="2" stroke-linecap="round" stroke-linejoin="round"/>
<path d="M18.1963 77.5589C18.1963 81.1836 15.2503 84.1179 11.6111 84.1179C7.97189 84.1179 5.02588 81.1836 5.02588 77.5589C5.02588 73.9343 7.97189 71 11.6111 71C15.2503 71 18.1963 73.9343 18.1963 77.5589Z" stroke="white" stroke-width="2" stroke-linecap="round" stroke-linejoin="round"/>
<path d="M52.9751 77.5589C52.9751 81.1836 50.0291 84.1179 46.3899 84.1179C42.7507 84.1179 39.8047 81.1836 39.8047 77.5589C39.8047 73.9343 42.7507 71 46.3899 71C50.0291 71 52.9751 73.9343 52.9751 77.5589Z" stroke="white" stroke-width="2" stroke-linecap="round" stroke-linejoin="round"/>
<path d="M21.3821 94.5803C19.7692 90.7963 16.01 88.1276 11.611 88.1276C5.75894 88.1276 1 92.8543 1 98.6962V104.79H16.7165" stroke="white" stroke-width="2" stroke-linecap="round" stroke-linejoin="round"/>
<path d="M41.2843 104.804H57.0008V98.7095C57.0008 92.8808 52.2552 88.1409 46.3898 88.1409C42.0041 88.1409 38.2316 90.7963 36.6187 94.5936" stroke="white" stroke-width="2" stroke-linecap="round" stroke-linejoin="round"/>
<path d="M35.5791 80.772C35.5791 84.3967 32.6331 87.331 28.9939 87.331C25.3547 87.331 22.4087 84.3967 22.4087 80.772C22.4087 77.1473 25.3547 74.2131 28.9939 74.2131C32.6331 74.2131 35.5791 77.1473 35.5791 80.772Z" fill="#FFA021" stroke="white" stroke-width="2" stroke-linecap="round" stroke-linejoin="round"/>
<path d="M36.6188 94.5803C34.6859 92.5887 31.9931 91.3539 28.9938 91.3539C25.9945 91.3539 23.3017 92.602 21.3688 94.5803C19.5292 96.4789 18.3828 98.0324 18.3828 100.887V108.017H39.5914V100.887C39.5914 98.0324 38.445 96.4789 36.6054 94.5803H36.6188Z" stroke="white" stroke-width="2" stroke-linecap="round" stroke-linejoin="round"/>
</svg>
