<svg width="58" height="116" viewBox="0 0 58 116" fill="none" xmlns="http://www.w3.org/2000/svg">
<mask id="mask0_31_1967" style="mask-type:alpha" maskUnits="userSpaceOnUse" x="0" y="0" width="58" height="116">
<rect width="58" height="116" fill="#D9D9D9"/>
</mask>
<g mask="url(#mask0_31_1967)">
<g clip-path="url(#clip0_31_1967)">
<path d="M52.2775 91.8231V111.279H32.9175C22.1386 111.279 13.3984 102.567 13.3984 91.8231C13.3984 81.0791 22.1386 72.3672 32.9175 72.3672C43.6963 72.3672 52.2775 81.0791 52.2775 91.8231Z" fill="#FFA021" stroke="white" stroke-width="2" stroke-linecap="round" stroke-linejoin="round"/>
<path d="M4.72266 83.1766V102.632H24.0826C34.8615 102.632 43.6017 93.9206 43.6017 83.1766C43.6017 72.4326 34.8687 63.7207 24.0826 63.7207C13.2966 63.7207 4.72266 72.4326 4.72266 83.1766Z" fill="#568AED" stroke="white" stroke-width="2" stroke-linecap="round" stroke-linejoin="round"/>
<path d="M33.5597 86.6426C35.1567 86.6426 36.4514 85.3522 36.4514 83.7603C36.4514 82.1684 35.1567 80.8779 33.5597 80.8779C31.9626 80.8779 30.668 82.1684 30.668 83.7603C30.668 85.3522 31.9626 86.6426 33.5597 86.6426Z" fill="white"/>
<path d="M24.1622 86.6426C25.7593 86.6426 27.0539 85.3522 27.0539 83.7603C27.0539 82.1684 25.7593 80.8779 24.1622 80.8779C22.5652 80.8779 21.2705 82.1684 21.2705 83.7603C21.2705 85.3522 22.5652 86.6426 24.1622 86.6426Z" fill="white"/>
<path d="M14.7638 86.6426C16.3608 86.6426 17.6555 85.3522 17.6555 83.7603C17.6555 82.1684 16.3608 80.8779 14.7638 80.8779C13.1667 80.8779 11.8721 82.1684 11.8721 83.7603C11.8721 85.3522 13.1667 86.6426 14.7638 86.6426Z" fill="white"/>
</g>
<g clip-path="url(#clip1_31_1967)">
<path d="M52.2775 32.8231V52.279H32.9175C22.1386 52.279 13.3984 43.567 13.3984 32.8231C13.3984 22.0791 22.1386 13.3672 32.9175 13.3672C43.6963 13.3672 52.2775 22.0791 52.2775 32.8231Z" fill="#FFA021" stroke="#222222" stroke-width="2" stroke-linecap="round" stroke-linejoin="round"/>
<path d="M4.72266 24.1766V43.6325H24.0826C34.8615 43.6325 43.6017 34.9206 43.6017 24.1766C43.6017 13.4326 34.8687 4.7207 24.0826 4.7207C13.2966 4.7207 4.72266 13.4326 4.72266 24.1766Z" fill="white" stroke="#222222" stroke-width="2" stroke-linecap="round" stroke-linejoin="round"/>
<path d="M33.5597 27.6426C35.1567 27.6426 36.4514 26.3522 36.4514 24.7603C36.4514 23.1684 35.1567 21.8779 33.5597 21.8779C31.9626 21.8779 30.668 23.1684 30.668 24.7603C30.668 26.3522 31.9626 27.6426 33.5597 27.6426Z" fill="#222222"/>
<path d="M24.1622 27.6426C25.7593 27.6426 27.0539 26.3522 27.0539 24.7603C27.0539 23.1684 25.7593 21.8779 24.1622 21.8779C22.5652 21.8779 21.2705 23.1684 21.2705 24.7603C21.2705 26.3522 22.5652 27.6426 24.1622 27.6426Z" fill="#222222"/>
<path d="M14.7638 27.6426C16.3608 27.6426 17.6555 26.3522 17.6555 24.7603C17.6555 23.1684 16.3608 21.8779 14.7638 21.8779C13.1667 21.8779 11.8721 23.1684 11.8721 24.7603C11.8721 26.3522 13.1667 27.6426 14.7638 27.6426Z" fill="#222222"/>
</g>
</g>
<defs>
<clipPath id="clip0_31_1967">
<rect width="49" height="49" fill="white" transform="translate(4 63)"/>
</clipPath>
<clipPath id="clip1_31_1967">
<rect width="49" height="49" fill="white" transform="translate(4 4)"/>
</clipPath>
</defs>
</svg>
