<svg width="65" height="55" viewBox="0 0 65 55" fill="none" xmlns="http://www.w3.org/2000/svg">
<g clip-path="url(#clip0_17_1602)">
<path d="M40.5448 42.9551L22.8242 32.5393V17.2107L40.5448 6.79492V42.9551Z" stroke="#5671E5" stroke-width="2.5" stroke-linecap="round" stroke-linejoin="round"/>
<path d="M22.8237 17.2109H8.20605V32.5395H22.8237V17.2109Z" stroke="#5671E5" stroke-width="2.5" stroke-linecap="round" stroke-linejoin="round"/>
<path d="M8.20588 17.2109H2V32.5395H8.20588V17.2109Z" stroke="#5671E5" stroke-width="2.5" stroke-linecap="round" stroke-linejoin="round"/>
<path d="M17.6914 53.3125C20.3532 53.3125 22.2502 50.7159 21.4267 48.1783L16.4414 32.5547H8.19141L13.9414 50.5831C14.4561 52.2207 15.9708 53.3272 17.6767 53.3272L17.6914 53.3125Z" stroke="#5671E5" stroke-width="2.5" stroke-linecap="round" stroke-linejoin="round"/>
<path d="M48.1479 5.82108C48.1479 3.71076 46.4459 2 44.3464 2C42.2469 2 40.5449 3.71076 40.5449 5.82108V43.8991C40.5449 46.0095 42.2469 47.7202 44.3464 47.7202C46.4459 47.7202 48.1479 46.0095 48.1479 43.8991V5.82108Z" stroke="#5671E5" stroke-width="2.5" stroke-linecap="round" stroke-linejoin="round"/>
<path d="M59.1328 24.8828H63.324" stroke="#5671E5" stroke-width="2.5" stroke-linecap="round" stroke-linejoin="round"/>
<path d="M57.1914 14.7032L61.0885 13.1836" stroke="#5671E5" stroke-width="2.5" stroke-linecap="round" stroke-linejoin="round"/>
<path d="M57.1914 35.0479L61.0885 36.5674" stroke="#5671E5" stroke-width="2.5" stroke-linecap="round" stroke-linejoin="round"/>
</g>
<defs>
<clipPath id="clip0_17_1602">
<rect width="65" height="55" fill="white"/>
</clipPath>
</defs>
</svg>
